<svg xmlns="http://www.w3.org/2000/svg" xmlns:ev="http://www.w3.org/2001/xml-events" xmlns:xlink="http://www.w3.org/1999/xlink" baseProfile="full" height="300" version="1.1" width="800"><defs><style type="text/css"><![CDATA[.background path {fill: #808080; fill-opacity: 0}.background path:nth-child(odd) {fill-opacity: .1}.axes {font-size: 14px}.x-axis .tick .lab {font-weight: bold; dominant-baseline: hanging}.axes, .tree {font-size: 14px; text-anchor: middle}.axes line, .edge {stroke: black; fill: none}.axes .ax-skip {stroke-dasharray: 4}.y-axis .grid {stroke: #FAFAFA}.node > .sym {fill: black; stroke: none}.site > .sym {stroke: black}.mut text {fill: red; font-style: italic}.mut.extra text {fill: hotpink}.mut line {fill: none; stroke: none}.mut .sym {fill: none; stroke: red}.mut.extra .sym {stroke: hotpink}.node .mut .sym {stroke-width: 1.5px}.tree text, .tree-sequence text {dominant-baseline: central}.plotbox .lab.lft {text-anchor: end}.plotbox .lab.rgt {text-anchor: start}]]></style></defs><g class="tree-sequence"><g class="background"><path d="M20,0 l760,0 l0,238.2 l0,25 l0,5 l-760,0 l0,-5 l0,-25 l0,-238.2z"/></g><g class="axes"><g class="x-axis"><g class="title" transform="translate(400 300)"><text class="lab" text-anchor="middle" transform="translate(0 -11)">Genome position</text></g><line class="ax-line" x1="20" x2="780" y1="263.2" y2="263.2"/><g class="ticks"><g class="tick" transform="translate(20 263.2)"><line x1="0" x2="0" y1="0" y2="5"/><g transform="translate(0 6)"><text class="lab">0</text></g></g></g></g></g><g class="plotbox trees"><g class="tree t-1" transform="translate(20 0)"><g class="plotbox"><g class="c2 node n22 p1 root" transform="translate(352.344 26.8)"><g class="a22 c2 node n20 p3" transform="translate(189.844 146.352)"><g class="a20 i3 leaf node n5 p4 sample" transform="translate(167.812 48.2479)"><path class="edge" d="M 0 0 V -48.2479 H -167.812"/><rect class="sym" height="6" width="6" x="-3" y="-3"/><text class="lab" transform="translate(0 11)">B</text></g><g class="a20 c2 node n18 p3" transform="translate(-167.812 21.7116)"><g class="a18 i3 leaf node n4 p4 sample" transform="translate(-84.375 26.5364)"><path class="edge" d="M 0 0 V -26.5364 H 84.375"/><rect class="sym" height="6" width="6" x="-3" y="-3"/><text class="lab" transform="translate(0 11)">B</text></g><g class="a18 c2 node n17 p3" transform="translate(84.375 6.03099)"><g class="a17 c2 node n14 p4" transform="translate(-78.75 8.84545)"><g class="a14 i2 leaf node n6 p4 sample" transform="translate(-30 11.6599)"><path class="edge" d="M 0 0 V -11.6599 H 30"/><rect class="sym" height="6" width="6" x="-3" y="-3"/><text class="lab" transform="translate(0 11)">B</text></g><g class="a14 i2 leaf node n7 p4 sample" transform="translate(30 11.6599)"><path class="edge" d="M 0 0 V -11.6599 H -30"/><rect class="sym" height="6" width="6" x="-3" y="-3"/><text class="lab" transform="translate(0 11)">B</text></g><path class="edge" d="M 0 0 V -8.84545 H 78.75"/><circle class="sym" cx="0" cy="0" r="3"/><text class="lab lft" transform="translate(-3 -7.0)"/></g><g class="a17 c2 node n15 p5" transform="translate(78.75 7.63926)"><g class="a15 i5 leaf node n8 p5 sample" transform="translate(-67.5 12.8661)"><path class="edge" d="M 0 0 V -12.8661 H 67.5"/><rect class="sym" height="6" width="6" x="-3" y="-3"/><text class="lab" transform="translate(0 11)">A</text></g><g class="a15 c2 node n13 p5" transform="translate(67.5 6.03099)"><g class="a13 i4 leaf node n10 p5 sample" transform="translate(45 6.83512)"><path class="edge" d="M 0 0 V -6.83512 H -45"/><rect class="sym" height="6" width="6" x="-3" y="-3"/><text class="lab" transform="translate(0 11)">A</text></g><g class="a13 c2 node n12 p5" transform="translate(-45 5.62893)"><g class="a12 i5 leaf node n9 p5 sample" transform="translate(-30 1.2062)"><path class="edge" d="M 0 0 V -1.2062 H 30"/><rect class="sym" height="6" width="6" x="-3" y="-3"/><text class="lab" transform="translate(0 11)">A</text></g><g class="a12 i4 leaf node n11 p5 sample" transform="translate(30 1.2062)"><path class="edge" d="M 0 0 V -1.2062 H -30"/><rect class="sym" height="6" width="6" x="-3" y="-3"/><text class="lab" transform="translate(0 11)">A</text></g><path class="edge" d="M 0 0 V -5.62893 H 45"/><circle class="sym" cx="0" cy="0" r="3"/><text class="lab lft" transform="translate(-3 -7.0)"/></g><path class="edge" d="M 0 0 V -6.03099 H -67.5"/><circle class="sym" cx="0" cy="0" r="3"/><text class="lab rgt" transform="translate(3 -7.0)"/></g><path class="edge" d="M 0 0 V -7.63926 H -78.75"/><circle class="sym" cx="0" cy="0" r="3"/><text class="lab rgt" transform="translate(3 -7.0)"/></g><path class="edge" d="M 0 0 V -6.03099 H -84.375"/><circle class="sym" cx="0" cy="0" r="3"/><text class="lab rgt" transform="translate(3 -7.0)"/></g><path class="edge" d="M 0 0 V -21.7116 H 167.812"/><circle class="sym" cx="0" cy="0" r="3"/><text class="lab lft" transform="translate(-3 -7.0)"/></g><path class="edge" d="M 0 0 V -146.352 H -189.844"/><circle class="sym" cx="0" cy="0" r="3"/><text class="lab rgt" transform="translate(3 -7.0)"/></g><g class="a22 c2 node n21 p2" transform="translate(-189.844 134.29)"><g class="a21 i1 leaf node n3 p2 sample" transform="translate(67.5 60.3099)"><path class="edge" d="M 0 0 V -60.3099 H -67.5"/><rect class="sym" height="6" width="6" x="-3" y="-3"/><text class="lab" transform="translate(0 11)">C</text></g><g class="a21 c2 node n19 p2" transform="translate(-67.5 30.155)"><g class="a19 i0 leaf node n0 p2 sample" transform="translate(-45 30.155)"><path class="edge" d="M 0 0 V -30.155 H 45"/><rect class="sym" height="6" width="6" x="-3" y="-3"/><text class="lab" transform="translate(0 11)">C</text></g><g class="a19 c2 node n16 p2" transform="translate(45 16.8868)"><g class="a16 i0 leaf node n1 p2 sample" transform="translate(-30 13.2682)"><path class="edge" d="M 0 0 V -13.2682 H 30"/><rect class="sym" height="6" width="6" x="-3" y="-3"/><text class="lab" transform="translate(0 11)">C</text></g><g class="a16 i1 leaf node n2 p2 sample" transform="translate(30 13.2682)"><path class="edge" d="M 0 0 V -13.2682 H -30"/><rect class="sym" height="6" width="6" x="-3" y="-3"/><text class="lab" transform="translate(0 11)">C</text></g><path class="edge" d="M 0 0 V -16.8868 H -45"/><circle class="sym" cx="0" cy="0" r="3"/><text class="lab rgt" transform="translate(3 -7.0)"/></g><path class="edge" d="M 0 0 V -30.155 H 67.5"/><circle class="sym" cx="0" cy="0" r="3"/><text class="lab lft" transform="translate(-3 -7.0)"/></g><path class="edge" d="M 0 0 V -134.29 H 189.844"/><circle class="sym" cx="0" cy="0" r="3"/><text class="lab lft" transform="translate(-3 -7.0)"/></g><circle class="sym" cx="0" cy="0" r="3"/><text class="lab" transform="translate(0 -11)"/></g></g></g></g></g></svg>