<svg xmlns="http://www.w3.org/2000/svg" xmlns:ev="http://www.w3.org/2001/xml-events" xmlns:xlink="http://www.w3.org/1999/xlink" baseProfile="full" height="300" version="1.1" width="800"><defs><style type="text/css"><![CDATA[.background path {fill: #808080; fill-opacity: 0}.background path:nth-child(odd) {fill-opacity: .1}.x-regions rect {fill: yellow; stroke: black; opacity: 0.5}.axes {font-size: 14px}.x-axis .tick .lab {font-weight: bold; dominant-baseline: hanging}.axes, .tree {font-size: 14px; text-anchor: middle}.axes line, .edge {stroke: black; fill: none}.axes .ax-skip {stroke-dasharray: 4}.y-axis .grid {stroke: #FAFAFA}.node > .sym {fill: black; stroke: none}.site > .sym {stroke: black}.mut text {fill: red; font-style: italic}.mut.extra text {fill: hotpink}.mut line {fill: none; stroke: none}.mut .sym {fill: none; stroke: red}.mut.extra .sym {stroke: hotpink}.node .mut .sym {stroke-width: 1.5px}.tree text, .tree-sequence text {dominant-baseline: central}.plotbox .lab.lft {text-anchor: end}.plotbox .lab.rgt {text-anchor: start}.polytomy line {stroke: black; stroke-dasharray: 1px, 1px}.polytomy text {paint-order:stroke;stroke-width:0.3em;stroke:white}]]></style></defs><g class="tree-sequence"><g class="background"><path d="M20,0 l760,0 l0,238.2 l0,25 l0,5 l-760,0 l0,-5 l0,-25 l0,-238.2z"/></g><g class="axes"><g class="x-axis"><g class="title" transform="translate(400 300)"><text class="lab" text-anchor="middle" transform="translate(0 -11)">Genome position</text></g><line class="ax-line" x1="20" x2="780" y1="263.2" y2="263.2"/><g class="ticks"><g class="tick" transform="translate(20 263.2)"><line x1="0" x2="0" y1="0" y2="5"/><g transform="translate(0 6)"><text class="lab">0</text></g></g></g></g></g><g class="plotbox trees"><g class="tree t-1" transform="translate(20 0)"><g class="plotbox"><g class="c2 node n22 p1 root" transform="translate(483.125 26.8)"><g class="a22 c2 node n17 p3" transform="translate(136.875 180.005)"><g class="a17 c2 node n15 p4" transform="translate(-60 8.57167)"><g class="a15 i3 leaf node n4 p4 sample" transform="translate(-30 6.02333)"><path class="edge" d="M 0 0 V -6.02333 H 30"/><rect class="sym" height="6" width="6" x="-3" y="-3"/><text class="lab" transform="translate(0 11)">B</text></g><g class="a15 i2 leaf node n7 p4 sample" transform="translate(30 6.02333)"><path class="edge" d="M 0 0 V -6.02333 H -30"/><rect class="sym" height="6" width="6" x="-3" y="-3"/><text class="lab" transform="translate(0 11)">B</text></g><path class="edge" d="M 0 0 V -8.57167 H 60"/><circle class="sym" cx="0" cy="0" r="3"/><text class="lab lft" transform="translate(-3 -7)"/></g><g class="a17 c2 node n16 p3" transform="translate(60 2.54833)"><g class="a16 i3 leaf node n5 p4 sample" transform="translate(-30 12.0467)"><path class="edge" d="M 0 0 V -12.0467 H 30"/><rect class="sym" height="6" width="6" x="-3" y="-3"/><text class="lab" transform="translate(0 11)">B</text></g><g class="a16 i2 leaf node n6 p4 sample" transform="translate(30 12.0467)"><path class="edge" d="M 0 0 V -12.0467 H -30"/><rect class="sym" height="6" width="6" x="-3" y="-3"/><text class="lab" transform="translate(0 11)">B</text></g><path class="edge" d="M 0 0 V -2.54833 H -60"/><circle class="sym" cx="0" cy="0" r="3"/><text class="lab rgt" transform="translate(3 -7)"/></g><path class="edge" d="M 0 0 V -180.005 H -136.875"/><circle class="sym" cx="0" cy="0" r="3"/><text class="lab rgt" transform="translate(3 -7)"/></g><g class="a22 c2 node n21 p1" transform="translate(-136.875 50.9667)"><g class="a21 i1 leaf node n2 p2 sample" transform="translate(123.75 143.633)"><path class="edge" d="M 0 0 V -143.633 H -123.75"/><rect class="sym" height="6" width="6" x="-3" y="-3"/><text class="lab" transform="translate(0 11)">C</text></g><g class="a21 c2 node n20 p1" transform="translate(-123.75 6.255)"><g class="a20 c2 node n14 p2" transform="translate(-97.5 134.83)"><g class="a14 i0 leaf node n1 p2 sample" transform="translate(45 2.54833)"><path class="edge" d="M 0 0 V -2.54833 H -45"/><rect class="sym" height="6" width="6" x="-3" y="-3"/><text class="lab" transform="translate(0 11)">C</text></g><g class="a14 c2 node n12 p2" transform="translate(-45 1.15833)"><g class="a12 i0 leaf node n0 p2 sample" transform="translate(-30 1.39)"><path class="edge" d="M 0 0 V -1.39 H 30"/><rect class="sym" height="6" width="6" x="-3" y="-3"/><text class="lab" transform="translate(0 11)">C</text></g><g class="a12 i1 leaf node n3 p2 sample" transform="translate(30 1.39)"><path class="edge" d="M 0 0 V -1.39 H -30"/><rect class="sym" height="6" width="6" x="-3" y="-3"/><text class="lab" transform="translate(0 11)">C</text></g><path class="edge" d="M 0 0 V -1.15833 H 45"/><circle class="sym" cx="0" cy="0" r="3"/><text class="lab lft" transform="translate(-3 -7)"/></g><path class="edge" d="M 0 0 V -134.83 H 97.5"/><circle class="sym" cx="0" cy="0" r="3"/><text class="lab lft" transform="translate(-3 -7)"/></g><g class="a20 c2 node n19 p3" transform="translate(97.5 95.91)"><g class="a19 c2 node n13 p5" transform="translate(-60 39.8467)"><g class="a13 i5 leaf node n8 p5 sample" transform="translate(-30 1.62167)"><path class="edge" d="M 0 0 V -1.62167 H 30"/><rect class="sym" height="6" width="6" x="-3" y="-3"/><text class="lab" transform="translate(0 11)">A</text></g><g class="a13 i4 leaf node n10 p5 sample" transform="translate(30 1.62167)"><path class="edge" d="M 0 0 V -1.62167 H -30"/><rect class="sym" height="6" width="6" x="-3" y="-3"/><text class="lab" transform="translate(0 11)">A</text></g><path class="edge" d="M 0 0 V -39.8467 H 60"/><circle class="sym" cx="0" cy="0" r="3"/><text class="lab lft" transform="translate(-3 -7)"/></g><g class="a19 c2 node n18 p3" transform="translate(60 17.8383)"><g class="a18 i5 leaf node n9 p5 sample" transform="translate(-30 23.63)"><path class="edge" d="M 0 0 V -23.63 H 30"/><rect class="sym" height="6" width="6" x="-3" y="-3"/><text class="lab" transform="translate(0 11)">A</text></g><g class="a18 i4 leaf node n11 p5 sample" transform="translate(30 23.63)"><path class="edge" d="M 0 0 V -23.63 H -30"/><rect class="sym" height="6" width="6" x="-3" y="-3"/><text class="lab" transform="translate(0 11)">A</text></g><path class="edge" d="M 0 0 V -17.8383 H -60"/><circle class="sym" cx="0" cy="0" r="3"/><text class="lab rgt" transform="translate(3 -7)"/></g><path class="edge" d="M 0 0 V -95.91 H -97.5"/><circle class="sym" cx="0" cy="0" r="3"/><text class="lab rgt" transform="translate(3 -7)"/></g><path class="edge" d="M 0 0 V -6.255 H 123.75"/><circle class="sym" cx="0" cy="0" r="3"/><text class="lab lft" transform="translate(-3 -7)"/></g><path class="edge" d="M 0 0 V -50.9667 H 136.875"/><circle class="sym" cx="0" cy="0" r="3"/><text class="lab lft" transform="translate(-3 -7)"/></g><circle class="sym" cx="0" cy="0" r="3"/><text class="lab" transform="translate(0 -11)"/></g></g></g></g></g></svg>