<svg xmlns="http://www.w3.org/2000/svg" xmlns:ev="http://www.w3.org/2001/xml-events" xmlns:xlink="http://www.w3.org/1999/xlink" baseProfile="full" height="300" version="1.1" width="800"><defs><style type="text/css"><![CDATA[.background path {fill: #808080; fill-opacity: 0}.background path:nth-child(odd) {fill-opacity: .1}.axes {font-size: 14px}.x-axis .tick .lab {font-weight: bold; dominant-baseline: hanging}.axes, .tree {font-size: 14px; text-anchor: middle}.axes line, .edge {stroke: black; fill: none}.axes .ax-skip {stroke-dasharray: 4}.y-axis .grid {stroke: #FAFAFA}.node > .sym {fill: black; stroke: none}.site > .sym {stroke: black}.mut text {fill: red; font-style: italic}.mut.extra text {fill: hotpink}.mut line {fill: none; stroke: none}.mut .sym {fill: none; stroke: red}.mut.extra .sym {stroke: hotpink}.node .mut .sym {stroke-width: 1.5px}.tree text, .tree-sequence text {dominant-baseline: central}.plotbox .lab.lft {text-anchor: end}.plotbox .lab.rgt {text-anchor: start}]]></style></defs><g class="tree-sequence"><g class="background"><path d="M20,0 l760,0 l0,238.2 l0,25 l0,5 l-760,0 l0,-5 l0,-25 l0,-238.2z"/></g><g class="axes"><g class="x-axis"><g class="title" transform="translate(400 300)"><text class="lab" text-anchor="middle" transform="translate(0 -11)">Genome position</text></g><line class="ax-line" x1="20" x2="780" y1="263.2" y2="263.2"/><g class="ticks"><g class="tick" transform="translate(20 263.2)"><line x1="0" x2="0" y1="0" y2="5"/><g transform="translate(0 6)"><text class="lab">0</text></g></g></g></g></g><g class="plotbox trees"><g class="tree t-1" transform="translate(20 0)"><g class="plotbox"><g class="c2 node n25 p1 root" transform="translate(373.438 26.8)"><g class="a25 c2 node n18 p2" transform="translate(-233.438 185.059)"><g class="a18 c2 node n16 p2" transform="translate(60 5.40056)"><g class="a16 i0 leaf node n1 p2 sample" transform="translate(-30 4.14043)"><path class="edge" d="M 0 0 V -4.14043 H 30"/><rect class="sym" height="6" width="6" x="-3" y="-3"/><text class="lab" transform="translate(0 11)">C</text></g><g class="a16 i1 leaf node n2 p2 sample" transform="translate(30 4.14043)"><path class="edge" d="M 0 0 V -4.14043 H -30"/><rect class="sym" height="6" width="6" x="-3" y="-3"/><text class="lab" transform="translate(0 11)">C</text></g><path class="edge" d="M 0 0 V -5.40056 H -60"/><circle class="sym" cx="0" cy="0" r="3"/><text class="lab rgt" transform="translate(3 -7.0)"/></g><g class="a18 c2 node n17 p2" transform="translate(-60 1.80019)"><g class="a17 i0 leaf node n0 p2 sample" transform="translate(-30 7.7408)"><path class="edge" d="M 0 0 V -7.7408 H 30"/><rect class="sym" height="6" width="6" x="-3" y="-3"/><text class="lab" transform="translate(0 11)">C</text></g><g class="a17 i1 leaf node n3 p2 sample" transform="translate(30 7.7408)"><path class="edge" d="M 0 0 V -7.7408 H -30"/><rect class="sym" height="6" width="6" x="-3" y="-3"/><text class="lab" transform="translate(0 11)">C</text></g><path class="edge" d="M 0 0 V -1.80019 H 60"/><circle class="sym" cx="0" cy="0" r="3"/><text class="lab lft" transform="translate(-3 -7.0)"/></g><path class="edge" d="M 0 0 V -185.059 H 233.438"/><circle class="sym" cx="0" cy="0" r="3"/><text class="lab lft" transform="translate(-3 -7.0)"/></g><g class="a25 c2 node n22 p1" transform="translate(233.438 46.8048)"><g class="a22 i5 leaf node n9 p5 sample" transform="translate(103.125 147.795)"><path class="edge" d="M 0 0 V -147.795 H -103.125"/><rect class="sym" height="6" width="6" x="-3" y="-3"/><text class="lab" transform="translate(0 11)">A</text></g><g class="a22 c2 node n20 p1" transform="translate(-103.125 92.1695)"><g class="a20 c2 node n14 p4" transform="translate(-101.25 52.7454)"><g class="a14 i2 leaf node n6 p4 sample" transform="translate(67.5 2.8803)"><path class="edge" d="M 0 0 V -2.8803 H -67.5"/><rect class="sym" height="6" width="6" x="-3" y="-3"/><text class="lab" transform="translate(0 11)">B</text></g><g class="a14 c2 node n13 p4" transform="translate(-67.5 0.900093)"><g class="a13 i3 leaf node n4 p4 sample" transform="translate(-45 1.9802)"><path class="edge" d="M 0 0 V -1.9802 H 45"/><rect class="sym" height="6" width="6" x="-3" y="-3"/><text class="lab" transform="translate(0 11)">B</text></g><g class="a13 c2 node n12 p4" transform="translate(45 0.360037)"><g class="a12 i3 leaf node n5 p4 sample" transform="translate(-30 1.62017)"><path class="edge" d="M 0 0 V -1.62017 H 30"/><rect class="sym" height="6" width="6" x="-3" y="-3"/><text class="lab" transform="translate(0 11)">B</text></g><g class="a12 i2 leaf node n7 p4 sample" transform="translate(30 1.62017)"><path class="edge" d="M 0 0 V -1.62017 H -30"/><rect class="sym" height="6" width="6" x="-3" y="-3"/><text class="lab" transform="translate(0 11)">B</text></g><path class="edge" d="M 0 0 V -0.360037 H -45"/><circle class="sym" cx="0" cy="0" r="3"/><text class="lab rgt" transform="translate(3 -7.0)"/></g><path class="edge" d="M 0 0 V -0.900093 H 67.5"/><circle class="sym" cx="0" cy="0" r="3"/><text class="lab lft" transform="translate(-3 -7.0)"/></g><path class="edge" d="M 0 0 V -52.7454 H 101.25"/><circle class="sym" cx="0" cy="0" r="3"/><text class="lab lft" transform="translate(-3 -7.0)"/></g><g class="a20 c2 node n19 p3" transform="translate(101.25 13.6814)"><g class="a19 i4 leaf node n11 p5 sample" transform="translate(45 41.9443)"><path class="edge" d="M 0 0 V -41.9443 H -45"/><rect class="sym" height="6" width="6" x="-3" y="-3"/><text class="lab" transform="translate(0 11)">A</text></g><g class="a19 c2 node n15 p5" transform="translate(-45 38.884)"><g class="a15 i5 leaf node n8 p5 sample" transform="translate(-30 3.06031)"><path class="edge" d="M 0 0 V -3.06031 H 30"/><rect class="sym" height="6" width="6" x="-3" y="-3"/><text class="lab" transform="translate(0 11)">A</text></g><g class="a15 i4 leaf node n10 p5 sample" transform="translate(30 3.06031)"><path class="edge" d="M 0 0 V -3.06031 H -30"/><rect class="sym" height="6" width="6" x="-3" y="-3"/><text class="lab" transform="translate(0 11)">A</text></g><path class="edge" d="M 0 0 V -38.884 H 45"/><circle class="sym" cx="0" cy="0" r="3"/><text class="lab lft" transform="translate(-3 -7.0)"/></g><path class="edge" d="M 0 0 V -13.6814 H -101.25"/><circle class="sym" cx="0" cy="0" r="3"/><text class="lab rgt" transform="translate(3 -7.0)"/></g><path class="edge" d="M 0 0 V -92.1695 H 103.125"/><circle class="sym" cx="0" cy="0" r="3"/><text class="lab lft" transform="translate(-3 -7.0)"/></g><path class="edge" d="M 0 0 V -46.8048 H -233.438"/><circle class="sym" cx="0" cy="0" r="3"/><text class="lab rgt" transform="translate(3 -7.0)"/></g><circle class="sym" cx="0" cy="0" r="3"/><text class="lab" transform="translate(0 -11)"/></g></g></g></g></g></svg>