<svg xmlns="http://www.w3.org/2000/svg" xmlns:ev="http://www.w3.org/2001/xml-events" xmlns:xlink="http://www.w3.org/1999/xlink" baseProfile="full" height="300" version="1.1" width="800"><defs><style type="text/css"><![CDATA[.background path {fill: #808080; fill-opacity: 0}.background path:nth-child(odd) {fill-opacity: .1}.axes {font-size: 14px}.x-axis .tick .lab {font-weight: bold; dominant-baseline: hanging}.axes, .tree {font-size: 14px; text-anchor: middle}.axes line, .edge {stroke: black; fill: none}.axes .ax-skip {stroke-dasharray: 4}.y-axis .grid {stroke: #FAFAFA}.node > .sym {fill: black; stroke: none}.site > .sym {stroke: black}.mut text {fill: red; font-style: italic}.mut.extra text {fill: hotpink}.mut line {fill: none; stroke: none}.mut .sym {fill: none; stroke: red}.mut.extra .sym {stroke: hotpink}.node .mut .sym {stroke-width: 1.5px}.tree text, .tree-sequence text {dominant-baseline: central}.plotbox .lab.lft {text-anchor: end}.plotbox .lab.rgt {text-anchor: start}]]></style></defs><g class="tree-sequence"><g class="background"><path d="M20,0 l760,0 l0,238.2 l0,25 l0,5 l-760,0 l0,-5 l0,-25 l0,-238.2z"/></g><g class="axes"><g class="x-axis"><g class="title" transform="translate(400 300)"><text class="lab" text-anchor="middle" transform="translate(0 -11)">Genome position</text></g><line class="ax-line" x1="20" x2="780" y1="263.2" y2="263.2"/><g class="ticks"><g class="tick" transform="translate(20 263.2)"><line x1="0" x2="0" y1="0" y2="5"/><g transform="translate(0 6)"><text class="lab">0</text></g></g></g><g class="site s0" transform="translate(587.582 263.2)"><line class="sym" x1="0" x2="0" y1="0" y2="-10"/><g class="mut m0"><polyline class="sym" points="2.5,-6.5 0,-1.5 -2.5,-6.5"/></g></g></g></g><g class="plotbox trees"><g class="tree t-1" transform="translate(20 0)"><g class="plotbox"><g class="c2 node n23 p1 root" transform="translate(477.5 26.8)"><g class="a23 c2 node n20 p3" transform="translate(187.5 156.322)"><g class="a20 i4 leaf node n11 p5 sample" transform="translate(45 38.2776)"><path class="edge" d="M 0 0 V -38.2776 H -45"/><rect class="sym" height="6" width="6" x="-3" y="-3"/><text class="lab" transform="translate(0 11)">A</text></g><g class="a20 c2 node n15 p4" transform="translate(-45 29.712)"><g class="a15 i2 leaf node n6 p4 sample" transform="translate(-30 8.56561)"><path class="edge" d="M 0 0 V -8.56561 H 30"/><rect class="sym" height="6" width="6" x="-3" y="-3"/><text class="lab" transform="translate(0 11)">B</text></g><g class="a15 i2 leaf node n7 p4 sample" transform="translate(30 8.56561)"><path class="edge" d="M 0 0 V -8.56561 H -30"/><rect class="sym" height="6" width="6" x="-3" y="-3"/><text class="lab" transform="translate(0 11)">B</text></g><path class="edge" d="M 0 0 V -29.712 H 45"/><circle class="sym" cx="0" cy="0" r="3"/><text class="lab lft" transform="translate(-3 -7.0)"/></g><path class="edge" d="M 0 0 V -156.322 H -187.5"/><circle class="sym" cx="0" cy="0" r="3"/><text class="lab rgt" transform="translate(3 -7.0)"/></g><g class="a23 c2 node n22 p1" transform="translate(-187.5 95.0248)"><g class="a22 c2 m0 node n17 p2 s0" transform="translate(-112.5 87.5298)"><g class="a17 i1 leaf node n2 p2 sample" transform="translate(52.5 12.0454)"><path class="edge" d="M 0 0 V -12.0454 H -52.5"/><rect class="sym" height="6" width="6" x="-3" y="-3"/><text class="lab" transform="translate(0 11)">C</text></g><g class="a17 c2 node n16 p2" transform="translate(-52.5 2.40908)"><g class="a16 i1 leaf node n3 p2 sample" transform="translate(45 9.63631)"><path class="edge" d="M 0 0 V -9.63631 H -45"/><rect class="sym" height="6" width="6" x="-3" y="-3"/><text class="lab" transform="translate(0 11)">C</text></g><g class="a16 c2 node n14 p2" transform="translate(-45 5.88886)"><g class="a14 i0 leaf node n0 p2 sample" transform="translate(-30 3.74746)"><path class="edge" d="M 0 0 V -3.74746 H 30"/><rect class="sym" height="6" width="6" x="-3" y="-3"/><text class="lab" transform="translate(0 11)">C</text></g><g class="a14 i0 leaf node n1 p2 sample" transform="translate(30 3.74746)"><path class="edge" d="M 0 0 V -3.74746 H -30"/><rect class="sym" height="6" width="6" x="-3" y="-3"/><text class="lab" transform="translate(0 11)">C</text></g><path class="edge" d="M 0 0 V -5.88886 H 45"/><circle class="sym" cx="0" cy="0" r="3"/><text class="lab lft" transform="translate(-3 -7.0)"/></g><path class="edge" d="M 0 0 V -2.40908 H 52.5"/><circle class="sym" cx="0" cy="0" r="3"/><text class="lab lft" transform="translate(-3 -7.0)"/></g><path class="edge" d="M 0 0 V -87.5298 H 112.5"/><g class="mut m0 s0" transform="translate(0 -20.0757)"><line x1="0" x2="0" y1="0" y2="20.0757"/><path class="sym" d="M -3,-3 l 6,6 M -3,3 l 6,-6"/><text class="lab lft" transform="translate(-5 0)">0</text></g><circle class="sym" cx="0" cy="0" r="3"/><text class="lab lft" transform="translate(-3 -7.0)"/></g><g class="a22 c2 node n21 p3" transform="translate(112.5 34.2624)"><g class="a21 c2 node n12 p4" transform="translate(-82.5 63.9744)"><g class="a12 i3 leaf node n4 p4 sample" transform="translate(-30 1.33838)"><path class="edge" d="M 0 0 V -1.33838 H 30"/><rect class="sym" height="6" width="6" x="-3" y="-3"/><text class="lab" transform="translate(0 11)">B</text></g><g class="a12 i3 leaf node n5 p4 sample" transform="translate(30 1.33838)"><path class="edge" d="M 0 0 V -1.33838 H -30"/><rect class="sym" height="6" width="6" x="-3" y="-3"/><text class="lab" transform="translate(0 11)">B</text></g><path class="edge" d="M 0 0 V -63.9744 H 82.5"/><circle class="sym" cx="0" cy="0" r="3"/><text class="lab lft" transform="translate(-3 -7.0)"/></g><g class="a21 c2 node n18 p3" transform="translate(82.5 48.7169)"><g class="a18 i4 leaf node n10 p5 sample" transform="translate(45 16.5959)"><path class="edge" d="M 0 0 V -16.5959 H -45"/><rect class="sym" height="6" width="6" x="-3" y="-3"/><text class="lab" transform="translate(0 11)">A</text></g><g class="a18 c2 node n13 p5" transform="translate(-45 14.7221)"><g class="a13 i5 leaf node n8 p5 sample" transform="translate(-30 1.87373)"><path class="edge" d="M 0 0 V -1.87373 H 30"/><rect class="sym" height="6" width="6" x="-3" y="-3"/><text class="lab" transform="translate(0 11)">A</text></g><g class="a13 i5 leaf node n9 p5 sample" transform="translate(30 1.87373)"><path class="edge" d="M 0 0 V -1.87373 H -30"/><rect class="sym" height="6" width="6" x="-3" y="-3"/><text class="lab" transform="translate(0 11)">A</text></g><path class="edge" d="M 0 0 V -14.7221 H 45"/><circle class="sym" cx="0" cy="0" r="3"/><text class="lab lft" transform="translate(-3 -7.0)"/></g><path class="edge" d="M 0 0 V -48.7169 H -82.5"/><circle class="sym" cx="0" cy="0" r="3"/><text class="lab rgt" transform="translate(3 -7.0)"/></g><path class="edge" d="M 0 0 V -34.2624 H -112.5"/><circle class="sym" cx="0" cy="0" r="3"/><text class="lab rgt" transform="translate(3 -7.0)"/></g><path class="edge" d="M 0 0 V -95.0248 H 187.5"/><circle class="sym" cx="0" cy="0" r="3"/><text class="lab lft" transform="translate(-3 -7.0)"/></g><circle class="sym" cx="0" cy="0" r="3"/><text class="lab" transform="translate(0 -11)"/></g></g></g></g></g></svg>