<svg xmlns="http://www.w3.org/2000/svg" xmlns:ev="http://www.w3.org/2001/xml-events" xmlns:xlink="http://www.w3.org/1999/xlink" baseProfile="full" height="200" version="1.1" width="600"><defs><style type="text/css"><![CDATA[.background path {fill: #808080; fill-opacity: 0}.background path:nth-child(odd) {fill-opacity: .1}.x-regions rect {fill: yellow; stroke: black; opacity: 0.5}.axes {font-size: 14px}.x-axis .tick .lab {font-weight: bold; dominant-baseline: hanging}.axes, .tree {font-size: 14px; text-anchor: middle}.axes line, .edge {stroke: black; fill: none}.axes .ax-skip {stroke-dasharray: 4}.y-axis .grid {stroke: #FAFAFA}.node > .sym {fill: black; stroke: none}.site > .sym {stroke: black}.mut text {fill: red; font-style: italic}.mut.extra text {fill: hotpink}.mut line {fill: none; stroke: none}.mut .sym {fill: none; stroke: red}.mut.extra .sym {stroke: hotpink}.node .mut .sym {stroke-width: 1.5px}.tree text, .tree-sequence text {dominant-baseline: central}.plotbox .lab.lft {text-anchor: end}.plotbox .lab.rgt {text-anchor: start}.polytomy line {stroke: black; stroke-dasharray: 1px, 1px}.polytomy text {paint-order:stroke;stroke-width:0.3em;stroke:white}]]></style></defs><g class="tree-sequence"><g class="background"><path d="M56.8,0 l174.4,0 l0,138.2 l-122.08,25 l0,5 l-52.32,0 l0,-5 l0,-25 l0,-138.2z"/><path d="M231.2,0 l174.4,0 l0,138.2 l69.76,25 l0,5 l-366.24,0 l0,-5 l122.08,-25 l0,-138.2z"/><path d="M405.6,0 l174.4,0 l0,138.2 l0,25 l0,5 l-104.64,0 l0,-5 l-69.76,-25 l0,-138.2z"/></g><g class="axes"><g class="x-axis"><g class="title" transform="translate(318.4 200)"><text class="lab" text-anchor="middle" transform="translate(0 -11)">Genome position</text></g><line class="ax-line" x1="56.8" x2="580" y1="163.2" y2="163.2"/><g class="ticks"><g class="tick" transform="translate(56.8 163.2)"><line x1="0" x2="0" y1="0" y2="5"/><g transform="translate(0 6)"><text class="lab">0</text></g></g><g class="tick" transform="translate(109.12 163.2)"><line x1="0" x2="0" y1="0" y2="5"/><g transform="translate(0 6)"><text class="lab">1</text></g></g><g class="tick" transform="translate(475.36 163.2)"><line x1="0" x2="0" y1="0" y2="5"/><g transform="translate(0 6)"><text class="lab">8</text></g></g><g class="tick" transform="translate(580 163.2)"><line x1="0" x2="0" y1="0" y2="5"/><g transform="translate(0 6)"><text class="lab">10</text></g></g></g></g><g class="y-axis"><g class="title" transform="translate(0 65.7)"><text class="lab" text-anchor="middle" transform="translate(11) rotate(-90)">Time ago (generations)</text></g><line class="ax-line" x1="56.8" x2="56.8" y1="121.4" y2="10"/><g class="ticks"><g class="tick" transform="translate(56.8 121.4)"><line x1="0" x2="-5" y1="0" y2="0"/><g transform="translate(-6 0)"><text class="lab" text-anchor="end">0</text></g></g><g class="tick" transform="translate(56.8 81.6952)"><line x1="0" x2="-5" y1="0" y2="0"/><g transform="translate(-6 0)"><text class="lab" text-anchor="end">10</text></g></g><g class="tick" transform="translate(56.8 70.9882)"><line x1="0" x2="-5" y1="0" y2="0"/><g transform="translate(-6 0)"><text class="lab" text-anchor="end">20</text></g></g><g class="tick" transform="translate(56.8 56.2961)"><line x1="0" x2="-5" y1="0" y2="0"/><g transform="translate(-6 0)"><text class="lab" text-anchor="end">50</text></g></g><g class="tick" transform="translate(56.8 44.982)"><line x1="0" x2="-5" y1="0" y2="0"/><g transform="translate(-6 0)"><text class="lab" text-anchor="end">100</text></g></g><g class="tick" transform="translate(56.8 33.5869)"><line x1="0" x2="-5" y1="0" y2="0"/><g transform="translate(-6 0)"><text class="lab" text-anchor="end">200</text></g></g><g class="tick" transform="translate(56.8 18.4643)"><line x1="0" x2="-5" y1="0" y2="0"/><g transform="translate(-6 0)"><text class="lab" text-anchor="end">500</text></g></g></g></g></g><g class="plotbox trees"><g class="tree t0" transform="translate(56.8 0)"><g class="plotbox"><g class="c2 node n12 p0 root" transform="translate(87.2 26.8)"><g class="a12 c1 node n7 p0" transform="translate(33.6 54.8952)"><g class="a7 c2 node n5 p0" transform="translate(0.0 5.71026)"><g class="a5 i1 leaf node n2 p0 sample" transform="translate(-16.8 33.9945)"><path class="edge e2" d="M 0 0 V -33.9945 H 16.8"/><rect class="sym" height="6" width="6" x="-3" y="-3"/><text class="lab" transform="translate(0 11)">2</text></g><g class="a5 i1 leaf node n3 p0 sample" transform="translate(16.8 33.9945)"><path class="edge e3" d="M 0 0 V -33.9945 H -16.8"/><rect class="sym" height="6" width="6" x="-3" y="-3"/><text class="lab" transform="translate(0 11)">3</text></g><path class="edge e6" d="M 0 0 V -5.71026 H 0.0"/><circle class="sym" cx="0" cy="0" r="3"/><text class="lab lft" transform="translate(-3 -7)">5</text></g><path class="edge e13" d="M 0 0 V -54.8952 H -33.6"/><circle class="sym" cx="0" cy="0" r="3"/><text class="lab rgt" transform="translate(3 -7)">7</text></g><g class="a12 c2 node n11 p0" transform="translate(-33.6 10.5823)"><g class="a11 c1 node n8 p0" transform="translate(16.8 44.3129)"><g class="a8 i0 leaf node n1 p0 sample" transform="translate(0.0 39.7048)"><path class="edge e7" d="M 0 0 V -39.7048 H 0.0"/><rect class="sym" height="6" width="6" x="-3" y="-3"/><text class="lab" transform="translate(0 11)">1</text></g><path class="edge e11" d="M 0 0 V -44.3129 H -16.8"/><circle class="sym" cx="0" cy="0" r="3"/><text class="lab rgt" transform="translate(3 -7)">8</text></g><g class="a11 c1 node n9 p0" transform="translate(-16.8 44.3129)"><g class="a9 i0 leaf node n0 p0 sample" transform="translate(0.0 39.7048)"><path class="edge e8" d="M 0 0 V -39.7048 H 0.0"/><rect class="sym" height="6" width="6" x="-3" y="-3"/><text class="lab" transform="translate(0 11)">0</text></g><path class="edge e12" d="M 0 0 V -44.3129 H 16.8"/><circle class="sym" cx="0" cy="0" r="3"/><text class="lab lft" transform="translate(-3 -7)">9</text></g><path class="edge e16" d="M 0 0 V -10.5823 H 33.6"/><circle class="sym" cx="0" cy="0" r="3"/><text class="lab lft" transform="translate(-3 -7)">11</text></g><circle class="sym" cx="0" cy="0" r="3"/><text class="lab" transform="translate(0 -11)">12</text></g></g></g><g class="tree t1" transform="translate(231.2 0)"><g class="plotbox"><g class="c2 node n12 p0 root" transform="translate(87.2 26.8)"><g class="a12 c1 node n7 p0" transform="translate(33.6 54.8952)"><g class="a7 c2 node n5 p0" transform="translate(0.0 5.71026)"><g class="a5 i1 leaf node n2 p0 sample" transform="translate(-16.8 33.9945)"><path class="edge e2" d="M 0 0 V -33.9945 H 16.8"/><rect class="sym" height="6" width="6" x="-3" y="-3"/><text class="lab" transform="translate(0 11)">2</text></g><g class="a5 i1 leaf node n3 p0 sample" transform="translate(16.8 33.9945)"><path class="edge e3" d="M 0 0 V -33.9945 H -16.8"/><rect class="sym" height="6" width="6" x="-3" y="-3"/><text class="lab" transform="translate(0 11)">3</text></g><path class="edge e6" d="M 0 0 V -5.71026 H 0.0"/><circle class="sym" cx="0" cy="0" r="3"/><text class="lab lft" transform="translate(-3 -7)">5</text></g><path class="edge e13" d="M 0 0 V -54.8952 H -33.6"/><circle class="sym" cx="0" cy="0" r="3"/><text class="lab rgt" transform="translate(3 -7)">7</text></g><g class="a12 c2 node n10 p0" transform="translate(-33.6 34.5099)"><g class="a10 c1 node n6 p0" transform="translate(16.8 20.3853)"><g class="a6 i0 leaf node n1 p0 sample" transform="translate(0.0 39.7048)"><path class="edge e5" d="M 0 0 V -39.7048 H 0.0"/><rect class="sym" height="6" width="6" x="-3" y="-3"/><text class="lab" transform="translate(0 11)">1</text></g><path class="edge e9" d="M 0 0 V -20.3853 H -16.8"/><circle class="sym" cx="0" cy="0" r="3"/><text class="lab rgt" transform="translate(3 -7)">6</text></g><g class="a10 c1 node n9 p0" transform="translate(-16.8 20.3853)"><g class="a9 i0 leaf node n0 p0 sample" transform="translate(0.0 39.7048)"><path class="edge e8" d="M 0 0 V -39.7048 H 0.0"/><rect class="sym" height="6" width="6" x="-3" y="-3"/><text class="lab" transform="translate(0 11)">0</text></g><path class="edge e10" d="M 0 0 V -20.3853 H 16.8"/><circle class="sym" cx="0" cy="0" r="3"/><text class="lab lft" transform="translate(-3 -7)">9</text></g><path class="edge e15" d="M 0 0 V -34.5099 H 33.6"/><circle class="sym" cx="0" cy="0" r="3"/><text class="lab lft" transform="translate(-3 -7)">10</text></g><circle class="sym" cx="0" cy="0" r="3"/><text class="lab" transform="translate(0 -11)">12</text></g></g></g><g class="tree t2" transform="translate(405.6 0)"><g class="plotbox"><g class="c2 node n12 p0 root" transform="translate(74.6 26.8)"><g class="a12 c1 node n7 p0" transform="translate(37.8 54.8952)"><g class="a7 c2 node n5 p0" transform="translate(0.0 5.71026)"><g class="a5 i1 leaf node n3 p0 sample" transform="translate(25.2 33.9945)"><path class="edge e3" d="M 0 0 V -33.9945 H -25.2"/><rect class="sym" height="6" width="6" x="-3" y="-3"/><text class="lab" transform="translate(0 11)">3</text></g><g class="a5 c2 node n4 p0" transform="translate(-25.2 18.8145)"><g class="a4 i0 leaf node n1 p0 sample" transform="translate(-16.8 15.18)"><path class="edge e0" d="M 0 0 V -15.18 H 16.8"/><rect class="sym" height="6" width="6" x="-3" y="-3"/><text class="lab" transform="translate(0 11)">1</text></g><g class="a4 i1 leaf node n2 p0 sample" transform="translate(16.8 15.18)"><path class="edge e1" d="M 0 0 V -15.18 H -16.8"/><rect class="sym" height="6" width="6" x="-3" y="-3"/><text class="lab" transform="translate(0 11)">2</text></g><path class="edge e4" d="M 0 0 V -18.8145 H 25.2"/><circle class="sym" cx="0" cy="0" r="3"/><text class="lab lft" transform="translate(-3 -7)">4</text></g><path class="edge e6" d="M 0 0 V -5.71026 H 0.0"/><circle class="sym" cx="0" cy="0" r="3"/><text class="lab lft" transform="translate(-3 -7)">5</text></g><path class="edge e13" d="M 0 0 V -54.8952 H -37.8"/><circle class="sym" cx="0" cy="0" r="3"/><text class="lab rgt" transform="translate(3 -7)">7</text></g><g class="a12 c1 node n9 p0" transform="translate(-37.8 54.8952)"><g class="a9 i0 leaf node n0 p0 sample" transform="translate(0.0 39.7048)"><path class="edge e8" d="M 0 0 V -39.7048 H 0.0"/><rect class="sym" height="6" width="6" x="-3" y="-3"/><text class="lab" transform="translate(0 11)">0</text></g><path class="edge e14" d="M 0 0 V -54.8952 H 37.8"/><circle class="sym" cx="0" cy="0" r="3"/><text class="lab lft" transform="translate(-3 -7)">9</text></g><circle class="sym" cx="0" cy="0" r="3"/><text class="lab" transform="translate(0 -11)">12</text></g></g></g></g></g></svg>