<svg xmlns="http://www.w3.org/2000/svg" xmlns:ev="http://www.w3.org/2001/xml-events" xmlns:xlink="http://www.w3.org/1999/xlink" baseProfile="full" height="200" version="1.1" width="600"><defs><style type="text/css"><![CDATA[.background path {fill: #808080; fill-opacity: 0}.background path:nth-child(odd) {fill-opacity: .1}.x-regions rect {fill: yellow; stroke: black; opacity: 0.5}.axes {font-size: 14px}.x-axis .tick .lab {font-weight: bold; dominant-baseline: hanging}.axes, .tree {font-size: 14px; text-anchor: middle}.axes line, .edge {stroke: black; fill: none}.axes .ax-skip {stroke-dasharray: 4}.y-axis .grid {stroke: #FAFAFA}.node > .sym {fill: black; stroke: none}.site > .sym {stroke: black}.mut text {fill: red; font-style: italic}.mut.extra text {fill: hotpink}.mut line {fill: none; stroke: none}.mut .sym {fill: none; stroke: red}.mut.extra .sym {stroke: hotpink}.node .mut .sym {stroke-width: 1.5px}.tree text, .tree-sequence text {dominant-baseline: central}.plotbox .lab.lft {text-anchor: end}.plotbox .lab.rgt {text-anchor: start}.polytomy line {stroke: black; stroke-dasharray: 1px, 1px}.polytomy text {paint-order:stroke;stroke-width:0.3em;stroke:white}]]></style></defs><g class="tree-sequence"><g class="background"><path d="M20,0 l186.667,0 l0,138.2 l-130.667,25 l0,5 l-56,0 l0,-5 l0,-25 l0,-138.2z"/><path d="M206.667,0 l186.667,0 l0,138.2 l74.6667,25 l0,5 l-392,0 l0,-5 l130.667,-25 l0,-138.2z"/><path d="M393.333,0 l186.667,0 l0,138.2 l0,25 l0,5 l-112,0 l0,-5 l-74.667,-25 l0,-138.2z"/></g><g class="axes"><g class="x-axis"><g class="title" transform="translate(300 200)"><text class="lab" text-anchor="middle" transform="translate(0 -11)">Genome position</text></g><line class="ax-line" x1="20" x2="580" y1="163.2" y2="163.2"/><g class="ticks"><g class="tick" transform="translate(20 163.2)"><line x1="0" x2="0" y1="0" y2="5"/><g transform="translate(0 6)"><text class="lab">0</text></g></g><g class="tick" transform="translate(76 163.2)"><line x1="0" x2="0" y1="0" y2="5"/><g transform="translate(0 6)"><text class="lab">1</text></g></g><g class="tick" transform="translate(468 163.2)"><line x1="0" x2="0" y1="0" y2="5"/><g transform="translate(0 6)"><text class="lab">8</text></g></g><g class="tick" transform="translate(580 163.2)"><line x1="0" x2="0" y1="0" y2="5"/><g transform="translate(0 6)"><text class="lab">10</text></g></g></g></g></g><g class="plotbox trees"><g class="tree t0" transform="translate(20 0)"><g class="plotbox"><g class="c2 node n8 p0 root" transform="translate(93.3333 26.8)"><g class="a8 c2 node n5 p0" transform="translate(36.6667 92.4714)"><g class="a5 i1 leaf node n2 p0 sample" transform="translate(-18.3333 2.12857)"><path class="edge e2" d="M 0 0 V -2.12857 H 18.3333"/><rect class="sym" height="6" width="6" x="-3" y="-3"/><text class="lab" transform="translate(0 11)">2</text></g><g class="a5 i1 leaf node n3 p0 sample" transform="translate(18.3333 2.12857)"><path class="edge e3" d="M 0 0 V -2.12857 H -18.3333"/><rect class="sym" height="6" width="6" x="-3" y="-3"/><text class="lab" transform="translate(0 11)">3</text></g><path class="edge e10" d="M 0 0 V -92.4714 H -36.6667"/><circle class="sym" cx="0" cy="0" r="3"/><text class="lab rgt" transform="translate(3 -7)">5</text></g><g class="a8 c2 node n7 p0" transform="translate(-36.6667 44.8211)"><g class="a7 i0 leaf node n0 p0 sample" transform="translate(-18.3333 49.7789)"><path class="edge e7" d="M 0 0 V -49.7789 H 18.3333"/><rect class="sym" height="6" width="6" x="-3" y="-3"/><text class="lab" transform="translate(0 11)">0</text></g><g class="a7 i0 leaf node n1 p0 sample" transform="translate(18.3333 49.7789)"><path class="edge e8" d="M 0 0 V -49.7789 H -18.3333"/><rect class="sym" height="6" width="6" x="-3" y="-3"/><text class="lab" transform="translate(0 11)">1</text></g><path class="edge e12" d="M 0 0 V -44.8211 H 36.6667"/><circle class="sym" cx="0" cy="0" r="3"/><text class="lab lft" transform="translate(-3 -7)">7</text></g><circle class="sym" cx="0" cy="0" r="3"/><text class="lab" transform="translate(0 -11)">8</text></g></g></g><g class="tree t1" transform="translate(206.667 0)"><g class="plotbox"><g class="c2 node n8 p0 root" transform="translate(93.3333 26.8)"><g class="a8 c2 node n5 p0" transform="translate(36.6667 92.4714)"><g class="a5 i1 leaf node n2 p0 sample" transform="translate(-18.3333 2.12857)"><path class="edge e2" d="M 0 0 V -2.12857 H 18.3333"/><rect class="sym" height="6" width="6" x="-3" y="-3"/><text class="lab" transform="translate(0 11)">2</text></g><g class="a5 i1 leaf node n3 p0 sample" transform="translate(18.3333 2.12857)"><path class="edge e3" d="M 0 0 V -2.12857 H -18.3333"/><rect class="sym" height="6" width="6" x="-3" y="-3"/><text class="lab" transform="translate(0 11)">3</text></g><path class="edge e10" d="M 0 0 V -92.4714 H -36.6667"/><circle class="sym" cx="0" cy="0" r="3"/><text class="lab rgt" transform="translate(3 -7)">5</text></g><g class="a8 c2 node n6 p0" transform="translate(-36.6667 83.1051)"><g class="a6 i0 leaf node n0 p0 sample" transform="translate(-18.3333 11.4949)"><path class="edge e5" d="M 0 0 V -11.4949 H 18.3333"/><rect class="sym" height="6" width="6" x="-3" y="-3"/><text class="lab" transform="translate(0 11)">0</text></g><g class="a6 i0 leaf node n1 p0 sample" transform="translate(18.3333 11.4949)"><path class="edge e6" d="M 0 0 V -11.4949 H -18.3333"/><rect class="sym" height="6" width="6" x="-3" y="-3"/><text class="lab" transform="translate(0 11)">1</text></g><path class="edge e11" d="M 0 0 V -83.1051 H 36.6667"/><circle class="sym" cx="0" cy="0" r="3"/><text class="lab lft" transform="translate(-3 -7)">6</text></g><circle class="sym" cx="0" cy="0" r="3"/><text class="lab" transform="translate(0 -11)">8</text></g></g></g><g class="tree t2" transform="translate(393.333 0)"><g class="plotbox"><g class="c2 node n8 p0 root" transform="translate(79.5833 26.8)"><g class="a8 c2 node n5 p0" transform="translate(41.25 92.4714)"><g class="a5 i1 leaf node n3 p0 sample" transform="translate(27.5 2.12857)"><path class="edge e3" d="M 0 0 V -2.12857 H -27.5"/><rect class="sym" height="6" width="6" x="-3" y="-3"/><text class="lab" transform="translate(0 11)">3</text></g><g class="a5 c2 node n4 p0" transform="translate(-27.5 1.65807)"><g class="a4 i0 leaf node n1 p0 sample" transform="translate(-18.3333 0.470498)"><path class="edge e0" d="M 0 0 V -0.470498 H 18.3333"/><rect class="sym" height="6" width="6" x="-3" y="-3"/><text class="lab" transform="translate(0 11)">1</text></g><g class="a4 i1 leaf node n2 p0 sample" transform="translate(18.3333 0.470498)"><path class="edge e1" d="M 0 0 V -0.470498 H -18.3333"/><rect class="sym" height="6" width="6" x="-3" y="-3"/><text class="lab" transform="translate(0 11)">2</text></g><path class="edge e4" d="M 0 0 V -1.65807 H 27.5"/><circle class="sym" cx="0" cy="0" r="3"/><text class="lab lft" transform="translate(-3 -7)">4</text></g><path class="edge e10" d="M 0 0 V -92.4714 H -41.25"/><circle class="sym" cx="0" cy="0" r="3"/><text class="lab rgt" transform="translate(3 -7)">5</text></g><g class="a8 i0 leaf node n0 p0 sample" transform="translate(-41.25 94.6)"><path class="edge e9" d="M 0 0 V -94.6 H 41.25"/><rect class="sym" height="6" width="6" x="-3" y="-3"/><text class="lab" transform="translate(0 11)">0</text></g><circle class="sym" cx="0" cy="0" r="3"/><text class="lab" transform="translate(0 -11)">8</text></g></g></g></g></g></svg>