<?xml version="1.0" encoding="utf-8" standalone="no"?>
<!DOCTYPE svg PUBLIC "-//W3C//DTD SVG 1.1//EN"
  "http://www.w3.org/Graphics/SVG/1.1/DTD/svg11.dtd">
<svg xmlns:xlink="http://www.w3.org/1999/xlink" width="371.52pt" height="280.512pt" viewBox="0 0 371.52 280.512" xmlns="http://www.w3.org/2000/svg" version="1.1">
 <metadata>
  <rdf:RDF xmlns:dc="http://purl.org/dc/elements/1.1/" xmlns:cc="http://creativecommons.org/ns#" xmlns:rdf="http://www.w3.org/1999/02/22-rdf-syntax-ns#">
   <cc:Work>
    <dc:type rdf:resource="http://purl.org/dc/dcmitype/StillImage"/>
    <dc:date>2026-02-06T13:27:36.136606</dc:date>
    <dc:format>image/svg+xml</dc:format>
    <dc:creator>
     <cc:Agent>
      <dc:title>Matplotlib v3.10.3, https://matplotlib.org/</dc:title>
     </cc:Agent>
    </dc:creator>
   </cc:Work>
  </rdf:RDF>
 </metadata>
 <defs>
  <style type="text/css">*{stroke-linejoin: round; stroke-linecap: butt}</style>
 </defs>
 <g id="figure_1">
  <g id="patch_1">
   <path d="M 0 280.512 
L 371.52 280.512 
L 371.52 0 
L 0 0 
z
" style="fill: #ffffff"/>
  </g>
  <g id="axes_1">
   <g id="patch_2">
    <path d="M 7.2 273.312 
L 364.32 273.312 
L 364.32 7.2 
L 7.2 7.2 
z
" style="fill: #ffffff"/>
   </g>
   <g id="patch_3">
    <path d="M 43.963222 133.802751 
Q 87.379676 85.27436 130.050665 37.579205 
" clip-path="url(#pc2ba9a1bdc)" style="fill: none; stroke: #000000; stroke-linecap: round"/>
    <path d="M 125.893073 39.226756 
L 130.050665 37.579205 
L 128.874151 41.89381 
z
" clip-path="url(#pc2ba9a1bdc)" style="stroke: #000000; stroke-linecap: round"/>
   </g>
   <g id="patch_4">
    <path d="M 45.746603 136.032696 
Q 136.567795 85.275368 226.413027 35.063476 
" clip-path="url(#pc2ba9a1bdc)" style="fill: none; stroke: #000000; stroke-linecap: round"/>
    <path d="M 221.945618 35.269036 
L 226.413027 35.063476 
L 223.897029 38.76074 
z
" clip-path="url(#pc2ba9a1bdc)" style="stroke: #000000; stroke-linecap: round"/>
   </g>
   <g id="patch_5">
    <path d="M 136.569917 131.594619 
Q 136.569917 85.273136 136.569917 40.069688 
" clip-path="url(#pc2ba9a1bdc)" style="fill: none; stroke: #000000; stroke-linecap: round"/>
    <path d="M 134.569917 44.069688 
L 136.569917 40.069688 
L 138.569917 44.069688 
z
" clip-path="url(#pc2ba9a1bdc)" style="stroke: #000000; stroke-linecap: round"/>
   </g>
   <g id="patch_6">
    <path d="M 142.343387 133.802751 
Q 185.759841 85.27436 228.430831 37.579205 
" clip-path="url(#pc2ba9a1bdc)" style="fill: none; stroke: #000000; stroke-linecap: round"/>
    <path d="M 224.273238 39.226756 
L 228.430831 37.579205 
L 227.254316 41.89381 
z
" clip-path="url(#pc2ba9a1bdc)" style="stroke: #000000; stroke-linecap: round"/>
   </g>
   <g id="patch_7">
    <path d="M 229.176613 133.802751 
Q 185.760159 85.27436 143.089169 37.579205 
" clip-path="url(#pc2ba9a1bdc)" style="fill: none; stroke: #000000; stroke-linecap: round"/>
    <path d="M 144.265684 41.89381 
L 143.089169 37.579205 
L 147.246762 39.226756 
z
" clip-path="url(#pc2ba9a1bdc)" style="stroke: #000000; stroke-linecap: round"/>
   </g>
   <g id="patch_8">
    <path d="M 234.950083 131.594619 
Q 234.950083 85.273136 234.950083 40.069688 
" clip-path="url(#pc2ba9a1bdc)" style="fill: none; stroke: #000000; stroke-linecap: round"/>
    <path d="M 232.950083 44.069688 
L 234.950083 40.069688 
L 236.950083 44.069688 
z
" clip-path="url(#pc2ba9a1bdc)" style="stroke: #000000; stroke-linecap: round"/>
   </g>
   <g id="patch_9">
    <path d="M 325.773397 136.032696 
Q 234.952205 85.275368 145.106973 35.063476 
" clip-path="url(#pc2ba9a1bdc)" style="fill: none; stroke: #000000; stroke-linecap: round"/>
    <path d="M 147.622971 38.76074 
L 145.106973 35.063476 
L 149.574382 35.269036 
z
" clip-path="url(#pc2ba9a1bdc)" style="stroke: #000000; stroke-linecap: round"/>
   </g>
   <g id="patch_10">
    <path d="M 327.556778 133.802751 
Q 284.140324 85.27436 241.469335 37.579205 
" clip-path="url(#pc2ba9a1bdc)" style="fill: none; stroke: #000000; stroke-linecap: round"/>
    <path d="M 242.645849 41.89381 
L 241.469335 37.579205 
L 245.626927 39.226756 
z
" clip-path="url(#pc2ba9a1bdc)" style="stroke: #000000; stroke-linecap: round"/>
   </g>
   <g id="patch_11">
    <path d="M 178.817875 245.046634 
Q 111.976815 195.239263 46.03226 146.099933 
" clip-path="url(#pc2ba9a1bdc)" style="fill: none; stroke: #000000; stroke-linecap: round"/>
    <path d="M 48.044666 150.093706 
L 46.03226 146.099933 
L 50.434722 146.886272 
z
" clip-path="url(#pc2ba9a1bdc)" style="stroke: #000000; stroke-linecap: round"/>
   </g>
   <g id="patch_12">
    <path d="M 192.702125 245.046634 
Q 259.543185 195.239263 325.48774 146.099933 
" clip-path="url(#pc2ba9a1bdc)" style="fill: none; stroke: #000000; stroke-linecap: round"/>
    <path d="M 321.085278 146.886272 
L 325.48774 146.099933 
L 323.475334 150.093706 
z
" clip-path="url(#pc2ba9a1bdc)" style="stroke: #000000; stroke-linecap: round"/>
   </g>
   <g id="patch_13">
    <path d="M 276.232793 246.684276 
Q 161.164975 195.237826 47.117822 144.247711 
" clip-path="url(#pc2ba9a1bdc)" style="fill: none; stroke: #000000; stroke-linecap: round"/>
    <path d="M 49.953146 147.70617 
L 47.117822 144.247711 
L 51.585784 144.054528 
z
" clip-path="url(#pc2ba9a1bdc)" style="stroke: #000000; stroke-linecap: round"/>
   </g>
   <g id="patch_14">
    <path d="M 287.675402 242.316671 
Q 308.734062 195.240377 329.336187 149.184659 
" clip-path="url(#pc2ba9a1bdc)" style="fill: none; stroke: #000000; stroke-linecap: round"/>
    <path d="M 325.877176 152.019309 
L 329.336187 149.184659 
L 329.528501 153.652658 
z
" clip-path="url(#pc2ba9a1bdc)" style="stroke: #000000; stroke-linecap: round"/>
   </g>
   <g id="patch_15">
    <path d="M 94.321959 245.046634 
Q 161.16302 195.239263 227.107575 146.099933 
" clip-path="url(#pc2ba9a1bdc)" style="fill: none; stroke: #000000; stroke-linecap: round"/>
    <path d="M 222.705113 146.886272 
L 227.107575 146.099933 
L 225.095169 150.093706 
z
" clip-path="url(#pc2ba9a1bdc)" style="stroke: #000000; stroke-linecap: round"/>
   </g>
   <g id="patch_16">
    <path d="M 90.915072 242.316671 
Q 111.973731 195.240377 132.575856 149.184659 
" clip-path="url(#pc2ba9a1bdc)" style="fill: none; stroke: #000000; stroke-linecap: round"/>
    <path d="M 129.116845 152.019309 
L 132.575856 149.184659 
L 132.76817 153.652658 
z
" clip-path="url(#pc2ba9a1bdc)" style="stroke: #000000; stroke-linecap: round"/>
   </g>
   <g id="matplotlib.axis_1">
    <g id="xtick_1"/>
    <g id="xtick_2"/>
    <g id="xtick_3"/>
    <g id="xtick_4"/>
    <g id="xtick_5"/>
   </g>
   <g id="matplotlib.axis_2">
    <g id="ytick_1"/>
    <g id="ytick_2"/>
    <g id="ytick_3"/>
    <g id="ytick_4"/>
    <g id="ytick_5"/>
    <g id="ytick_6"/>
    <g id="ytick_7"/>
    <g id="ytick_8"/>
   </g>
   <g id="PathCollection_1">
    <defs>
     <path id="C0_0_dbfd41572a" d="M 0 8.660254 
C 2.296726 8.660254 4.499694 7.747755 6.123724 6.123724 
C 7.747755 4.499694 8.660254 2.296726 8.660254 -0 
C 8.660254 -2.296726 7.747755 -4.499694 6.123724 -6.123724 
C 4.499694 -7.747755 2.296726 -8.660254 0 -8.660254 
C -2.296726 -8.660254 -4.499694 -7.747755 -6.123724 -6.123724 
C -7.747755 -4.499694 -8.660254 -2.296726 -8.660254 0 
C -8.660254 2.296726 -7.747755 4.499694 -6.123724 6.123724 
C -4.499694 7.747755 -2.296726 8.660254 0 8.660254 
z
"/>
    </defs>
    <g clip-path="url(#pc2ba9a1bdc)">
     <use xlink:href="#C0_0_dbfd41572a" x="136.569917" y="30.292364" style="fill: #1f77b4; stroke: #1f77b4"/>
    </g>
    <g clip-path="url(#pc2ba9a1bdc)">
     <use xlink:href="#C0_0_dbfd41572a" x="234.950083" y="30.292364" style="fill: #1f77b4; stroke: #1f77b4"/>
    </g>
    <g clip-path="url(#pc2ba9a1bdc)">
     <use xlink:href="#C0_0_dbfd41572a" x="38.189752" y="140.256" style="fill: #1f77b4; stroke: #1f77b4"/>
    </g>
    <g clip-path="url(#pc2ba9a1bdc)">
     <use xlink:href="#C0_0_dbfd41572a" x="136.569917" y="140.256" style="fill: #1f77b4; stroke: #1f77b4"/>
    </g>
    <g clip-path="url(#pc2ba9a1bdc)">
     <use xlink:href="#C0_0_dbfd41572a" x="234.950083" y="140.256" style="fill: #1f77b4; stroke: #1f77b4"/>
    </g>
    <g clip-path="url(#pc2ba9a1bdc)">
     <use xlink:href="#C0_0_dbfd41572a" x="333.330248" y="140.256" style="fill: #1f77b4; stroke: #1f77b4"/>
    </g>
    <g clip-path="url(#pc2ba9a1bdc)">
     <use xlink:href="#C0_0_dbfd41572a" x="185.76" y="250.219636" style="fill: #1f77b4; stroke: #1f77b4"/>
    </g>
    <g clip-path="url(#pc2ba9a1bdc)">
     <use xlink:href="#C0_0_dbfd41572a" x="284.140165" y="250.219636" style="fill: #1f77b4; stroke: #1f77b4"/>
    </g>
    <g clip-path="url(#pc2ba9a1bdc)">
     <use xlink:href="#C0_0_dbfd41572a" x="87.379835" y="250.219636" style="fill: #1f77b4; stroke: #1f77b4"/>
    </g>
   </g>
   <g id="patch_17">
    <path d="M 7.2 273.312 
L 7.2 7.2 
" style="fill: none; stroke: #000000; stroke-width: 0.8; stroke-linejoin: miter; stroke-linecap: square"/>
   </g>
   <g id="patch_18">
    <path d="M 364.32 273.312 
L 364.32 7.2 
" style="fill: none; stroke: #000000; stroke-width: 0.8; stroke-linejoin: miter; stroke-linecap: square"/>
   </g>
   <g id="patch_19">
    <path d="M 7.2 273.312 
L 364.32 273.312 
" style="fill: none; stroke: #000000; stroke-width: 0.8; stroke-linejoin: miter; stroke-linecap: square"/>
   </g>
   <g id="patch_20">
    <path d="M 7.2 7.2 
L 364.32 7.2 
" style="fill: none; stroke: #000000; stroke-width: 0.8; stroke-linejoin: miter; stroke-linecap: square"/>
   </g>
   <g id="text_1">
    <g clip-path="url(#pc2ba9a1bdc)">
     <!-- 0 -->
     <g transform="translate(132.752417 33.603614) scale(0.12 -0.12)">
      <defs>
       <path id="DejaVuSans-30" d="M 2034 4250 
Q 1547 4250 1301 3770 
Q 1056 3291 1056 2328 
Q 1056 1369 1301 889 
Q 1547 409 2034 409 
Q 2525 409 2770 889 
Q 3016 1369 3016 2328 
Q 3016 3291 2770 3770 
Q 2525 4250 2034 4250 
z
M 2034 4750 
Q 2819 4750 3233 4129 
Q 3647 3509 3647 2328 
Q 3647 1150 3233 529 
Q 2819 -91 2034 -91 
Q 1250 -91 836 529 
Q 422 1150 422 2328 
Q 422 3509 836 4129 
Q 1250 4750 2034 4750 
z
" transform="scale(0.015625)"/>
      </defs>
      <use xlink:href="#DejaVuSans-30"/>
     </g>
    </g>
   </g>
   <g id="text_2">
    <g clip-path="url(#pc2ba9a1bdc)">
     <!-- 1 -->
     <g transform="translate(231.132583 33.603614) scale(0.12 -0.12)">
      <defs>
       <path id="DejaVuSans-31" d="M 794 531 
L 1825 531 
L 1825 4091 
L 703 3866 
L 703 4441 
L 1819 4666 
L 2450 4666 
L 2450 531 
L 3481 531 
L 3481 0 
L 794 0 
L 794 531 
z
" transform="scale(0.015625)"/>
      </defs>
      <use xlink:href="#DejaVuSans-31"/>
     </g>
    </g>
   </g>
   <g id="text_3">
    <g clip-path="url(#pc2ba9a1bdc)">
     <!-- 2 -->
     <g transform="translate(34.372252 143.56725) scale(0.12 -0.12)">
      <defs>
       <path id="DejaVuSans-32" d="M 1228 531 
L 3431 531 
L 3431 0 
L 469 0 
L 469 531 
Q 828 903 1448 1529 
Q 2069 2156 2228 2338 
Q 2531 2678 2651 2914 
Q 2772 3150 2772 3378 
Q 2772 3750 2511 3984 
Q 2250 4219 1831 4219 
Q 1534 4219 1204 4116 
Q 875 4013 500 3803 
L 500 4441 
Q 881 4594 1212 4672 
Q 1544 4750 1819 4750 
Q 2544 4750 2975 4387 
Q 3406 4025 3406 3419 
Q 3406 3131 3298 2873 
Q 3191 2616 2906 2266 
Q 2828 2175 2409 1742 
Q 1991 1309 1228 531 
z
" transform="scale(0.015625)"/>
      </defs>
      <use xlink:href="#DejaVuSans-32"/>
     </g>
    </g>
   </g>
   <g id="text_4">
    <g clip-path="url(#pc2ba9a1bdc)">
     <!-- 3 -->
     <g transform="translate(132.752417 143.56725) scale(0.12 -0.12)">
      <defs>
       <path id="DejaVuSans-33" d="M 2597 2516 
Q 3050 2419 3304 2112 
Q 3559 1806 3559 1356 
Q 3559 666 3084 287 
Q 2609 -91 1734 -91 
Q 1441 -91 1130 -33 
Q 819 25 488 141 
L 488 750 
Q 750 597 1062 519 
Q 1375 441 1716 441 
Q 2309 441 2620 675 
Q 2931 909 2931 1356 
Q 2931 1769 2642 2001 
Q 2353 2234 1838 2234 
L 1294 2234 
L 1294 2753 
L 1863 2753 
Q 2328 2753 2575 2939 
Q 2822 3125 2822 3475 
Q 2822 3834 2567 4026 
Q 2313 4219 1838 4219 
Q 1578 4219 1281 4162 
Q 984 4106 628 3988 
L 628 4550 
Q 988 4650 1302 4700 
Q 1616 4750 1894 4750 
Q 2613 4750 3031 4423 
Q 3450 4097 3450 3541 
Q 3450 3153 3228 2886 
Q 3006 2619 2597 2516 
z
" transform="scale(0.015625)"/>
      </defs>
      <use xlink:href="#DejaVuSans-33"/>
     </g>
    </g>
   </g>
   <g id="text_5">
    <g clip-path="url(#pc2ba9a1bdc)">
     <!-- 4 -->
     <g transform="translate(231.132583 143.56725) scale(0.12 -0.12)">
      <defs>
       <path id="DejaVuSans-34" d="M 2419 4116 
L 825 1625 
L 2419 1625 
L 2419 4116 
z
M 2253 4666 
L 3047 4666 
L 3047 1625 
L 3713 1625 
L 3713 1100 
L 3047 1100 
L 3047 0 
L 2419 0 
L 2419 1100 
L 313 1100 
L 313 1709 
L 2253 4666 
z
" transform="scale(0.015625)"/>
      </defs>
      <use xlink:href="#DejaVuSans-34"/>
     </g>
    </g>
   </g>
   <g id="text_6">
    <g clip-path="url(#pc2ba9a1bdc)">
     <!-- 5 -->
     <g transform="translate(329.512748 143.56725) scale(0.12 -0.12)">
      <defs>
       <path id="DejaVuSans-35" d="M 691 4666 
L 3169 4666 
L 3169 4134 
L 1269 4134 
L 1269 2991 
Q 1406 3038 1543 3061 
Q 1681 3084 1819 3084 
Q 2600 3084 3056 2656 
Q 3513 2228 3513 1497 
Q 3513 744 3044 326 
Q 2575 -91 1722 -91 
Q 1428 -91 1123 -41 
Q 819 9 494 109 
L 494 744 
Q 775 591 1075 516 
Q 1375 441 1709 441 
Q 2250 441 2565 725 
Q 2881 1009 2881 1497 
Q 2881 1984 2565 2268 
Q 2250 2553 1709 2553 
Q 1456 2553 1204 2497 
Q 953 2441 691 2322 
L 691 4666 
z
" transform="scale(0.015625)"/>
      </defs>
      <use xlink:href="#DejaVuSans-35"/>
     </g>
    </g>
   </g>
   <g id="text_7">
    <g clip-path="url(#pc2ba9a1bdc)">
     <!-- 6 -->
     <g transform="translate(181.9425 253.530886) scale(0.12 -0.12)">
      <defs>
       <path id="DejaVuSans-36" d="M 2113 2584 
Q 1688 2584 1439 2293 
Q 1191 2003 1191 1497 
Q 1191 994 1439 701 
Q 1688 409 2113 409 
Q 2538 409 2786 701 
Q 3034 994 3034 1497 
Q 3034 2003 2786 2293 
Q 2538 2584 2113 2584 
z
M 3366 4563 
L 3366 3988 
Q 3128 4100 2886 4159 
Q 2644 4219 2406 4219 
Q 1781 4219 1451 3797 
Q 1122 3375 1075 2522 
Q 1259 2794 1537 2939 
Q 1816 3084 2150 3084 
Q 2853 3084 3261 2657 
Q 3669 2231 3669 1497 
Q 3669 778 3244 343 
Q 2819 -91 2113 -91 
Q 1303 -91 875 529 
Q 447 1150 447 2328 
Q 447 3434 972 4092 
Q 1497 4750 2381 4750 
Q 2619 4750 2861 4703 
Q 3103 4656 3366 4563 
z
" transform="scale(0.015625)"/>
      </defs>
      <use xlink:href="#DejaVuSans-36"/>
     </g>
    </g>
   </g>
   <g id="text_8">
    <g clip-path="url(#pc2ba9a1bdc)">
     <!-- 7 -->
     <g transform="translate(280.322665 253.530886) scale(0.12 -0.12)">
      <defs>
       <path id="DejaVuSans-37" d="M 525 4666 
L 3525 4666 
L 3525 4397 
L 1831 0 
L 1172 0 
L 2766 4134 
L 525 4134 
L 525 4666 
z
" transform="scale(0.015625)"/>
      </defs>
      <use xlink:href="#DejaVuSans-37"/>
     </g>
    </g>
   </g>
   <g id="text_9">
    <g clip-path="url(#pc2ba9a1bdc)">
     <!-- 8 -->
     <g transform="translate(83.562335 253.530886) scale(0.12 -0.12)">
      <defs>
       <path id="DejaVuSans-38" d="M 2034 2216 
Q 1584 2216 1326 1975 
Q 1069 1734 1069 1313 
Q 1069 891 1326 650 
Q 1584 409 2034 409 
Q 2484 409 2743 651 
Q 3003 894 3003 1313 
Q 3003 1734 2745 1975 
Q 2488 2216 2034 2216 
z
M 1403 2484 
Q 997 2584 770 2862 
Q 544 3141 544 3541 
Q 544 4100 942 4425 
Q 1341 4750 2034 4750 
Q 2731 4750 3128 4425 
Q 3525 4100 3525 3541 
Q 3525 3141 3298 2862 
Q 3072 2584 2669 2484 
Q 3125 2378 3379 2068 
Q 3634 1759 3634 1313 
Q 3634 634 3220 271 
Q 2806 -91 2034 -91 
Q 1263 -91 848 271 
Q 434 634 434 1313 
Q 434 1759 690 2068 
Q 947 2378 1403 2484 
z
M 1172 3481 
Q 1172 3119 1398 2916 
Q 1625 2713 2034 2713 
Q 2441 2713 2670 2916 
Q 2900 3119 2900 3481 
Q 2900 3844 2670 4047 
Q 2441 4250 2034 4250 
Q 1625 4250 1398 4047 
Q 1172 3844 1172 3481 
z
" transform="scale(0.015625)"/>
      </defs>
      <use xlink:href="#DejaVuSans-38"/>
     </g>
    </g>
   </g>
  </g>
 </g>
 <defs>
  <clipPath id="pc2ba9a1bdc">
   <rect x="7.2" y="7.2" width="357.12" height="266.112"/>
  </clipPath>
 </defs>
</svg>