<svg xmlns="http://www.w3.org/2000/svg" xmlns:ev="http://www.w3.org/2001/xml-events" xmlns:xlink="http://www.w3.org/1999/xlink" baseProfile="full" height="200" version="1.1" width="600"><defs><style type="text/css"><![CDATA[.background path {fill: #808080; fill-opacity: 0}.background path:nth-child(odd) {fill-opacity: .1}.x-regions rect {fill: yellow; stroke: black; opacity: 0.5}.axes {font-size: 14px}.x-axis .tick .lab {font-weight: bold; dominant-baseline: hanging}.axes, .tree {font-size: 14px; text-anchor: middle}.axes line, .edge {stroke: black; fill: none}.axes .ax-skip {stroke-dasharray: 4}.y-axis .grid {stroke: #FAFAFA}.node > .sym {fill: black; stroke: none}.site > .sym {stroke: black}.mut text {fill: red; font-style: italic}.mut.extra text {fill: hotpink}.mut line {fill: none; stroke: none}.mut .sym {fill: none; stroke: red}.mut.extra .sym {stroke: hotpink}.node .mut .sym {stroke-width: 1.5px}.tree text, .tree-sequence text {dominant-baseline: central}.plotbox .lab.lft {text-anchor: end}.plotbox .lab.rgt {text-anchor: start}.polytomy line {stroke: black; stroke-dasharray: 1px, 1px}.polytomy text {paint-order:stroke;stroke-width:0.3em;stroke:white}]]></style></defs><g class="tree-sequence"><g class="background"><path d="M20,0 l186.667,0 l0,138.2 l73.5848,25 l0,5 l-260.251,0 l0,-5 l0,-25 l0,-138.2z"/><path d="M206.667,0 l186.667,0 l0,138.2 l-80.9051,25 l0,5 l-32.1768,0 l0,-5 l-73.584,-25 l0,-138.2z"/><path d="M393.333,0 l186.667,0 l0,138.2 l0,25 l0,5 l-267.572,0 l0,-5 l80.905,-25 l0,-138.2z"/></g><g class="axes"><g class="x-axis"><g class="title" transform="translate(300 200)"><text class="lab" text-anchor="middle" transform="translate(0 -11)">Genome position</text></g><line class="ax-line" x1="20" x2="580" y1="163.2" y2="163.2"/><g class="ticks"><g class="tick" transform="translate(20 163.2)"><line x1="0" x2="0" y1="0" y2="5"/><g transform="translate(0 6)"><text class="lab">0.00</text></g></g><g class="tick" transform="translate(280.251 163.2)"><line x1="0" x2="0" y1="0" y2="5"/><g transform="translate(0 6)"><text class="lab">4.65</text></g></g><g class="tick" transform="translate(312.428 163.2)"><line x1="0" x2="0" y1="0" y2="5"/><g transform="translate(0 6)"><text class="lab">5.22</text></g></g><g class="tick" transform="translate(580 163.2)"><line x1="0" x2="0" y1="0" y2="5"/><g transform="translate(0 6)"><text class="lab">10.00</text></g></g></g></g></g><g class="plotbox trees"><g class="tree t0" transform="translate(20 0)"><g class="plotbox"><g class="c2 node n11 p0 root" transform="translate(81.1111 26.8)"><g class="a11 c2 node n6 p0" transform="translate(-36.6667 89.0063)"><g class="a6 i0 leaf node n0 p0 sample" transform="translate(-12.2222 5.59372)"><path class="edge e0" d="M 0 0 V -5.59372 H 12.2222"/><rect class="sym" height="6" width="6" x="-3" y="-3"/><text class="lab" transform="translate(0 11)">0</text></g><g class="a6 i2 leaf node n4 p0 sample" transform="translate(12.2222 5.59372)"><path class="edge e1" d="M 0 0 V -5.59372 H -12.2222"/><rect class="sym" height="6" width="6" x="-3" y="-3"/><text class="lab" transform="translate(0 11)">4</text></g><path class="edge e14" d="M 0 0 V -89.0063 H 36.6667"/><circle class="sym" cx="0" cy="0" r="3"/><text class="lab lft" transform="translate(-3 -7)">6</text></g><g class="a11 c2 node n10 p0" transform="translate(36.6667 67.0871)"><g class="a10 c2 node n8 p0" transform="translate(24.4444 16.2341)"><g class="a8 i1 leaf node n2 p0 sample" transform="translate(-12.2222 11.2788)"><path class="edge e4" d="M 0 0 V -11.2788 H 12.2222"/><rect class="sym" height="6" width="6" x="-3" y="-3"/><text class="lab" transform="translate(0 11)">2</text></g><g class="a8 i1 leaf node n3 p0 sample" transform="translate(12.2222 11.2788)"><path class="edge e5" d="M 0 0 V -11.2788 H -12.2222"/><rect class="sym" height="6" width="6" x="-3" y="-3"/><text class="lab" transform="translate(0 11)">3</text></g><path class="edge e11" d="M 0 0 V -16.2341 H -24.4444"/><circle class="sym" cx="0" cy="0" r="3"/><text class="lab rgt" transform="translate(3 -7)">8</text></g><g class="a10 c2 node n9 p0" transform="translate(-24.4444 11.6908)"><g class="a9 i0 leaf node n1 p0 sample" transform="translate(-12.2222 15.8221)"><path class="edge e6" d="M 0 0 V -15.8221 H 12.2222"/><rect class="sym" height="6" width="6" x="-3" y="-3"/><text class="lab" transform="translate(0 11)">1</text></g><g class="a9 i2 leaf node n5 p0 sample" transform="translate(12.2222 15.8221)"><path class="edge e8" d="M 0 0 V -15.8221 H -12.2222"/><rect class="sym" height="6" width="6" x="-3" y="-3"/><text class="lab" transform="translate(0 11)">5</text></g><path class="edge e12" d="M 0 0 V -11.6908 H 24.4444"/><circle class="sym" cx="0" cy="0" r="3"/><text class="lab lft" transform="translate(-3 -7)">9</text></g><path class="edge e17" d="M 0 0 V -67.0871 H -36.6667"/><circle class="sym" cx="0" cy="0" r="3"/><text class="lab rgt" transform="translate(3 -7)">10</text></g><circle class="sym" cx="0" cy="0" r="3"/><text class="lab" transform="translate(0 -11)">11</text></g></g></g><g class="tree t1" transform="translate(206.667 0)"><g class="plotbox"><g class="c2 node n11 p0 root" transform="translate(99.4444 26.8)"><g class="a11 c2 node n10 p0" transform="translate(36.6667 67.0871)"><g class="a10 c2 node n8 p0" transform="translate(-18.3333 16.2341)"><g class="a8 i1 leaf node n2 p0 sample" transform="translate(-12.2222 11.2788)"><path class="edge e4" d="M 0 0 V -11.2788 H 12.2222"/><rect class="sym" height="6" width="6" x="-3" y="-3"/><text class="lab" transform="translate(0 11)">2</text></g><g class="a8 i1 leaf node n3 p0 sample" transform="translate(12.2222 11.2788)"><path class="edge e5" d="M 0 0 V -11.2788 H -12.2222"/><rect class="sym" height="6" width="6" x="-3" y="-3"/><text class="lab" transform="translate(0 11)">3</text></g><path class="edge e11" d="M 0 0 V -16.2341 H 18.3333"/><circle class="sym" cx="0" cy="0" r="3"/><text class="lab lft" transform="translate(-3 -7)">8</text></g><g class="a10 i2 leaf node n5 p0 sample" transform="translate(18.3333 27.5129)"><path class="edge e10" d="M 0 0 V -27.5129 H -18.3333"/><rect class="sym" height="6" width="6" x="-3" y="-3"/><text class="lab" transform="translate(0 11)">5</text></g><path class="edge e17" d="M 0 0 V -67.0871 H -36.6667"/><circle class="sym" cx="0" cy="0" r="3"/><text class="lab rgt" transform="translate(3 -7)">10</text></g><g class="a11 c2 node n7 p0" transform="translate(-36.6667 83.9904)"><g class="a7 i0 leaf node n1 p0 sample" transform="translate(18.3333 10.6096)"><path class="edge e2" d="M 0 0 V -10.6096 H -18.3333"/><rect class="sym" height="6" width="6" x="-3" y="-3"/><text class="lab" transform="translate(0 11)">1</text></g><g class="a7 c2 node n6 p0" transform="translate(-18.3333 5.01584)"><g class="a6 i0 leaf node n0 p0 sample" transform="translate(-12.2222 5.59372)"><path class="edge e0" d="M 0 0 V -5.59372 H 12.2222"/><rect class="sym" height="6" width="6" x="-3" y="-3"/><text class="lab" transform="translate(0 11)">0</text></g><g class="a6 i2 leaf node n4 p0 sample" transform="translate(12.2222 5.59372)"><path class="edge e1" d="M 0 0 V -5.59372 H -12.2222"/><rect class="sym" height="6" width="6" x="-3" y="-3"/><text class="lab" transform="translate(0 11)">4</text></g><path class="edge e3" d="M 0 0 V -5.01584 H 18.3333"/><circle class="sym" cx="0" cy="0" r="3"/><text class="lab lft" transform="translate(-3 -7)">6</text></g><path class="edge e16" d="M 0 0 V -83.9904 H 36.6667"/><circle class="sym" cx="0" cy="0" r="3"/><text class="lab lft" transform="translate(-3 -7)">7</text></g><circle class="sym" cx="0" cy="0" r="3"/><text class="lab" transform="translate(0 -11)">11</text></g></g></g><g class="tree t2" transform="translate(393.333 0)"><g class="plotbox"><g class="c2 node n11 p0 root" transform="translate(81.1111 26.8)"><g class="a11 c2 node n10 p0" transform="translate(36.6667 67.0871)"><g class="a10 c2 node n8 p0" transform="translate(24.4444 16.2341)"><g class="a8 i1 leaf node n2 p0 sample" transform="translate(-12.2222 11.2788)"><path class="edge e4" d="M 0 0 V -11.2788 H 12.2222"/><rect class="sym" height="6" width="6" x="-3" y="-3"/><text class="lab" transform="translate(0 11)">2</text></g><g class="a8 i1 leaf node n3 p0 sample" transform="translate(12.2222 11.2788)"><path class="edge e5" d="M 0 0 V -11.2788 H -12.2222"/><rect class="sym" height="6" width="6" x="-3" y="-3"/><text class="lab" transform="translate(0 11)">3</text></g><path class="edge e11" d="M 0 0 V -16.2341 H -24.4444"/><circle class="sym" cx="0" cy="0" r="3"/><text class="lab rgt" transform="translate(3 -7)">8</text></g><g class="a10 c2 node n9 p0" transform="translate(-24.4444 11.6908)"><g class="a9 i0 leaf node n1 p0 sample" transform="translate(-12.2222 15.8221)"><path class="edge e7" d="M 0 0 V -15.8221 H 12.2222"/><rect class="sym" height="6" width="6" x="-3" y="-3"/><text class="lab" transform="translate(0 11)">1</text></g><g class="a9 i2 leaf node n5 p0 sample" transform="translate(12.2222 15.8221)"><path class="edge e9" d="M 0 0 V -15.8221 H -12.2222"/><rect class="sym" height="6" width="6" x="-3" y="-3"/><text class="lab" transform="translate(0 11)">5</text></g><path class="edge e13" d="M 0 0 V -11.6908 H 24.4444"/><circle class="sym" cx="0" cy="0" r="3"/><text class="lab lft" transform="translate(-3 -7)">9</text></g><path class="edge e17" d="M 0 0 V -67.0871 H -36.6667"/><circle class="sym" cx="0" cy="0" r="3"/><text class="lab rgt" transform="translate(3 -7)">10</text></g><g class="a11 c2 node n6 p0" transform="translate(-36.6667 89.0063)"><g class="a6 i0 leaf node n0 p0 sample" transform="translate(-12.2222 5.59372)"><path class="edge e0" d="M 0 0 V -5.59372 H 12.2222"/><rect class="sym" height="6" width="6" x="-3" y="-3"/><text class="lab" transform="translate(0 11)">0</text></g><g class="a6 i2 leaf node n4 p0 sample" transform="translate(12.2222 5.59372)"><path class="edge e1" d="M 0 0 V -5.59372 H -12.2222"/><rect class="sym" height="6" width="6" x="-3" y="-3"/><text class="lab" transform="translate(0 11)">4</text></g><path class="edge e15" d="M 0 0 V -89.0063 H 36.6667"/><circle class="sym" cx="0" cy="0" r="3"/><text class="lab lft" transform="translate(-3 -7)">6</text></g><circle class="sym" cx="0" cy="0" r="3"/><text class="lab" transform="translate(0 -11)">11</text></g></g></g></g></g></svg>