<svg baseProfile="full" height="250" version="1.1" width="800" xmlns="http://www.w3.org/2000/svg" xmlns:ev="http://www.w3.org/2001/xml-events" xmlns:xlink="http://www.w3.org/1999/xlink"><defs><style type="text/css"><![CDATA[.background path {fill: #808080; fill-opacity: 0}.background path:nth-child(odd) {fill-opacity: .1}.x-regions rect {fill: yellow; stroke: black; opacity: 0.5}.axes {font-size: 14px}.x-axis .tick .lab {font-weight: bold; dominant-baseline: hanging}.axes, .tree {font-size: 14px; text-anchor: middle}.axes line, .edge {stroke: black; fill: none}.axes .ax-skip {stroke-dasharray: 4}.y-axis .grid {stroke: #FAFAFA}.node > .sym {fill: black; stroke: none}.site > .sym {stroke: black}.mut text {fill: red; font-style: italic}.mut.extra text {fill: hotpink}.mut line {fill: none; stroke: none}.mut .sym {fill: none; stroke: red}.mut.extra .sym {stroke: hotpink}.node .mut .sym {stroke-width: 1.5px}.tree text, .tree-sequence text {dominant-baseline: central}.plotbox .lab.lft {text-anchor: end}.plotbox .lab.rgt {text-anchor: start}.polytomy line {stroke: black; stroke-dasharray: 1px, 1px}.polytomy text {paint-order:stroke;stroke-width:0.3em;stroke:white}.n0 > .sym {fill: yellow}.n1 > .sym {fill: yellow}.n2 > .sym {fill: blue}.n3 > .sym {fill: blue}.n4 > .sym {fill: yellow}.n5 > .sym {fill: green}.n6 > .sym {fill: blue}.n8 > .sym {fill: blue}.n10 > .sym {fill: blue}.n11 > .sym {fill: blue}]]></style></defs><g class="tree-sequence"><g class="background"><path d="M20,0 l253.333,0 l0,188.2 l-101.333,25 l0,5 l-152,0 l0,-5 l0,-25 l0,-188.2z"/><path d="M273.333,0 l253.333,0 l0,188.2 l101.333,25 l0,5 l-456,0 l0,-5 l101.333,-25 l0,-188.2z"/><path d="M526.667,0 l253.333,0 l0,188.2 l0,25 l0,5 l-152,0 l0,-5 l-101.333,-25 l0,-188.2z"/></g><g class="axes"><g class="x-axis"><g class="title" transform="translate(400 250)"><text class="lab" text-anchor="middle" transform="translate(0 -11)">Genome position</text></g><line class="ax-line" x1="20" x2="780" y1="213.2" y2="213.2"/><g class="ticks"><g class="tick" transform="translate(20 213.2)"><line x1="0" x2="0" y1="0" y2="5"/><g transform="translate(0 6)"><text class="lab">0</text></g></g><g class="tick" transform="translate(172 213.2)"><line x1="0" x2="0" y1="0" y2="5"/><g transform="translate(0 6)"><text class="lab">1</text></g></g><g class="tick" transform="translate(628 213.2)"><line x1="0" x2="0" y1="0" y2="5"/><g transform="translate(0 6)"><text class="lab">4</text></g></g><g class="tick" transform="translate(780 213.2)"><line x1="0" x2="0" y1="0" y2="5"/><g transform="translate(0 6)"><text class="lab">5</text></g></g></g></g></g><g class="plotbox trees"><g class="tree t0" transform="translate(20 0)"><g class="plotbox"><g class="c1 i0 node n0 p0 root" transform="translate(55.5556 26.8)"><g class="a0 c2 i2 node n4 p0" transform="translate(0.0 72.3)"><g class="a4 i6 leaf node n12 p0 sample" transform="translate(-17.7778 72.3)"><path class="edge e0" d="M 0 0 V -72.3 H 17.7778"/><rect class="sym" height="6" width="6" x="-3" y="-3"/><text class="lab" transform="translate(0 11)">12</text></g><g class="a4 i7 leaf node n14 p0 sample" transform="translate(17.7778 72.3)"><path class="edge e1" d="M 0 0 V -72.3 H -17.7778"/><rect class="sym" height="6" width="6" x="-3" y="-3"/><text class="lab" transform="translate(0 11)">14</text></g><path class="edge e7" d="M 0 0 V -72.3 H 0.0"/><circle class="sym" cx="0" cy="0" r="3"/><text class="lab lft" transform="translate(-3 -7)">4</text></g><circle class="sym" cx="0" cy="0" r="3"/><text class="lab" transform="translate(0 -11)">0</text></g><g class="c1 i1 node n3 p0 root" transform="translate(108.889 26.8)"><g class="a3 c1 i5 node n11 p0" transform="translate(0.0 72.3)"><g class="a11 i6 leaf node n13 p0 sample" transform="translate(0.0 72.3)"><path class="edge e6" d="M 0 0 V -72.3 H 0.0"/><rect class="sym" height="6" width="6" x="-3" y="-3"/><text class="lab" transform="translate(0 11)">13</text></g><path class="edge e15" d="M 0 0 V -72.3 H 0.0"/><circle class="sym" cx="0" cy="0" r="3"/><text class="lab lft" transform="translate(-3 -7)">11</text></g><circle class="sym" cx="0" cy="0" r="3"/><text class="lab" transform="translate(0 -11)">3</text></g><g class="c3 i0 node n1 p0 root" transform="translate(180 26.8)"><g class="a1 c1 i3 node n6 p0" transform="translate(35.5556 72.3)"><g class="a6 i8 leaf node n17 p0 sample" transform="translate(0.0 72.3)"><path class="edge e3" d="M 0 0 V -72.3 H 0.0"/><rect class="sym" height="6" width="6" x="-3" y="-3"/><text class="lab" transform="translate(0 11)">17</text></g><path class="edge e10" d="M 0 0 V -72.3 H -35.5556"/><circle class="sym" cx="0" cy="0" r="3"/><text class="lab rgt" transform="translate(3 -7)">6</text></g><g class="a1 c1 i4 node n8 p0" transform="translate(0.0 72.3)"><g class="a8 i8 leaf node n16 p0 sample" transform="translate(0.0 72.3)"><path class="edge e4" d="M 0 0 V -72.3 H 0.0"/><rect class="sym" height="6" width="6" x="-3" y="-3"/><text class="lab" transform="translate(0 11)">16</text></g><path class="edge e12" d="M 0 0 V -72.3 H 0.0"/><circle class="sym" cx="0" cy="0" r="3"/><text class="lab rgt" transform="translate(3 -7)">8</text></g><g class="a1 c1 i5 node n10 p0" transform="translate(-35.5556 72.3)"><g class="a10 i7 leaf node n15 p0 sample" transform="translate(0.0 72.3)"><path class="edge e5" d="M 0 0 V -72.3 H 0.0"/><rect class="sym" height="6" width="6" x="-3" y="-3"/><text class="lab" transform="translate(0 11)">15</text></g><path class="edge e13" d="M 0 0 V -72.3 H 35.5556"/><circle class="sym" cx="0" cy="0" r="3"/><text class="lab lft" transform="translate(-3 -7)">10</text></g><circle class="sym" cx="0" cy="0" r="3"/><text class="lab" transform="translate(0 -11)">1</text></g></g></g><g class="tree t1" transform="translate(273.333 0)"><g class="plotbox"><g class="c2 i0 node n0 p0 root" transform="translate(82.2222 26.8)"><g class="a0 c2 i2 node n4 p0" transform="translate(-26.6667 72.3)"><g class="a4 i6 leaf node n12 p0 sample" transform="translate(-17.7778 72.3)"><path class="edge e0" d="M 0 0 V -72.3 H 17.7778"/><rect class="sym" height="6" width="6" x="-3" y="-3"/><text class="lab" transform="translate(0 11)">12</text></g><g class="a4 i7 leaf node n14 p0 sample" transform="translate(17.7778 72.3)"><path class="edge e1" d="M 0 0 V -72.3 H -17.7778"/><rect class="sym" height="6" width="6" x="-3" y="-3"/><text class="lab" transform="translate(0 11)">14</text></g><path class="edge e7" d="M 0 0 V -72.3 H 26.6667"/><circle class="sym" cx="0" cy="0" r="3"/><text class="lab lft" transform="translate(-3 -7)">4</text></g><g class="a0 c1 i3 node n6 p0" transform="translate(26.6667 72.3)"><g class="a6 i8 leaf node n17 p0 sample" transform="translate(0.0 72.3)"><path class="edge e3" d="M 0 0 V -72.3 H 0.0"/><rect class="sym" height="6" width="6" x="-3" y="-3"/><text class="lab" transform="translate(0 11)">17</text></g><path class="edge e8" d="M 0 0 V -72.3 H -26.6667"/><circle class="sym" cx="0" cy="0" r="3"/><text class="lab rgt" transform="translate(3 -7)">6</text></g><circle class="sym" cx="0" cy="0" r="3"/><text class="lab" transform="translate(0 -11)">0</text></g><g class="c1 i1 node n3 p0 root" transform="translate(144.444 26.8)"><g class="a3 c1 i5 node n11 p0" transform="translate(0.0 72.3)"><g class="a11 i6 leaf node n13 p0 sample" transform="translate(0.0 72.3)"><path class="edge e6" d="M 0 0 V -72.3 H 0.0"/><rect class="sym" height="6" width="6" x="-3" y="-3"/><text class="lab" transform="translate(0 11)">13</text></g><path class="edge e15" d="M 0 0 V -72.3 H 0.0"/><circle class="sym" cx="0" cy="0" r="3"/><text class="lab lft" transform="translate(-3 -7)">11</text></g><circle class="sym" cx="0" cy="0" r="3"/><text class="lab" transform="translate(0 -11)">3</text></g><g class="c2 i0 node n1 p0 root" transform="translate(197.778 26.8)"><g class="a1 c1 i4 node n8 p0" transform="translate(17.7778 72.3)"><g class="a8 i8 leaf node n16 p0 sample" transform="translate(0.0 72.3)"><path class="edge e4" d="M 0 0 V -72.3 H 0.0"/><rect class="sym" height="6" width="6" x="-3" y="-3"/><text class="lab" transform="translate(0 11)">16</text></g><path class="edge e12" d="M 0 0 V -72.3 H -17.7778"/><circle class="sym" cx="0" cy="0" r="3"/><text class="lab rgt" transform="translate(3 -7)">8</text></g><g class="a1 c1 i5 node n10 p0" transform="translate(-17.7778 72.3)"><g class="a10 i7 leaf node n15 p0 sample" transform="translate(0.0 72.3)"><path class="edge e5" d="M 0 0 V -72.3 H 0.0"/><rect class="sym" height="6" width="6" x="-3" y="-3"/><text class="lab" transform="translate(0 11)">15</text></g><path class="edge e13" d="M 0 0 V -72.3 H 17.7778"/><circle class="sym" cx="0" cy="0" r="3"/><text class="lab lft" transform="translate(-3 -7)">10</text></g><circle class="sym" cx="0" cy="0" r="3"/><text class="lab" transform="translate(0 -11)">1</text></g></g></g><g class="tree t2" transform="translate(526.667 0)"><g class="plotbox"><g class="c2 i0 node n0 p0 root" transform="translate(55.5556 26.8)"><g class="a0 c1 i2 node n4 p0" transform="translate(-17.7778 72.3)"><g class="a4 i6 leaf node n12 p0 sample" transform="translate(0.0 72.3)"><path class="edge e0" d="M 0 0 V -72.3 H 0.0"/><rect class="sym" height="6" width="6" x="-3" y="-3"/><text class="lab" transform="translate(0 11)">12</text></g><path class="edge e7" d="M 0 0 V -72.3 H 17.7778"/><circle class="sym" cx="0" cy="0" r="3"/><text class="lab lft" transform="translate(-3 -7)">4</text></g><g class="a0 c1 i4 node n8 p0" transform="translate(17.7778 72.3)"><g class="a8 i8 leaf node n16 p0 sample" transform="translate(0.0 72.3)"><path class="edge e4" d="M 0 0 V -72.3 H 0.0"/><rect class="sym" height="6" width="6" x="-3" y="-3"/><text class="lab" transform="translate(0 11)">16</text></g><path class="edge e9" d="M 0 0 V -72.3 H -17.7778"/><circle class="sym" cx="0" cy="0" r="3"/><text class="lab rgt" transform="translate(3 -7)">8</text></g><circle class="sym" cx="0" cy="0" r="3"/><text class="lab" transform="translate(0 -11)">0</text></g><g class="c1 i1 node n3 p0 root" transform="translate(108.889 26.8)"><g class="a3 c1 i5 node n11 p0" transform="translate(0.0 72.3)"><g class="a11 i6 leaf node n13 p0 sample" transform="translate(0.0 72.3)"><path class="edge e6" d="M 0 0 V -72.3 H 0.0"/><rect class="sym" height="6" width="6" x="-3" y="-3"/><text class="lab" transform="translate(0 11)">13</text></g><path class="edge e15" d="M 0 0 V -72.3 H 0.0"/><circle class="sym" cx="0" cy="0" r="3"/><text class="lab lft" transform="translate(-3 -7)">11</text></g><circle class="sym" cx="0" cy="0" r="3"/><text class="lab" transform="translate(0 -11)">3</text></g><g class="c1 i1 node n2 p0 root" transform="translate(144.444 26.8)"><g class="a2 c1 i2 node n5 p0" transform="translate(0.0 72.3)"><g class="a5 i7 leaf node n14 p0 sample" transform="translate(0.0 72.3)"><path class="edge e2" d="M 0 0 V -72.3 H 0.0"/><rect class="sym" height="6" width="6" x="-3" y="-3"/><text class="lab" transform="translate(0 11)">14</text></g><path class="edge e14" d="M 0 0 V -72.3 H 0.0"/><circle class="sym" cx="0" cy="0" r="3"/><text class="lab lft" transform="translate(-3 -7)">5</text></g><circle class="sym" cx="0" cy="0" r="3"/><text class="lab" transform="translate(0 -11)">2</text></g><g class="c2 i0 node n1 p0 root" transform="translate(197.778 26.8)"><g class="a1 c1 i5 node n10 p0" transform="translate(-17.7778 72.3)"><g class="a10 i7 leaf node n15 p0 sample" transform="translate(0.0 72.3)"><path class="edge e5" d="M 0 0 V -72.3 H 0.0"/><rect class="sym" height="6" width="6" x="-3" y="-3"/><text class="lab" transform="translate(0 11)">15</text></g><path class="edge e13" d="M 0 0 V -72.3 H 17.7778"/><circle class="sym" cx="0" cy="0" r="3"/><text class="lab lft" transform="translate(-3 -7)">10</text></g><g class="a1 c1 i3 node n6 p0" transform="translate(17.7778 72.3)"><g class="a6 i8 leaf node n17 p0 sample" transform="translate(0.0 72.3)"><path class="edge e3" d="M 0 0 V -72.3 H 0.0"/><rect class="sym" height="6" width="6" x="-3" y="-3"/><text class="lab" transform="translate(0 11)">17</text></g><path class="edge e11" d="M 0 0 V -72.3 H -17.7778"/><circle class="sym" cx="0" cy="0" r="3"/><text class="lab rgt" transform="translate(3 -7)">6</text></g><circle class="sym" cx="0" cy="0" r="3"/><text class="lab" transform="translate(0 -11)">1</text></g></g></g></g></g></svg>