<svg xmlns="http://www.w3.org/2000/svg" xmlns:ev="http://www.w3.org/2001/xml-events" xmlns:xlink="http://www.w3.org/1999/xlink" baseProfile="full" height="200" version="1.1" width="400"><defs><style type="text/css"><![CDATA[.background path {fill: #808080; fill-opacity: 0}.background path:nth-child(odd) {fill-opacity: .1}.x-regions rect {fill: yellow; stroke: black; opacity: 0.5}.axes {font-size: 14px}.x-axis .tick .lab {font-weight: bold; dominant-baseline: hanging}.axes, .tree {font-size: 14px; text-anchor: middle}.axes line, .edge {stroke: black; fill: none}.axes .ax-skip {stroke-dasharray: 4}.y-axis .grid {stroke: #FAFAFA}.node > .sym {fill: black; stroke: none}.site > .sym {stroke: black}.mut text {fill: red; font-style: italic}.mut.extra text {fill: hotpink}.mut line {fill: none; stroke: none}.mut .sym {fill: none; stroke: red}.mut.extra .sym {stroke: hotpink}.node .mut .sym {stroke-width: 1.5px}.tree text, .tree-sequence text {dominant-baseline: central}.plotbox .lab.lft {text-anchor: end}.plotbox .lab.rgt {text-anchor: start}.polytomy line {stroke: black; stroke-dasharray: 1px, 1px}.polytomy text {paint-order:stroke;stroke-width:0.3em;stroke:white}]]></style></defs><g class="tree-sequence"><g class="background"><path d="M20,0 l180,0 l0,138.2 l0,25 l0,5 l-180,0 l0,-5 l0,-25 l0,-138.2z"/><path d="M200,0 l180,0 l0,138.2 l0,25 l0,5 l-180,0 l0,-5 l0,-25 l0,-138.2z"/></g><g class="axes"><g class="x-axis"><g class="title" transform="translate(200 200)"><text class="lab" text-anchor="middle" transform="translate(0 -11)">Genome position</text></g><line class="ax-line" x1="20" x2="380" y1="163.2" y2="163.2"/><g class="ticks"><g class="tick" transform="translate(20 163.2)"><line x1="0" x2="0" y1="0" y2="5"/><g transform="translate(0 6)"><text class="lab">0</text></g></g><g class="tick" transform="translate(200 163.2)"><line x1="0" x2="0" y1="0" y2="5"/><g transform="translate(0 6)"><text class="lab">1</text></g></g><g class="tick" transform="translate(380 163.2)"><line x1="0" x2="0" y1="0" y2="5"/><g transform="translate(0 6)"><text class="lab">2</text></g></g></g></g></g><g class="plotbox trees"><g class="tree t0" transform="translate(20 0)"><g class="plotbox"><g class="c2 node n13 p0 root" transform="translate(101.667 26.8)"><g class="a13 c2 node n8 p0" transform="translate(-35 80.5874)"><g class="a8 c2 node n6 p0" transform="translate(-23.3333 9.832)"><g class="a6 i0 leaf node n0 p0 sample" transform="translate(-11.6667 4.18059)"><path class="edge e0" d="M 0 0 V -4.18059 H 11.6667"/><rect class="sym" height="6" width="6" x="-3" y="-3"/><text class="lab" transform="translate(0 11)">0</text></g><g class="a6 i2 leaf node n5 p0 sample" transform="translate(11.6667 4.18059)"><path class="edge e1" d="M 0 0 V -4.18059 H -11.6667"/><rect class="sym" height="6" width="6" x="-3" y="-3"/><text class="lab" transform="translate(0 11)">5</text></g><path class="edge e4" d="M 0 0 V -9.832 H 23.3333"/><circle class="sym" cx="0" cy="0" r="3"/><text class="lab lft" transform="translate(-3 -7)">6</text></g><g class="a8 c2 node n7 p0" transform="translate(23.3333 3.87451)"><g class="a7 i1 leaf node n2 p0 sample" transform="translate(-11.6667 10.1381)"><path class="edge e2" d="M 0 0 V -10.1381 H 11.6667"/><rect class="sym" height="6" width="6" x="-3" y="-3"/><text class="lab" transform="translate(0 11)">2</text></g><g class="a7 i1 leaf node n3 p0 sample" transform="translate(11.6667 10.1381)"><path class="edge e3" d="M 0 0 V -10.1381 H -11.6667"/><rect class="sym" height="6" width="6" x="-3" y="-3"/><text class="lab" transform="translate(0 11)">3</text></g><path class="edge e5" d="M 0 0 V -3.87451 H -23.3333"/><circle class="sym" cx="0" cy="0" r="3"/><text class="lab rgt" transform="translate(3 -7)">7</text></g><path class="edge e12" d="M 0 0 V -80.5874 H 35"/><circle class="sym" cx="0" cy="0" r="3"/><text class="lab lft" transform="translate(-3 -7)">8</text></g><g class="a13 c2 node n12 p0" transform="translate(35 70.3541)"><g class="a12 i2 leaf node n4 p0 sample" transform="translate(11.6667 24.2459)"><path class="edge e10" d="M 0 0 V -24.2459 H -11.6667"/><rect class="sym" height="6" width="6" x="-3" y="-3"/><text class="lab" transform="translate(0 11)">4</text></g><g class="a12 c1 node n11 p0" transform="translate(-11.6667 0.273043)"><g class="a11 c1 node n9 p0" transform="translate(0.0 6.03263)"><g class="a9 i0 leaf node n1 p0 sample" transform="translate(0.0 17.9403)"><path class="edge e6" d="M 0 0 V -17.9403 H 0.0"/><rect class="sym" height="6" width="6" x="-3" y="-3"/><text class="lab" transform="translate(0 11)">1</text></g><path class="edge e8" d="M 0 0 V -6.03263 H 0.0"/><circle class="sym" cx="0" cy="0" r="3"/><text class="lab lft" transform="translate(-3 -7)">9</text></g><path class="edge e11" d="M 0 0 V -0.273043 H 11.6667"/><circle class="sym" cx="0" cy="0" r="3"/><text class="lab lft" transform="translate(-3 -7)">11</text></g><path class="edge e13" d="M 0 0 V -70.3541 H -35"/><circle class="sym" cx="0" cy="0" r="3"/><text class="lab rgt" transform="translate(3 -7)">12</text></g><circle class="sym" cx="0" cy="0" r="3"/><text class="lab" transform="translate(0 -11)">13</text></g></g></g><g class="tree t1" transform="translate(200 0)"><g class="plotbox"><g class="c2 node n13 p0 root" transform="translate(101.667 26.8)"><g class="a13 c2 node n8 p0" transform="translate(-35 80.5874)"><g class="a8 c2 node n6 p0" transform="translate(-23.3333 9.832)"><g class="a6 i0 leaf node n0 p0 sample" transform="translate(-11.6667 4.18059)"><path class="edge e0" d="M 0 0 V -4.18059 H 11.6667"/><rect class="sym" height="6" width="6" x="-3" y="-3"/><text class="lab" transform="translate(0 11)">0</text></g><g class="a6 i2 leaf node n5 p0 sample" transform="translate(11.6667 4.18059)"><path class="edge e1" d="M 0 0 V -4.18059 H -11.6667"/><rect class="sym" height="6" width="6" x="-3" y="-3"/><text class="lab" transform="translate(0 11)">5</text></g><path class="edge e4" d="M 0 0 V -9.832 H 23.3333"/><circle class="sym" cx="0" cy="0" r="3"/><text class="lab lft" transform="translate(-3 -7)">6</text></g><g class="a8 c2 node n7 p0" transform="translate(23.3333 3.87451)"><g class="a7 i1 leaf node n2 p0 sample" transform="translate(-11.6667 10.1381)"><path class="edge e2" d="M 0 0 V -10.1381 H 11.6667"/><rect class="sym" height="6" width="6" x="-3" y="-3"/><text class="lab" transform="translate(0 11)">2</text></g><g class="a7 i1 leaf node n3 p0 sample" transform="translate(11.6667 10.1381)"><path class="edge e3" d="M 0 0 V -10.1381 H -11.6667"/><rect class="sym" height="6" width="6" x="-3" y="-3"/><text class="lab" transform="translate(0 11)">3</text></g><path class="edge e5" d="M 0 0 V -3.87451 H -23.3333"/><circle class="sym" cx="0" cy="0" r="3"/><text class="lab rgt" transform="translate(3 -7)">7</text></g><path class="edge e12" d="M 0 0 V -80.5874 H 35"/><circle class="sym" cx="0" cy="0" r="3"/><text class="lab lft" transform="translate(-3 -7)">8</text></g><g class="a13 c2 node n12 p0" transform="translate(35 70.3541)"><g class="a12 i2 leaf node n4 p0 sample" transform="translate(11.6667 24.2459)"><path class="edge e10" d="M 0 0 V -24.2459 H -11.6667"/><rect class="sym" height="6" width="6" x="-3" y="-3"/><text class="lab" transform="translate(0 11)">4</text></g><g class="a12 c1 node n11 p0" transform="translate(-11.6667 0.273043)"><g class="a11 c1 node n10 p0" transform="translate(0.0 6.03263)"><g class="a10 i0 leaf node n1 p0 sample" transform="translate(0.0 17.9403)"><path class="edge e7" d="M 0 0 V -17.9403 H 0.0"/><rect class="sym" height="6" width="6" x="-3" y="-3"/><text class="lab" transform="translate(0 11)">1</text></g><path class="edge e9" d="M 0 0 V -6.03263 H 0.0"/><circle class="sym" cx="0" cy="0" r="3"/><text class="lab lft" transform="translate(-3 -7)">10</text></g><path class="edge e11" d="M 0 0 V -0.273043 H 11.6667"/><circle class="sym" cx="0" cy="0" r="3"/><text class="lab lft" transform="translate(-3 -7)">11</text></g><path class="edge e13" d="M 0 0 V -70.3541 H -35"/><circle class="sym" cx="0" cy="0" r="3"/><text class="lab rgt" transform="translate(3 -7)">12</text></g><circle class="sym" cx="0" cy="0" r="3"/><text class="lab" transform="translate(0 -11)">13</text></g></g></g></g></g></svg>