<svg xmlns="http://www.w3.org/2000/svg" xmlns:ev="http://www.w3.org/2001/xml-events" xmlns:xlink="http://www.w3.org/1999/xlink" baseProfile="full" height="200" version="1.1" width="600"><defs><style type="text/css"><![CDATA[.background path {fill: #808080; fill-opacity: 0}.background path:nth-child(odd) {fill-opacity: .1}.x-regions rect {fill: yellow; stroke: black; opacity: 0.5}.axes {font-size: 14px}.x-axis .tick .lab {font-weight: bold; dominant-baseline: hanging}.axes, .tree {font-size: 14px; text-anchor: middle}.axes line, .edge {stroke: black; fill: none}.axes .ax-skip {stroke-dasharray: 4}.y-axis .grid {stroke: #FAFAFA}.node > .sym {fill: black; stroke: none}.site > .sym {stroke: black}.mut text {fill: red; font-style: italic}.mut.extra text {fill: hotpink}.mut line {fill: none; stroke: none}.mut .sym {fill: none; stroke: red}.mut.extra .sym {stroke: hotpink}.node .mut .sym {stroke-width: 1.5px}.tree text, .tree-sequence text {dominant-baseline: central}.plotbox .lab.lft {text-anchor: end}.plotbox .lab.rgt {text-anchor: start}.polytomy line {stroke: black; stroke-dasharray: 1px, 1px}.polytomy text {paint-order:stroke;stroke-width:0.3em;stroke:white}]]></style></defs><g class="tree-sequence"><g class="background"><path d="M20,0 l186.667,0 l0,138.2 l-86.9204,25 l0,5 l-99.7463,0 l0,-5 l0,-25 l0,-138.2z"/><path d="M206.667,0 l186.667,0 l0,138.2 l-204.494,25 l0,5 l-69.0929,0 l0,-5 l86.921,-25 l0,-138.2z"/><path d="M393.333,0 l186.667,0 l0,138.2 l0,25 l0,5 l-391.161,0 l0,-5 l204.494,-25 l0,-138.2z"/></g><g class="axes"><g class="x-axis"><g class="title" transform="translate(300 200)"><text class="lab" text-anchor="middle" transform="translate(0 -11)">Genome position</text></g><line class="ax-line" x1="20" x2="580" y1="163.2" y2="163.2"/><g class="ticks"><g class="tick" transform="translate(20 163.2)"><line x1="0" x2="0" y1="0" y2="5"/><g transform="translate(0 6)"><text class="lab">0.00</text></g></g><g class="tick" transform="translate(119.746 163.2)"><line x1="0" x2="0" y1="0" y2="5"/><g transform="translate(0 6)"><text class="lab">0.18</text></g></g><g class="tick" transform="translate(188.839 163.2)"><line x1="0" x2="0" y1="0" y2="5"/><g transform="translate(0 6)"><text class="lab">0.30</text></g></g><g class="tick" transform="translate(580 163.2)"><line x1="0" x2="0" y1="0" y2="5"/><g transform="translate(0 6)"><text class="lab">1.00</text></g></g></g></g></g><g class="plotbox trees"><g class="tree t0" transform="translate(20 0)"><g class="plotbox"><g class="c2 node n10 p0 root" transform="translate(129.236 37.0296)"><g class="a10 i2 leaf node n4 p0 sample" transform="translate(25.2083 84.3704)"><path class="edge e8" d="M 0 0 V -84.3704 H -25.2083"/><rect class="sym" height="6" width="6" x="-3" y="-3"/><text class="lab" transform="translate(0 11)">4</text></g><g class="a10 c2 node n9 p0" transform="translate(-25.2083 60.3652)"><g class="a9 i2 leaf node n5 p0 sample" transform="translate(25.9722 24.0052)"><path class="edge e6" d="M 0 0 V -24.0052 H -25.9722"/><rect class="sym" height="6" width="6" x="-3" y="-3"/><text class="lab" transform="translate(0 11)">5</text></g><g class="a9 c2 node n8 p0" transform="translate(-25.9722 5.89198)"><g class="a8 i1 leaf node n2 p0 sample" transform="translate(27.5 18.1132)"><path class="edge e4" d="M 0 0 V -18.1132 H -27.5"/><rect class="sym" height="6" width="6" x="-3" y="-3"/><text class="lab" transform="translate(0 11)">2</text></g><g class="a8 c2 node n7 p0" transform="translate(-27.5 4.89431)"><g class="a7 i0 leaf node n0 p0 sample" transform="translate(-18.3333 13.2189)"><path class="edge e2" d="M 0 0 V -13.2189 H 18.3333"/><rect class="sym" height="6" width="6" x="-3" y="-3"/><text class="lab" transform="translate(0 11)">0</text></g><g class="a7 c2 node n6 p0" transform="translate(18.3333 10.5158)"><g class="a6 i0 leaf node n1 p0 sample" transform="translate(-12.2222 2.70312)"><path class="edge e0" d="M 0 0 V -2.70312 H 12.2222"/><rect class="sym" height="6" width="6" x="-3" y="-3"/><text class="lab" transform="translate(0 11)">1</text></g><g class="a6 i1 leaf node n3 p0 sample" transform="translate(12.2222 2.70312)"><path class="edge e1" d="M 0 0 V -2.70312 H -12.2222"/><rect class="sym" height="6" width="6" x="-3" y="-3"/><text class="lab" transform="translate(0 11)">3</text></g><path class="edge e3" d="M 0 0 V -10.5158 H -18.3333"/><circle class="sym" cx="0" cy="0" r="3"/><text class="lab rgt" transform="translate(3 -7)">6</text></g><path class="edge e5" d="M 0 0 V -4.89431 H 27.5"/><circle class="sym" cx="0" cy="0" r="3"/><text class="lab lft" transform="translate(-3 -7)">7</text></g><path class="edge e7" d="M 0 0 V -5.89198 H 25.9722"/><circle class="sym" cx="0" cy="0" r="3"/><text class="lab lft" transform="translate(-3 -7)">8</text></g><path class="edge e11" d="M 0 0 V -60.3652 H 25.2083"/><circle class="sym" cx="0" cy="0" r="3"/><text class="lab lft" transform="translate(-3 -7)">9</text></g><circle class="sym" cx="0" cy="0" r="3"/><text class="lab" transform="translate(0 -11)">10</text></g></g></g><g class="tree t1" transform="translate(206.667 0)"><g class="plotbox"><g class="c2 node n11 p0 root" transform="translate(129.236 26.8)"><g class="a11 i2 leaf node n4 p0 sample" transform="translate(25.2083 94.6)"><path class="edge e12" d="M 0 0 V -94.6 H -25.2083"/><rect class="sym" height="6" width="6" x="-3" y="-3"/><text class="lab" transform="translate(0 11)">4</text></g><g class="a11 c2 node n9 p0" transform="translate(-25.2083 70.5948)"><g class="a9 i2 leaf node n5 p0 sample" transform="translate(25.9722 24.0052)"><path class="edge e6" d="M 0 0 V -24.0052 H -25.9722"/><rect class="sym" height="6" width="6" x="-3" y="-3"/><text class="lab" transform="translate(0 11)">5</text></g><g class="a9 c2 node n8 p0" transform="translate(-25.9722 5.89198)"><g class="a8 i1 leaf node n2 p0 sample" transform="translate(27.5 18.1132)"><path class="edge e4" d="M 0 0 V -18.1132 H -27.5"/><rect class="sym" height="6" width="6" x="-3" y="-3"/><text class="lab" transform="translate(0 11)">2</text></g><g class="a8 c2 node n7 p0" transform="translate(-27.5 4.89431)"><g class="a7 i0 leaf node n0 p0 sample" transform="translate(-18.3333 13.2189)"><path class="edge e2" d="M 0 0 V -13.2189 H 18.3333"/><rect class="sym" height="6" width="6" x="-3" y="-3"/><text class="lab" transform="translate(0 11)">0</text></g><g class="a7 c2 node n6 p0" transform="translate(18.3333 10.5158)"><g class="a6 i0 leaf node n1 p0 sample" transform="translate(-12.2222 2.70312)"><path class="edge e0" d="M 0 0 V -2.70312 H 12.2222"/><rect class="sym" height="6" width="6" x="-3" y="-3"/><text class="lab" transform="translate(0 11)">1</text></g><g class="a6 i1 leaf node n3 p0 sample" transform="translate(12.2222 2.70312)"><path class="edge e1" d="M 0 0 V -2.70312 H -12.2222"/><rect class="sym" height="6" width="6" x="-3" y="-3"/><text class="lab" transform="translate(0 11)">3</text></g><path class="edge e3" d="M 0 0 V -10.5158 H -18.3333"/><circle class="sym" cx="0" cy="0" r="3"/><text class="lab rgt" transform="translate(3 -7)">6</text></g><path class="edge e5" d="M 0 0 V -4.89431 H 27.5"/><circle class="sym" cx="0" cy="0" r="3"/><text class="lab lft" transform="translate(-3 -7)">7</text></g><path class="edge e7" d="M 0 0 V -5.89198 H 25.9722"/><circle class="sym" cx="0" cy="0" r="3"/><text class="lab lft" transform="translate(-3 -7)">8</text></g><path class="edge e13" d="M 0 0 V -70.5948 H 25.2083"/><circle class="sym" cx="0" cy="0" r="3"/><text class="lab lft" transform="translate(-3 -7)">9</text></g><circle class="sym" cx="0" cy="0" r="3"/><text class="lab" transform="translate(0 -11)">11</text></g></g></g><g class="tree t2" transform="translate(393.333 0)"><g class="plotbox"><g class="c2 node n11 p0 root" transform="translate(129.236 26.8)"><g class="a11 i2 leaf node n4 p0 sample" transform="translate(25.2083 94.6)"><path class="edge e12" d="M 0 0 V -94.6 H -25.2083"/><rect class="sym" height="6" width="6" x="-3" y="-3"/><text class="lab" transform="translate(0 11)">4</text></g><g class="a11 c2 node n10 p0" transform="translate(-25.2083 10.2296)"><g class="a10 i2 leaf node n5 p0 sample" transform="translate(25.9722 84.3704)"><path class="edge e9" d="M 0 0 V -84.3704 H -25.9722"/><rect class="sym" height="6" width="6" x="-3" y="-3"/><text class="lab" transform="translate(0 11)">5</text></g><g class="a10 c2 node n8 p0" transform="translate(-25.9722 66.2571)"><g class="a8 i1 leaf node n2 p0 sample" transform="translate(27.5 18.1132)"><path class="edge e4" d="M 0 0 V -18.1132 H -27.5"/><rect class="sym" height="6" width="6" x="-3" y="-3"/><text class="lab" transform="translate(0 11)">2</text></g><g class="a8 c2 node n7 p0" transform="translate(-27.5 4.89431)"><g class="a7 i0 leaf node n0 p0 sample" transform="translate(-18.3333 13.2189)"><path class="edge e2" d="M 0 0 V -13.2189 H 18.3333"/><rect class="sym" height="6" width="6" x="-3" y="-3"/><text class="lab" transform="translate(0 11)">0</text></g><g class="a7 c2 node n6 p0" transform="translate(18.3333 10.5158)"><g class="a6 i0 leaf node n1 p0 sample" transform="translate(-12.2222 2.70312)"><path class="edge e0" d="M 0 0 V -2.70312 H 12.2222"/><rect class="sym" height="6" width="6" x="-3" y="-3"/><text class="lab" transform="translate(0 11)">1</text></g><g class="a6 i1 leaf node n3 p0 sample" transform="translate(12.2222 2.70312)"><path class="edge e1" d="M 0 0 V -2.70312 H -12.2222"/><rect class="sym" height="6" width="6" x="-3" y="-3"/><text class="lab" transform="translate(0 11)">3</text></g><path class="edge e3" d="M 0 0 V -10.5158 H -18.3333"/><circle class="sym" cx="0" cy="0" r="3"/><text class="lab rgt" transform="translate(3 -7)">6</text></g><path class="edge e5" d="M 0 0 V -4.89431 H 27.5"/><circle class="sym" cx="0" cy="0" r="3"/><text class="lab lft" transform="translate(-3 -7)">7</text></g><path class="edge e10" d="M 0 0 V -66.2571 H 25.9722"/><circle class="sym" cx="0" cy="0" r="3"/><text class="lab lft" transform="translate(-3 -7)">8</text></g><path class="edge e14" d="M 0 0 V -10.2296 H 25.2083"/><circle class="sym" cx="0" cy="0" r="3"/><text class="lab lft" transform="translate(-3 -7)">10</text></g><circle class="sym" cx="0" cy="0" r="3"/><text class="lab" transform="translate(0 -11)">11</text></g></g></g></g></g></svg>