<svg xmlns="http://www.w3.org/2000/svg" xmlns:ev="http://www.w3.org/2001/xml-events" xmlns:xlink="http://www.w3.org/1999/xlink" baseProfile="full" height="200" version="1.1" width="800"><defs><style type="text/css"><![CDATA[.background path {fill: #808080; fill-opacity: 0}.background path:nth-child(odd) {fill-opacity: .1}.x-regions rect {fill: yellow; stroke: black; opacity: 0.5}.axes {font-size: 14px}.x-axis .tick .lab {font-weight: bold; dominant-baseline: hanging}.axes, .tree {font-size: 14px; text-anchor: middle}.axes line, .edge {stroke: black; fill: none}.axes .ax-skip {stroke-dasharray: 4}.y-axis .grid {stroke: #FAFAFA}.node > .sym {fill: black; stroke: none}.site > .sym {stroke: black}.mut text {fill: red; font-style: italic}.mut.extra text {fill: hotpink}.mut line {fill: none; stroke: none}.mut .sym {fill: none; stroke: red}.mut.extra .sym {stroke: hotpink}.node .mut .sym {stroke-width: 1.5px}.tree text, .tree-sequence text {dominant-baseline: central}.plotbox .lab.lft {text-anchor: end}.plotbox .lab.rgt {text-anchor: start}.polytomy line {stroke: black; stroke-dasharray: 1px, 1px}.polytomy text {paint-order:stroke;stroke-width:0.3em;stroke:white}.n8 > .sym {fill: green}.n9 > .sym {fill: green}.n10 > .sym {fill: green}.n11 > .sym {fill: green}.n12 > .sym {fill: green}.n13 > .sym {fill: green}]]></style></defs><g class="tree-sequence"><g class="background"><path d="M20,0 l190,0 l0,138.2 l10.64,25 l0,5 l-200.64,0 l0,-5 l0,-25 l0,-138.2z"/><path d="M210,0 l190,0 l0,138.2 l135.28,25 l0,5 l-314.64,0 l0,-5 l-10.64,-25 l0,-138.2z"/><path d="M400,0 l190,0 l0,138.2 l142.88,25 l0,5 l-197.6,0 l0,-5 l-135.28,-25 l0,-138.2z"/><path d="M590,0 l190,0 l0,138.2 l0,25 l0,5 l-47.12,0 l0,-5 l-142.88,-25 l0,-138.2z"/></g><g class="axes"><g class="x-axis"><g class="title" transform="translate(400 200)"><text class="lab" text-anchor="middle" transform="translate(0 -11)">Genome position</text></g><line class="ax-line" x1="20" x2="780" y1="163.2" y2="163.2"/><g class="ticks"><g class="tick" transform="translate(20 163.2)"><line x1="0" x2="0" y1="0" y2="5"/><g transform="translate(0 6)"><text class="lab">0</text></g></g><g class="tick" transform="translate(220.64 163.2)"><line x1="0" x2="0" y1="0" y2="5"/><g transform="translate(0 6)"><text class="lab">264</text></g></g><g class="tick" transform="translate(535.28 163.2)"><line x1="0" x2="0" y1="0" y2="5"/><g transform="translate(0 6)"><text class="lab">678</text></g></g><g class="tick" transform="translate(732.88 163.2)"><line x1="0" x2="0" y1="0" y2="5"/><g transform="translate(0 6)"><text class="lab">938</text></g></g><g class="tick" transform="translate(780 163.2)"><line x1="0" x2="0" y1="0" y2="5"/><g transform="translate(0 6)"><text class="lab">1000</text></g></g></g></g></g><g class="plotbox trees"><g class="tree t0" transform="translate(20 0)"><g class="plotbox"><g class="c2 node n14 p1 root" transform="translate(95 60.9777)"><g class="a14 c1 node n9 p0" transform="translate(37.5 2.68648)"><g class="a9 c2 node n5 p1" transform="translate(0.0 14.5376)"><g class="a5 i0 leaf node n1 p0 sample" transform="translate(-18.75 43.1983)"><path class="edge e2" d="M 0 0 V -43.1983 H 18.75"/><rect class="sym" height="6" width="6" x="-3" y="-3"/><text class="lab" transform="translate(0 11)">1</text></g><g class="a5 i1 leaf node n3 p1 sample" transform="translate(18.75 43.1983)"><path class="edge e3" d="M 0 0 V -43.1983 H -18.75"/><rect class="sym" height="6" width="6" x="-3" y="-3"/><text class="lab" transform="translate(0 11)">3</text></g><path class="edge e10" d="M 0 0 V -14.5376 H 0.0"/><circle class="sym" cx="0" cy="0" r="3"/><text class="lab lft" transform="translate(-3 -7)">5</text></g><path class="edge e15" d="M 0 0 V -2.68648 H -37.5"/><circle class="sym" cx="0" cy="0" r="3"/><text class="lab rgt" transform="translate(3 -7)">9</text></g><g class="a14 c1 node n12 p1" transform="translate(-37.5 2.68648)"><g class="a12 c2 node n4 p1" transform="translate(0.0 30.8089)"><g class="a4 i0 leaf node n0 p0 sample" transform="translate(-18.75 26.927)"><path class="edge e0" d="M 0 0 V -26.927 H 18.75"/><rect class="sym" height="6" width="6" x="-3" y="-3"/><text class="lab" transform="translate(0 11)">0</text></g><g class="a4 i1 leaf node n2 p1 sample" transform="translate(18.75 26.927)"><path class="edge e1" d="M 0 0 V -26.927 H -18.75"/><rect class="sym" height="6" width="6" x="-3" y="-3"/><text class="lab" transform="translate(0 11)">2</text></g><path class="edge e13" d="M 0 0 V -30.8089 H 0.0"/><circle class="sym" cx="0" cy="0" r="3"/><text class="lab lft" transform="translate(-3 -7)">4</text></g><path class="edge e18" d="M 0 0 V -2.68648 H 37.5"/><circle class="sym" cx="0" cy="0" r="3"/><text class="lab lft" transform="translate(-3 -7)">12</text></g><circle class="sym" cx="0" cy="0" r="3"/><text class="lab" transform="translate(0 -11)">14</text></g></g></g><g class="tree t1" transform="translate(210 0)"><g class="plotbox"><g class="c2 node n14 p1 root" transform="translate(118.438 60.9777)"><g class="a14 c1 node n10 p0" transform="translate(32.8125 2.68648)"><g class="a10 i1 leaf node n3 p1 sample" transform="translate(0.0 57.7359)"><path class="edge e11" d="M 0 0 V -57.7359 H 0.0"/><rect class="sym" height="6" width="6" x="-3" y="-3"/><text class="lab" transform="translate(0 11)">3</text></g><path class="edge e16" d="M 0 0 V -2.68648 H -32.8125"/><circle class="sym" cx="0" cy="0" r="3"/><text class="lab rgt" transform="translate(3 -7)">10</text></g><g class="a14 c1 node n13 p1" transform="translate(-32.8125 2.68648)"><g class="a13 c2 node n6 p0" transform="translate(0.0 9.0437)"><g class="a6 i0 leaf node n1 p0 sample" transform="translate(28.125 48.6922)"><path class="edge e5" d="M 0 0 V -48.6922 H -28.125"/><rect class="sym" height="6" width="6" x="-3" y="-3"/><text class="lab" transform="translate(0 11)">1</text></g><g class="a6 c2 node n4 p1" transform="translate(-28.125 21.7652)"><g class="a4 i0 leaf node n0 p0 sample" transform="translate(-18.75 26.927)"><path class="edge e0" d="M 0 0 V -26.927 H 18.75"/><rect class="sym" height="6" width="6" x="-3" y="-3"/><text class="lab" transform="translate(0 11)">0</text></g><g class="a4 i1 leaf node n2 p1 sample" transform="translate(18.75 26.927)"><path class="edge e1" d="M 0 0 V -26.927 H -18.75"/><rect class="sym" height="6" width="6" x="-3" y="-3"/><text class="lab" transform="translate(0 11)">2</text></g><path class="edge e6" d="M 0 0 V -21.7652 H 28.125"/><circle class="sym" cx="0" cy="0" r="3"/><text class="lab lft" transform="translate(-3 -7)">4</text></g><path class="edge e14" d="M 0 0 V -9.0437 H 0.0"/><circle class="sym" cx="0" cy="0" r="3"/><text class="lab lft" transform="translate(-3 -7)">6</text></g><path class="edge e19" d="M 0 0 V -2.68648 H 32.8125"/><circle class="sym" cx="0" cy="0" r="3"/><text class="lab lft" transform="translate(-3 -7)">13</text></g><circle class="sym" cx="0" cy="0" r="3"/><text class="lab" transform="translate(0 -11)">14</text></g></g></g><g class="tree t2" transform="translate(400 0)"><g class="plotbox"><g class="c2 node n14 p1 root" transform="translate(95 60.9777)"><g class="a14 c1 node n13 p1" transform="translate(-37.5 2.68648)"><g class="a13 c2 node n6 p0" transform="translate(0.0 9.0437)"><g class="a6 i0 leaf node n1 p0 sample" transform="translate(18.75 48.6922)"><path class="edge e5" d="M 0 0 V -48.6922 H -18.75"/><rect class="sym" height="6" width="6" x="-3" y="-3"/><text class="lab" transform="translate(0 11)">1</text></g><g class="a6 i0 leaf node n0 p0 sample" transform="translate(-18.75 48.6922)"><path class="edge e4" d="M 0 0 V -48.6922 H 18.75"/><rect class="sym" height="6" width="6" x="-3" y="-3"/><text class="lab" transform="translate(0 11)">0</text></g><path class="edge e14" d="M 0 0 V -9.0437 H 0.0"/><circle class="sym" cx="0" cy="0" r="3"/><text class="lab lft" transform="translate(-3 -7)">6</text></g><path class="edge e19" d="M 0 0 V -2.68648 H 37.5"/><circle class="sym" cx="0" cy="0" r="3"/><text class="lab lft" transform="translate(-3 -7)">13</text></g><g class="a14 c1 node n11 p0" transform="translate(37.5 2.68648)"><g class="a11 c2 node n7 p1" transform="translate(0.0 4.84214)"><g class="a7 i1 leaf node n2 p1 sample" transform="translate(-18.75 52.8937)"><path class="edge e7" d="M 0 0 V -52.8937 H 18.75"/><rect class="sym" height="6" width="6" x="-3" y="-3"/><text class="lab" transform="translate(0 11)">2</text></g><g class="a7 i1 leaf node n3 p1 sample" transform="translate(18.75 52.8937)"><path class="edge e8" d="M 0 0 V -52.8937 H -18.75"/><rect class="sym" height="6" width="6" x="-3" y="-3"/><text class="lab" transform="translate(0 11)">3</text></g><path class="edge e12" d="M 0 0 V -4.84214 H 0.0"/><circle class="sym" cx="0" cy="0" r="3"/><text class="lab lft" transform="translate(-3 -7)">7</text></g><path class="edge e17" d="M 0 0 V -2.68648 H -37.5"/><circle class="sym" cx="0" cy="0" r="3"/><text class="lab rgt" transform="translate(3 -7)">11</text></g><circle class="sym" cx="0" cy="0" r="3"/><text class="lab" transform="translate(0 -11)">14</text></g></g></g><g class="tree t3" transform="translate(590 0)"><g class="plotbox"><g class="c2 node n15 p0 root" transform="translate(95 26.8)"><g class="a15 c1 node n8 p0" transform="translate(-37.5 36.8641)"><g class="a8 c2 node n6 p0" transform="translate(0.0 9.0437)"><g class="a6 i0 leaf node n1 p0 sample" transform="translate(18.75 48.6922)"><path class="edge e5" d="M 0 0 V -48.6922 H -18.75"/><rect class="sym" height="6" width="6" x="-3" y="-3"/><text class="lab" transform="translate(0 11)">1</text></g><g class="a6 i0 leaf node n0 p0 sample" transform="translate(-18.75 48.6922)"><path class="edge e4" d="M 0 0 V -48.6922 H 18.75"/><rect class="sym" height="6" width="6" x="-3" y="-3"/><text class="lab" transform="translate(0 11)">0</text></g><path class="edge e9" d="M 0 0 V -9.0437 H 0.0"/><circle class="sym" cx="0" cy="0" r="3"/><text class="lab lft" transform="translate(-3 -7)">6</text></g><path class="edge e20" d="M 0 0 V -36.8641 H 37.5"/><circle class="sym" cx="0" cy="0" r="3"/><text class="lab lft" transform="translate(-3 -7)">8</text></g><g class="a15 c1 node n11 p0" transform="translate(37.5 36.8641)"><g class="a11 c2 node n7 p1" transform="translate(0.0 4.84214)"><g class="a7 i1 leaf node n2 p1 sample" transform="translate(-18.75 52.8937)"><path class="edge e7" d="M 0 0 V -52.8937 H 18.75"/><rect class="sym" height="6" width="6" x="-3" y="-3"/><text class="lab" transform="translate(0 11)">2</text></g><g class="a7 i1 leaf node n3 p1 sample" transform="translate(18.75 52.8937)"><path class="edge e8" d="M 0 0 V -52.8937 H -18.75"/><rect class="sym" height="6" width="6" x="-3" y="-3"/><text class="lab" transform="translate(0 11)">3</text></g><path class="edge e12" d="M 0 0 V -4.84214 H 0.0"/><circle class="sym" cx="0" cy="0" r="3"/><text class="lab lft" transform="translate(-3 -7)">7</text></g><path class="edge e21" d="M 0 0 V -36.8641 H -37.5"/><circle class="sym" cx="0" cy="0" r="3"/><text class="lab rgt" transform="translate(3 -7)">11</text></g><circle class="sym" cx="0" cy="0" r="3"/><text class="lab" transform="translate(0 -11)">15</text></g></g></g></g></g></svg>