<svg xmlns="http://www.w3.org/2000/svg" xmlns:ev="http://www.w3.org/2001/xml-events" xmlns:xlink="http://www.w3.org/1999/xlink" baseProfile="full" height="200" version="1.1" width="1000"><defs><style type="text/css"><![CDATA[.tree-sequence .background path {fill: #808080; fill-opacity:0}.tree-sequence .background path:nth-child(odd) {fill-opacity:.1}.axes {font-size: 14px}.x-axis .tick .lab {font-weight: bold}.axes, .tree {font-size: 14px; text-anchor:middle}.y-axis line.grid {stroke: #FAFAFA}.y-axis > .lab text {transform: translateX(0.8em) rotate(-90deg)}.x-axis .tick g {transform: translateY(0.9em)}.x-axis > .lab text {transform: translateY(-0.8em)}.axes line, .edge {stroke:black; fill:none}.node > .sym {fill: black; stroke: none}.site > .sym {stroke: black}.mut text {fill: red; font-style: italic}.mut line {fill: none; stroke: none}.mut .sym {fill: none; stroke: red}.node .mut .sym {stroke-width: 1.5px}.tree text, .tree-sequence text {dominant-baseline: central}.plotbox .lab.lft {text-anchor: end}.plotbox .lab.rgt {text-anchor: start}]]></style></defs><g class="tree-sequence"><g class="background"><path d="M20,0 l192,0 l0,138.2 l384,25 l0,5 l-576,0 l0,-5 l0,-25 l0,-138.2z"/><path d="M212,0 l192,0 l0,138.2 l345.6,25 l0,5 l-153.6,0 l0,-5 l-384,-25 l0,-138.2z"/><path d="M404,0 l192,0 l0,138.2 l201.6,25 l0,5 l-48,0 l0,-5 l-345.6,-25 l0,-138.2z"/><path d="M596,0 l192,0 l0,138.2 l163.2,25 l0,5 l-153.6,0 l0,-5 l-201.6,-25 l0,-138.2z"/><path d="M788,0 l192,0 l0,138.2 l0,25 l0,5 l-28.8,0 l0,-5 l-163.2,-25 l0,-138.2z"/></g><g class="axes"><g class="x-axis"><g class="lab" transform="translate(500,200)"><text text-anchor="middle">Genome position</text></g><line x1="20" x2="980" y1="163.2" y2="163.2"/><g class="tick" transform="translate(20 163.2)"><line x1="0" x2="0" y1="0" y2="5"/><g class="lab" transform="translate(0,5)"><text>0</text></g></g><g class="tick" transform="translate(596 163.2)"><line x1="0" x2="0" y1="0" y2="5"/><g class="lab" transform="translate(0,5)"><text>60</text></g></g><g class="tick" transform="translate(749.6 163.2)"><line x1="0" x2="0" y1="0" y2="5"/><g class="lab" transform="translate(0,5)"><text>76</text></g></g><g class="tick" transform="translate(797.6 163.2)"><line x1="0" x2="0" y1="0" y2="5"/><g class="lab" transform="translate(0,5)"><text>81</text></g></g><g class="tick" transform="translate(951.2 163.2)"><line x1="0" x2="0" y1="0" y2="5"/><g class="lab" transform="translate(0,5)"><text>97</text></g></g><g class="tick" transform="translate(980 163.2)"><line x1="0" x2="0" y1="0" y2="5"/><g class="lab" transform="translate(0,5)"><text>100</text></g></g></g></g><g class="plotbox trees"><g class="tree t0" transform="translate(20 0)"><g class="plotbox"><g class="node n10 p0 root" transform="translate(119.75 102.603)"><g class="a10 i1 leaf node n2 p0 sample" transform="translate(39.5833 18.7971)"><path class="edge" d="M 0 0 V -18.7971 H -39.5833"/><rect class="sym" height="6" width="6" x="-3" y="-3"/><text class="lab" transform="translate(0 11)">2</text></g><g class="a10 node n9 p0" transform="translate(-39.5833 5.07917)"><g class="a9 node n7 p0" transform="translate(34.8333 10.3648)"><g class="a7 i1 leaf node n3 p0 sample" transform="translate(19 3.35313)"><path class="edge" d="M 0 0 V -3.35313 H -19"/><rect class="sym" height="6" width="6" x="-3" y="-3"/><text class="lab" transform="translate(0 11)">3</text></g><g class="a7 node n6 p0" transform="translate(-19 3.03802)"><g class="a6 i0 leaf node n1 p0 sample" transform="translate(-12.6667 0.315114)"><path class="edge" d="M 0 0 V -0.315114 H 12.6667"/><rect class="sym" height="6" width="6" x="-3" y="-3"/><text class="lab" transform="translate(0 11)">1</text></g><g class="a6 i2 leaf node n5 p0 sample" transform="translate(12.6667 0.315114)"><path class="edge" d="M 0 0 V -0.315114 H -12.6667"/><rect class="sym" height="6" width="6" x="-3" y="-3"/><text class="lab" transform="translate(0 11)">5</text></g><path class="edge" d="M 0 0 V -3.03802 H 19"/><circle class="sym" cx="0" cy="0" r="3"/><text class="lab lft" transform="translate(-3 -7.0)">6</text></g><path class="edge" d="M 0 0 V -10.3648 H -34.8333"/><circle class="sym" cx="0" cy="0" r="3"/><text class="lab rgt" transform="translate(3 -7.0)">7</text></g><g class="a9 node n8 p0" transform="translate(-34.8333 5.42491)"><g class="a8 i0 leaf node n0 p0 sample" transform="translate(-12.6667 8.29301)"><path class="edge" d="M 0 0 V -8.29301 H 12.6667"/><rect class="sym" height="6" width="6" x="-3" y="-3"/><text class="lab" transform="translate(0 11)">0</text></g><g class="a8 i2 leaf node n4 p0 sample" transform="translate(12.6667 8.29301)"><path class="edge" d="M 0 0 V -8.29301 H -12.6667"/><rect class="sym" height="6" width="6" x="-3" y="-3"/><text class="lab" transform="translate(0 11)">4</text></g><path class="edge" d="M 0 0 V -5.42491 H 34.8333"/><circle class="sym" cx="0" cy="0" r="3"/><text class="lab lft" transform="translate(-3 -7.0)">8</text></g><path class="edge" d="M 0 0 V -5.07917 H 39.5833"/><circle class="sym" cx="0" cy="0" r="3"/><text class="lab lft" transform="translate(-3 -7.0)">9</text></g><circle class="sym" cx="0" cy="0" r="3"/><text class="lab" transform="translate(0 -11)">10</text></g></g></g><g class="tree t1" transform="translate(212 0)"><g class="plotbox"><g class="node n11 p0 root" transform="translate(119.75 89.986)"><g class="a11 i1 leaf node n2 p0 sample" transform="translate(39.5833 31.414)"><path class="edge" d="M 0 0 V -31.414 H -39.5833"/><rect class="sym" height="6" width="6" x="-3" y="-3"/><text class="lab" transform="translate(0 11)">2</text></g><g class="a11 node n9 p0" transform="translate(-39.5833 17.6961)"><g class="a9 node n7 p0" transform="translate(34.8333 10.3648)"><g class="a7 i1 leaf node n3 p0 sample" transform="translate(19 3.35313)"><path class="edge" d="M 0 0 V -3.35313 H -19"/><rect class="sym" height="6" width="6" x="-3" y="-3"/><text class="lab" transform="translate(0 11)">3</text></g><g class="a7 node n6 p0" transform="translate(-19 3.03802)"><g class="a6 i0 leaf node n1 p0 sample" transform="translate(-12.6667 0.315114)"><path class="edge" d="M 0 0 V -0.315114 H 12.6667"/><rect class="sym" height="6" width="6" x="-3" y="-3"/><text class="lab" transform="translate(0 11)">1</text></g><g class="a6 i2 leaf node n5 p0 sample" transform="translate(12.6667 0.315114)"><path class="edge" d="M 0 0 V -0.315114 H -12.6667"/><rect class="sym" height="6" width="6" x="-3" y="-3"/><text class="lab" transform="translate(0 11)">5</text></g><path class="edge" d="M 0 0 V -3.03802 H 19"/><circle class="sym" cx="0" cy="0" r="3"/><text class="lab lft" transform="translate(-3 -7.0)">6</text></g><path class="edge" d="M 0 0 V -10.3648 H -34.8333"/><circle class="sym" cx="0" cy="0" r="3"/><text class="lab rgt" transform="translate(3 -7.0)">7</text></g><g class="a9 node n8 p0" transform="translate(-34.8333 5.42491)"><g class="a8 i0 leaf node n0 p0 sample" transform="translate(-12.6667 8.29301)"><path class="edge" d="M 0 0 V -8.29301 H 12.6667"/><rect class="sym" height="6" width="6" x="-3" y="-3"/><text class="lab" transform="translate(0 11)">0</text></g><g class="a8 i2 leaf node n4 p0 sample" transform="translate(12.6667 8.29301)"><path class="edge" d="M 0 0 V -8.29301 H -12.6667"/><rect class="sym" height="6" width="6" x="-3" y="-3"/><text class="lab" transform="translate(0 11)">4</text></g><path class="edge" d="M 0 0 V -5.42491 H 34.8333"/><circle class="sym" cx="0" cy="0" r="3"/><text class="lab lft" transform="translate(-3 -7.0)">8</text></g><path class="edge" d="M 0 0 V -17.6961 H 39.5833"/><circle class="sym" cx="0" cy="0" r="3"/><text class="lab lft" transform="translate(-3 -7.0)">9</text></g><circle class="sym" cx="0" cy="0" r="3"/><text class="lab" transform="translate(0 -11)">11</text></g></g></g><g class="tree t2" transform="translate(404 0)"><g class="plotbox"><g class="node n12 p0 root" transform="translate(119.75 82.5253)"><g class="a12 i1 leaf node n2 p0 sample" transform="translate(39.5833 38.8747)"><path class="edge" d="M 0 0 V -38.8747 H -39.5833"/><rect class="sym" height="6" width="6" x="-3" y="-3"/><text class="lab" transform="translate(0 11)">2</text></g><g class="a12 node n9 p0" transform="translate(-39.5833 25.1568)"><g class="a9 node n7 p0" transform="translate(34.8333 10.3648)"><g class="a7 i1 leaf node n3 p0 sample" transform="translate(19 3.35313)"><path class="edge" d="M 0 0 V -3.35313 H -19"/><rect class="sym" height="6" width="6" x="-3" y="-3"/><text class="lab" transform="translate(0 11)">3</text></g><g class="a7 node n6 p0" transform="translate(-19 3.03802)"><g class="a6 i0 leaf node n1 p0 sample" transform="translate(-12.6667 0.315114)"><path class="edge" d="M 0 0 V -0.315114 H 12.6667"/><rect class="sym" height="6" width="6" x="-3" y="-3"/><text class="lab" transform="translate(0 11)">1</text></g><g class="a6 i2 leaf node n5 p0 sample" transform="translate(12.6667 0.315114)"><path class="edge" d="M 0 0 V -0.315114 H -12.6667"/><rect class="sym" height="6" width="6" x="-3" y="-3"/><text class="lab" transform="translate(0 11)">5</text></g><path class="edge" d="M 0 0 V -3.03802 H 19"/><circle class="sym" cx="0" cy="0" r="3"/><text class="lab lft" transform="translate(-3 -7.0)">6</text></g><path class="edge" d="M 0 0 V -10.3648 H -34.8333"/><circle class="sym" cx="0" cy="0" r="3"/><text class="lab rgt" transform="translate(3 -7.0)">7</text></g><g class="a9 node n8 p0" transform="translate(-34.8333 5.42491)"><g class="a8 i0 leaf node n0 p0 sample" transform="translate(-12.6667 8.29301)"><path class="edge" d="M 0 0 V -8.29301 H 12.6667"/><rect class="sym" height="6" width="6" x="-3" y="-3"/><text class="lab" transform="translate(0 11)">0</text></g><g class="a8 i2 leaf node n4 p0 sample" transform="translate(12.6667 8.29301)"><path class="edge" d="M 0 0 V -8.29301 H -12.6667"/><rect class="sym" height="6" width="6" x="-3" y="-3"/><text class="lab" transform="translate(0 11)">4</text></g><path class="edge" d="M 0 0 V -5.42491 H 34.8333"/><circle class="sym" cx="0" cy="0" r="3"/><text class="lab lft" transform="translate(-3 -7.0)">8</text></g><path class="edge" d="M 0 0 V -25.1568 H 39.5833"/><circle class="sym" cx="0" cy="0" r="3"/><text class="lab lft" transform="translate(-3 -7.0)">9</text></g><circle class="sym" cx="0" cy="0" r="3"/><text class="lab" transform="translate(0 -11)">12</text></g></g></g><g class="tree t3" transform="translate(596 0)"><g class="plotbox"><g class="node n11 p0 root" transform="translate(119.75 89.986)"><g class="a11 i1 leaf node n2 p0 sample" transform="translate(39.5833 31.414)"><path class="edge" d="M 0 0 V -31.414 H -39.5833"/><rect class="sym" height="6" width="6" x="-3" y="-3"/><text class="lab" transform="translate(0 11)">2</text></g><g class="a11 node n9 p0" transform="translate(-39.5833 17.6961)"><g class="a9 node n7 p0" transform="translate(34.8333 10.3648)"><g class="a7 i1 leaf node n3 p0 sample" transform="translate(19 3.35313)"><path class="edge" d="M 0 0 V -3.35313 H -19"/><rect class="sym" height="6" width="6" x="-3" y="-3"/><text class="lab" transform="translate(0 11)">3</text></g><g class="a7 node n6 p0" transform="translate(-19 3.03802)"><g class="a6 i0 leaf node n1 p0 sample" transform="translate(-12.6667 0.315114)"><path class="edge" d="M 0 0 V -0.315114 H 12.6667"/><rect class="sym" height="6" width="6" x="-3" y="-3"/><text class="lab" transform="translate(0 11)">1</text></g><g class="a6 i2 leaf node n5 p0 sample" transform="translate(12.6667 0.315114)"><path class="edge" d="M 0 0 V -0.315114 H -12.6667"/><rect class="sym" height="6" width="6" x="-3" y="-3"/><text class="lab" transform="translate(0 11)">5</text></g><path class="edge" d="M 0 0 V -3.03802 H 19"/><circle class="sym" cx="0" cy="0" r="3"/><text class="lab lft" transform="translate(-3 -7.0)">6</text></g><path class="edge" d="M 0 0 V -10.3648 H -34.8333"/><circle class="sym" cx="0" cy="0" r="3"/><text class="lab rgt" transform="translate(3 -7.0)">7</text></g><g class="a9 node n8 p0" transform="translate(-34.8333 5.42491)"><g class="a8 i0 leaf node n0 p0 sample" transform="translate(-12.6667 8.29301)"><path class="edge" d="M 0 0 V -8.29301 H 12.6667"/><rect class="sym" height="6" width="6" x="-3" y="-3"/><text class="lab" transform="translate(0 11)">0</text></g><g class="a8 i2 leaf node n4 p0 sample" transform="translate(12.6667 8.29301)"><path class="edge" d="M 0 0 V -8.29301 H -12.6667"/><rect class="sym" height="6" width="6" x="-3" y="-3"/><text class="lab" transform="translate(0 11)">4</text></g><path class="edge" d="M 0 0 V -5.42491 H 34.8333"/><circle class="sym" cx="0" cy="0" r="3"/><text class="lab lft" transform="translate(-3 -7.0)">8</text></g><path class="edge" d="M 0 0 V -17.6961 H 39.5833"/><circle class="sym" cx="0" cy="0" r="3"/><text class="lab lft" transform="translate(-3 -7.0)">9</text></g><circle class="sym" cx="0" cy="0" r="3"/><text class="lab" transform="translate(0 -11)">11</text></g></g></g><g class="tree t4" transform="translate(788 0)"><g class="plotbox"><g class="node n13 p0 root" transform="translate(130.833 26.8)"><g class="a13 i1 leaf node n3 p0 sample" transform="translate(28.5 94.6)"><path class="edge" d="M 0 0 V -94.6 H -28.5"/><rect class="sym" height="6" width="6" x="-3" y="-3"/><text class="lab" transform="translate(0 11)">3</text></g><g class="a13 node n11 p0" transform="translate(-28.5 63.186)"><g class="a11 i1 leaf node n2 p0 sample" transform="translate(31.6667 31.414)"><path class="edge" d="M 0 0 V -31.414 H -31.6667"/><rect class="sym" height="6" width="6" x="-3" y="-3"/><text class="lab" transform="translate(0 11)">2</text></g><g class="a11 node n9 p0" transform="translate(-31.6667 17.6961)"><g class="a9 node n8 p0" transform="translate(-25.3333 5.42491)"><g class="a8 i0 leaf node n0 p0 sample" transform="translate(-12.6667 8.29301)"><path class="edge" d="M 0 0 V -8.29301 H 12.6667"/><rect class="sym" height="6" width="6" x="-3" y="-3"/><text class="lab" transform="translate(0 11)">0</text></g><g class="a8 i2 leaf node n4 p0 sample" transform="translate(12.6667 8.29301)"><path class="edge" d="M 0 0 V -8.29301 H -12.6667"/><rect class="sym" height="6" width="6" x="-3" y="-3"/><text class="lab" transform="translate(0 11)">4</text></g><path class="edge" d="M 0 0 V -5.42491 H 25.3333"/><circle class="sym" cx="0" cy="0" r="3"/><text class="lab lft" transform="translate(-3 -7.0)">8</text></g><g class="a9 node n6 p0" transform="translate(25.3333 13.4028)"><g class="a6 i0 leaf node n1 p0 sample" transform="translate(-12.6667 0.315114)"><path class="edge" d="M 0 0 V -0.315114 H 12.6667"/><rect class="sym" height="6" width="6" x="-3" y="-3"/><text class="lab" transform="translate(0 11)">1</text></g><g class="a6 i2 leaf node n5 p0 sample" transform="translate(12.6667 0.315114)"><path class="edge" d="M 0 0 V -0.315114 H -12.6667"/><rect class="sym" height="6" width="6" x="-3" y="-3"/><text class="lab" transform="translate(0 11)">5</text></g><path class="edge" d="M 0 0 V -13.4028 H -25.3333"/><circle class="sym" cx="0" cy="0" r="3"/><text class="lab rgt" transform="translate(3 -7.0)">6</text></g><path class="edge" d="M 0 0 V -17.6961 H 31.6667"/><circle class="sym" cx="0" cy="0" r="3"/><text class="lab lft" transform="translate(-3 -7.0)">9</text></g><path class="edge" d="M 0 0 V -63.186 H 28.5"/><circle class="sym" cx="0" cy="0" r="3"/><text class="lab lft" transform="translate(-3 -7.0)">11</text></g><circle class="sym" cx="0" cy="0" r="3"/><text class="lab" transform="translate(0 -11)">13</text></g></g></g></g></g></svg>