<svg xmlns="http://www.w3.org/2000/svg" xmlns:ev="http://www.w3.org/2001/xml-events" xmlns:xlink="http://www.w3.org/1999/xlink" baseProfile="full" height="200" version="1.1" width="200"><defs><style type="text/css"><![CDATA[.tree-sequence .background path {fill: #808080; fill-opacity:0}.tree-sequence .background path:nth-child(odd) {fill-opacity:.1}.axes {font-size: 14px}.x-axis .tick .lab {font-weight: bold}.axes, .tree {font-size: 14px; text-anchor:middle}.y-axis line.grid {stroke: #FAFAFA}.y-axis > .lab text {transform: translateX(0.8em) rotate(-90deg)}.x-axis .tick g {transform: translateY(0.9em)}.x-axis > .lab text {transform: translateY(-0.8em)}.axes line, .edge {stroke:black; fill:none}.node > .sym {fill: black; stroke: none}.site > .sym {stroke: black}.mut text {fill: red; font-style: italic}.mut line {fill: none; stroke: none}.mut .sym {fill: none; stroke: red}.node .mut .sym {stroke-width: 1.5px}.tree text, .tree-sequence text {dominant-baseline: central}.plotbox .lab.lft {text-anchor: end}.plotbox .lab.rgt {text-anchor: start}]]></style></defs><g class="tree-sequence"><g class="background"><path d="M20,0 l160,0 l0,138.2 l0,25 l0,5 l-160,0 l0,-5 l0,-25 l0,-138.2z"/></g><g class="axes"><g class="x-axis"><g class="lab" transform="translate(100,200)"><text text-anchor="middle">Genome position</text></g><line x1="20" x2="180" y1="163.2" y2="163.2"/><g class="tick" transform="translate(20 163.2)"><line x1="0" x2="0" y1="0" y2="5"/><g class="lab" transform="translate(0,5)"><text>0</text></g></g><g class="tick" transform="translate(180 163.2)"><line x1="0" x2="0" y1="0" y2="5"/><g class="lab" transform="translate(0,5)"><text>1</text></g></g></g></g><g class="plotbox trees"><g class="tree t0" transform="translate(20 0)"><g class="plotbox"><g class="node n16 p0 root" transform="translate(98 26.8)"><g class="a16 node n12 p0" transform="translate(30 71.1024)"><g class="a12 i4 leaf node n8 p0 sample" transform="translate(-6 23.4976)"><path class="edge" d="M 0 0 V -23.4976 H 6"/><rect class="sym" height="6" width="6" x="-3" y="-3"/><text class="lab" transform="translate(0 11)">8</text></g><g class="a12 i4 leaf node n9 p0 sample" transform="translate(6 23.4976)"><path class="edge" d="M 0 0 V -23.4976 H -6"/><rect class="sym" height="6" width="6" x="-3" y="-3"/><text class="lab" transform="translate(0 11)">9</text></g><path class="edge" d="M 0 0 V -71.1024 H -30"/><circle class="sym" cx="0" cy="0" r="3"/><text class="lab rgt" transform="translate(3 -7.0)">12</text></g><g class="a16 node n15 p0" transform="translate(-30 50.5666)"><g class="a15 node n11 p0" transform="translate(-18 31.832)"><g class="a11 i1 leaf node n2 p0 sample" transform="translate(12 12.2014)"><path class="edge" d="M 0 0 V -12.2014 H -12"/><rect class="sym" height="6" width="6" x="-3" y="-3"/><text class="lab" transform="translate(0 11)">2</text></g><g class="a11 node n10 p0" transform="translate(-12 1.6429)"><g class="a10 i0 leaf node n0 p0 sample" transform="translate(-12 10.5585)"><path class="edge" d="M 0 0 V -10.5585 H 12"/><rect class="sym" height="6" width="6" x="-3" y="-3"/><text class="lab" transform="translate(0 11)">0</text></g><g class="a10 i2 leaf node n4 p0 sample" transform="translate(0.0 10.5585)"><path class="edge" d="M 0 0 V -10.5585 H 0.0"/><rect class="sym" height="6" width="6" x="-3" y="-3"/><text class="lab" transform="translate(0 11)">4</text></g><g class="a10 i3 leaf node n6 p0 sample" transform="translate(12 10.5585)"><path class="edge" d="M 0 0 V -10.5585 H -12"/><rect class="sym" height="6" width="6" x="-3" y="-3"/><text class="lab" transform="translate(0 11)">6</text></g><path class="edge" d="M 0 0 V -1.6429 H 12"/><circle class="sym" cx="0" cy="0" r="3"/><text class="lab lft" transform="translate(-3 -7.0)">10</text></g><path class="edge" d="M 0 0 V -31.832 H 18"/><circle class="sym" cx="0" cy="0" r="3"/><text class="lab lft" transform="translate(-3 -7.0)">11</text></g><g class="a15 node n14 p0" transform="translate(18 9.11835)"><g class="a14 i0 leaf node n1 p0 sample" transform="translate(-12 34.9151)"><path class="edge" d="M 0 0 V -34.9151 H 12"/><rect class="sym" height="6" width="6" x="-3" y="-3"/><text class="lab" transform="translate(0 11)">1</text></g><g class="a14 node n13 p0" transform="translate(12 11.4175)"><g class="a13 i1 leaf node n3 p0 sample" transform="translate(-12 23.4976)"><path class="edge" d="M 0 0 V -23.4976 H 12"/><rect class="sym" height="6" width="6" x="-3" y="-3"/><text class="lab" transform="translate(0 11)">3</text></g><g class="a13 i2 leaf node n5 p0 sample" transform="translate(0.0 23.4976)"><path class="edge" d="M 0 0 V -23.4976 H 0.0"/><rect class="sym" height="6" width="6" x="-3" y="-3"/><text class="lab" transform="translate(0 11)">5</text></g><g class="a13 i3 leaf node n7 p0 sample" transform="translate(12 23.4976)"><path class="edge" d="M 0 0 V -23.4976 H -12"/><rect class="sym" height="6" width="6" x="-3" y="-3"/><text class="lab" transform="translate(0 11)">7</text></g><path class="edge" d="M 0 0 V -11.4175 H -12"/><circle class="sym" cx="0" cy="0" r="3"/><text class="lab rgt" transform="translate(3 -7.0)">13</text></g><path class="edge" d="M 0 0 V -9.11835 H -18"/><circle class="sym" cx="0" cy="0" r="3"/><text class="lab rgt" transform="translate(3 -7.0)">14</text></g><path class="edge" d="M 0 0 V -50.5666 H 30"/><circle class="sym" cx="0" cy="0" r="3"/><text class="lab lft" transform="translate(-3 -7.0)">15</text></g><circle class="sym" cx="0" cy="0" r="3"/><text class="lab" transform="translate(0 -11)">16</text></g></g></g></g></g></svg>