<svg xmlns="http://www.w3.org/2000/svg" xmlns:ev="http://www.w3.org/2001/xml-events" xmlns:xlink="http://www.w3.org/1999/xlink" baseProfile="full" height="200" version="1.1" width="800"><defs><style type="text/css"><![CDATA[.tree-sequence .background path {fill: #808080; fill-opacity:0}.tree-sequence .background path:nth-child(odd) {fill-opacity:.1}.axes {font-size: 14px}.x-axis .tick .lab {font-weight: bold}.axes, .tree {font-size: 14px; text-anchor:middle}.y-axis line.grid {stroke: #FAFAFA}.y-axis > .lab text {transform: translateX(0.8em) rotate(-90deg)}.x-axis .tick g {transform: translateY(0.9em)}.x-axis > .lab text {transform: translateY(-0.8em)}.axes line, .edge {stroke:black; fill:none}.node > .sym {fill: black; stroke: none}.site > .sym {stroke: black}.mut text {fill: red; font-style: italic}.mut line {fill: none; stroke: none}.mut .sym {fill: none; stroke: red}.node .mut .sym {stroke-width: 1.5px}.tree text, .tree-sequence text {dominant-baseline: central}.plotbox .lab.lft {text-anchor: end}.plotbox .lab.rgt {text-anchor: start}]]></style></defs><g class="tree-sequence"><g class="background"><path d="M20,0 l190,0 l0,138.2 l228,25 l0,5 l-418,0 l0,-5 l0,-25 l0,-138.2z"/><path d="M210,0 l190,0 l0,138.2 l76,25 l0,5 l-38,0 l0,-5 l-228,-25 l0,-138.2z"/><path d="M400,0 l190,0 l0,138.2 l0,25 l0,5 l-114,0 l0,-5 l-76,-25 l0,-138.2z"/><path d="M590,0 l190,0 l0,138.2 l0,25 l0,5 l-190,0 l0,-5 l0,-25 l0,-138.2z"/></g><g class="axes"><g class="x-axis"><g class="lab" transform="translate(400,200)"><text text-anchor="middle">Genome position</text></g><line x1="20" x2="780" y1="163.2" y2="163.2"/><g class="tick" transform="translate(20 163.2)"><line x1="0" x2="0" y1="0" y2="5"/><g class="lab" transform="translate(0,5)"><text>0</text></g></g><g class="tick" transform="translate(438 163.2)"><line x1="0" x2="0" y1="0" y2="5"/><g class="lab" transform="translate(0,5)"><text>11</text></g></g><g class="tick" transform="translate(476 163.2)"><line x1="0" x2="0" y1="0" y2="5"/><g class="lab" transform="translate(0,5)"><text>12</text></g></g><g class="tick" transform="translate(590 163.2)"><line x1="0" x2="0" y1="0" y2="5"/><g class="lab" transform="translate(0,5)"><text>15</text></g></g><g class="tick" transform="translate(780 163.2)"><line x1="0" x2="0" y1="0" y2="5"/><g class="lab" transform="translate(0,5)"><text>20</text></g></g></g></g><g class="plotbox trees"><g class="tree t0" transform="translate(20 0)"><g class="plotbox"><g class="node n14 p0 root" transform="translate(74.6875 26.8)"><g class="a14 node n6 p0" transform="translate(-29.6875 93.0814)"><g class="a6 i0 leaf node n0 p0 sample" transform="translate(-12.5 1.51859)"><path class="edge" d="M 0 0 V -1.51859 H 12.5"/><rect class="sym" height="6" width="6" x="-3" y="-3"/><text class="lab" transform="translate(0 11)">0</text></g><g class="a6 i2 leaf node n5 p0 sample" transform="translate(12.5 1.51859)"><path class="edge" d="M 0 0 V -1.51859 H -12.5"/><rect class="sym" height="6" width="6" x="-3" y="-3"/><text class="lab" transform="translate(0 11)">5</text></g><path class="edge" d="M 0 0 V -93.0814 H 29.6875"/><circle class="sym" cx="0" cy="0" r="3"/><text class="lab lft" transform="translate(-3 -7.0)">6</text></g><g class="a14 node n9 p0" transform="translate(29.6875 68.193)"><g class="a9 i0 leaf node n1 p0 sample" transform="translate(-21.875 26.407)"><path class="edge" d="M 0 0 V -26.407 H 21.875"/><rect class="sym" height="6" width="6" x="-3" y="-3"/><text class="lab" transform="translate(0 11)">1</text></g><g class="a9 node n8 p0" transform="translate(21.875 9.93916)"><g class="a8 i1 leaf node n2 p0 sample" transform="translate(-18.75 16.4678)"><path class="edge" d="M 0 0 V -16.4678 H 18.75"/><rect class="sym" height="6" width="6" x="-3" y="-3"/><text class="lab" transform="translate(0 11)">2</text></g><g class="a8 node n7 p0" transform="translate(18.75 2.75709)"><g class="a7 i1 leaf node n3 p0 sample" transform="translate(-12.5 13.7107)"><path class="edge" d="M 0 0 V -13.7107 H 12.5"/><rect class="sym" height="6" width="6" x="-3" y="-3"/><text class="lab" transform="translate(0 11)">3</text></g><g class="a7 i2 leaf node n4 p0 sample" transform="translate(12.5 13.7107)"><path class="edge" d="M 0 0 V -13.7107 H -12.5"/><rect class="sym" height="6" width="6" x="-3" y="-3"/><text class="lab" transform="translate(0 11)">4</text></g><path class="edge" d="M 0 0 V -2.75709 H -18.75"/><circle class="sym" cx="0" cy="0" r="3"/><text class="lab rgt" transform="translate(3 -7.0)">7</text></g><path class="edge" d="M 0 0 V -9.93916 H -21.875"/><circle class="sym" cx="0" cy="0" r="3"/><text class="lab rgt" transform="translate(3 -7.0)">8</text></g><path class="edge" d="M 0 0 V -68.193 H -29.6875"/><circle class="sym" cx="0" cy="0" r="3"/><text class="lab rgt" transform="translate(3 -7.0)">9</text></g><circle class="sym" cx="0" cy="0" r="3"/><text class="lab" transform="translate(0 -11)">14</text></g></g></g><g class="tree t1" transform="translate(210 0)"><g class="plotbox"><g class="node n14 p0 root" transform="translate(87.1875 26.8)"><g class="a14 node n6 p0" transform="translate(-42.1875 93.0814)"><g class="a6 i0 leaf node n0 p0 sample" transform="translate(-12.5 1.51859)"><path class="edge" d="M 0 0 V -1.51859 H 12.5"/><rect class="sym" height="6" width="6" x="-3" y="-3"/><text class="lab" transform="translate(0 11)">0</text></g><g class="a6 i2 leaf node n5 p0 sample" transform="translate(12.5 1.51859)"><path class="edge" d="M 0 0 V -1.51859 H -12.5"/><rect class="sym" height="6" width="6" x="-3" y="-3"/><text class="lab" transform="translate(0 11)">5</text></g><path class="edge" d="M 0 0 V -93.0814 H 42.1875"/><circle class="sym" cx="0" cy="0" r="3"/><text class="lab lft" transform="translate(-3 -7.0)">6</text></g><g class="a14 node n13 p0" transform="translate(42.1875 13.747)"><g class="a13 i1 leaf node n3 p0 sample" transform="translate(28.125 80.853)"><path class="edge" d="M 0 0 V -80.853 H -28.125"/><rect class="sym" height="6" width="6" x="-3" y="-3"/><text class="lab" transform="translate(0 11)">3</text></g><g class="a13 node n9 p0" transform="translate(-28.125 54.446)"><g class="a9 i0 leaf node n1 p0 sample" transform="translate(-18.75 26.407)"><path class="edge" d="M 0 0 V -26.407 H 18.75"/><rect class="sym" height="6" width="6" x="-3" y="-3"/><text class="lab" transform="translate(0 11)">1</text></g><g class="a9 node n8 p0" transform="translate(18.75 9.93916)"><g class="a8 i1 leaf node n2 p0 sample" transform="translate(-12.5 16.4678)"><path class="edge" d="M 0 0 V -16.4678 H 12.5"/><rect class="sym" height="6" width="6" x="-3" y="-3"/><text class="lab" transform="translate(0 11)">2</text></g><g class="a8 i2 leaf node n4 p0 sample" transform="translate(12.5 16.4678)"><path class="edge" d="M 0 0 V -16.4678 H -12.5"/><rect class="sym" height="6" width="6" x="-3" y="-3"/><text class="lab" transform="translate(0 11)">4</text></g><path class="edge" d="M 0 0 V -9.93916 H -18.75"/><circle class="sym" cx="0" cy="0" r="3"/><text class="lab rgt" transform="translate(3 -7.0)">8</text></g><path class="edge" d="M 0 0 V -54.446 H 28.125"/><circle class="sym" cx="0" cy="0" r="3"/><text class="lab lft" transform="translate(-3 -7.0)">9</text></g><path class="edge" d="M 0 0 V -13.747 H -42.1875"/><circle class="sym" cx="0" cy="0" r="3"/><text class="lab rgt" transform="translate(3 -7.0)">13</text></g><circle class="sym" cx="0" cy="0" r="3"/><text class="lab" transform="translate(0 -11)">14</text></g></g></g><g class="tree t2" transform="translate(400 0)"><g class="plotbox"><g class="node n14 p0 root" transform="translate(101.25 26.8)"><g class="a14 node n13 p0" transform="translate(37.5 13.747)"><g class="a13 i1 leaf node n3 p0 sample" transform="translate(18.75 80.853)"><path class="edge" d="M 0 0 V -80.853 H -18.75"/><rect class="sym" height="6" width="6" x="-3" y="-3"/><text class="lab" transform="translate(0 11)">3</text></g><g class="a13 node n8 p0" transform="translate(-18.75 64.3851)"><g class="a8 i1 leaf node n2 p0 sample" transform="translate(-12.5 16.4678)"><path class="edge" d="M 0 0 V -16.4678 H 12.5"/><rect class="sym" height="6" width="6" x="-3" y="-3"/><text class="lab" transform="translate(0 11)">2</text></g><g class="a8 i2 leaf node n4 p0 sample" transform="translate(12.5 16.4678)"><path class="edge" d="M 0 0 V -16.4678 H -12.5"/><rect class="sym" height="6" width="6" x="-3" y="-3"/><text class="lab" transform="translate(0 11)">4</text></g><path class="edge" d="M 0 0 V -64.3851 H 18.75"/><circle class="sym" cx="0" cy="0" r="3"/><text class="lab lft" transform="translate(-3 -7.0)">8</text></g><path class="edge" d="M 0 0 V -13.747 H -37.5"/><circle class="sym" cx="0" cy="0" r="3"/><text class="lab rgt" transform="translate(3 -7.0)">13</text></g><g class="a14 node n10 p0" transform="translate(-37.5 60.1721)"><g class="a10 i0 leaf node n1 p0 sample" transform="translate(18.75 34.4279)"><path class="edge" d="M 0 0 V -34.4279 H -18.75"/><rect class="sym" height="6" width="6" x="-3" y="-3"/><text class="lab" transform="translate(0 11)">1</text></g><g class="a10 node n6 p0" transform="translate(-18.75 32.9093)"><g class="a6 i0 leaf node n0 p0 sample" transform="translate(-12.5 1.51859)"><path class="edge" d="M 0 0 V -1.51859 H 12.5"/><rect class="sym" height="6" width="6" x="-3" y="-3"/><text class="lab" transform="translate(0 11)">0</text></g><g class="a6 i2 leaf node n5 p0 sample" transform="translate(12.5 1.51859)"><path class="edge" d="M 0 0 V -1.51859 H -12.5"/><rect class="sym" height="6" width="6" x="-3" y="-3"/><text class="lab" transform="translate(0 11)">5</text></g><path class="edge" d="M 0 0 V -32.9093 H 18.75"/><circle class="sym" cx="0" cy="0" r="3"/><text class="lab lft" transform="translate(-3 -7.0)">6</text></g><path class="edge" d="M 0 0 V -60.1721 H 37.5"/><circle class="sym" cx="0" cy="0" r="3"/><text class="lab lft" transform="translate(-3 -7.0)">10</text></g><circle class="sym" cx="0" cy="0" r="3"/><text class="lab" transform="translate(0 -11)">14</text></g></g></g><g class="tree t3" transform="translate(590 0)"><g class="plotbox"><g class="node n13 p0 root" transform="translate(95 40.547)"><g class="a13 node n11 p0" transform="translate(31.25 16.6876)"><g class="a11 i0 leaf node n1 p0 sample" transform="translate(-18.75 64.1653)"><path class="edge" d="M 0 0 V -64.1653 H 18.75"/><rect class="sym" height="6" width="6" x="-3" y="-3"/><text class="lab" transform="translate(0 11)">1</text></g><g class="a11 node n8 p0" transform="translate(18.75 47.6975)"><g class="a8 i1 leaf node n2 p0 sample" transform="translate(-12.5 16.4678)"><path class="edge" d="M 0 0 V -16.4678 H 12.5"/><rect class="sym" height="6" width="6" x="-3" y="-3"/><text class="lab" transform="translate(0 11)">2</text></g><g class="a8 i2 leaf node n4 p0 sample" transform="translate(12.5 16.4678)"><path class="edge" d="M 0 0 V -16.4678 H -12.5"/><rect class="sym" height="6" width="6" x="-3" y="-3"/><text class="lab" transform="translate(0 11)">4</text></g><path class="edge" d="M 0 0 V -47.6975 H -18.75"/><circle class="sym" cx="0" cy="0" r="3"/><text class="lab rgt" transform="translate(3 -7.0)">8</text></g><path class="edge" d="M 0 0 V -16.6876 H -31.25"/><circle class="sym" cx="0" cy="0" r="3"/><text class="lab rgt" transform="translate(3 -7.0)">11</text></g><g class="a13 node n12 p0" transform="translate(-31.25 13.0746)"><g class="a12 i1 leaf node n3 p0 sample" transform="translate(18.75 67.7784)"><path class="edge" d="M 0 0 V -67.7784 H -18.75"/><rect class="sym" height="6" width="6" x="-3" y="-3"/><text class="lab" transform="translate(0 11)">3</text></g><g class="a12 node n6 p0" transform="translate(-18.75 66.2598)"><g class="a6 i0 leaf node n0 p0 sample" transform="translate(-12.5 1.51859)"><path class="edge" d="M 0 0 V -1.51859 H 12.5"/><rect class="sym" height="6" width="6" x="-3" y="-3"/><text class="lab" transform="translate(0 11)">0</text></g><g class="a6 i2 leaf node n5 p0 sample" transform="translate(12.5 1.51859)"><path class="edge" d="M 0 0 V -1.51859 H -12.5"/><rect class="sym" height="6" width="6" x="-3" y="-3"/><text class="lab" transform="translate(0 11)">5</text></g><path class="edge" d="M 0 0 V -66.2598 H 18.75"/><circle class="sym" cx="0" cy="0" r="3"/><text class="lab lft" transform="translate(-3 -7.0)">6</text></g><path class="edge" d="M 0 0 V -13.0746 H 31.25"/><circle class="sym" cx="0" cy="0" r="3"/><text class="lab lft" transform="translate(-3 -7.0)">12</text></g><circle class="sym" cx="0" cy="0" r="3"/><text class="lab" transform="translate(0 -11)">13</text></g></g></g></g></g></svg>