<svg xmlns="http://www.w3.org/2000/svg" xmlns:ev="http://www.w3.org/2001/xml-events" xmlns:xlink="http://www.w3.org/1999/xlink" baseProfile="full" height="200" version="1.1" width="600"><defs><style type="text/css"><![CDATA[.tree-sequence .background path {fill: #808080; fill-opacity:0}.tree-sequence .background path:nth-child(odd) {fill-opacity:.1}.axes {font-size: 14px}.x-axis .tick .lab {font-weight: bold}.axes, .tree {font-size: 14px; text-anchor:middle}.y-axis line.grid {stroke: #FAFAFA}.y-axis > .lab text {transform: translateX(0.8em) rotate(-90deg)}.x-axis .tick g {transform: translateY(0.9em)}.x-axis > .lab text {transform: translateY(-0.8em)}.axes line, .edge {stroke:black; fill:none}.node > .sym {fill: black; stroke: none}.site > .sym {stroke: black}.mut text {fill: red; font-style: italic}.mut line {fill: none; stroke: none}.mut .sym {fill: none; stroke: red}.node .mut .sym {stroke-width: 1.5px}.tree text, .tree-sequence text {dominant-baseline: central}.plotbox .lab.lft {text-anchor: end}.plotbox .lab.rgt {text-anchor: start}]]></style></defs><g class="tree-sequence"><g class="background"><path d="M20,0 l186.667,0 l0,138.2 l-86.9204,25 l0,5 l-99.7463,0 l0,-5 l0,-25 l0,-138.2z"/><path d="M206.667,0 l186.667,0 l0,138.2 l-204.494,25 l0,5 l-69.0929,0 l0,-5 l86.9204,-25 l0,-138.2z"/><path d="M393.333,0 l186.667,0 l0,138.2 l0,25 l0,5 l-391.161,0 l0,-5 l204.494,-25 l0,-138.2z"/></g><g class="axes"><g class="x-axis"><g class="lab" transform="translate(300,200)"><text text-anchor="middle">Genome position</text></g><line x1="20" x2="580" y1="163.2" y2="163.2"/><g class="tick" transform="translate(20 163.2)"><line x1="0" x2="0" y1="0" y2="5"/><g class="lab" transform="translate(0,5)"><text>0.00</text></g></g><g class="tick" transform="translate(119.746 163.2)"><line x1="0" x2="0" y1="0" y2="5"/><g class="lab" transform="translate(0,5)"><text>0.18</text></g></g><g class="tick" transform="translate(188.839 163.2)"><line x1="0" x2="0" y1="0" y2="5"/><g class="lab" transform="translate(0,5)"><text>0.30</text></g></g><g class="tick" transform="translate(580 163.2)"><line x1="0" x2="0" y1="0" y2="5"/><g class="lab" transform="translate(0,5)"><text>1.00</text></g></g></g></g><g class="plotbox trees"><g class="tree t0" transform="translate(20 0)"><g class="plotbox"><g class="node n10 p0 root" transform="translate(129.236 37.0296)"><g class="a10 i2 leaf node n4 p0 sample" transform="translate(25.2083 84.3704)"><path class="edge" d="M 0 0 V -84.3704 H -25.2083"/><rect class="sym" height="6" width="6" x="-3" y="-3"/><text class="lab" transform="translate(0 11)">4</text></g><g class="a10 node n9 p0" transform="translate(-25.2083 60.3652)"><g class="a9 i2 leaf node n5 p0 sample" transform="translate(25.9722 24.0052)"><path class="edge" d="M 0 0 V -24.0052 H -25.9722"/><rect class="sym" height="6" width="6" x="-3" y="-3"/><text class="lab" transform="translate(0 11)">5</text></g><g class="a9 node n8 p0" transform="translate(-25.9722 5.89198)"><g class="a8 i1 leaf node n2 p0 sample" transform="translate(27.5 18.1132)"><path class="edge" d="M 0 0 V -18.1132 H -27.5"/><rect class="sym" height="6" width="6" x="-3" y="-3"/><text class="lab" transform="translate(0 11)">2</text></g><g class="a8 node n7 p0" transform="translate(-27.5 4.89431)"><g class="a7 i0 leaf node n0 p0 sample" transform="translate(-18.3333 13.2189)"><path class="edge" d="M 0 0 V -13.2189 H 18.3333"/><rect class="sym" height="6" width="6" x="-3" y="-3"/><text class="lab" transform="translate(0 11)">0</text></g><g class="a7 node n6 p0" transform="translate(18.3333 10.5158)"><g class="a6 i0 leaf node n1 p0 sample" transform="translate(-12.2222 2.70312)"><path class="edge" d="M 0 0 V -2.70312 H 12.2222"/><rect class="sym" height="6" width="6" x="-3" y="-3"/><text class="lab" transform="translate(0 11)">1</text></g><g class="a6 i1 leaf node n3 p0 sample" transform="translate(12.2222 2.70312)"><path class="edge" d="M 0 0 V -2.70312 H -12.2222"/><rect class="sym" height="6" width="6" x="-3" y="-3"/><text class="lab" transform="translate(0 11)">3</text></g><path class="edge" d="M 0 0 V -10.5158 H -18.3333"/><circle class="sym" cx="0" cy="0" r="3"/><text class="lab rgt" transform="translate(3 -7.0)">6</text></g><path class="edge" d="M 0 0 V -4.89431 H 27.5"/><circle class="sym" cx="0" cy="0" r="3"/><text class="lab lft" transform="translate(-3 -7.0)">7</text></g><path class="edge" d="M 0 0 V -5.89198 H 25.9722"/><circle class="sym" cx="0" cy="0" r="3"/><text class="lab lft" transform="translate(-3 -7.0)">8</text></g><path class="edge" d="M 0 0 V -60.3652 H 25.2083"/><circle class="sym" cx="0" cy="0" r="3"/><text class="lab lft" transform="translate(-3 -7.0)">9</text></g><circle class="sym" cx="0" cy="0" r="3"/><text class="lab" transform="translate(0 -11)">10</text></g></g></g><g class="tree t1" transform="translate(206.667 0)"><g class="plotbox"><g class="node n11 p0 root" transform="translate(129.236 26.8)"><g class="a11 i2 leaf node n4 p0 sample" transform="translate(25.2083 94.6)"><path class="edge" d="M 0 0 V -94.6 H -25.2083"/><rect class="sym" height="6" width="6" x="-3" y="-3"/><text class="lab" transform="translate(0 11)">4</text></g><g class="a11 node n9 p0" transform="translate(-25.2083 70.5948)"><g class="a9 i2 leaf node n5 p0 sample" transform="translate(25.9722 24.0052)"><path class="edge" d="M 0 0 V -24.0052 H -25.9722"/><rect class="sym" height="6" width="6" x="-3" y="-3"/><text class="lab" transform="translate(0 11)">5</text></g><g class="a9 node n8 p0" transform="translate(-25.9722 5.89198)"><g class="a8 i1 leaf node n2 p0 sample" transform="translate(27.5 18.1132)"><path class="edge" d="M 0 0 V -18.1132 H -27.5"/><rect class="sym" height="6" width="6" x="-3" y="-3"/><text class="lab" transform="translate(0 11)">2</text></g><g class="a8 node n7 p0" transform="translate(-27.5 4.89431)"><g class="a7 i0 leaf node n0 p0 sample" transform="translate(-18.3333 13.2189)"><path class="edge" d="M 0 0 V -13.2189 H 18.3333"/><rect class="sym" height="6" width="6" x="-3" y="-3"/><text class="lab" transform="translate(0 11)">0</text></g><g class="a7 node n6 p0" transform="translate(18.3333 10.5158)"><g class="a6 i0 leaf node n1 p0 sample" transform="translate(-12.2222 2.70312)"><path class="edge" d="M 0 0 V -2.70312 H 12.2222"/><rect class="sym" height="6" width="6" x="-3" y="-3"/><text class="lab" transform="translate(0 11)">1</text></g><g class="a6 i1 leaf node n3 p0 sample" transform="translate(12.2222 2.70312)"><path class="edge" d="M 0 0 V -2.70312 H -12.2222"/><rect class="sym" height="6" width="6" x="-3" y="-3"/><text class="lab" transform="translate(0 11)">3</text></g><path class="edge" d="M 0 0 V -10.5158 H -18.3333"/><circle class="sym" cx="0" cy="0" r="3"/><text class="lab rgt" transform="translate(3 -7.0)">6</text></g><path class="edge" d="M 0 0 V -4.89431 H 27.5"/><circle class="sym" cx="0" cy="0" r="3"/><text class="lab lft" transform="translate(-3 -7.0)">7</text></g><path class="edge" d="M 0 0 V -5.89198 H 25.9722"/><circle class="sym" cx="0" cy="0" r="3"/><text class="lab lft" transform="translate(-3 -7.0)">8</text></g><path class="edge" d="M 0 0 V -70.5948 H 25.2083"/><circle class="sym" cx="0" cy="0" r="3"/><text class="lab lft" transform="translate(-3 -7.0)">9</text></g><circle class="sym" cx="0" cy="0" r="3"/><text class="lab" transform="translate(0 -11)">11</text></g></g></g><g class="tree t2" transform="translate(393.333 0)"><g class="plotbox"><g class="node n11 p0 root" transform="translate(129.236 26.8)"><g class="a11 i2 leaf node n4 p0 sample" transform="translate(25.2083 94.6)"><path class="edge" d="M 0 0 V -94.6 H -25.2083"/><rect class="sym" height="6" width="6" x="-3" y="-3"/><text class="lab" transform="translate(0 11)">4</text></g><g class="a11 node n10 p0" transform="translate(-25.2083 10.2296)"><g class="a10 i2 leaf node n5 p0 sample" transform="translate(25.9722 84.3704)"><path class="edge" d="M 0 0 V -84.3704 H -25.9722"/><rect class="sym" height="6" width="6" x="-3" y="-3"/><text class="lab" transform="translate(0 11)">5</text></g><g class="a10 node n8 p0" transform="translate(-25.9722 66.2571)"><g class="a8 i1 leaf node n2 p0 sample" transform="translate(27.5 18.1132)"><path class="edge" d="M 0 0 V -18.1132 H -27.5"/><rect class="sym" height="6" width="6" x="-3" y="-3"/><text class="lab" transform="translate(0 11)">2</text></g><g class="a8 node n7 p0" transform="translate(-27.5 4.89431)"><g class="a7 i0 leaf node n0 p0 sample" transform="translate(-18.3333 13.2189)"><path class="edge" d="M 0 0 V -13.2189 H 18.3333"/><rect class="sym" height="6" width="6" x="-3" y="-3"/><text class="lab" transform="translate(0 11)">0</text></g><g class="a7 node n6 p0" transform="translate(18.3333 10.5158)"><g class="a6 i0 leaf node n1 p0 sample" transform="translate(-12.2222 2.70312)"><path class="edge" d="M 0 0 V -2.70312 H 12.2222"/><rect class="sym" height="6" width="6" x="-3" y="-3"/><text class="lab" transform="translate(0 11)">1</text></g><g class="a6 i1 leaf node n3 p0 sample" transform="translate(12.2222 2.70312)"><path class="edge" d="M 0 0 V -2.70312 H -12.2222"/><rect class="sym" height="6" width="6" x="-3" y="-3"/><text class="lab" transform="translate(0 11)">3</text></g><path class="edge" d="M 0 0 V -10.5158 H -18.3333"/><circle class="sym" cx="0" cy="0" r="3"/><text class="lab rgt" transform="translate(3 -7.0)">6</text></g><path class="edge" d="M 0 0 V -4.89431 H 27.5"/><circle class="sym" cx="0" cy="0" r="3"/><text class="lab lft" transform="translate(-3 -7.0)">7</text></g><path class="edge" d="M 0 0 V -66.2571 H 25.9722"/><circle class="sym" cx="0" cy="0" r="3"/><text class="lab lft" transform="translate(-3 -7.0)">8</text></g><path class="edge" d="M 0 0 V -10.2296 H 25.2083"/><circle class="sym" cx="0" cy="0" r="3"/><text class="lab lft" transform="translate(-3 -7.0)">10</text></g><circle class="sym" cx="0" cy="0" r="3"/><text class="lab" transform="translate(0 -11)">11</text></g></g></g></g></g></svg>