<svg xmlns="http://www.w3.org/2000/svg" xmlns:ev="http://www.w3.org/2001/xml-events" xmlns:xlink="http://www.w3.org/1999/xlink" baseProfile="full" height="200" version="1.1" width="800"><defs><style type="text/css"><![CDATA[.tree-sequence .background path {fill: #808080; fill-opacity:0}.tree-sequence .background path:nth-child(odd) {fill-opacity:.1}.axes {font-size: 14px}.x-axis .tick .lab {font-weight: bold}.axes, .tree {font-size: 14px; text-anchor:middle}.y-axis line.grid {stroke: #FAFAFA}.y-axis > .lab text {transform: translateX(0.8em) rotate(-90deg)}.x-axis .tick g {transform: translateY(0.9em)}.x-axis > .lab text {transform: translateY(-0.8em)}.axes line, .edge {stroke:black; fill:none}.node > .sym {fill: black; stroke: none}.site > .sym {stroke: black}.mut text {fill: red; font-style: italic}.mut line {fill: none; stroke: none}.mut .sym {fill: none; stroke: red}.node .mut .sym {stroke-width: 1.5px}.tree text, .tree-sequence text {dominant-baseline: central}.plotbox .lab.lft {text-anchor: end}.plotbox .lab.rgt {text-anchor: start}]]></style></defs><g class="tree-sequence"><g class="background"><path d="M20,0 l190,0 l0,138.2 l10.64,25 l0,5 l-200.64,0 l0,-5 l0,-25 l0,-138.2z"/><path d="M210,0 l190,0 l0,138.2 l135.28,25 l0,5 l-314.64,0 l0,-5 l-10.64,-25 l0,-138.2z"/><path d="M400,0 l190,0 l0,138.2 l142.88,25 l0,5 l-197.6,0 l0,-5 l-135.28,-25 l0,-138.2z"/><path d="M590,0 l190,0 l0,138.2 l0,25 l0,5 l-47.12,0 l0,-5 l-142.88,-25 l0,-138.2z"/></g><g class="axes"><g class="x-axis"><g class="lab" transform="translate(400,200)"><text text-anchor="middle">Genome position</text></g><line x1="20" x2="780" y1="163.2" y2="163.2"/><g class="tick" transform="translate(20 163.2)"><line x1="0" x2="0" y1="0" y2="5"/><g class="lab" transform="translate(0,5)"><text>0</text></g></g><g class="tick" transform="translate(220.64 163.2)"><line x1="0" x2="0" y1="0" y2="5"/><g class="lab" transform="translate(0,5)"><text>264</text></g></g><g class="tick" transform="translate(535.28 163.2)"><line x1="0" x2="0" y1="0" y2="5"/><g class="lab" transform="translate(0,5)"><text>678</text></g></g><g class="tick" transform="translate(732.88 163.2)"><line x1="0" x2="0" y1="0" y2="5"/><g class="lab" transform="translate(0,5)"><text>938</text></g></g><g class="tick" transform="translate(780 163.2)"><line x1="0" x2="0" y1="0" y2="5"/><g class="lab" transform="translate(0,5)"><text>1000</text></g></g></g></g><g class="plotbox trees"><g class="tree t0" transform="translate(20 0)"><g class="plotbox"><g class="node n14 p1 root" transform="translate(95 60.9777)"><g class="a14 node n9 p0" transform="translate(37.5 2.68648)"><g class="a9 node n5 p1" transform="translate(0.0 14.5376)"><g class="a5 i0 leaf node n1 p0 sample" transform="translate(-18.75 43.1983)"><path class="edge" d="M 0 0 V -43.1983 H 18.75"/><rect class="sym" height="6" width="6" x="-3" y="-3"/><text class="lab" transform="translate(0 11)">1</text></g><g class="a5 i1 leaf node n3 p1 sample" transform="translate(18.75 43.1983)"><path class="edge" d="M 0 0 V -43.1983 H -18.75"/><rect class="sym" height="6" width="6" x="-3" y="-3"/><text class="lab" transform="translate(0 11)">3</text></g><path class="edge" d="M 0 0 V -14.5376 H 0.0"/><circle class="sym" cx="0" cy="0" r="3"/><text class="lab lft" transform="translate(-3 -7.0)">5</text></g><path class="edge" d="M 0 0 V -2.68648 H -37.5"/><circle class="sym" cx="0" cy="0" r="3"/><text class="lab rgt" transform="translate(3 -7.0)">9</text></g><g class="a14 node n12 p1" transform="translate(-37.5 2.68648)"><g class="a12 node n4 p1" transform="translate(0.0 30.8089)"><g class="a4 i0 leaf node n0 p0 sample" transform="translate(-18.75 26.927)"><path class="edge" d="M 0 0 V -26.927 H 18.75"/><rect class="sym" height="6" width="6" x="-3" y="-3"/><text class="lab" transform="translate(0 11)">0</text></g><g class="a4 i1 leaf node n2 p1 sample" transform="translate(18.75 26.927)"><path class="edge" d="M 0 0 V -26.927 H -18.75"/><rect class="sym" height="6" width="6" x="-3" y="-3"/><text class="lab" transform="translate(0 11)">2</text></g><path class="edge" d="M 0 0 V -30.8089 H 0.0"/><circle class="sym" cx="0" cy="0" r="3"/><text class="lab lft" transform="translate(-3 -7.0)">4</text></g><path class="edge" d="M 0 0 V -2.68648 H 37.5"/><circle class="sym" cx="0" cy="0" r="3"/><text class="lab lft" transform="translate(-3 -7.0)">12</text></g><circle class="sym" cx="0" cy="0" r="3"/><text class="lab" transform="translate(0 -11)">14</text></g></g></g><g class="tree t1" transform="translate(210 0)"><g class="plotbox"><g class="node n14 p1 root" transform="translate(118.438 60.9777)"><g class="a14 node n10 p0" transform="translate(32.8125 2.68648)"><g class="a10 i1 leaf node n3 p1 sample" transform="translate(0.0 57.7359)"><path class="edge" d="M 0 0 V -57.7359 H 0.0"/><rect class="sym" height="6" width="6" x="-3" y="-3"/><text class="lab" transform="translate(0 11)">3</text></g><path class="edge" d="M 0 0 V -2.68648 H -32.8125"/><circle class="sym" cx="0" cy="0" r="3"/><text class="lab rgt" transform="translate(3 -7.0)">10</text></g><g class="a14 node n13 p1" transform="translate(-32.8125 2.68648)"><g class="a13 node n6 p0" transform="translate(0.0 9.0437)"><g class="a6 i0 leaf node n1 p0 sample" transform="translate(28.125 48.6922)"><path class="edge" d="M 0 0 V -48.6922 H -28.125"/><rect class="sym" height="6" width="6" x="-3" y="-3"/><text class="lab" transform="translate(0 11)">1</text></g><g class="a6 node n4 p1" transform="translate(-28.125 21.7652)"><g class="a4 i0 leaf node n0 p0 sample" transform="translate(-18.75 26.927)"><path class="edge" d="M 0 0 V -26.927 H 18.75"/><rect class="sym" height="6" width="6" x="-3" y="-3"/><text class="lab" transform="translate(0 11)">0</text></g><g class="a4 i1 leaf node n2 p1 sample" transform="translate(18.75 26.927)"><path class="edge" d="M 0 0 V -26.927 H -18.75"/><rect class="sym" height="6" width="6" x="-3" y="-3"/><text class="lab" transform="translate(0 11)">2</text></g><path class="edge" d="M 0 0 V -21.7652 H 28.125"/><circle class="sym" cx="0" cy="0" r="3"/><text class="lab lft" transform="translate(-3 -7.0)">4</text></g><path class="edge" d="M 0 0 V -9.0437 H 0.0"/><circle class="sym" cx="0" cy="0" r="3"/><text class="lab lft" transform="translate(-3 -7.0)">6</text></g><path class="edge" d="M 0 0 V -2.68648 H 32.8125"/><circle class="sym" cx="0" cy="0" r="3"/><text class="lab lft" transform="translate(-3 -7.0)">13</text></g><circle class="sym" cx="0" cy="0" r="3"/><text class="lab" transform="translate(0 -11)">14</text></g></g></g><g class="tree t2" transform="translate(400 0)"><g class="plotbox"><g class="node n14 p1 root" transform="translate(95 60.9777)"><g class="a14 node n13 p1" transform="translate(-37.5 2.68648)"><g class="a13 node n6 p0" transform="translate(0.0 9.0437)"><g class="a6 i0 leaf node n1 p0 sample" transform="translate(18.75 48.6922)"><path class="edge" d="M 0 0 V -48.6922 H -18.75"/><rect class="sym" height="6" width="6" x="-3" y="-3"/><text class="lab" transform="translate(0 11)">1</text></g><g class="a6 i0 leaf node n0 p0 sample" transform="translate(-18.75 48.6922)"><path class="edge" d="M 0 0 V -48.6922 H 18.75"/><rect class="sym" height="6" width="6" x="-3" y="-3"/><text class="lab" transform="translate(0 11)">0</text></g><path class="edge" d="M 0 0 V -9.0437 H 0.0"/><circle class="sym" cx="0" cy="0" r="3"/><text class="lab lft" transform="translate(-3 -7.0)">6</text></g><path class="edge" d="M 0 0 V -2.68648 H 37.5"/><circle class="sym" cx="0" cy="0" r="3"/><text class="lab lft" transform="translate(-3 -7.0)">13</text></g><g class="a14 node n11 p0" transform="translate(37.5 2.68648)"><g class="a11 node n7 p1" transform="translate(0.0 4.84214)"><g class="a7 i1 leaf node n2 p1 sample" transform="translate(-18.75 52.8937)"><path class="edge" d="M 0 0 V -52.8937 H 18.75"/><rect class="sym" height="6" width="6" x="-3" y="-3"/><text class="lab" transform="translate(0 11)">2</text></g><g class="a7 i1 leaf node n3 p1 sample" transform="translate(18.75 52.8937)"><path class="edge" d="M 0 0 V -52.8937 H -18.75"/><rect class="sym" height="6" width="6" x="-3" y="-3"/><text class="lab" transform="translate(0 11)">3</text></g><path class="edge" d="M 0 0 V -4.84214 H 0.0"/><circle class="sym" cx="0" cy="0" r="3"/><text class="lab lft" transform="translate(-3 -7.0)">7</text></g><path class="edge" d="M 0 0 V -2.68648 H -37.5"/><circle class="sym" cx="0" cy="0" r="3"/><text class="lab rgt" transform="translate(3 -7.0)">11</text></g><circle class="sym" cx="0" cy="0" r="3"/><text class="lab" transform="translate(0 -11)">14</text></g></g></g><g class="tree t3" transform="translate(590 0)"><g class="plotbox"><g class="node n15 p0 root" transform="translate(95 26.8)"><g class="a15 node n8 p0" transform="translate(-37.5 36.8641)"><g class="a8 node n6 p0" transform="translate(0.0 9.0437)"><g class="a6 i0 leaf node n1 p0 sample" transform="translate(18.75 48.6922)"><path class="edge" d="M 0 0 V -48.6922 H -18.75"/><rect class="sym" height="6" width="6" x="-3" y="-3"/><text class="lab" transform="translate(0 11)">1</text></g><g class="a6 i0 leaf node n0 p0 sample" transform="translate(-18.75 48.6922)"><path class="edge" d="M 0 0 V -48.6922 H 18.75"/><rect class="sym" height="6" width="6" x="-3" y="-3"/><text class="lab" transform="translate(0 11)">0</text></g><path class="edge" d="M 0 0 V -9.0437 H 0.0"/><circle class="sym" cx="0" cy="0" r="3"/><text class="lab lft" transform="translate(-3 -7.0)">6</text></g><path class="edge" d="M 0 0 V -36.8641 H 37.5"/><circle class="sym" cx="0" cy="0" r="3"/><text class="lab lft" transform="translate(-3 -7.0)">8</text></g><g class="a15 node n11 p0" transform="translate(37.5 36.8641)"><g class="a11 node n7 p1" transform="translate(0.0 4.84214)"><g class="a7 i1 leaf node n2 p1 sample" transform="translate(-18.75 52.8937)"><path class="edge" d="M 0 0 V -52.8937 H 18.75"/><rect class="sym" height="6" width="6" x="-3" y="-3"/><text class="lab" transform="translate(0 11)">2</text></g><g class="a7 i1 leaf node n3 p1 sample" transform="translate(18.75 52.8937)"><path class="edge" d="M 0 0 V -52.8937 H -18.75"/><rect class="sym" height="6" width="6" x="-3" y="-3"/><text class="lab" transform="translate(0 11)">3</text></g><path class="edge" d="M 0 0 V -4.84214 H 0.0"/><circle class="sym" cx="0" cy="0" r="3"/><text class="lab lft" transform="translate(-3 -7.0)">7</text></g><path class="edge" d="M 0 0 V -36.8641 H -37.5"/><circle class="sym" cx="0" cy="0" r="3"/><text class="lab rgt" transform="translate(3 -7.0)">11</text></g><circle class="sym" cx="0" cy="0" r="3"/><text class="lab" transform="translate(0 -11)">15</text></g></g></g></g></g></svg>