<svg xmlns="http://www.w3.org/2000/svg" xmlns:ev="http://www.w3.org/2001/xml-events" xmlns:xlink="http://www.w3.org/1999/xlink" baseProfile="full" height="200" version="1.1" width="600"><defs><style type="text/css"><![CDATA[.tree-sequence .background path {fill: #808080; fill-opacity:0}.tree-sequence .background path:nth-child(odd) {fill-opacity:.1}.axes {font-size: 14px}.x-axis .tick .lab {font-weight: bold}.axes, .tree {font-size: 14px; text-anchor:middle}.y-axis line.grid {stroke: #FAFAFA}.y-axis > .lab text {transform: translateX(0.8em) rotate(-90deg)}.x-axis .tick g {transform: translateY(0.9em)}.x-axis > .lab text {transform: translateY(-0.8em)}.axes line, .edge {stroke:black; fill:none}.node > .sym {fill: black; stroke: none}.site > .sym {stroke: black}.mut text {fill: red; font-style: italic}.mut line {fill: none; stroke: none}.mut .sym {fill: none; stroke: red}.node .mut .sym {stroke-width: 1.5px}.tree text, .tree-sequence text {dominant-baseline: central}.plotbox .lab.lft {text-anchor: end}.plotbox .lab.rgt {text-anchor: start}]]></style></defs><g class="tree-sequence"><g class="background"><path d="M20,0 l186.667,0 l0,138.2 l93.3333,25 l0,5 l-280,0 l0,-5 l0,-25 l0,-138.2z"/><path d="M206.667,0 l186.667,0 l0,138.2 l-37.3333,25 l0,5 l-56,0 l0,-5 l-93.3333,-25 l0,-138.2z"/><path d="M393.333,0 l186.667,0 l0,138.2 l0,25 l0,5 l-224,0 l0,-5 l37.3333,-25 l0,-138.2z"/></g><g class="axes"><g class="x-axis"><g class="lab" transform="translate(300,200)"><text text-anchor="middle">Genome position</text></g><line x1="20" x2="580" y1="163.2" y2="163.2"/><g class="tick" transform="translate(20 163.2)"><line x1="0" x2="0" y1="0" y2="5"/><g class="lab" transform="translate(0,5)"><text>0</text></g></g><g class="tick" transform="translate(300 163.2)"><line x1="0" x2="0" y1="0" y2="5"/><g class="lab" transform="translate(0,5)"><text>5</text></g></g><g class="tick" transform="translate(356 163.2)"><line x1="0" x2="0" y1="0" y2="5"/><g class="lab" transform="translate(0,5)"><text>6</text></g></g><g class="tick" transform="translate(580 163.2)"><line x1="0" x2="0" y1="0" y2="5"/><g class="lab" transform="translate(0,5)"><text>10</text></g></g></g></g><g class="plotbox trees"><g class="tree t0" transform="translate(20 0)"><g class="plotbox"><g class="node n11 p0 root" transform="translate(81.1111 26.8)"><g class="a11 node n6 p0" transform="translate(-36.6667 89.2217)"><g class="a6 i0 leaf node n0 p0 sample" transform="translate(-12.2222 5.37835)"><path class="edge" d="M 0 0 V -5.37835 H 12.2222"/><rect class="sym" height="6" width="6" x="-3" y="-3"/><text class="lab" transform="translate(0 11)">0</text></g><g class="a6 i2 leaf node n4 p0 sample" transform="translate(12.2222 5.37835)"><path class="edge" d="M 0 0 V -5.37835 H -12.2222"/><rect class="sym" height="6" width="6" x="-3" y="-3"/><text class="lab" transform="translate(0 11)">4</text></g><path class="edge" d="M 0 0 V -89.2217 H 36.6667"/><circle class="sym" cx="0" cy="0" r="3"/><text class="lab lft" transform="translate(-3 -7.0)">6</text></g><g class="a11 node n10 p0" transform="translate(36.6667 67.5377)"><g class="a10 node n8 p0" transform="translate(24.4444 15.7471)"><g class="a8 i1 leaf node n2 p0 sample" transform="translate(-12.2222 11.3152)"><path class="edge" d="M 0 0 V -11.3152 H 12.2222"/><rect class="sym" height="6" width="6" x="-3" y="-3"/><text class="lab" transform="translate(0 11)">2</text></g><g class="a8 i1 leaf node n3 p0 sample" transform="translate(12.2222 11.3152)"><path class="edge" d="M 0 0 V -11.3152 H -12.2222"/><rect class="sym" height="6" width="6" x="-3" y="-3"/><text class="lab" transform="translate(0 11)">3</text></g><path class="edge" d="M 0 0 V -15.7471 H -24.4444"/><circle class="sym" cx="0" cy="0" r="3"/><text class="lab rgt" transform="translate(3 -7.0)">8</text></g><g class="a10 node n9 p0" transform="translate(-24.4444 11.2407)"><g class="a9 i0 leaf node n1 p0 sample" transform="translate(-12.2222 15.8216)"><path class="edge" d="M 0 0 V -15.8216 H 12.2222"/><rect class="sym" height="6" width="6" x="-3" y="-3"/><text class="lab" transform="translate(0 11)">1</text></g><g class="a9 i2 leaf node n5 p0 sample" transform="translate(12.2222 15.8216)"><path class="edge" d="M 0 0 V -15.8216 H -12.2222"/><rect class="sym" height="6" width="6" x="-3" y="-3"/><text class="lab" transform="translate(0 11)">5</text></g><path class="edge" d="M 0 0 V -11.2407 H 24.4444"/><circle class="sym" cx="0" cy="0" r="3"/><text class="lab lft" transform="translate(-3 -7.0)">9</text></g><path class="edge" d="M 0 0 V -67.5377 H -36.6667"/><circle class="sym" cx="0" cy="0" r="3"/><text class="lab rgt" transform="translate(3 -7.0)">10</text></g><circle class="sym" cx="0" cy="0" r="3"/><text class="lab" transform="translate(0 -11)">11</text></g></g></g><g class="tree t1" transform="translate(206.667 0)"><g class="plotbox"><g class="node n11 p0 root" transform="translate(99.4444 26.8)"><g class="a11 node n10 p0" transform="translate(36.6667 67.5377)"><g class="a10 node n8 p0" transform="translate(-18.3333 15.7471)"><g class="a8 i1 leaf node n2 p0 sample" transform="translate(-12.2222 11.3152)"><path class="edge" d="M 0 0 V -11.3152 H 12.2222"/><rect class="sym" height="6" width="6" x="-3" y="-3"/><text class="lab" transform="translate(0 11)">2</text></g><g class="a8 i1 leaf node n3 p0 sample" transform="translate(12.2222 11.3152)"><path class="edge" d="M 0 0 V -11.3152 H -12.2222"/><rect class="sym" height="6" width="6" x="-3" y="-3"/><text class="lab" transform="translate(0 11)">3</text></g><path class="edge" d="M 0 0 V -15.7471 H 18.3333"/><circle class="sym" cx="0" cy="0" r="3"/><text class="lab lft" transform="translate(-3 -7.0)">8</text></g><g class="a10 i2 leaf node n5 p0 sample" transform="translate(18.3333 27.0623)"><path class="edge" d="M 0 0 V -27.0623 H -18.3333"/><rect class="sym" height="6" width="6" x="-3" y="-3"/><text class="lab" transform="translate(0 11)">5</text></g><path class="edge" d="M 0 0 V -67.5377 H -36.6667"/><circle class="sym" cx="0" cy="0" r="3"/><text class="lab rgt" transform="translate(3 -7.0)">10</text></g><g class="a11 node n7 p0" transform="translate(-36.6667 83.9282)"><g class="a7 i0 leaf node n1 p0 sample" transform="translate(18.3333 10.6718)"><path class="edge" d="M 0 0 V -10.6718 H -18.3333"/><rect class="sym" height="6" width="6" x="-3" y="-3"/><text class="lab" transform="translate(0 11)">1</text></g><g class="a7 node n6 p0" transform="translate(-18.3333 5.29346)"><g class="a6 i0 leaf node n0 p0 sample" transform="translate(-12.2222 5.37835)"><path class="edge" d="M 0 0 V -5.37835 H 12.2222"/><rect class="sym" height="6" width="6" x="-3" y="-3"/><text class="lab" transform="translate(0 11)">0</text></g><g class="a6 i2 leaf node n4 p0 sample" transform="translate(12.2222 5.37835)"><path class="edge" d="M 0 0 V -5.37835 H -12.2222"/><rect class="sym" height="6" width="6" x="-3" y="-3"/><text class="lab" transform="translate(0 11)">4</text></g><path class="edge" d="M 0 0 V -5.29346 H 18.3333"/><circle class="sym" cx="0" cy="0" r="3"/><text class="lab lft" transform="translate(-3 -7.0)">6</text></g><path class="edge" d="M 0 0 V -83.9282 H 36.6667"/><circle class="sym" cx="0" cy="0" r="3"/><text class="lab lft" transform="translate(-3 -7.0)">7</text></g><circle class="sym" cx="0" cy="0" r="3"/><text class="lab" transform="translate(0 -11)">11</text></g></g></g><g class="tree t2" transform="translate(393.333 0)"><g class="plotbox"><g class="node n11 p0 root" transform="translate(81.1111 26.8)"><g class="a11 node n10 p0" transform="translate(36.6667 67.5377)"><g class="a10 node n8 p0" transform="translate(24.4444 15.7471)"><g class="a8 i1 leaf node n2 p0 sample" transform="translate(-12.2222 11.3152)"><path class="edge" d="M 0 0 V -11.3152 H 12.2222"/><rect class="sym" height="6" width="6" x="-3" y="-3"/><text class="lab" transform="translate(0 11)">2</text></g><g class="a8 i1 leaf node n3 p0 sample" transform="translate(12.2222 11.3152)"><path class="edge" d="M 0 0 V -11.3152 H -12.2222"/><rect class="sym" height="6" width="6" x="-3" y="-3"/><text class="lab" transform="translate(0 11)">3</text></g><path class="edge" d="M 0 0 V -15.7471 H -24.4444"/><circle class="sym" cx="0" cy="0" r="3"/><text class="lab rgt" transform="translate(3 -7.0)">8</text></g><g class="a10 node n9 p0" transform="translate(-24.4444 11.2407)"><g class="a9 i0 leaf node n1 p0 sample" transform="translate(-12.2222 15.8216)"><path class="edge" d="M 0 0 V -15.8216 H 12.2222"/><rect class="sym" height="6" width="6" x="-3" y="-3"/><text class="lab" transform="translate(0 11)">1</text></g><g class="a9 i2 leaf node n5 p0 sample" transform="translate(12.2222 15.8216)"><path class="edge" d="M 0 0 V -15.8216 H -12.2222"/><rect class="sym" height="6" width="6" x="-3" y="-3"/><text class="lab" transform="translate(0 11)">5</text></g><path class="edge" d="M 0 0 V -11.2407 H 24.4444"/><circle class="sym" cx="0" cy="0" r="3"/><text class="lab lft" transform="translate(-3 -7.0)">9</text></g><path class="edge" d="M 0 0 V -67.5377 H -36.6667"/><circle class="sym" cx="0" cy="0" r="3"/><text class="lab rgt" transform="translate(3 -7.0)">10</text></g><g class="a11 node n6 p0" transform="translate(-36.6667 89.2217)"><g class="a6 i0 leaf node n0 p0 sample" transform="translate(-12.2222 5.37835)"><path class="edge" d="M 0 0 V -5.37835 H 12.2222"/><rect class="sym" height="6" width="6" x="-3" y="-3"/><text class="lab" transform="translate(0 11)">0</text></g><g class="a6 i2 leaf node n4 p0 sample" transform="translate(12.2222 5.37835)"><path class="edge" d="M 0 0 V -5.37835 H -12.2222"/><rect class="sym" height="6" width="6" x="-3" y="-3"/><text class="lab" transform="translate(0 11)">4</text></g><path class="edge" d="M 0 0 V -89.2217 H 36.6667"/><circle class="sym" cx="0" cy="0" r="3"/><text class="lab lft" transform="translate(-3 -7.0)">6</text></g><circle class="sym" cx="0" cy="0" r="3"/><text class="lab" transform="translate(0 -11)">11</text></g></g></g></g></g></svg>