<svg xmlns="http://www.w3.org/2000/svg" xmlns:ev="http://www.w3.org/2001/xml-events" xmlns:xlink="http://www.w3.org/1999/xlink" baseProfile="full" height="200" version="1.1" width="600"><defs><style type="text/css"><![CDATA[.tree-sequence .background path {fill: #808080; fill-opacity:0}.tree-sequence .background path:nth-child(odd) {fill-opacity:.1}.axes {font-size: 14px}.x-axis .tick .lab {font-weight: bold}.axes, .tree {font-size: 14px; text-anchor:middle}.y-axis line.grid {stroke: #FAFAFA}.y-axis > .lab text {transform: translateX(0.8em) rotate(-90deg)}.x-axis .tick g {transform: translateY(0.9em)}.x-axis > .lab text {transform: translateY(-0.8em)}.axes line, .edge {stroke:black; fill:none}.node > .sym {fill: black; stroke: none}.site > .sym {stroke: black}.mut text {fill: red; font-style: italic}.mut line {fill: none; stroke: none}.mut .sym {fill: none; stroke: red}.node .mut .sym {stroke-width: 1.5px}.tree text, .tree-sequence text {dominant-baseline: central}.plotbox .lab.lft {text-anchor: end}.plotbox .lab.rgt {text-anchor: start}]]></style></defs><g class="tree-sequence"><g class="background"><path d="M56.8,0 l174.4,0 l0,138.2 l-122.08,25 l0,5 l-52.32,0 l0,-5 l0,-25 l0,-138.2z"/><path d="M231.2,0 l174.4,0 l0,138.2 l69.76,25 l0,5 l-366.24,0 l0,-5 l122.08,-25 l0,-138.2z"/><path d="M405.6,0 l174.4,0 l0,138.2 l0,25 l0,5 l-104.64,0 l0,-5 l-69.76,-25 l0,-138.2z"/></g><g class="axes"><g class="x-axis"><g class="lab" transform="translate(318.4,200)"><text text-anchor="middle">Genome position</text></g><line x1="56.8" x2="580" y1="163.2" y2="163.2"/><g class="tick" transform="translate(56.8 163.2)"><line x1="0" x2="0" y1="0" y2="5"/><g class="lab" transform="translate(0,5)"><text>0</text></g></g><g class="tick" transform="translate(109.12 163.2)"><line x1="0" x2="0" y1="0" y2="5"/><g class="lab" transform="translate(0,5)"><text>1</text></g></g><g class="tick" transform="translate(475.36 163.2)"><line x1="0" x2="0" y1="0" y2="5"/><g class="lab" transform="translate(0,5)"><text>8</text></g></g><g class="tick" transform="translate(580 163.2)"><line x1="0" x2="0" y1="0" y2="5"/><g class="lab" transform="translate(0,5)"><text>10</text></g></g></g><g class="y-axis"><g class="lab" transform="translate(0,65.7)"><text text-anchor="middle">Time</text></g><line x1="56.8" x2="56.8" y1="121.4" y2="10"/><g class="tick" transform="translate(56.8 121.4)"><line x1="0" x2="-5" y1="0" y2="0"/><g class="lab" transform="translate(-5,0)"><text text-anchor="end">0.00</text></g></g><g class="tick" transform="translate(56.8 107.199)"><line x1="0" x2="-5" y1="0" y2="0"/><g class="lab" transform="translate(-5,0)"><text text-anchor="end">1.50</text></g></g><g class="tick" transform="translate(56.8 57.1523)"><line x1="0" x2="-5" y1="0" y2="0"/><g class="lab" transform="translate(-5,0)"><text text-anchor="end">6.79</text></g></g><g class="tick" transform="translate(56.8 26.8)"><line x1="0" x2="-5" y1="0" y2="0"/><g class="lab" transform="translate(-5,0)"><text text-anchor="end">10.00</text></g></g></g></g><g class="plotbox trees"><g class="tree t0" transform="translate(56.8 0)"><g class="plotbox"><g class="node n9 p0 root" transform="translate(36.8 26.8)"><g class="a9 i0 leaf node n0 p0 sample" transform="translate(0.0 94.6)"><path class="edge" d="M 0 0 V -94.6 H 0.0"/><rect class="sym" height="6" width="6" x="-3" y="-3"/><text class="lab" transform="translate(0 11)">0</text></g><circle class="sym" cx="0" cy="0" r="3"/><text class="lab" transform="translate(0 -11)">9</text></g><g class="node n8 p0 root" transform="translate(70.4 26.8)"><g class="a8 i0 leaf node n1 p0 sample" transform="translate(0.0 94.6)"><path class="edge" d="M 0 0 V -94.6 H 0.0"/><rect class="sym" height="6" width="6" x="-3" y="-3"/><text class="lab" transform="translate(0 11)">1</text></g><circle class="sym" cx="0" cy="0" r="3"/><text class="lab" transform="translate(0 -11)">8</text></g><g class="node n7 p0 root" transform="translate(120.8 26.8)"><g class="a7 node n5 p0" transform="translate(0.0 30.3523)"><g class="a5 i1 leaf node n2 p0 sample" transform="translate(-16.8 64.2477)"><path class="edge" d="M 0 0 V -64.2477 H 16.8"/><rect class="sym" height="6" width="6" x="-3" y="-3"/><text class="lab" transform="translate(0 11)">2</text></g><g class="a5 i1 leaf node n3 p0 sample" transform="translate(16.8 64.2477)"><path class="edge" d="M 0 0 V -64.2477 H -16.8"/><rect class="sym" height="6" width="6" x="-3" y="-3"/><text class="lab" transform="translate(0 11)">3</text></g><path class="edge" d="M 0 0 V -30.3523 H 0.0"/><circle class="sym" cx="0" cy="0" r="3"/><text class="lab lft" transform="translate(-3 -7.0)">5</text></g><circle class="sym" cx="0" cy="0" r="3"/><text class="lab" transform="translate(0 -11)">7</text></g></g></g><g class="tree t1" transform="translate(231.2 0)"><g class="plotbox"><g class="node n9 p0 root" transform="translate(36.8 26.8)"><g class="a9 i0 leaf node n0 p0 sample" transform="translate(0.0 94.6)"><path class="edge" d="M 0 0 V -94.6 H 0.0"/><rect class="sym" height="6" width="6" x="-3" y="-3"/><text class="lab" transform="translate(0 11)">0</text></g><circle class="sym" cx="0" cy="0" r="3"/><text class="lab" transform="translate(0 -11)">9</text></g><g class="node n6 p0 root" transform="translate(70.4 26.8)"><g class="a6 i0 leaf node n1 p0 sample" transform="translate(0.0 94.6)"><path class="edge" d="M 0 0 V -94.6 H 0.0"/><rect class="sym" height="6" width="6" x="-3" y="-3"/><text class="lab" transform="translate(0 11)">1</text></g><circle class="sym" cx="0" cy="0" r="3"/><text class="lab" transform="translate(0 -11)">6</text></g><g class="node n7 p0 root" transform="translate(120.8 26.8)"><g class="a7 node n5 p0" transform="translate(0.0 30.3523)"><g class="a5 i1 leaf node n2 p0 sample" transform="translate(-16.8 64.2477)"><path class="edge" d="M 0 0 V -64.2477 H 16.8"/><rect class="sym" height="6" width="6" x="-3" y="-3"/><text class="lab" transform="translate(0 11)">2</text></g><g class="a5 i1 leaf node n3 p0 sample" transform="translate(16.8 64.2477)"><path class="edge" d="M 0 0 V -64.2477 H -16.8"/><rect class="sym" height="6" width="6" x="-3" y="-3"/><text class="lab" transform="translate(0 11)">3</text></g><path class="edge" d="M 0 0 V -30.3523 H 0.0"/><circle class="sym" cx="0" cy="0" r="3"/><text class="lab lft" transform="translate(-3 -7.0)">5</text></g><circle class="sym" cx="0" cy="0" r="3"/><text class="lab" transform="translate(0 -11)">7</text></g></g></g><g class="tree t2" transform="translate(405.6 0)"><g class="plotbox"><g class="node n9 p0 root" transform="translate(36.8 26.8)"><g class="a9 i0 leaf node n0 p0 sample" transform="translate(0.0 94.6)"><path class="edge" d="M 0 0 V -94.6 H 0.0"/><rect class="sym" height="6" width="6" x="-3" y="-3"/><text class="lab" transform="translate(0 11)">0</text></g><circle class="sym" cx="0" cy="0" r="3"/><text class="lab" transform="translate(0 -11)">9</text></g><g class="node n7 p0 root" transform="translate(112.4 26.8)"><g class="a7 node n5 p0" transform="translate(0.0 30.3523)"><g class="a5 i1 leaf node n3 p0 sample" transform="translate(25.2 64.2477)"><path class="edge" d="M 0 0 V -64.2477 H -25.2"/><rect class="sym" height="6" width="6" x="-3" y="-3"/><text class="lab" transform="translate(0 11)">3</text></g><g class="a5 node n4 p0" transform="translate(-25.2 50.0464)"><g class="a4 i0 leaf node n1 p0 sample" transform="translate(-16.8 14.2013)"><path class="edge" d="M 0 0 V -14.2013 H 16.8"/><rect class="sym" height="6" width="6" x="-3" y="-3"/><text class="lab" transform="translate(0 11)">1</text></g><g class="a4 i1 leaf node n2 p0 sample" transform="translate(16.8 14.2013)"><path class="edge" d="M 0 0 V -14.2013 H -16.8"/><rect class="sym" height="6" width="6" x="-3" y="-3"/><text class="lab" transform="translate(0 11)">2</text></g><path class="edge" d="M 0 0 V -50.0464 H 25.2"/><circle class="sym" cx="0" cy="0" r="3"/><text class="lab lft" transform="translate(-3 -7.0)">4</text></g><path class="edge" d="M 0 0 V -30.3523 H 0.0"/><circle class="sym" cx="0" cy="0" r="3"/><text class="lab lft" transform="translate(-3 -7.0)">5</text></g><circle class="sym" cx="0" cy="0" r="3"/><text class="lab" transform="translate(0 -11)">7</text></g></g></g></g></g></svg>