<svg xmlns="http://www.w3.org/2000/svg" xmlns:ev="http://www.w3.org/2001/xml-events" xmlns:xlink="http://www.w3.org/1999/xlink" baseProfile="full" height="200" version="1.1" width="200"><defs><style type="text/css"><![CDATA[.tree-sequence .background path {fill: #808080; fill-opacity:0}.tree-sequence .background path:nth-child(odd) {fill-opacity:.1}.axes {font-size: 14px}.x-axis .tick .lab {font-weight: bold}.axes, .tree {font-size: 14px; text-anchor:middle}.y-axis line.grid {stroke: #FAFAFA}.y-axis > .lab text {transform: translateX(0.8em) rotate(-90deg)}.x-axis .tick g {transform: translateY(0.9em)}.x-axis > .lab text {transform: translateY(-0.8em)}.axes line, .edge {stroke:black; fill:none}.node > .sym {fill: black; stroke: none}.site > .sym {stroke: black}.mut text {fill: red; font-style: italic}.mut line {fill: none; stroke: none}.mut .sym {fill: none; stroke: red}.node .mut .sym {stroke-width: 1.5px}.tree text, .tree-sequence text {dominant-baseline: central}.plotbox .lab.lft {text-anchor: end}.plotbox .lab.rgt {text-anchor: start}]]></style></defs><g class="tree-sequence"><g class="background"><path d="M20,0 l160,0 l0,138.2 l0,25 l0,5 l-160,0 l0,-5 l0,-25 l0,-138.2z"/></g><g class="axes"><g class="x-axis"><g class="lab" transform="translate(100,200)"><text text-anchor="middle">Genome position</text></g><line x1="20" x2="180" y1="163.2" y2="163.2"/><g class="tick" transform="translate(20 163.2)"><line x1="0" x2="0" y1="0" y2="5"/><g class="lab" transform="translate(0,5)"><text>0</text></g></g><g class="tick" transform="translate(180 163.2)"><line x1="0" x2="0" y1="0" y2="5"/><g class="lab" transform="translate(0,5)"><text>1</text></g></g></g></g><g class="plotbox trees"><g class="tree t0" transform="translate(20 0)"><g class="plotbox"><g class="node n14 p0 root" transform="translate(102.031 26.8)"><g class="a14 i3 leaf node n6 p0 sample" transform="translate(30.4688 94.6)"><path class="edge" d="M 0 0 V -94.6 H -30.4688"/><rect class="sym" height="6" width="6" x="-3" y="-3"/><text class="lab" transform="translate(0 11)">6</text></g><g class="a14 node n13 p0" transform="translate(-30.4688 10.6488)"><g class="a13 node n10 p0" transform="translate(32.8125 55.1326)"><g class="a10 i2 leaf node n5 p0 sample" transform="translate(13.125 28.8186)"><path class="edge" d="M 0 0 V -28.8186 H -13.125"/><rect class="sym" height="6" width="6" x="-3" y="-3"/><text class="lab" transform="translate(0 11)">5</text></g><g class="a10 node n9 p0" transform="translate(-13.125 11.6467)"><g class="a9 i3 leaf node n7 p0 sample" transform="translate(11.25 17.1719)"><path class="edge" d="M 0 0 V -17.1719 H -11.25"/><rect class="sym" height="6" width="6" x="-3" y="-3"/><text class="lab" transform="translate(0 11)">7</text></g><g class="a9 node n8 p0" transform="translate(-11.25 6.03837)"><g class="a8 i0 leaf node n1 p0 sample" transform="translate(-7.5 11.1336)"><path class="edge" d="M 0 0 V -11.1336 H 7.5"/><rect class="sym" height="6" width="6" x="-3" y="-3"/><text class="lab" transform="translate(0 11)">1</text></g><g class="a8 i1 leaf node n3 p0 sample" transform="translate(7.5 11.1336)"><path class="edge" d="M 0 0 V -11.1336 H -7.5"/><rect class="sym" height="6" width="6" x="-3" y="-3"/><text class="lab" transform="translate(0 11)">3</text></g><path class="edge" d="M 0 0 V -6.03837 H 11.25"/><circle class="sym" cx="0" cy="0" r="3"/><text class="lab lft" transform="translate(-3 -7.0)">8</text></g><path class="edge" d="M 0 0 V -11.6467 H 13.125"/><circle class="sym" cx="0" cy="0" r="3"/><text class="lab lft" transform="translate(-3 -7.0)">9</text></g><path class="edge" d="M 0 0 V -55.1326 H -32.8125"/><circle class="sym" cx="0" cy="0" r="3"/><text class="lab rgt" transform="translate(3 -7.0)">10</text></g><g class="a13 node n12 p0" transform="translate(-32.8125 7.74681)"><g class="a12 i0 leaf node n0 p0 sample" transform="translate(-11.25 76.2044)"><path class="edge" d="M 0 0 V -76.2044 H 11.25"/><rect class="sym" height="6" width="6" x="-3" y="-3"/><text class="lab" transform="translate(0 11)">0</text></g><g class="a12 node n11 p0" transform="translate(11.25 3.18189)"><g class="a11 i1 leaf node n2 p0 sample" transform="translate(-7.5 73.0225)"><path class="edge" d="M 0 0 V -73.0225 H 7.5"/><rect class="sym" height="6" width="6" x="-3" y="-3"/><text class="lab" transform="translate(0 11)">2</text></g><g class="a11 i2 leaf node n4 p0 sample" transform="translate(7.5 73.0225)"><path class="edge" d="M 0 0 V -73.0225 H -7.5"/><rect class="sym" height="6" width="6" x="-3" y="-3"/><text class="lab" transform="translate(0 11)">4</text></g><path class="edge" d="M 0 0 V -3.18189 H -11.25"/><circle class="sym" cx="0" cy="0" r="3"/><text class="lab rgt" transform="translate(3 -7.0)">11</text></g><path class="edge" d="M 0 0 V -7.74681 H 32.8125"/><circle class="sym" cx="0" cy="0" r="3"/><text class="lab lft" transform="translate(-3 -7.0)">12</text></g><path class="edge" d="M 0 0 V -10.6488 H 30.4688"/><circle class="sym" cx="0" cy="0" r="3"/><text class="lab lft" transform="translate(-3 -7.0)">13</text></g><circle class="sym" cx="0" cy="0" r="3"/><text class="lab" transform="translate(0 -11)">14</text></g></g></g></g></g></svg>