<svg xmlns="http://www.w3.org/2000/svg" xmlns:ev="http://www.w3.org/2001/xml-events" xmlns:xlink="http://www.w3.org/1999/xlink" baseProfile="full" height="200" version="1.1" width="800"><defs><style type="text/css"><![CDATA[.tree-sequence .background path {fill: #808080; fill-opacity:0}.tree-sequence .background path:nth-child(odd) {fill-opacity:.1}.axes {font-size: 14px}.x-axis .tick .lab {font-weight: bold}.axes, .tree {font-size: 14px; text-anchor:middle}.y-axis line.grid {stroke: #FAFAFA}.y-axis > .lab text {transform: translateX(0.8em) rotate(-90deg)}.x-axis .tick g {transform: translateY(0.9em)}.x-axis > .lab text {transform: translateY(-0.8em)}.axes line, .edge {stroke:black; fill:none}.node > .sym {fill: black; stroke: none}.site > .sym {stroke: black}.mut text {fill: red; font-style: italic}.mut line {fill: none; stroke: none}.mut .sym {fill: none; stroke: red}.node .mut .sym {stroke-width: 1.5px}.tree text, .tree-sequence text {dominant-baseline: central}.plotbox .lab.lft {text-anchor: end}.plotbox .lab.rgt {text-anchor: start}]]></style></defs><g class="tree-sequence"><g class="background"><path d="M56.8,0 l180.8,0 l0,138.2 l180.8,25 l0,5 l-361.6,0 l0,-5 l0,-25 l0,-138.2z"/><path d="M237.6,0 l180.8,0 l0,138.2 l216.96,25 l0,5 l-216.96,0 l0,-5 l-180.8,-25 l0,-138.2z"/><path d="M418.4,0 l180.8,0 l0,138.2 l108.48,25 l0,5 l-72.32,0 l0,-5 l-216.96,-25 l0,-138.2z"/><path d="M599.2,0 l180.8,0 l0,138.2 l0,25 l0,5 l-72.32,0 l0,-5 l-108.48,-25 l0,-138.2z"/></g><g class="axes"><g class="x-axis"><g class="lab" transform="translate(418.4,200)"><text text-anchor="middle">Genome position</text></g><line x1="56.8" x2="780" y1="163.2" y2="163.2"/><g class="tick" transform="translate(56.8 163.2)"><line x1="0" x2="0" y1="0" y2="5"/><g class="lab" transform="translate(0,5)"><text>0</text></g></g><g class="tick" transform="translate(418.4 163.2)"><line x1="0" x2="0" y1="0" y2="5"/><g class="lab" transform="translate(0,5)"><text>5</text></g></g><g class="tick" transform="translate(635.36 163.2)"><line x1="0" x2="0" y1="0" y2="5"/><g class="lab" transform="translate(0,5)"><text>8</text></g></g><g class="tick" transform="translate(707.68 163.2)"><line x1="0" x2="0" y1="0" y2="5"/><g class="lab" transform="translate(0,5)"><text>9</text></g></g><g class="tick" transform="translate(780 163.2)"><line x1="0" x2="0" y1="0" y2="5"/><g class="lab" transform="translate(0,5)"><text>10</text></g></g></g><g class="y-axis"><g class="lab" transform="translate(0,65.7)"><text text-anchor="middle">Time</text></g><line x1="56.8" x2="56.8" y1="121.4" y2="10"/><g class="tick" transform="translate(56.8 121.4)"><line x1="0" x2="-5" y1="0" y2="0"/><g class="lab" transform="translate(-5,0)"><text text-anchor="end">0.00</text></g></g><g class="tick" transform="translate(56.8 114.488)"><line x1="0" x2="-5" y1="0" y2="0"/><g class="lab" transform="translate(-5,0)"><text text-anchor="end">0.31</text></g></g><g class="tick" transform="translate(56.8 114.017)"><line x1="0" x2="-5" y1="0" y2="0"/><g class="lab" transform="translate(-5,0)"><text text-anchor="end">0.33</text></g></g><g class="tick" transform="translate(56.8 110.994)"><line x1="0" x2="-5" y1="0" y2="0"/><g class="lab" transform="translate(-5,0)"><text text-anchor="end">0.47</text></g></g><g class="tick" transform="translate(56.8 95.3192)"><line x1="0" x2="-5" y1="0" y2="0"/><g class="lab" transform="translate(-5,0)"><text text-anchor="end">1.17</text></g></g><g class="tick" transform="translate(56.8 35.8533)"><line x1="0" x2="-5" y1="0" y2="0"/><g class="lab" transform="translate(-5,0)"><text text-anchor="end">3.83</text></g></g><g class="tick" transform="translate(56.8 26.8)"><line x1="0" x2="-5" y1="0" y2="0"/><g class="lab" transform="translate(-5,0)"><text text-anchor="end">4.23</text></g></g></g></g><g class="plotbox trees"><g class="tree t0" transform="translate(56.8 0)"><g class="plotbox"><g class="node n9 p0 root" transform="translate(68.4 26.8)"><g class="a9 i0 leaf node n0 p0 sample" transform="translate(-30.8 94.6)"><path class="edge" d="M 0 0 V -94.6 H 30.8"/><rect class="sym" height="6" width="6" x="-3" y="-3"/><text class="lab" transform="translate(0 11)">0</text></g><g class="a9 node n6 p0" transform="translate(30.8 84.1936)"><g class="a6 i0 leaf node n1 p0 sample" transform="translate(-26.4 10.4064)"><path class="edge" d="M 0 0 V -10.4064 H 26.4"/><rect class="sym" height="6" width="6" x="-3" y="-3"/><text class="lab" transform="translate(0 11)">1</text></g><g class="a6 node n5 p0" transform="translate(26.4 3.02377)"><g class="a5 i1 leaf node n2 p0 sample" transform="translate(-17.6 7.38266)"><path class="edge" d="M 0 0 V -7.38266 H 17.6"/><rect class="sym" height="6" width="6" x="-3" y="-3"/><text class="lab" transform="translate(0 11)">2</text></g><g class="a5 i1 leaf node n3 p0 sample" transform="translate(17.6 7.38266)"><path class="edge" d="M 0 0 V -7.38266 H -17.6"/><rect class="sym" height="6" width="6" x="-3" y="-3"/><text class="lab" transform="translate(0 11)">3</text></g><path class="edge" d="M 0 0 V -3.02377 H -26.4"/><circle class="sym" cx="0" cy="0" r="3"/><text class="lab rgt" transform="translate(3 -7.0)">5</text></g><path class="edge" d="M 0 0 V -84.1936 H -30.8"/><circle class="sym" cx="0" cy="0" r="3"/><text class="lab rgt" transform="translate(3 -7.0)">6</text></g><circle class="sym" cx="0" cy="0" r="3"/><text class="lab" transform="translate(0 -11)">9</text></g></g></g><g class="tree t1" transform="translate(237.6 0)"><g class="plotbox"><g class="node n8 p0 root" transform="translate(68.4 35.8533)"><g class="a8 i0 leaf node n0 p0 sample" transform="translate(-30.8 85.5467)"><path class="edge" d="M 0 0 V -85.5467 H 30.8"/><rect class="sym" height="6" width="6" x="-3" y="-3"/><text class="lab" transform="translate(0 11)">0</text></g><g class="a8 node n6 p0" transform="translate(30.8 75.1402)"><g class="a6 i0 leaf node n1 p0 sample" transform="translate(-26.4 10.4064)"><path class="edge" d="M 0 0 V -10.4064 H 26.4"/><rect class="sym" height="6" width="6" x="-3" y="-3"/><text class="lab" transform="translate(0 11)">1</text></g><g class="a6 node n5 p0" transform="translate(26.4 3.02377)"><g class="a5 i1 leaf node n2 p0 sample" transform="translate(-17.6 7.38266)"><path class="edge" d="M 0 0 V -7.38266 H 17.6"/><rect class="sym" height="6" width="6" x="-3" y="-3"/><text class="lab" transform="translate(0 11)">2</text></g><g class="a5 i1 leaf node n3 p0 sample" transform="translate(17.6 7.38266)"><path class="edge" d="M 0 0 V -7.38266 H -17.6"/><rect class="sym" height="6" width="6" x="-3" y="-3"/><text class="lab" transform="translate(0 11)">3</text></g><path class="edge" d="M 0 0 V -3.02377 H -26.4"/><circle class="sym" cx="0" cy="0" r="3"/><text class="lab rgt" transform="translate(3 -7.0)">5</text></g><path class="edge" d="M 0 0 V -75.1402 H -30.8"/><circle class="sym" cx="0" cy="0" r="3"/><text class="lab rgt" transform="translate(3 -7.0)">6</text></g><circle class="sym" cx="0" cy="0" r="3"/><text class="lab" transform="translate(0 -11)">8</text></g></g></g><g class="tree t2" transform="translate(418.4 0)"><g class="plotbox"><g class="node n7 p0 root" transform="translate(68.4 95.3192)"><g class="a7 i0 leaf node n0 p0 sample" transform="translate(-30.8 26.0808)"><path class="edge" d="M 0 0 V -26.0808 H 30.8"/><rect class="sym" height="6" width="6" x="-3" y="-3"/><text class="lab" transform="translate(0 11)">0</text></g><g class="a7 node n6 p0" transform="translate(30.8 15.6743)"><g class="a6 i0 leaf node n1 p0 sample" transform="translate(-26.4 10.4064)"><path class="edge" d="M 0 0 V -10.4064 H 26.4"/><rect class="sym" height="6" width="6" x="-3" y="-3"/><text class="lab" transform="translate(0 11)">1</text></g><g class="a6 node n5 p0" transform="translate(26.4 3.02377)"><g class="a5 i1 leaf node n2 p0 sample" transform="translate(-17.6 7.38266)"><path class="edge" d="M 0 0 V -7.38266 H 17.6"/><rect class="sym" height="6" width="6" x="-3" y="-3"/><text class="lab" transform="translate(0 11)">2</text></g><g class="a5 i1 leaf node n3 p0 sample" transform="translate(17.6 7.38266)"><path class="edge" d="M 0 0 V -7.38266 H -17.6"/><rect class="sym" height="6" width="6" x="-3" y="-3"/><text class="lab" transform="translate(0 11)">3</text></g><path class="edge" d="M 0 0 V -3.02377 H -26.4"/><circle class="sym" cx="0" cy="0" r="3"/><text class="lab rgt" transform="translate(3 -7.0)">5</text></g><path class="edge" d="M 0 0 V -15.6743 H -30.8"/><circle class="sym" cx="0" cy="0" r="3"/><text class="lab rgt" transform="translate(3 -7.0)">6</text></g><circle class="sym" cx="0" cy="0" r="3"/><text class="lab" transform="translate(0 -11)">7</text></g></g></g><g class="tree t3" transform="translate(599.2 0)"><g class="plotbox"><g class="node n7 p0 root" transform="translate(77.2 95.3192)"><g class="a7 i0 leaf node n0 p0 sample" transform="translate(-39.6 26.0808)"><path class="edge" d="M 0 0 V -26.0808 H 39.6"/><rect class="sym" height="6" width="6" x="-3" y="-3"/><text class="lab" transform="translate(0 11)">0</text></g><g class="a7 node n5 p0" transform="translate(39.6 18.6981)"><g class="a5 i1 leaf node n3 p0 sample" transform="translate(26.4 7.38266)"><path class="edge" d="M 0 0 V -7.38266 H -26.4"/><rect class="sym" height="6" width="6" x="-3" y="-3"/><text class="lab" transform="translate(0 11)">3</text></g><g class="a5 node n4 p0" transform="translate(-26.4 0.47066)"><g class="a4 i0 leaf node n1 p0 sample" transform="translate(-17.6 6.912)"><path class="edge" d="M 0 0 V -6.912 H 17.6"/><rect class="sym" height="6" width="6" x="-3" y="-3"/><text class="lab" transform="translate(0 11)">1</text></g><g class="a4 i1 leaf node n2 p0 sample" transform="translate(17.6 6.912)"><path class="edge" d="M 0 0 V -6.912 H -17.6"/><rect class="sym" height="6" width="6" x="-3" y="-3"/><text class="lab" transform="translate(0 11)">2</text></g><path class="edge" d="M 0 0 V -0.47066 H 26.4"/><circle class="sym" cx="0" cy="0" r="3"/><text class="lab lft" transform="translate(-3 -7.0)">4</text></g><path class="edge" d="M 0 0 V -18.6981 H -39.6"/><circle class="sym" cx="0" cy="0" r="3"/><text class="lab rgt" transform="translate(3 -7.0)">5</text></g><circle class="sym" cx="0" cy="0" r="3"/><text class="lab" transform="translate(0 -11)">7</text></g></g></g></g></g></svg>