<svg xmlns="http://www.w3.org/2000/svg" xmlns:ev="http://www.w3.org/2001/xml-events" xmlns:xlink="http://www.w3.org/1999/xlink" baseProfile="full" height="200" version="1.1" width="1000"><defs><style type="text/css"><![CDATA[.background path {fill: #808080; fill-opacity: 0}.background path:nth-child(odd) {fill-opacity: .1}.x-regions rect {fill: yellow; stroke: black; opacity: 0.5}.axes {font-size: 14px}.x-axis .tick .lab {font-weight: bold; dominant-baseline: hanging}.axes, .tree {font-size: 14px; text-anchor: middle}.axes line, .edge {stroke: black; fill: none}.axes .ax-skip {stroke-dasharray: 4}.y-axis .grid {stroke: #FAFAFA}.node > .sym {fill: black; stroke: none}.site > .sym {stroke: black}.mut text {fill: red; font-style: italic}.mut.extra text {fill: hotpink}.mut line {fill: none; stroke: none}.mut .sym {fill: none; stroke: red}.mut.extra .sym {stroke: hotpink}.node .mut .sym {stroke-width: 1.5px}.tree text, .tree-sequence text {dominant-baseline: central}.plotbox .lab.lft {text-anchor: end}.plotbox .lab.rgt {text-anchor: start}.polytomy line {stroke: black; stroke-dasharray: 1px, 1px}.polytomy text {paint-order:stroke;stroke-width:0.3em;stroke:white}]]></style></defs><g class="tree-sequence"><g class="background"><path d="M20,0 l192,0 l0,138.2 l384,25 l0,5 l-576,0 l0,-5 l0,-25 l0,-138.2z"/><path d="M212,0 l192,0 l0,138.2 l345.6,25 l0,5 l-153.6,0 l0,-5 l-384,-25 l0,-138.2z"/><path d="M404,0 l192,0 l0,138.2 l201.6,25 l0,5 l-48,0 l0,-5 l-345.6,-25 l0,-138.2z"/><path d="M596,0 l192,0 l0,138.2 l163.2,25 l0,5 l-153.6,0 l0,-5 l-201.6,-25 l0,-138.2z"/><path d="M788,0 l192,0 l0,138.2 l0,25 l0,5 l-28.8,0 l0,-5 l-163.2,-25 l0,-138.2z"/></g><g class="axes"><g class="x-axis"><g class="title" transform="translate(500 200)"><text class="lab" text-anchor="middle" transform="translate(0 -11)">Genome position</text></g><line class="ax-line" x1="20" x2="980" y1="163.2" y2="163.2"/><g class="ticks"><g class="tick" transform="translate(20 163.2)"><line x1="0" x2="0" y1="0" y2="5"/><g transform="translate(0 6)"><text class="lab">0</text></g></g><g class="tick" transform="translate(596 163.2)"><line x1="0" x2="0" y1="0" y2="5"/><g transform="translate(0 6)"><text class="lab">60</text></g></g><g class="tick" transform="translate(749.6 163.2)"><line x1="0" x2="0" y1="0" y2="5"/><g transform="translate(0 6)"><text class="lab">76</text></g></g><g class="tick" transform="translate(797.6 163.2)"><line x1="0" x2="0" y1="0" y2="5"/><g transform="translate(0 6)"><text class="lab">81</text></g></g><g class="tick" transform="translate(951.2 163.2)"><line x1="0" x2="0" y1="0" y2="5"/><g transform="translate(0 6)"><text class="lab">97</text></g></g><g class="tick" transform="translate(980 163.2)"><line x1="0" x2="0" y1="0" y2="5"/><g transform="translate(0 6)"><text class="lab">100</text></g></g></g></g></g><g class="plotbox trees"><g class="tree t0" transform="translate(20 0)"><g class="plotbox"><g class="c2 node n10 p0 root" transform="translate(119.75 102.603)"><g class="a10 i1 leaf node n2 p0 sample" transform="translate(39.5833 18.7971)"><path class="edge e9" d="M 0 0 V -18.7971 H -39.5833"/><rect class="sym" height="6" width="6" x="-3" y="-3"/><text class="lab" transform="translate(0 11)">2</text></g><g class="a10 c2 node n9 p0" transform="translate(-39.5833 5.07917)"><g class="a9 c2 node n7 p0" transform="translate(34.8333 10.3648)"><g class="a7 i1 leaf node n3 p0 sample" transform="translate(19 3.35313)"><path class="edge e2" d="M 0 0 V -3.35313 H -19"/><rect class="sym" height="6" width="6" x="-3" y="-3"/><text class="lab" transform="translate(0 11)">3</text></g><g class="a7 c2 node n6 p0" transform="translate(-19 3.03802)"><g class="a6 i0 leaf node n1 p0 sample" transform="translate(-12.6667 0.315114)"><path class="edge e0" d="M 0 0 V -0.315114 H 12.6667"/><rect class="sym" height="6" width="6" x="-3" y="-3"/><text class="lab" transform="translate(0 11)">1</text></g><g class="a6 i2 leaf node n5 p0 sample" transform="translate(12.6667 0.315114)"><path class="edge e1" d="M 0 0 V -0.315114 H -12.6667"/><rect class="sym" height="6" width="6" x="-3" y="-3"/><text class="lab" transform="translate(0 11)">5</text></g><path class="edge e3" d="M 0 0 V -3.03802 H 19"/><circle class="sym" cx="0" cy="0" r="3"/><text class="lab lft" transform="translate(-3 -7)">6</text></g><path class="edge e7" d="M 0 0 V -10.3648 H -34.8333"/><circle class="sym" cx="0" cy="0" r="3"/><text class="lab rgt" transform="translate(3 -7)">7</text></g><g class="a9 c2 node n8 p0" transform="translate(-34.8333 5.42491)"><g class="a8 i0 leaf node n0 p0 sample" transform="translate(-12.6667 8.29301)"><path class="edge e4" d="M 0 0 V -8.29301 H 12.6667"/><rect class="sym" height="6" width="6" x="-3" y="-3"/><text class="lab" transform="translate(0 11)">0</text></g><g class="a8 i2 leaf node n4 p0 sample" transform="translate(12.6667 8.29301)"><path class="edge e5" d="M 0 0 V -8.29301 H -12.6667"/><rect class="sym" height="6" width="6" x="-3" y="-3"/><text class="lab" transform="translate(0 11)">4</text></g><path class="edge e8" d="M 0 0 V -5.42491 H 34.8333"/><circle class="sym" cx="0" cy="0" r="3"/><text class="lab lft" transform="translate(-3 -7)">8</text></g><path class="edge e10" d="M 0 0 V -5.07917 H 39.5833"/><circle class="sym" cx="0" cy="0" r="3"/><text class="lab lft" transform="translate(-3 -7)">9</text></g><circle class="sym" cx="0" cy="0" r="3"/><text class="lab" transform="translate(0 -11)">10</text></g></g></g><g class="tree t1" transform="translate(212 0)"><g class="plotbox"><g class="c2 node n11 p0 root" transform="translate(119.75 89.986)"><g class="a11 i1 leaf node n2 p0 sample" transform="translate(39.5833 31.414)"><path class="edge e11" d="M 0 0 V -31.414 H -39.5833"/><rect class="sym" height="6" width="6" x="-3" y="-3"/><text class="lab" transform="translate(0 11)">2</text></g><g class="a11 c2 node n9 p0" transform="translate(-39.5833 17.6961)"><g class="a9 c2 node n7 p0" transform="translate(34.8333 10.3648)"><g class="a7 i1 leaf node n3 p0 sample" transform="translate(19 3.35313)"><path class="edge e2" d="M 0 0 V -3.35313 H -19"/><rect class="sym" height="6" width="6" x="-3" y="-3"/><text class="lab" transform="translate(0 11)">3</text></g><g class="a7 c2 node n6 p0" transform="translate(-19 3.03802)"><g class="a6 i0 leaf node n1 p0 sample" transform="translate(-12.6667 0.315114)"><path class="edge e0" d="M 0 0 V -0.315114 H 12.6667"/><rect class="sym" height="6" width="6" x="-3" y="-3"/><text class="lab" transform="translate(0 11)">1</text></g><g class="a6 i2 leaf node n5 p0 sample" transform="translate(12.6667 0.315114)"><path class="edge e1" d="M 0 0 V -0.315114 H -12.6667"/><rect class="sym" height="6" width="6" x="-3" y="-3"/><text class="lab" transform="translate(0 11)">5</text></g><path class="edge e3" d="M 0 0 V -3.03802 H 19"/><circle class="sym" cx="0" cy="0" r="3"/><text class="lab lft" transform="translate(-3 -7)">6</text></g><path class="edge e7" d="M 0 0 V -10.3648 H -34.8333"/><circle class="sym" cx="0" cy="0" r="3"/><text class="lab rgt" transform="translate(3 -7)">7</text></g><g class="a9 c2 node n8 p0" transform="translate(-34.8333 5.42491)"><g class="a8 i0 leaf node n0 p0 sample" transform="translate(-12.6667 8.29301)"><path class="edge e4" d="M 0 0 V -8.29301 H 12.6667"/><rect class="sym" height="6" width="6" x="-3" y="-3"/><text class="lab" transform="translate(0 11)">0</text></g><g class="a8 i2 leaf node n4 p0 sample" transform="translate(12.6667 8.29301)"><path class="edge e5" d="M 0 0 V -8.29301 H -12.6667"/><rect class="sym" height="6" width="6" x="-3" y="-3"/><text class="lab" transform="translate(0 11)">4</text></g><path class="edge e8" d="M 0 0 V -5.42491 H 34.8333"/><circle class="sym" cx="0" cy="0" r="3"/><text class="lab lft" transform="translate(-3 -7)">8</text></g><path class="edge e13" d="M 0 0 V -17.6961 H 39.5833"/><circle class="sym" cx="0" cy="0" r="3"/><text class="lab lft" transform="translate(-3 -7)">9</text></g><circle class="sym" cx="0" cy="0" r="3"/><text class="lab" transform="translate(0 -11)">11</text></g></g></g><g class="tree t2" transform="translate(404 0)"><g class="plotbox"><g class="c2 node n12 p0 root" transform="translate(119.75 82.5253)"><g class="a12 i1 leaf node n2 p0 sample" transform="translate(39.5833 38.8747)"><path class="edge e15" d="M 0 0 V -38.8747 H -39.5833"/><rect class="sym" height="6" width="6" x="-3" y="-3"/><text class="lab" transform="translate(0 11)">2</text></g><g class="a12 c2 node n9 p0" transform="translate(-39.5833 25.1568)"><g class="a9 c2 node n7 p0" transform="translate(34.8333 10.3648)"><g class="a7 i1 leaf node n3 p0 sample" transform="translate(19 3.35313)"><path class="edge e2" d="M 0 0 V -3.35313 H -19"/><rect class="sym" height="6" width="6" x="-3" y="-3"/><text class="lab" transform="translate(0 11)">3</text></g><g class="a7 c2 node n6 p0" transform="translate(-19 3.03802)"><g class="a6 i0 leaf node n1 p0 sample" transform="translate(-12.6667 0.315114)"><path class="edge e0" d="M 0 0 V -0.315114 H 12.6667"/><rect class="sym" height="6" width="6" x="-3" y="-3"/><text class="lab" transform="translate(0 11)">1</text></g><g class="a6 i2 leaf node n5 p0 sample" transform="translate(12.6667 0.315114)"><path class="edge e1" d="M 0 0 V -0.315114 H -12.6667"/><rect class="sym" height="6" width="6" x="-3" y="-3"/><text class="lab" transform="translate(0 11)">5</text></g><path class="edge e3" d="M 0 0 V -3.03802 H 19"/><circle class="sym" cx="0" cy="0" r="3"/><text class="lab lft" transform="translate(-3 -7)">6</text></g><path class="edge e7" d="M 0 0 V -10.3648 H -34.8333"/><circle class="sym" cx="0" cy="0" r="3"/><text class="lab rgt" transform="translate(3 -7)">7</text></g><g class="a9 c2 node n8 p0" transform="translate(-34.8333 5.42491)"><g class="a8 i0 leaf node n0 p0 sample" transform="translate(-12.6667 8.29301)"><path class="edge e4" d="M 0 0 V -8.29301 H 12.6667"/><rect class="sym" height="6" width="6" x="-3" y="-3"/><text class="lab" transform="translate(0 11)">0</text></g><g class="a8 i2 leaf node n4 p0 sample" transform="translate(12.6667 8.29301)"><path class="edge e5" d="M 0 0 V -8.29301 H -12.6667"/><rect class="sym" height="6" width="6" x="-3" y="-3"/><text class="lab" transform="translate(0 11)">4</text></g><path class="edge e8" d="M 0 0 V -5.42491 H 34.8333"/><circle class="sym" cx="0" cy="0" r="3"/><text class="lab lft" transform="translate(-3 -7)">8</text></g><path class="edge e16" d="M 0 0 V -25.1568 H 39.5833"/><circle class="sym" cx="0" cy="0" r="3"/><text class="lab lft" transform="translate(-3 -7)">9</text></g><circle class="sym" cx="0" cy="0" r="3"/><text class="lab" transform="translate(0 -11)">12</text></g></g></g><g class="tree t3" transform="translate(596 0)"><g class="plotbox"><g class="c2 node n11 p0 root" transform="translate(119.75 89.986)"><g class="a11 i1 leaf node n2 p0 sample" transform="translate(39.5833 31.414)"><path class="edge e12" d="M 0 0 V -31.414 H -39.5833"/><rect class="sym" height="6" width="6" x="-3" y="-3"/><text class="lab" transform="translate(0 11)">2</text></g><g class="a11 c2 node n9 p0" transform="translate(-39.5833 17.6961)"><g class="a9 c2 node n7 p0" transform="translate(34.8333 10.3648)"><g class="a7 i1 leaf node n3 p0 sample" transform="translate(19 3.35313)"><path class="edge e2" d="M 0 0 V -3.35313 H -19"/><rect class="sym" height="6" width="6" x="-3" y="-3"/><text class="lab" transform="translate(0 11)">3</text></g><g class="a7 c2 node n6 p0" transform="translate(-19 3.03802)"><g class="a6 i0 leaf node n1 p0 sample" transform="translate(-12.6667 0.315114)"><path class="edge e0" d="M 0 0 V -0.315114 H 12.6667"/><rect class="sym" height="6" width="6" x="-3" y="-3"/><text class="lab" transform="translate(0 11)">1</text></g><g class="a6 i2 leaf node n5 p0 sample" transform="translate(12.6667 0.315114)"><path class="edge e1" d="M 0 0 V -0.315114 H -12.6667"/><rect class="sym" height="6" width="6" x="-3" y="-3"/><text class="lab" transform="translate(0 11)">5</text></g><path class="edge e3" d="M 0 0 V -3.03802 H 19"/><circle class="sym" cx="0" cy="0" r="3"/><text class="lab lft" transform="translate(-3 -7)">6</text></g><path class="edge e7" d="M 0 0 V -10.3648 H -34.8333"/><circle class="sym" cx="0" cy="0" r="3"/><text class="lab rgt" transform="translate(3 -7)">7</text></g><g class="a9 c2 node n8 p0" transform="translate(-34.8333 5.42491)"><g class="a8 i0 leaf node n0 p0 sample" transform="translate(-12.6667 8.29301)"><path class="edge e4" d="M 0 0 V -8.29301 H 12.6667"/><rect class="sym" height="6" width="6" x="-3" y="-3"/><text class="lab" transform="translate(0 11)">0</text></g><g class="a8 i2 leaf node n4 p0 sample" transform="translate(12.6667 8.29301)"><path class="edge e5" d="M 0 0 V -8.29301 H -12.6667"/><rect class="sym" height="6" width="6" x="-3" y="-3"/><text class="lab" transform="translate(0 11)">4</text></g><path class="edge e8" d="M 0 0 V -5.42491 H 34.8333"/><circle class="sym" cx="0" cy="0" r="3"/><text class="lab lft" transform="translate(-3 -7)">8</text></g><path class="edge e14" d="M 0 0 V -17.6961 H 39.5833"/><circle class="sym" cx="0" cy="0" r="3"/><text class="lab lft" transform="translate(-3 -7)">9</text></g><circle class="sym" cx="0" cy="0" r="3"/><text class="lab" transform="translate(0 -11)">11</text></g></g></g><g class="tree t4" transform="translate(788 0)"><g class="plotbox"><g class="c2 node n13 p0 root" transform="translate(130.833 26.8)"><g class="a13 i1 leaf node n3 p0 sample" transform="translate(28.5 94.6)"><path class="edge e17" d="M 0 0 V -94.6 H -28.5"/><rect class="sym" height="6" width="6" x="-3" y="-3"/><text class="lab" transform="translate(0 11)">3</text></g><g class="a13 c2 node n11 p0" transform="translate(-28.5 63.186)"><g class="a11 i1 leaf node n2 p0 sample" transform="translate(31.6667 31.414)"><path class="edge e12" d="M 0 0 V -31.414 H -31.6667"/><rect class="sym" height="6" width="6" x="-3" y="-3"/><text class="lab" transform="translate(0 11)">2</text></g><g class="a11 c2 node n9 p0" transform="translate(-31.6667 17.6961)"><g class="a9 c2 node n8 p0" transform="translate(-25.3333 5.42491)"><g class="a8 i0 leaf node n0 p0 sample" transform="translate(-12.6667 8.29301)"><path class="edge e4" d="M 0 0 V -8.29301 H 12.6667"/><rect class="sym" height="6" width="6" x="-3" y="-3"/><text class="lab" transform="translate(0 11)">0</text></g><g class="a8 i2 leaf node n4 p0 sample" transform="translate(12.6667 8.29301)"><path class="edge e5" d="M 0 0 V -8.29301 H -12.6667"/><rect class="sym" height="6" width="6" x="-3" y="-3"/><text class="lab" transform="translate(0 11)">4</text></g><path class="edge e8" d="M 0 0 V -5.42491 H 25.3333"/><circle class="sym" cx="0" cy="0" r="3"/><text class="lab lft" transform="translate(-3 -7)">8</text></g><g class="a9 c2 node n6 p0" transform="translate(25.3333 13.4028)"><g class="a6 i0 leaf node n1 p0 sample" transform="translate(-12.6667 0.315114)"><path class="edge e0" d="M 0 0 V -0.315114 H 12.6667"/><rect class="sym" height="6" width="6" x="-3" y="-3"/><text class="lab" transform="translate(0 11)">1</text></g><g class="a6 i2 leaf node n5 p0 sample" transform="translate(12.6667 0.315114)"><path class="edge e1" d="M 0 0 V -0.315114 H -12.6667"/><rect class="sym" height="6" width="6" x="-3" y="-3"/><text class="lab" transform="translate(0 11)">5</text></g><path class="edge e6" d="M 0 0 V -13.4028 H -25.3333"/><circle class="sym" cx="0" cy="0" r="3"/><text class="lab rgt" transform="translate(3 -7)">6</text></g><path class="edge e14" d="M 0 0 V -17.6961 H 31.6667"/><circle class="sym" cx="0" cy="0" r="3"/><text class="lab lft" transform="translate(-3 -7)">9</text></g><path class="edge e18" d="M 0 0 V -63.186 H 28.5"/><circle class="sym" cx="0" cy="0" r="3"/><text class="lab lft" transform="translate(-3 -7)">11</text></g><circle class="sym" cx="0" cy="0" r="3"/><text class="lab" transform="translate(0 -11)">13</text></g></g></g></g></g></svg>