<svg xmlns="http://www.w3.org/2000/svg" xmlns:ev="http://www.w3.org/2001/xml-events" xmlns:xlink="http://www.w3.org/1999/xlink" baseProfile="full" height="200" version="1.1" width="300"><defs><style type="text/css"><![CDATA[.tree-sequence .background path {fill: #808080; fill-opacity:0}.tree-sequence .background path:nth-child(odd) {fill-opacity:.1}.axes {font-size: 14px}.x-axis .tick .lab {font-weight: bold}.axes, .tree {font-size: 14px; text-anchor:middle}.y-axis line.grid {stroke: #FAFAFA}.y-axis > .lab text {transform: translateX(0.8em) rotate(-90deg)}.x-axis .tick g {transform: translateY(0.9em)}.x-axis > .lab text {transform: translateY(-0.8em)}.axes line, .edge {stroke:black; fill:none}.node > .sym {fill: black; stroke: none}.site > .sym {stroke: black}.mut text {fill: red; font-style: italic}.mut line {fill: none; stroke: none}.mut .sym {fill: none; stroke: red}.node .mut .sym {stroke-width: 1.5px}.tree text, .tree-sequence text {dominant-baseline: central}.plotbox .lab.lft {text-anchor: end}.plotbox .lab.rgt {text-anchor: start}]]></style></defs><g class="tree-sequence"><g class="background"><path d="M56.8,0 l223.2,0 l0,138.2 l0,25 l0,5 l-223.2,0 l0,-5 l0,-25 l0,-138.2z"/></g><g class="axes"><g class="x-axis"><g class="lab" transform="translate(168.4,200)"><text text-anchor="middle">Genome position</text></g><line x1="56.8" x2="280" y1="163.2" y2="163.2"/><g class="tick" transform="translate(56.8 163.2)"><line x1="0" x2="0" y1="0" y2="5"/><g class="lab" transform="translate(0,5)"><text>0</text></g></g><g class="tick" transform="translate(280 163.2)"><line x1="0" x2="0" y1="0" y2="5"/><g class="lab" transform="translate(0,5)"><text>1</text></g></g></g><g class="y-axis"><g class="lab" transform="translate(0,65.7)"><text text-anchor="middle">Time</text></g><line x1="56.8" x2="56.8" y1="121.4" y2="10"/><g class="tick" transform="translate(56.8 121.4)"><line x1="0" x2="-5" y1="0" y2="0"/><g class="lab" transform="translate(-5,0)"><text text-anchor="end">0.00</text></g></g><g class="tick" transform="translate(56.8 121.074)"><line x1="0" x2="-5" y1="0" y2="0"/><g class="lab" transform="translate(-5,0)"><text text-anchor="end">0.94</text></g></g><g class="tick" transform="translate(56.8 117.813)"><line x1="0" x2="-5" y1="0" y2="0"/><g class="lab" transform="translate(-5,0)"><text text-anchor="end">10.41</text></g></g><g class="tick" transform="translate(56.8 114.025)"><line x1="0" x2="-5" y1="0" y2="0"/><g class="lab" transform="translate(-5,0)"><text text-anchor="end">21.40</text></g></g><g class="tick" transform="translate(56.8 112.783)"><line x1="0" x2="-5" y1="0" y2="0"/><g class="lab" transform="translate(-5,0)"><text text-anchor="end">25.00</text></g></g><g class="tick" transform="translate(56.8 26.8)"><line x1="0" x2="-5" y1="0" y2="0"/><g class="lab" transform="translate(-5,0)"><text text-anchor="end">274.45</text></g></g></g></g><g class="plotbox trees"><g class="tree t0" transform="translate(56.8 0)"><g class="plotbox"><g class="node n15 p0 root" transform="translate(132.21 26.8)"><g class="a15 node n13 p0" transform="translate(-48.09 85.9827)"><g class="a13 i0 leaf node n0 p0 sample" transform="translate(-54.96 8.61733)"><path class="edge" d="M 0 0 V -8.61733 H 54.96"/><rect class="sym" height="6" width="6" x="-3" y="-3"/><text class="lab" transform="translate(0 11)">0</text></g><g class="a13 i4 leaf node n8 p0 sample" transform="translate(36.64 8.61733)"><path class="edge" d="M 0 0 V -8.61733 H -36.64"/><rect class="sym" height="6" width="6" x="-3" y="-3"/><text class="lab" transform="translate(0 11)">8</text></g><g class="a13 i4 leaf node n9 p0 sample" transform="translate(54.96 8.61733)"><path class="edge" d="M 0 0 V -8.61733 H -54.96"/><rect class="sym" height="6" width="6" x="-3" y="-3"/><text class="lab" transform="translate(0 11)">9</text></g><g class="a13 node n10 p0" transform="translate(-27.48 8.29163)"><g class="a10 i1 leaf node n3 p0 sample" transform="translate(-9.16 0.325695)"><path class="edge" d="M 0 0 V -0.325695 H 9.16"/><rect class="sym" height="6" width="6" x="-3" y="-3"/><text class="lab" transform="translate(0 11)">3</text></g><g class="a10 i2 leaf node n5 p0 sample" transform="translate(9.16 0.325695)"><path class="edge" d="M 0 0 V -0.325695 H -9.16"/><rect class="sym" height="6" width="6" x="-3" y="-3"/><text class="lab" transform="translate(0 11)">5</text></g><path class="edge" d="M 0 0 V -8.29163 H 27.48"/><circle class="sym" cx="0" cy="0" r="3"/><text class="lab rgt" transform="translate(3 -7.0)">10</text></g><g class="a13 node n11 p0" transform="translate(9.16 5.03072)"><g class="a11 i2 leaf node n4 p0 sample" transform="translate(-9.16 3.58661)"><path class="edge" d="M 0 0 V -3.58661 H 9.16"/><rect class="sym" height="6" width="6" x="-3" y="-3"/><text class="lab" transform="translate(0 11)">4</text></g><g class="a11 i3 leaf node n7 p0 sample" transform="translate(9.16 3.58661)"><path class="edge" d="M 0 0 V -3.58661 H -9.16"/><rect class="sym" height="6" width="6" x="-3" y="-3"/><text class="lab" transform="translate(0 11)">7</text></g><path class="edge" d="M 0 0 V -5.03072 H -9.16"/><circle class="sym" cx="0" cy="0" r="3"/><text class="lab rgt" transform="translate(3 -7.0)">11</text></g><path class="edge" d="M 0 0 V -85.9827 H 48.09"/><circle class="sym" cx="0" cy="0" r="3"/><text class="lab lft" transform="translate(-3 -7.0)">13</text></g><g class="a15 node n14 p0" transform="translate(48.09 85.9827)"><g class="a14 i3 leaf node n6 p0 sample" transform="translate(13.74 8.61733)"><path class="edge" d="M 0 0 V -8.61733 H -13.74"/><rect class="sym" height="6" width="6" x="-3" y="-3"/><text class="lab" transform="translate(0 11)">6</text></g><g class="a14 node n12 p0" transform="translate(-13.74 1.24208)"><g class="a12 i0 leaf node n1 p0 sample" transform="translate(-9.16 7.37524)"><path class="edge" d="M 0 0 V -7.37524 H 9.16"/><rect class="sym" height="6" width="6" x="-3" y="-3"/><text class="lab" transform="translate(0 11)">1</text></g><g class="a12 i1 leaf node n2 p0 sample" transform="translate(9.16 7.37524)"><path class="edge" d="M 0 0 V -7.37524 H -9.16"/><rect class="sym" height="6" width="6" x="-3" y="-3"/><text class="lab" transform="translate(0 11)">2</text></g><path class="edge" d="M 0 0 V -1.24208 H 13.74"/><circle class="sym" cx="0" cy="0" r="3"/><text class="lab lft" transform="translate(-3 -7.0)">12</text></g><path class="edge" d="M 0 0 V -85.9827 H -48.09"/><circle class="sym" cx="0" cy="0" r="3"/><text class="lab rgt" transform="translate(3 -7.0)">14</text></g><circle class="sym" cx="0" cy="0" r="3"/><text class="lab" transform="translate(0 -11)">15</text></g></g></g></g></g></svg>