<svg xmlns="http://www.w3.org/2000/svg" xmlns:ev="http://www.w3.org/2001/xml-events" xmlns:xlink="http://www.w3.org/1999/xlink" baseProfile="full" height="200" version="1.1" width="200"><defs><style type="text/css"><![CDATA[.background path {fill: #808080; fill-opacity: 0}.background path:nth-child(odd) {fill-opacity: .1}.x-regions rect {fill: yellow; stroke: black; opacity: 0.5}.axes {font-size: 14px}.x-axis .tick .lab {font-weight: bold; dominant-baseline: hanging}.axes, .tree {font-size: 14px; text-anchor: middle}.axes line, .edge {stroke: black; fill: none}.axes .ax-skip {stroke-dasharray: 4}.y-axis .grid {stroke: #FAFAFA}.node > .sym {fill: black; stroke: none}.site > .sym {stroke: black}.mut text {fill: red; font-style: italic}.mut.extra text {fill: hotpink}.mut line {fill: none; stroke: none}.mut .sym {fill: none; stroke: red}.mut.extra .sym {stroke: hotpink}.node .mut .sym {stroke-width: 1.5px}.tree text, .tree-sequence text {dominant-baseline: central}.plotbox .lab.lft {text-anchor: end}.plotbox .lab.rgt {text-anchor: start}.polytomy line {stroke: black; stroke-dasharray: 1px, 1px}.polytomy text {paint-order:stroke;stroke-width:0.3em;stroke:white}]]></style></defs><g class="tree-sequence"><g class="background"><path d="M20,0 l160,0 l0,138.2 l0,25 l0,5 l-160,0 l0,-5 l0,-25 l0,-138.2z"/></g><g class="axes"><g class="x-axis"><g class="title" transform="translate(100 200)"><text class="lab" text-anchor="middle" transform="translate(0 -11)">Genome position</text></g><line class="ax-line" x1="20" x2="180" y1="163.2" y2="163.2"/><g class="ticks"><g class="tick" transform="translate(20 163.2)"><line x1="0" x2="0" y1="0" y2="5"/><g transform="translate(0 6)"><text class="lab">0</text></g></g><g class="tick" transform="translate(180 163.2)"><line x1="0" x2="0" y1="0" y2="5"/><g transform="translate(0 6)"><text class="lab">1</text></g></g></g></g></g><g class="plotbox trees"><g class="tree t0" transform="translate(20 0)"><g class="plotbox"><g class="c3 node n14 p0 root" transform="translate(93.5 26.8)"><g class="a14 i1 leaf node n1 p0 sample" transform="translate(28.5 94.6)"><path class="edge e11" d="M 0 0 V -94.6 H -28.5"/><rect class="sym" height="6" width="6" x="-3" y="-3"/><text class="lab" transform="translate(0 11)">1</text></g><g class="a14 i2 leaf node n2 p0 sample" transform="translate(40.5 94.6)"><path class="edge e12" d="M 0 0 V -94.6 H -40.5"/><rect class="sym" height="6" width="6" x="-3" y="-3"/><text class="lab" transform="translate(0 11)">2</text></g><g class="a14 c2 node n13 p0" transform="translate(-40.5 16.9651)"><g class="a13 i0 leaf node n0 p0 sample" transform="translate(-27 77.6349)"><path class="edge e9" d="M 0 0 V -77.6349 H 27"/><rect class="sym" height="6" width="6" x="-3" y="-3"/><text class="lab" transform="translate(0 11)">0</text></g><g class="a13 c4 node n12 p0" transform="translate(27 0.361523)"><g class="a12 i5 leaf node n5 p0 sample" transform="translate(-6 77.2734)"><path class="edge e5" d="M 0 0 V -77.2734 H 6"/><rect class="sym" height="6" width="6" x="-3" y="-3"/><text class="lab" transform="translate(0 11)">5</text></g><g class="a12 i7 leaf node n7 p0 sample" transform="translate(30 77.2734)"><path class="edge e6" d="M 0 0 V -77.2734 H -30"/><rect class="sym" height="6" width="6" x="-3" y="-3"/><text class="lab" transform="translate(0 11)">7</text></g><g class="a12 c3 node n10 p0" transform="translate(-30 45.6373)"><g class="a10 i3 leaf node n3 p0 sample" transform="translate(-12 31.6361)"><path class="edge e0" d="M 0 0 V -31.6361 H 12"/><rect class="sym" height="6" width="6" x="-3" y="-3"/><text class="lab" transform="translate(0 11)">3</text></g><g class="a10 i4 leaf node n4 p0 sample" transform="translate(0.0 31.6361)"><path class="edge e1" d="M 0 0 V -31.6361 H 0.0"/><rect class="sym" height="6" width="6" x="-3" y="-3"/><text class="lab" transform="translate(0 11)">4</text></g><g class="a10 i9 leaf node n9 p0 sample" transform="translate(12 31.6361)"><path class="edge e2" d="M 0 0 V -31.6361 H -12"/><rect class="sym" height="6" width="6" x="-3" y="-3"/><text class="lab" transform="translate(0 11)">9</text></g><path class="edge e7" d="M 0 0 V -45.6373 H 30"/><circle class="sym" cx="0" cy="0" r="3"/><text class="lab lft" transform="translate(-3 -7)">10</text></g><g class="a12 c2 node n11 p0" transform="translate(12 18.6532)"><g class="a11 i6 leaf node n6 p0 sample" transform="translate(-6 58.6202)"><path class="edge e3" d="M 0 0 V -58.6202 H 6"/><rect class="sym" height="6" width="6" x="-3" y="-3"/><text class="lab" transform="translate(0 11)">6</text></g><g class="a11 i8 leaf node n8 p0 sample" transform="translate(6 58.6202)"><path class="edge e4" d="M 0 0 V -58.6202 H -6"/><rect class="sym" height="6" width="6" x="-3" y="-3"/><text class="lab" transform="translate(0 11)">8</text></g><path class="edge e8" d="M 0 0 V -18.6532 H -12"/><circle class="sym" cx="0" cy="0" r="3"/><text class="lab rgt" transform="translate(3 -7)">11</text></g><path class="edge e10" d="M 0 0 V -0.361523 H -27"/><circle class="sym" cx="0" cy="0" r="3"/><text class="lab rgt" transform="translate(3 -7)">12</text></g><path class="edge e13" d="M 0 0 V -16.9651 H 40.5"/><circle class="sym" cx="0" cy="0" r="3"/><text class="lab lft" transform="translate(-3 -7)">13</text></g><circle class="sym" cx="0" cy="0" r="3"/><text class="lab" transform="translate(0 -11)">14</text></g></g></g></g></g></svg>