<svg xmlns="http://www.w3.org/2000/svg" xmlns:ev="http://www.w3.org/2001/xml-events" xmlns:xlink="http://www.w3.org/1999/xlink" baseProfile="full" height="300" version="1.1" width="400"><defs><style type="text/css"><![CDATA[.tree-sequence .background path {fill: #808080; fill-opacity:0}.tree-sequence .background path:nth-child(odd) {fill-opacity:.1}.axes {font-size: 14px}.x-axis .tick .lab {font-weight: bold}.axes, .tree {font-size: 14px; text-anchor:middle}.y-axis line.grid {stroke: #FAFAFA}.y-axis > .lab text {transform: translateX(0.8em) rotate(-90deg)}.x-axis .tick g {transform: translateY(0.9em)}.x-axis > .lab text {transform: translateY(-0.8em)}.axes line, .edge {stroke:black; fill:none}.node > .sym {fill: black; stroke: none}.site > .sym {stroke: black}.mut text {fill: red; font-style: italic}.mut line {fill: none; stroke: none}.mut .sym {fill: none; stroke: red}.node .mut .sym {stroke-width: 1.5px}.tree text, .tree-sequence text {dominant-baseline: central}.plotbox .lab.lft {text-anchor: end}.plotbox .lab.rgt {text-anchor: start}]]></style></defs><g class="tree t0"><g class="plotbox"><g class="node n22 p0 root" transform="translate(256.484 26.8)"><g class="a22 m1 m2 m4 m6 node n20 p0 s0" transform="translate(-63.5156 210.721)"><g class="a20 node n16 p0" transform="translate(37.0312 25.4442)"><g class="a16 i1 leaf node n2 p0 sample" transform="translate(-15 10.2349)"><path class="edge" d="M 0 0 V -10.2349 H 15"/><rect class="sym" height="6" width="6" x="-3" y="-3"/><text class="lab" transform="translate(0 11)"/></g><g class="a16 i1 leaf node n3 p0 sample" transform="translate(15 10.2349)"><path class="edge" d="M 0 0 V -10.2349 H -15"/><rect class="sym" height="6" width="6" x="-3" y="-3"/><text class="lab" transform="translate(0 11)"/></g><path class="edge" d="M 0 0 V -25.4442 H -37.0312"/><circle class="sym" cx="0" cy="0" r="3"/><text class="lab rgt" transform="translate(3 -7.0)"/></g><g class="a20 node n19 p0" transform="translate(-37.0312 2.76895)"><g class="a19 i2 leaf node n5 p0 sample" transform="translate(29.0625 32.9102)"><path class="edge" d="M 0 0 V -32.9102 H -29.0625"/><rect class="sym" height="6" width="6" x="-3" y="-3"/><text class="lab" transform="translate(0 11)"/></g><g class="a19 node n18 p0" transform="translate(-29.0625 19.5975)"><g class="a18 i0 leaf node n1 p0 sample" transform="translate(28.125 13.3126)"><path class="edge" d="M 0 0 V -13.3126 H -28.125"/><rect class="sym" height="6" width="6" x="-3" y="-3"/><text class="lab" transform="translate(0 11)"/></g><g class="a18 node n17 p0" transform="translate(-28.125 2.37833)"><g class="a17 i3 leaf node n6 p0 sample" transform="translate(26.25 10.9343)"><path class="edge" d="M 0 0 V -10.9343 H -26.25"/><rect class="sym" height="6" width="6" x="-3" y="-3"/><text class="lab" transform="translate(0 11)"/></g><g class="a17 node n15 p0" transform="translate(-26.25 1.63932)"><g class="a15 i5 leaf node n10 p0 sample" transform="translate(22.5 9.29498)"><path class="edge" d="M 0 0 V -9.29498 H -22.5"/><rect class="sym" height="6" width="6" x="-3" y="-3"/><text class="lab" transform="translate(0 11)"/></g><g class="a15 node n13 p0" transform="translate(-22.5 2.69364)"><g class="a13 i0 leaf node n0 p0 sample" transform="translate(-15 6.60134)"><path class="edge" d="M 0 0 V -6.60134 H 15"/><rect class="sym" height="6" width="6" x="-3" y="-3"/><text class="lab" transform="translate(0 11)"/></g><g class="a13 i2 leaf node n4 p0 sample" transform="translate(15 6.60134)"><path class="edge" d="M 0 0 V -6.60134 H -15"/><rect class="sym" height="6" width="6" x="-3" y="-3"/><text class="lab" transform="translate(0 11)"/></g><path class="edge" d="M 0 0 V -2.69364 H 22.5"/><circle class="sym" cx="0" cy="0" r="3"/><text class="lab lft" transform="translate(-3 -7.0)"/></g><path class="edge" d="M 0 0 V -1.63932 H 26.25"/><circle class="sym" cx="0" cy="0" r="3"/><text class="lab lft" transform="translate(-3 -7.0)"/></g><path class="edge" d="M 0 0 V -2.37833 H 28.125"/><circle class="sym" cx="0" cy="0" r="3"/><text class="lab lft" transform="translate(-3 -7.0)"/></g><path class="edge" d="M 0 0 V -19.5975 H 29.0625"/><circle class="sym" cx="0" cy="0" r="3"/><text class="lab lft" transform="translate(-3 -7.0)"/></g><path class="edge" d="M 0 0 V -2.76895 H 37.0312"/><circle class="sym" cx="0" cy="0" r="3"/><text class="lab lft" transform="translate(-3 -7.0)"/></g><path class="edge" d="M 0 0 V -210.721 H 63.5156"/><g class="mut m1 s0" transform="translate(0 -179.95)"><line x1="0" x2="0" y1="0" y2="179.95"/><path class="sym" d="M -3,-3 l 6,6 M -3,3 l 6,-6"/><text class="lab lft" transform="translate(-5 0)">1</text></g><g class="mut m2 s0" transform="translate(0 -165.487)"><line x1="0" x2="0" y1="0" y2="165.487"/><path class="sym" d="M -3,-3 l 6,6 M -3,3 l 6,-6"/><text class="lab lft" transform="translate(-5 0)">1,2</text></g><g class="mut m4 s0" transform="translate(0 -103.809)"><line x1="0" x2="0" y1="0" y2="103.809"/><path class="sym" d="M -3,-3 l 6,6 M -3,3 l 6,-6"/><text class="lab lft" transform="translate(-5 0)">1,2,101</text></g><g class="mut m6 s0" transform="translate(0 -74.5752)"><line x1="0" x2="0" y1="0" y2="74.5752"/><path class="sym" d="M -3,-3 l 6,6 M -3,3 l 6,-6"/><text class="lab lft" transform="translate(-5 0)">1,2,101,103</text></g><circle class="sym" cx="0" cy="0" r="3"/><text class="lab lft" transform="translate(-3 -7.0)"/></g><g class="a22 m0 m3 m5 m7 node n21 p0 s0" transform="translate(63.5156 176.858)"><g class="a21 m9 node n12 p0 s0" transform="translate(30 68.5442)"><g class="a12 i4 leaf node n9 p0 sample" transform="translate(-15 0.997368)"><path class="edge" d="M 0 0 V -0.997368 H 15"/><rect class="sym" height="6" width="6" x="-3" y="-3"/><text class="lab" transform="translate(0 11)"/></g><g class="a12 i5 leaf node n11 p0 sample" transform="translate(15 0.997368)"><path class="edge" d="M 0 0 V -0.997368 H -15"/><rect class="sym" height="6" width="6" x="-3" y="-3"/><text class="lab" transform="translate(0 11)"/></g><path class="edge" d="M 0 0 V -68.5442 H -30"/><g class="mut m9 s0" transform="translate(0 -9.22468)"><line x1="0" x2="0" y1="0" y2="9.22468"/><path class="sym" d="M -3,-3 l 6,6 M -3,3 l 6,-6"/><text class="lab rgt" transform="translate(5 0)">0,3,4</text></g><circle class="sym" cx="0" cy="0" r="3"/><text class="lab rgt" transform="translate(3 -7.0)"/></g><g class="a21 m8 node n14 p0 s0" transform="translate(-30 61.4805)"><g class="a14 i3 leaf node n7 p0 sample" transform="translate(-15 8.06111)"><path class="edge" d="M 0 0 V -8.06111 H 15"/><rect class="sym" height="6" width="6" x="-3" y="-3"/><text class="lab" transform="translate(0 11)"/></g><g class="a14 i4 leaf m10 node n8 p0 s0 sample" transform="translate(15 8.06111)"><path class="edge" d="M 0 0 V -8.06111 H -15"/><g class="mut m10 s0" transform="translate(0 -3.38863)"><line x1="0" x2="0" y1="0" y2="3.38863"/><path class="sym" d="M -3,-3 l 6,6 M -3,3 l 6,-6"/><text class="lab rgt" transform="translate(5 0)">0,3,5</text></g><rect class="sym" height="6" width="6" x="-3" y="-3"/><text class="lab" transform="translate(0 11)"/></g><path class="edge" d="M 0 0 V -61.4805 H 30"/><g class="mut m8 s0" transform="translate(0 -28.0863)"><line x1="0" x2="0" y1="0" y2="28.0863"/><path class="sym" d="M -3,-3 l 6,6 M -3,3 l 6,-6"/><text class="lab lft" transform="translate(-5 0)">0,3,104</text></g><circle class="sym" cx="0" cy="0" r="3"/><text class="lab lft" transform="translate(-3 -7.0)"/></g><path class="edge" d="M 0 0 V -176.858 H -63.5156"/><g class="mut m0 s0" transform="translate(0 -171.488)"><line x1="0" x2="0" y1="0" y2="171.488"/><path class="sym" d="M -3,-3 l 6,6 M -3,3 l 6,-6"/><text class="lab rgt" transform="translate(5 0)">0</text></g><g class="mut m3 s0" transform="translate(0 -98.838)"><line x1="0" x2="0" y1="0" y2="98.838"/><path class="sym" d="M -3,-3 l 6,6 M -3,3 l 6,-6"/><text class="lab rgt" transform="translate(5 0)">0,100</text></g><g class="mut m5 s0" transform="translate(0 -45.851)"><line x1="0" x2="0" y1="0" y2="45.851"/><path class="sym" d="M -3,-3 l 6,6 M -3,3 l 6,-6"/><text class="lab rgt" transform="translate(5 0)">0,100,102</text></g><g class="mut m7 s0" transform="translate(0 -31.3012)"><line x1="0" x2="0" y1="0" y2="31.3012"/><path class="sym" d="M -3,-3 l 6,6 M -3,3 l 6,-6"/><text class="lab rgt" transform="translate(5 0)">0,3</text></g><circle class="sym" cx="0" cy="0" r="3"/><text class="lab rgt" transform="translate(3 -7.0)"/></g><circle class="sym" cx="0" cy="0" r="3"/><text class="lab" transform="translate(0 -11)"/></g></g></g></svg>