<svg xmlns="http://www.w3.org/2000/svg" xmlns:ev="http://www.w3.org/2001/xml-events" xmlns:xlink="http://www.w3.org/1999/xlink" baseProfile="full" height="300" version="1.1" width="800"><defs><style type="text/css"><![CDATA[.background path {fill: #808080; fill-opacity: 0}.background path:nth-child(odd) {fill-opacity: .1}.x-regions rect {fill: yellow; stroke: black; opacity: 0.5}.axes {font-size: 14px}.x-axis .tick .lab {font-weight: bold; dominant-baseline: hanging}.axes, .tree {font-size: 14px; text-anchor: middle}.axes line, .edge {stroke: black; fill: none}.axes .ax-skip {stroke-dasharray: 4}.y-axis .grid {stroke: #FAFAFA}.node > .sym {fill: black; stroke: none}.site > .sym {stroke: black}.mut text {fill: red; font-style: italic}.mut.extra text {fill: hotpink}.mut line {fill: none; stroke: none}.mut .sym {fill: none; stroke: red}.mut.extra .sym {stroke: hotpink}.node .mut .sym {stroke-width: 1.5px}.tree text, .tree-sequence text {dominant-baseline: central}.plotbox .lab.lft {text-anchor: end}.plotbox .lab.rgt {text-anchor: start}.polytomy line {stroke: black; stroke-dasharray: 1px, 1px}.polytomy text {paint-order:stroke;stroke-width:0.3em;stroke:white}]]></style></defs><g class="tree-sequence"><g class="background"><path d="M20,0 l760,0 l0,238.2 l0,25 l0,5 l-760,0 l0,-5 l0,-25 l0,-238.2z"/></g><g class="axes"><g class="x-axis"><g class="title" transform="translate(400 300)"><text class="lab" text-anchor="middle" transform="translate(0 -11)">Genome position</text></g><line class="ax-line" x1="20" x2="780" y1="263.2" y2="263.2"/><g class="ticks"><g class="tick" transform="translate(20 263.2)"><line x1="0" x2="0" y1="0" y2="5"/><g transform="translate(0 6)"><text class="lab">0</text></g></g></g><g class="site s0" transform="translate(742.345 263.2)"><line class="sym" x1="0" x2="0" y1="0" y2="-10"/><g class="mut m0"><polyline class="sym" points="2.5,-6.5 0,-1.5 -2.5,-6.5"/></g></g></g></g><g class="plotbox trees"><g class="tree t-1" transform="translate(20 0)"><g class="plotbox"><g class="c2 node n22 p1 root" transform="translate(393.125 26.8)"><g class="a22 c3 node n18 p3" transform="translate(159.375 172.94)"><g class="a18 c2 node n12 p5" transform="translate(127.5 21.1447)"><g class="a12 i4 leaf node n10 p5 sample" transform="translate(-30 0.515724)"><path class="edge" d="M 0 0 V -0.515724 H 30"/><rect class="sym" height="6" width="6" x="-3" y="-3"/><text class="lab" transform="translate(0 11)">A</text></g><g class="a12 i4 leaf node n11 p5 sample" transform="translate(30 0.515724)"><path class="edge" d="M 0 0 V -0.515724 H -30"/><rect class="sym" height="6" width="6" x="-3" y="-3"/><text class="lab" transform="translate(0 11)">A</text></g><path class="edge" d="M 0 0 V -21.1447 H -127.5"/><circle class="sym" cx="0" cy="0" r="3"/><text class="lab rgt" transform="translate(3 -7)"/></g><g class="a18 c2 node n15 p5" transform="translate(7.5 20.2852)"><g class="a15 i5 leaf node n8 p5 sample" transform="translate(-30 1.37527)"><path class="edge" d="M 0 0 V -1.37527 H 30"/><rect class="sym" height="6" width="6" x="-3" y="-3"/><text class="lab" transform="translate(0 11)">A</text></g><g class="a15 i5 leaf node n9 p5 sample" transform="translate(30 1.37527)"><path class="edge" d="M 0 0 V -1.37527 H -30"/><rect class="sym" height="6" width="6" x="-3" y="-3"/><text class="lab" transform="translate(0 11)">A</text></g><path class="edge" d="M 0 0 V -20.2852 H -7.5"/><circle class="sym" cx="0" cy="0" r="3"/><text class="lab rgt" transform="translate(3 -7)"/></g><g class="a18 c2 node n17 p4" transform="translate(-127.5 14.4403)"><g class="a17 i3 leaf node n5 p4 sample" transform="translate(45 7.22014)"><path class="edge" d="M 0 0 V -7.22014 H -45"/><rect class="sym" height="6" width="6" x="-3" y="-3"/><text class="lab" transform="translate(0 11)">B</text></g><g class="a17 c2 node n16 p4" transform="translate(-45 4.81343)"><g class="a16 i3 leaf node n4 p4 sample" transform="translate(-30 2.40671)"><path class="edge" d="M 0 0 V -2.40671 H 30"/><rect class="sym" height="6" width="6" x="-3" y="-3"/><text class="lab" transform="translate(0 11)">B</text></g><g class="a16 i2 leaf node n7 p4 sample" transform="translate(30 2.40671)"><path class="edge" d="M 0 0 V -2.40671 H -30"/><rect class="sym" height="6" width="6" x="-3" y="-3"/><text class="lab" transform="translate(0 11)">B</text></g><path class="edge" d="M 0 0 V -4.81343 H 45"/><circle class="sym" cx="0" cy="0" r="3"/><text class="lab lft" transform="translate(-3 -7)"/></g><path class="edge" d="M 0 0 V -14.4403 H 127.5"/><circle class="sym" cx="0" cy="0" r="3"/><text class="lab lft" transform="translate(-3 -7)"/></g><path class="edge" d="M 0 0 V -172.94 H -159.375"/><circle class="sym" cx="0" cy="0" r="3"/><text class="lab rgt" transform="translate(3 -7)"/></g><g class="a22 c2 node n21 p1" transform="translate(-159.375 55.8701)"><g class="a21 i2 leaf node n6 p4 sample" transform="translate(56.25 138.73)"><path class="edge" d="M 0 0 V -138.73 H -56.25"/><rect class="sym" height="6" width="6" x="-3" y="-3"/><text class="lab" transform="translate(0 11)">B</text></g><g class="a21 c2 node n20 p1" transform="translate(-56.25 56.3859)"><g class="a20 i1 leaf node n2 p2 sample" transform="translate(52.5 82.344)"><path class="edge" d="M 0 0 V -82.344 H -52.5"/><rect class="sym" height="6" width="6" x="-3" y="-3"/><text class="lab" transform="translate(0 11)">C</text></g><g class="a20 c2 m0 node n14 p2 s0" transform="translate(-52.5 80.9687)"><g class="a14 i1 leaf node n3 p2 sample" transform="translate(45 1.37527)"><path class="edge" d="M 0 0 V -1.37527 H -45"/><rect class="sym" height="6" width="6" x="-3" y="-3"/><text class="lab" transform="translate(0 11)">C</text></g><g class="a14 c2 node n13 p2" transform="translate(-45 0.343816)"><g class="a13 i0 leaf node n0 p2 sample" transform="translate(-30 1.03145)"><path class="edge" d="M 0 0 V -1.03145 H 30"/><rect class="sym" height="6" width="6" x="-3" y="-3"/><text class="lab" transform="translate(0 11)">C</text></g><g class="a13 i0 leaf node n1 p2 sample" transform="translate(30 1.03145)"><path class="edge" d="M 0 0 V -1.03145 H -30"/><rect class="sym" height="6" width="6" x="-3" y="-3"/><text class="lab" transform="translate(0 11)">C</text></g><path class="edge" d="M 0 0 V -0.343816 H 45"/><circle class="sym" cx="0" cy="0" r="3"/><text class="lab lft" transform="translate(-3 -7)"/></g><path class="edge" d="M 0 0 V -80.9687 H 52.5"/><g class="mut m0 s0" transform="translate(0 -19.9413)"><line x1="0" x2="0" y1="0" y2="19.9413"/><path class="sym" d="M -3,-3 l 6,6 M -3,3 l 6,-6"/><text class="lab lft" transform="translate(-5 0)">0</text></g><circle class="sym" cx="0" cy="0" r="3"/><text class="lab lft" transform="translate(-3 -7)"/></g><path class="edge" d="M 0 0 V -56.3859 H 56.25"/><circle class="sym" cx="0" cy="0" r="3"/><text class="lab lft" transform="translate(-3 -7)"/></g><path class="edge" d="M 0 0 V -55.8701 H 159.375"/><circle class="sym" cx="0" cy="0" r="3"/><text class="lab lft" transform="translate(-3 -7)"/></g><circle class="sym" cx="0" cy="0" r="3"/><text class="lab" transform="translate(0 -11)"/></g></g></g></g></g></svg>