<svg xmlns="http://www.w3.org/2000/svg" xmlns:ev="http://www.w3.org/2001/xml-events" xmlns:xlink="http://www.w3.org/1999/xlink" baseProfile="full" height="300" version="1.1" width="800"><defs><style type="text/css"><![CDATA[.background path {fill: #808080; fill-opacity: 0}.background path:nth-child(odd) {fill-opacity: .1}.x-regions rect {fill: yellow; stroke: black; opacity: 0.5}.axes {font-size: 14px}.x-axis .tick .lab {font-weight: bold; dominant-baseline: hanging}.axes, .tree {font-size: 14px; text-anchor: middle}.axes line, .edge {stroke: black; fill: none}.axes .ax-skip {stroke-dasharray: 4}.y-axis .grid {stroke: #FAFAFA}.node > .sym {fill: black; stroke: none}.site > .sym {stroke: black}.mut text {fill: red; font-style: italic}.mut.extra text {fill: hotpink}.mut line {fill: none; stroke: none}.mut .sym {fill: none; stroke: red}.mut.extra .sym {stroke: hotpink}.node .mut .sym {stroke-width: 1.5px}.tree text, .tree-sequence text {dominant-baseline: central}.plotbox .lab.lft {text-anchor: end}.plotbox .lab.rgt {text-anchor: start}.polytomy line {stroke: black; stroke-dasharray: 1px, 1px}.polytomy text {paint-order:stroke;stroke-width:0.3em;stroke:white}]]></style></defs><g class="tree-sequence"><g class="background"><path d="M20,0 l760,0 l0,238.2 l0,25 l0,5 l-760,0 l0,-5 l0,-25 l0,-238.2z"/></g><g class="axes"><g class="x-axis"><g class="title" transform="translate(400 300)"><text class="lab" text-anchor="middle" transform="translate(0 -11)">Genome position</text></g><line class="ax-line" x1="20" x2="780" y1="263.2" y2="263.2"/><g class="ticks"><g class="tick" transform="translate(20 263.2)"><line x1="0" x2="0" y1="0" y2="5"/><g transform="translate(0 6)"><text class="lab">0</text></g></g></g></g></g><g class="plotbox trees"><g class="tree t-1" transform="translate(20 0)"><g class="plotbox"><g class="c3 node n23 p1 root" transform="translate(436.25 26.8)"><g class="a23 i2 leaf node n7 p4 sample" transform="translate(273.75 194.6)"><path class="edge" d="M 0 0 V -194.6 H -273.75"/><rect class="sym" height="6" width="6" x="-3" y="-3"/><text class="lab" transform="translate(0 11)">B</text></g><g class="a23 c2 node n19 p2" transform="translate(-273.75 134.326)"><g class="a19 i1 leaf node n3 p2 sample" transform="translate(67.5 60.2743)"><path class="edge" d="M 0 0 V -60.2743 H -67.5"/><rect class="sym" height="6" width="6" x="-3" y="-3"/><text class="lab" transform="translate(0 11)">C</text></g><g class="a19 c2 node n17 p2" transform="translate(-67.5 23.5357)"><g class="a17 i0 leaf node n0 p2 sample" transform="translate(-45 36.7386)"><path class="edge" d="M 0 0 V -36.7386 H 45"/><rect class="sym" height="6" width="6" x="-3" y="-3"/><text class="lab" transform="translate(0 11)">C</text></g><g class="a17 c2 node n12 p2" transform="translate(45 36.1646)"><g class="a12 i0 leaf node n1 p2 sample" transform="translate(-30 0.574041)"><path class="edge" d="M 0 0 V -0.574041 H 30"/><rect class="sym" height="6" width="6" x="-3" y="-3"/><text class="lab" transform="translate(0 11)">C</text></g><g class="a12 i1 leaf node n2 p2 sample" transform="translate(30 0.574041)"><path class="edge" d="M 0 0 V -0.574041 H -30"/><rect class="sym" height="6" width="6" x="-3" y="-3"/><text class="lab" transform="translate(0 11)">C</text></g><path class="edge" d="M 0 0 V -36.1646 H -45"/><circle class="sym" cx="0" cy="0" r="3"/><text class="lab rgt" transform="translate(3 -7)"/></g><path class="edge" d="M 0 0 V -23.5357 H 67.5"/><circle class="sym" cx="0" cy="0" r="3"/><text class="lab lft" transform="translate(-3 -7)"/></g><path class="edge" d="M 0 0 V -134.326 H 273.75"/><circle class="sym" cx="0" cy="0" r="3"/><text class="lab lft" transform="translate(-3 -7)"/></g><g class="a23 c2 node n22 p3" transform="translate(-28.125 78.0696)"><g class="a22 c2 node n13 p4" transform="translate(-88.125 114.234)"><g class="a13 i3 leaf node n4 p4 sample" transform="translate(-30 2.29617)"><path class="edge" d="M 0 0 V -2.29617 H 30"/><rect class="sym" height="6" width="6" x="-3" y="-3"/><text class="lab" transform="translate(0 11)">B</text></g><g class="a13 i3 leaf node n5 p4 sample" transform="translate(30 2.29617)"><path class="edge" d="M 0 0 V -2.29617 H -30"/><rect class="sym" height="6" width="6" x="-3" y="-3"/><text class="lab" transform="translate(0 11)">B</text></g><path class="edge" d="M 0 0 V -114.234 H 88.125"/><circle class="sym" cx="0" cy="0" r="3"/><text class="lab lft" transform="translate(-3 -7)"/></g><g class="a22 c2 node n20 p3" transform="translate(88.125 53.9599)"><g class="a20 i2 leaf node n6 p4 sample" transform="translate(-86.25 62.5705)"><path class="edge" d="M 0 0 V -62.5705 H 86.25"/><rect class="sym" height="6" width="6" x="-3" y="-3"/><text class="lab" transform="translate(0 11)">B</text></g><g class="a20 c2 node n16 p5" transform="translate(86.25 55.682)"><g class="a16 i4 leaf node n11 p5 sample" transform="translate(67.5 6.8885)"><path class="edge" d="M 0 0 V -6.8885 H -67.5"/><rect class="sym" height="6" width="6" x="-3" y="-3"/><text class="lab" transform="translate(0 11)">A</text></g><g class="a16 c2 node n15 p5" transform="translate(-67.5 2.87021)"><g class="a15 i5 leaf node n8 p5 sample" transform="translate(-45 4.01829)"><path class="edge" d="M 0 0 V -4.01829 H 45"/><rect class="sym" height="6" width="6" x="-3" y="-3"/><text class="lab" transform="translate(0 11)">A</text></g><g class="a15 c2 node n14 p5" transform="translate(45 1.14808)"><g class="a14 i5 leaf node n9 p5 sample" transform="translate(-30 2.87021)"><path class="edge" d="M 0 0 V -2.87021 H 30"/><rect class="sym" height="6" width="6" x="-3" y="-3"/><text class="lab" transform="translate(0 11)">A</text></g><g class="a14 i4 leaf node n10 p5 sample" transform="translate(30 2.87021)"><path class="edge" d="M 0 0 V -2.87021 H -30"/><rect class="sym" height="6" width="6" x="-3" y="-3"/><text class="lab" transform="translate(0 11)">A</text></g><path class="edge" d="M 0 0 V -1.14808 H -45"/><circle class="sym" cx="0" cy="0" r="3"/><text class="lab rgt" transform="translate(3 -7)"/></g><path class="edge" d="M 0 0 V -2.87021 H 67.5"/><circle class="sym" cx="0" cy="0" r="3"/><text class="lab lft" transform="translate(-3 -7)"/></g><path class="edge" d="M 0 0 V -55.682 H -86.25"/><circle class="sym" cx="0" cy="0" r="3"/><text class="lab rgt" transform="translate(3 -7)"/></g><path class="edge" d="M 0 0 V -53.9599 H -88.125"/><circle class="sym" cx="0" cy="0" r="3"/><text class="lab rgt" transform="translate(3 -7)"/></g><path class="edge" d="M 0 0 V -78.0696 H 28.125"/><circle class="sym" cx="0" cy="0" r="3"/><text class="lab rgt" transform="translate(3 -7)"/></g><circle class="sym" cx="0" cy="0" r="3"/><text class="lab" transform="translate(0 -11)"/></g></g></g></g></g></svg>