<svg xmlns="http://www.w3.org/2000/svg" xmlns:ev="http://www.w3.org/2001/xml-events" xmlns:xlink="http://www.w3.org/1999/xlink" baseProfile="full" height="300" version="1.1" width="800"><defs><style type="text/css"><![CDATA[.background path {fill: #808080; fill-opacity: 0}.background path:nth-child(odd) {fill-opacity: .1}.x-regions rect {fill: yellow; stroke: black; opacity: 0.5}.axes {font-size: 14px}.x-axis .tick .lab {font-weight: bold; dominant-baseline: hanging}.axes, .tree {font-size: 14px; text-anchor: middle}.axes line, .edge {stroke: black; fill: none}.axes .ax-skip {stroke-dasharray: 4}.y-axis .grid {stroke: #FAFAFA}.node > .sym {fill: black; stroke: none}.site > .sym {stroke: black}.mut text {fill: red; font-style: italic}.mut.extra text {fill: hotpink}.mut line {fill: none; stroke: none}.mut .sym {fill: none; stroke: red}.mut.extra .sym {stroke: hotpink}.node .mut .sym {stroke-width: 1.5px}.tree text, .tree-sequence text {dominant-baseline: central}.plotbox .lab.lft {text-anchor: end}.plotbox .lab.rgt {text-anchor: start}.polytomy line {stroke: black; stroke-dasharray: 1px, 1px}.polytomy text {paint-order:stroke;stroke-width:0.3em;stroke:white}]]></style></defs><g class="tree-sequence"><g class="background"><path d="M20,0 l760,0 l0,238.2 l0,25 l0,5 l-760,0 l0,-5 l0,-25 l0,-238.2z"/></g><g class="axes"><g class="x-axis"><g class="title" transform="translate(400 300)"><text class="lab" text-anchor="middle" transform="translate(0 -11)">Genome position</text></g><line class="ax-line" x1="20" x2="780" y1="263.2" y2="263.2"/><g class="ticks"><g class="tick" transform="translate(20 263.2)"><line x1="0" x2="0" y1="0" y2="5"/><g transform="translate(0 6)"><text class="lab">0</text></g></g></g></g></g><g class="plotbox trees"><g class="tree t-1" transform="translate(20 0)"><g class="plotbox"><g class="c2 node n22 p1 root" transform="translate(528.125 26.8)"><g class="a22 i3 leaf node n4 p4 sample" transform="translate(181.875 194.6)"><path class="edge" d="M 0 0 V -194.6 H -181.875"/><rect class="sym" height="6" width="6" x="-3" y="-3"/><text class="lab" transform="translate(0 11)">B</text></g><g class="a22 c2 node n21 p1" transform="translate(-181.875 36.0848)"><g class="a21 c2 node n19 p3" transform="translate(206.25 108.254)"><g class="a19 i5 leaf node n8 p5 sample" transform="translate(97.5 50.2609)"><path class="edge" d="M 0 0 V -50.2609 H -97.5"/><rect class="sym" height="6" width="6" x="-3" y="-3"/><text class="lab" transform="translate(0 11)">A</text></g><g class="a19 c2 node n18 p3" transform="translate(-97.5 16.7536)"><g class="a18 c2 node n14 p4" transform="translate(-90 17.1832)"><g class="a14 i2 leaf node n6 p4 sample" transform="translate(45 16.3241)"><path class="edge" d="M 0 0 V -16.3241 H -45"/><rect class="sym" height="6" width="6" x="-3" y="-3"/><text class="lab" transform="translate(0 11)">B</text></g><g class="a14 c2 node n13 p4" transform="translate(-45 2.57748)"><g class="a13 i3 leaf node n5 p4 sample" transform="translate(-30 13.7466)"><path class="edge" d="M 0 0 V -13.7466 H 30"/><rect class="sym" height="6" width="6" x="-3" y="-3"/><text class="lab" transform="translate(0 11)">B</text></g><g class="a13 i2 leaf node n7 p4 sample" transform="translate(30 13.7466)"><path class="edge" d="M 0 0 V -13.7466 H -30"/><rect class="sym" height="6" width="6" x="-3" y="-3"/><text class="lab" transform="translate(0 11)">B</text></g><path class="edge" d="M 0 0 V -2.57748 H 45"/><circle class="sym" cx="0" cy="0" r="3"/><text class="lab lft" transform="translate(-3 -7)"/></g><path class="edge" d="M 0 0 V -17.1832 H 90"/><circle class="sym" cx="0" cy="0" r="3"/><text class="lab lft" transform="translate(-3 -7)"/></g><g class="a18 c2 node n16 p5" transform="translate(90 12.8874)"><g class="a16 i4 leaf node n10 p5 sample" transform="translate(45 20.6199)"><path class="edge" d="M 0 0 V -20.6199 H -45"/><rect class="sym" height="6" width="6" x="-3" y="-3"/><text class="lab" transform="translate(0 11)">A</text></g><g class="a16 c2 node n12 p5" transform="translate(-45 15.4649)"><g class="a12 i5 leaf node n9 p5 sample" transform="translate(-30 5.15497)"><path class="edge" d="M 0 0 V -5.15497 H 30"/><rect class="sym" height="6" width="6" x="-3" y="-3"/><text class="lab" transform="translate(0 11)">A</text></g><g class="a12 i4 leaf node n11 p5 sample" transform="translate(30 5.15497)"><path class="edge" d="M 0 0 V -5.15497 H -30"/><rect class="sym" height="6" width="6" x="-3" y="-3"/><text class="lab" transform="translate(0 11)">A</text></g><path class="edge" d="M 0 0 V -15.4649 H 45"/><circle class="sym" cx="0" cy="0" r="3"/><text class="lab lft" transform="translate(-3 -7)"/></g><path class="edge" d="M 0 0 V -12.8874 H -90"/><circle class="sym" cx="0" cy="0" r="3"/><text class="lab rgt" transform="translate(3 -7)"/></g><path class="edge" d="M 0 0 V -16.7536 H 97.5"/><circle class="sym" cx="0" cy="0" r="3"/><text class="lab lft" transform="translate(-3 -7)"/></g><path class="edge" d="M 0 0 V -108.254 H -206.25"/><circle class="sym" cx="0" cy="0" r="3"/><text class="lab rgt" transform="translate(3 -7)"/></g><g class="a21 c2 node n20 p2" transform="translate(-206.25 102.67)"><g class="a20 c2 node n15 p2" transform="translate(60 38.2327)"><g class="a15 i1 leaf node n2 p2 sample" transform="translate(-30 17.6128)"><path class="edge" d="M 0 0 V -17.6128 H 30"/><rect class="sym" height="6" width="6" x="-3" y="-3"/><text class="lab" transform="translate(0 11)">C</text></g><g class="a15 i1 leaf node n3 p2 sample" transform="translate(30 17.6128)"><path class="edge" d="M 0 0 V -17.6128 H -30"/><rect class="sym" height="6" width="6" x="-3" y="-3"/><text class="lab" transform="translate(0 11)">C</text></g><path class="edge" d="M 0 0 V -38.2327 H -60"/><circle class="sym" cx="0" cy="0" r="3"/><text class="lab rgt" transform="translate(3 -7)"/></g><g class="a20 c2 node n17 p2" transform="translate(-60 31.3594)"><g class="a17 i0 leaf node n0 p2 sample" transform="translate(-30 24.4861)"><path class="edge" d="M 0 0 V -24.4861 H 30"/><rect class="sym" height="6" width="6" x="-3" y="-3"/><text class="lab" transform="translate(0 11)">C</text></g><g class="a17 i0 leaf node n1 p2 sample" transform="translate(30 24.4861)"><path class="edge" d="M 0 0 V -24.4861 H -30"/><rect class="sym" height="6" width="6" x="-3" y="-3"/><text class="lab" transform="translate(0 11)">C</text></g><path class="edge" d="M 0 0 V -31.3594 H 60"/><circle class="sym" cx="0" cy="0" r="3"/><text class="lab lft" transform="translate(-3 -7)"/></g><path class="edge" d="M 0 0 V -102.67 H 206.25"/><circle class="sym" cx="0" cy="0" r="3"/><text class="lab lft" transform="translate(-3 -7)"/></g><path class="edge" d="M 0 0 V -36.0848 H 181.875"/><circle class="sym" cx="0" cy="0" r="3"/><text class="lab lft" transform="translate(-3 -7)"/></g><circle class="sym" cx="0" cy="0" r="3"/><text class="lab" transform="translate(0 -11)"/></g></g></g></g></g></svg>