<svg baseProfile="full" height="200" version="1.1" width="400" xmlns="http://www.w3.org/2000/svg" xmlns:ev="http://www.w3.org/2001/xml-events" xmlns:xlink="http://www.w3.org/1999/xlink"><defs><style type="text/css"><![CDATA[.background path {fill: #808080; fill-opacity: 0}.background path:nth-child(odd) {fill-opacity: .1}.x-regions rect {fill: yellow; stroke: black; opacity: 0.5}.axes {font-size: 14px}.x-axis .tick .lab {font-weight: bold; dominant-baseline: hanging}.axes, .tree {font-size: 14px; text-anchor: middle}.axes line, .edge {stroke: black; fill: none}.axes .ax-skip {stroke-dasharray: 4}.y-axis .grid {stroke: #FAFAFA}.node > .sym {fill: black; stroke: none}.site > .sym {stroke: black}.mut text {fill: red; font-style: italic}.mut.extra text {fill: hotpink}.mut line {fill: none; stroke: none}.mut .sym {fill: none; stroke: red}.mut.extra .sym {stroke: hotpink}.node .mut .sym {stroke-width: 1.5px}.tree text, .tree-sequence text {dominant-baseline: central}.plotbox .lab.lft {text-anchor: end}.plotbox .lab.rgt {text-anchor: start}.polytomy line {stroke: black; stroke-dasharray: 1px, 1px}.polytomy text {paint-order:stroke;stroke-width:0.3em;stroke:white}.node.n5 > .sym { fill: #c41e3a; }]]></style></defs><g class="tree-sequence"><g class="background"><path d="M56.8,0 l107.733,0 l0,138.2 l53.8667,25 l0,5 l-161.6,0 l0,-5 l0,-25 l0,-138.2z"/><path d="M164.533,0 l107.733,0 l0,138.2 l10.7733,25 l0,5 l-64.64,0 l0,-5 l-53.867,-25 l0,-138.2z"/><path d="M272.267,0 l107.733,0 l0,138.2 l0,25 l0,5 l-96.96,0 l0,-5 l-10.773,-25 l0,-138.2z"/></g><g class="axes"><g class="x-axis"><g class="title" transform="translate(218.4 200)"><text class="lab" text-anchor="middle" transform="translate(0 -11)">Genome position</text></g><line class="ax-line" x1="56.8" x2="380" y1="163.2" y2="163.2"/><g class="ticks"><g class="tick" transform="translate(56.8 163.2)"><line x1="0" x2="0" y1="0" y2="5"/><g transform="translate(0 6)"><text class="lab">0</text></g></g><g class="tick" transform="translate(218.4 163.2)"><line x1="0" x2="0" y1="0" y2="5"/><g transform="translate(0 6)"><text class="lab">5</text></g></g><g class="tick" transform="translate(283.04 163.2)"><line x1="0" x2="0" y1="0" y2="5"/><g transform="translate(0 6)"><text class="lab">7</text></g></g><g class="tick" transform="translate(380 163.2)"><line x1="0" x2="0" y1="0" y2="5"/><g transform="translate(0 6)"><text class="lab">10</text></g></g></g></g><g class="y-axis"><g class="title" transform="translate(0 65.7)"><text class="lab" text-anchor="middle" transform="translate(11) rotate(-90)">Time ago</text></g><line class="ax-line" x1="56.8" x2="56.8" y1="121.4" y2="10"/><g class="ticks"><g class="tick" transform="translate(56.8 121.4)"><line x1="0" x2="-5" y1="0" y2="0"/><g transform="translate(-6 0)"><text class="lab" text-anchor="end">0</text></g></g><g class="tick" transform="translate(56.8 89.8667)"><line x1="0" x2="-5" y1="0" y2="0"/><g transform="translate(-6 0)"><text class="lab" text-anchor="end">1</text></g></g><g class="tick" transform="translate(56.8 58.3333)"><line x1="0" x2="-5" y1="0" y2="0"/><g transform="translate(-6 0)"><text class="lab" text-anchor="end">2</text></g></g><g class="tick" transform="translate(56.8 26.8)"><line x1="0" x2="-5" y1="0" y2="0"/><g transform="translate(-6 0)"><text class="lab" text-anchor="end">3</text></g></g></g></g></g><g class="plotbox trees"><g class="tree t0" transform="translate(56.8 0)"><g class="plotbox"><g class="c2 node n6 root" transform="translate(49.6333 26.8)"><g class="a6 c2 node n4" transform="translate(-12.7 63.0667)"><g class="a4 leaf node n0 sample" transform="translate(-8.46667 31.5333)"><path class="edge e0" d="M 0 0 V -31.5333 H 8.46667"/><rect class="sym" height="6" width="6" x="-3" y="-3"/><text class="lab" transform="translate(0 11)"/></g><g class="a4 leaf node n1 sample" transform="translate(8.46667 31.5333)"><path class="edge e1" d="M 0 0 V -31.5333 H -8.46667"/><rect class="sym" height="6" width="6" x="-3" y="-3"/><text class="lab" transform="translate(0 11)"/></g><path class="edge e5" d="M 0 0 V -63.0667 H 12.7"/><circle class="sym" cx="0" cy="0" r="3"/><text class="lab lft" transform="translate(-3 -7)"/></g><g class="a6 c1 node n5" transform="translate(12.7 31.5333)"><g class="a5 leaf node n2 sample" transform="translate(0.0 63.0667)"><path class="edge e3" d="M 0 0 V -63.0667 H 0.0"/><rect class="sym" height="6" width="6" x="-3" y="-3"/><text class="lab" transform="translate(0 11)"/></g><path class="edge e6" d="M 0 0 V -31.5333 H -12.7"/><circle class="sym" cx="0" cy="0" r="3"/><text class="lab rgt" transform="translate(3 -7)"/></g><circle class="sym" cx="0" cy="0" r="3"/><text class="lab" transform="translate(0 -11)"/></g><g class="leaf node n3 root sample" transform="translate(79.2667 121.4)"><rect class="sym" height="6" width="6" x="-3" y="-3"/><text class="lab" transform="translate(0 11)"/></g></g></g><g class="tree t1" transform="translate(164.533 0)"><g class="plotbox"><g class="c2 node n6 root" transform="translate(49.6333 26.8)"><g class="a6 c1 node n4" transform="translate(12.7 63.0667)"><g class="a4 leaf node n1 sample" transform="translate(0.0 31.5333)"><path class="edge e1" d="M 0 0 V -31.5333 H 0.0"/><rect class="sym" height="6" width="6" x="-3" y="-3"/><text class="lab" transform="translate(0 11)"/></g><path class="edge e5" d="M 0 0 V -63.0667 H -12.7"/><circle class="sym" cx="0" cy="0" r="3"/><text class="lab rgt" transform="translate(3 -7)"/></g><g class="a6 c2 node n5" transform="translate(-12.7 31.5333)"><g class="a5 leaf node n2 sample" transform="translate(8.46667 63.0667)"><path class="edge e3" d="M 0 0 V -63.0667 H -8.46667"/><rect class="sym" height="6" width="6" x="-3" y="-3"/><text class="lab" transform="translate(0 11)"/></g><g class="a5 leaf node n0 sample" transform="translate(-8.46667 63.0667)"><path class="edge e2" d="M 0 0 V -63.0667 H 8.46667"/><rect class="sym" height="6" width="6" x="-3" y="-3"/><text class="lab" transform="translate(0 11)"/></g><path class="edge e6" d="M 0 0 V -31.5333 H 12.7"/><circle class="sym" cx="0" cy="0" r="3"/><text class="lab lft" transform="translate(-3 -7)"/></g><circle class="sym" cx="0" cy="0" r="3"/><text class="lab" transform="translate(0 -11)"/></g><g class="leaf node n3 root sample" transform="translate(79.2667 121.4)"><rect class="sym" height="6" width="6" x="-3" y="-3"/><text class="lab" transform="translate(0 11)"/></g></g></g><g class="tree t2" transform="translate(272.267 0)"><g class="plotbox"><g class="c2 node n6 root" transform="translate(49.6333 26.8)"><g class="a6 c2 node n5" transform="translate(-12.7 31.5333)"><g class="a5 leaf node n2 sample" transform="translate(8.46667 63.0667)"><path class="edge e3" d="M 0 0 V -63.0667 H -8.46667"/><rect class="sym" height="6" width="6" x="-3" y="-3"/><text class="lab" transform="translate(0 11)"/></g><g class="a5 leaf node n0 sample" transform="translate(-8.46667 63.0667)"><path class="edge e2" d="M 0 0 V -63.0667 H 8.46667"/><rect class="sym" height="6" width="6" x="-3" y="-3"/><text class="lab" transform="translate(0 11)"/></g><path class="edge e6" d="M 0 0 V -31.5333 H 12.7"/><circle class="sym" cx="0" cy="0" r="3"/><text class="lab lft" transform="translate(-3 -7)"/></g><g class="a6 leaf node n3 sample" transform="translate(12.7 94.6)"><path class="edge e4" d="M 0 0 V -94.6 H -12.7"/><rect class="sym" height="6" width="6" x="-3" y="-3"/><text class="lab" transform="translate(0 11)"/></g><circle class="sym" cx="0" cy="0" r="3"/><text class="lab" transform="translate(0 -11)"/></g><g class="c1 node n4 root" transform="translate(79.2667 89.8667)"><g class="a4 leaf node n1 sample" transform="translate(0.0 31.5333)"><path class="edge e1" d="M 0 0 V -31.5333 H 0.0"/><rect class="sym" height="6" width="6" x="-3" y="-3"/><text class="lab" transform="translate(0 11)"/></g><circle class="sym" cx="0" cy="0" r="3"/><text class="lab" transform="translate(0 -11)"/></g></g></g></g></g></svg>