<svg xmlns="http://www.w3.org/2000/svg" xmlns:ev="http://www.w3.org/2001/xml-events" xmlns:xlink="http://www.w3.org/1999/xlink" baseProfile="full" height="200" version="1.1" width="600"><defs><style type="text/css"><![CDATA[.background path {fill: #808080; fill-opacity: 0}.background path:nth-child(odd) {fill-opacity: .1}.x-regions rect {fill: yellow; stroke: black; opacity: 0.5}.axes {font-size: 14px}.x-axis .tick .lab {font-weight: bold; dominant-baseline: hanging}.axes, .tree {font-size: 14px; text-anchor: middle}.axes line, .edge {stroke: black; fill: none}.axes .ax-skip {stroke-dasharray: 4}.y-axis .grid {stroke: #FAFAFA}.node > .sym {fill: black; stroke: none}.site > .sym {stroke: black}.mut text {fill: red; font-style: italic}.mut.extra text {fill: hotpink}.mut line {fill: none; stroke: none}.mut .sym {fill: none; stroke: red}.mut.extra .sym {stroke: hotpink}.node .mut .sym {stroke-width: 1.5px}.tree text, .tree-sequence text {dominant-baseline: central}.plotbox .lab.lft {text-anchor: end}.plotbox .lab.rgt {text-anchor: start}.polytomy line {stroke: black; stroke-dasharray: 1px, 1px}.polytomy text {paint-order:stroke;stroke-width:0.3em;stroke:white}]]></style></defs><g class="tree-sequence"><g class="background"><path d="M20,0 l186.667,0 l0,138.2 l-46.6667,25 l0,5 l-140,0 l0,-5 l0,-25 l0,-138.2z"/><path d="M206.667,0 l186.667,0 l0,138.2 l46.6667,25 l0,5 l-280,0 l0,-5 l46.667,-25 l0,-138.2z"/><path d="M393.333,0 l186.667,0 l0,138.2 l0,25 l0,5 l-140,0 l0,-5 l-46.667,-25 l0,-138.2z"/></g><g class="axes"><g class="x-axis"><g class="title" transform="translate(300 200)"><text class="lab" text-anchor="middle" transform="translate(0 -11)">Genome position</text></g><line class="ax-line" x1="20" x2="580" y1="163.2" y2="163.2"/><g class="ticks"><g class="tick" transform="translate(20 163.2)"><line x1="0" x2="0" y1="0" y2="5"/><g transform="translate(0 6)"><text class="lab">0</text></g></g><g class="tick" transform="translate(160 163.2)"><line x1="0" x2="0" y1="0" y2="5"/><g transform="translate(0 6)"><text class="lab">15</text></g></g><g class="tick" transform="translate(440 163.2)"><line x1="0" x2="0" y1="0" y2="5"/><g transform="translate(0 6)"><text class="lab">45</text></g></g><g class="tick" transform="translate(580 163.2)"><line x1="0" x2="0" y1="0" y2="5"/><g transform="translate(0 6)"><text class="lab">60</text></g></g></g><g class="site s0" transform="translate(20 163.2)"><line class="sym" x1="0" x2="0" y1="0" y2="-10"/></g><g class="site s1" transform="translate(29.3333 163.2)"><line class="sym" x1="0" x2="0" y1="0" y2="-10"/><g class="mut m0"><polyline class="sym" points="2.5,-6.5 0,-1.5 -2.5,-6.5"/></g></g><g class="site s2" transform="translate(38.6667 163.2)"><line class="sym" x1="0" x2="0" y1="0" y2="-10"/></g><g class="site s3" transform="translate(48 163.2)"><line class="sym" x1="0" x2="0" y1="0" y2="-10"/><g class="mut m1"><polyline class="sym" points="2.5,-6.5 0,-1.5 -2.5,-6.5"/></g></g><g class="site s4" transform="translate(57.3333 163.2)"><line class="sym" x1="0" x2="0" y1="0" y2="-10"/><g class="mut m2"><polyline class="sym" points="2.5,-6.5 0,-1.5 -2.5,-6.5"/></g></g><g class="site s5" transform="translate(66.6667 163.2)"><line class="sym" x1="0" x2="0" y1="0" y2="-10"/><g class="mut m3"><polyline class="sym" points="2.5,-6.5 0,-1.5 -2.5,-6.5"/></g></g><g class="site s6" transform="translate(76 163.2)"><line class="sym" x1="0" x2="0" y1="0" y2="-10"/><g class="mut m5"><polyline class="sym" points="2.5,-6.5 0,-1.5 -2.5,-6.5"/></g><g class="mut m4"><polyline class="sym" points="2.5,-10.5 0,-5.5 -2.5,-10.5"/></g></g><g class="site s7" transform="translate(85.3333 163.2)"><line class="sym" x1="0" x2="0" y1="0" y2="-10"/></g><g class="site s8" transform="translate(94.6667 163.2)"><line class="sym" x1="0" x2="0" y1="0" y2="-10"/><g class="mut m6"><polyline class="sym" points="2.5,-6.5 0,-1.5 -2.5,-6.5"/></g></g><g class="site s9" transform="translate(104 163.2)"><line class="sym" x1="0" x2="0" y1="0" y2="-10"/><g class="mut m7"><polyline class="sym" points="2.5,-6.5 0,-1.5 -2.5,-6.5"/></g></g><g class="site s10" transform="translate(113.333 163.2)"><line class="sym" x1="0" x2="0" y1="0" y2="-10"/><g class="mut m8"><polyline class="sym" points="2.5,-6.5 0,-1.5 -2.5,-6.5"/></g></g><g class="site s11" transform="translate(122.667 163.2)"><line class="sym" x1="0" x2="0" y1="0" y2="-10"/><g class="mut m9"><polyline class="sym" points="2.5,-6.5 0,-1.5 -2.5,-6.5"/></g></g><g class="site s12" transform="translate(132 163.2)"><line class="sym" x1="0" x2="0" y1="0" y2="-10"/></g><g class="site s13" transform="translate(141.333 163.2)"><line class="sym" x1="0" x2="0" y1="0" y2="-10"/><g class="mut m10"><polyline class="sym" points="2.5,-6.5 0,-1.5 -2.5,-6.5"/></g></g><g class="site s14" transform="translate(150.667 163.2)"><line class="sym" x1="0" x2="0" y1="0" y2="-10"/></g><g class="site s15" transform="translate(160 163.2)"><line class="sym" x1="0" x2="0" y1="0" y2="-10"/></g><g class="site s16" transform="translate(169.333 163.2)"><line class="sym" x1="0" x2="0" y1="0" y2="-10"/></g><g class="site s17" transform="translate(178.667 163.2)"><line class="sym" x1="0" x2="0" y1="0" y2="-10"/></g><g class="site s18" transform="translate(188 163.2)"><line class="sym" x1="0" x2="0" y1="0" y2="-10"/></g><g class="site s19" transform="translate(197.333 163.2)"><line class="sym" x1="0" x2="0" y1="0" y2="-10"/></g><g class="site s20" transform="translate(206.667 163.2)"><line class="sym" x1="0" x2="0" y1="0" y2="-10"/></g><g class="site s21" transform="translate(216 163.2)"><line class="sym" x1="0" x2="0" y1="0" y2="-10"/></g><g class="site s22" transform="translate(225.333 163.2)"><line class="sym" x1="0" x2="0" y1="0" y2="-10"/></g><g class="site s23" transform="translate(234.667 163.2)"><line class="sym" x1="0" x2="0" y1="0" y2="-10"/></g><g class="site s24" transform="translate(244 163.2)"><line class="sym" x1="0" x2="0" y1="0" y2="-10"/></g><g class="site s25" transform="translate(253.333 163.2)"><line class="sym" x1="0" x2="0" y1="0" y2="-10"/></g><g class="site s26" transform="translate(262.667 163.2)"><line class="sym" x1="0" x2="0" y1="0" y2="-10"/></g><g class="site s27" transform="translate(272 163.2)"><line class="sym" x1="0" x2="0" y1="0" y2="-10"/></g><g class="site s28" transform="translate(281.333 163.2)"><line class="sym" x1="0" x2="0" y1="0" y2="-10"/></g><g class="site s29" transform="translate(290.667 163.2)"><line class="sym" x1="0" x2="0" y1="0" y2="-10"/></g><g class="site s30" transform="translate(300 163.2)"><line class="sym" x1="0" x2="0" y1="0" y2="-10"/></g><g class="site s31" transform="translate(309.333 163.2)"><line class="sym" x1="0" x2="0" y1="0" y2="-10"/></g><g class="site s32" transform="translate(318.667 163.2)"><line class="sym" x1="0" x2="0" y1="0" y2="-10"/></g><g class="site s33" transform="translate(328 163.2)"><line class="sym" x1="0" x2="0" y1="0" y2="-10"/></g><g class="site s34" transform="translate(337.333 163.2)"><line class="sym" x1="0" x2="0" y1="0" y2="-10"/></g><g class="site s35" transform="translate(346.667 163.2)"><line class="sym" x1="0" x2="0" y1="0" y2="-10"/></g><g class="site s36" transform="translate(356 163.2)"><line class="sym" x1="0" x2="0" y1="0" y2="-10"/></g><g class="site s37" transform="translate(365.333 163.2)"><line class="sym" x1="0" x2="0" y1="0" y2="-10"/></g><g class="site s38" transform="translate(374.667 163.2)"><line class="sym" x1="0" x2="0" y1="0" y2="-10"/></g><g class="site s39" transform="translate(384 163.2)"><line class="sym" x1="0" x2="0" y1="0" y2="-10"/></g><g class="site s40" transform="translate(393.333 163.2)"><line class="sym" x1="0" x2="0" y1="0" y2="-10"/></g><g class="site s41" transform="translate(402.667 163.2)"><line class="sym" x1="0" x2="0" y1="0" y2="-10"/></g><g class="site s42" transform="translate(412 163.2)"><line class="sym" x1="0" x2="0" y1="0" y2="-10"/></g><g class="site s43" transform="translate(421.333 163.2)"><line class="sym" x1="0" x2="0" y1="0" y2="-10"/></g><g class="site s44" transform="translate(430.667 163.2)"><line class="sym" x1="0" x2="0" y1="0" y2="-10"/></g><g class="site s45" transform="translate(440 163.2)"><line class="sym" x1="0" x2="0" y1="0" y2="-10"/><g class="mut m11"><polyline class="sym" points="2.5,-6.5 0,-1.5 -2.5,-6.5"/></g></g><g class="site s46" transform="translate(449.333 163.2)"><line class="sym" x1="0" x2="0" y1="0" y2="-10"/><g class="mut m13"><polyline class="sym" points="2.5,-6.5 0,-1.5 -2.5,-6.5"/></g><g class="mut m12"><polyline class="sym" points="2.5,-10.5 0,-5.5 -2.5,-10.5"/></g></g><g class="site s47" transform="translate(458.667 163.2)"><line class="sym" x1="0" x2="0" y1="0" y2="-10"/><g class="mut m15"><polyline class="sym" points="2.5,-6.5 0,-1.5 -2.5,-6.5"/></g><g class="mut m14"><polyline class="sym" points="2.5,-10.5 0,-5.5 -2.5,-10.5"/></g></g><g class="site s48" transform="translate(468 163.2)"><line class="sym" x1="0" x2="0" y1="0" y2="-10"/></g><g class="site s49" transform="translate(477.333 163.2)"><line class="sym" x1="0" x2="0" y1="0" y2="-10"/><g class="mut m16"><polyline class="sym" points="2.5,-6.5 0,-1.5 -2.5,-6.5"/></g></g><g class="site s50" transform="translate(486.667 163.2)"><line class="sym" x1="0" x2="0" y1="0" y2="-10"/><g class="mut m17"><polyline class="sym" points="2.5,-6.5 0,-1.5 -2.5,-6.5"/></g></g><g class="site s51" transform="translate(496 163.2)"><line class="sym" x1="0" x2="0" y1="0" y2="-10"/></g><g class="site s52" transform="translate(505.333 163.2)"><line class="sym" x1="0" x2="0" y1="0" y2="-10"/><g class="mut m18"><polyline class="sym" points="2.5,-6.5 0,-1.5 -2.5,-6.5"/></g></g><g class="site s53" transform="translate(514.667 163.2)"><line class="sym" x1="0" x2="0" y1="0" y2="-10"/><g class="mut m19"><polyline class="sym" points="2.5,-6.5 0,-1.5 -2.5,-6.5"/></g></g><g class="site s54" transform="translate(524 163.2)"><line class="sym" x1="0" x2="0" y1="0" y2="-10"/><g class="mut m20"><polyline class="sym" points="2.5,-6.5 0,-1.5 -2.5,-6.5"/></g></g><g class="site s55" transform="translate(533.333 163.2)"><line class="sym" x1="0" x2="0" y1="0" y2="-10"/><g class="mut m21"><polyline class="sym" points="2.5,-6.5 0,-1.5 -2.5,-6.5"/></g></g><g class="site s56" transform="translate(542.667 163.2)"><line class="sym" x1="0" x2="0" y1="0" y2="-10"/></g><g class="site s57" transform="translate(552 163.2)"><line class="sym" x1="0" x2="0" y1="0" y2="-10"/></g><g class="site s58" transform="translate(561.333 163.2)"><line class="sym" x1="0" x2="0" y1="0" y2="-10"/><g class="mut m22"><polyline class="sym" points="2.5,-6.5 0,-1.5 -2.5,-6.5"/></g></g><g class="site s59" transform="translate(570.667 163.2)"><line class="sym" x1="0" x2="0" y1="0" y2="-10"/><g class="mut m23"><polyline class="sym" points="2.5,-6.5 0,-1.5 -2.5,-6.5"/></g></g></g></g><g class="plotbox trees"><g class="tree t0" transform="translate(20 0)"><g class="plotbox"><g class="c3 node n6 root" transform="translate(64 58.3333)"><g class="a6 leaf m0 m2 m7 m8 node n0 s1 s10 s4 s9 sample" transform="translate(-29.3333 63.0667)"><path class="edge e4" d="M 0 0 V -63.0667 H 29.3333"/><g class="mut m8 s10" transform="translate(0 -31.1351)"><line x1="0" x2="0" y1="0" y2="31.1351"/><path class="sym" d="M -3,-3 l 6,6 M -3,3 l 6,-6"/><text class="lab lft" transform="translate(-5 0)">8</text></g><g class="mut m0 s1" transform="translate(0 -27.1731)"><line x1="0" x2="0" y1="0" y2="27.1731"/><path class="sym" d="M -3,-3 l 6,6 M -3,3 l 6,-6"/><text class="lab lft" transform="translate(-5 0)">0</text></g><g class="mut m7 s9" transform="translate(0 -26.8557)"><line x1="0" x2="0" y1="0" y2="26.8557"/><path class="sym" d="M -3,-3 l 6,6 M -3,3 l 6,-6"/><text class="lab lft" transform="translate(-5 0)">7</text></g><g class="mut m2 s4" transform="translate(0 -19.6933)"><line x1="0" x2="0" y1="0" y2="19.6933"/><path class="sym" d="M -3,-3 l 6,6 M -3,3 l 6,-6"/><text class="lab lft" transform="translate(-5 0)">2</text></g><rect class="sym" height="6" width="6" x="-3" y="-3"/><text class="lab" transform="translate(0 11)">0</text></g><g class="a6 leaf node n1 sample" transform="translate(0.0 63.0667)"><path class="edge e6" d="M 0 0 V -63.0667 H 0.0"/><rect class="sym" height="6" width="6" x="-3" y="-3"/><text class="lab" transform="translate(0 11)">1</text></g><g class="a6 leaf m5 m6 node n2 s6 s8 sample" transform="translate(29.3333 63.0667)"><path class="edge e8" d="M 0 0 V -63.0667 H -29.3333"/><g class="mut m5 s6" transform="translate(0 -39.5585)"><line x1="0" x2="0" y1="0" y2="39.5585"/><path class="sym" d="M -3,-3 l 6,6 M -3,3 l 6,-6"/><text class="lab rgt" transform="translate(5 0)">5</text></g><g class="mut m6 s8" transform="translate(0 -6.03627)"><line x1="0" x2="0" y1="0" y2="6.03627"/><path class="sym" d="M -3,-3 l 6,6 M -3,3 l 6,-6"/><text class="lab rgt" transform="translate(5 0)">6</text></g><rect class="sym" height="6" width="6" x="-3" y="-3"/><text class="lab" transform="translate(0 11)">2</text></g><circle class="sym" cx="0" cy="0" r="3"/><text class="lab" transform="translate(0 -11)">6</text></g><g class="c1 node n7 root" transform="translate(137.333 26.8)"><g class="a7 c2 m10 m4 m9 node n5 s11 s13 s6" transform="translate(0.0 63.0667)"><g class="a5 leaf m1 node n3 s3 sample" transform="translate(-14.6667 31.5333)"><path class="edge e0" d="M 0 0 V -31.5333 H 14.6667"/><g class="mut m1 s3" transform="translate(0 -21.9079)"><line x1="0" x2="0" y1="0" y2="21.9079"/><path class="sym" d="M -3,-3 l 6,6 M -3,3 l 6,-6"/><text class="lab lft" transform="translate(-5 0)">1</text></g><rect class="sym" height="6" width="6" x="-3" y="-3"/><text class="lab" transform="translate(0 11)">3</text></g><g class="a5 leaf m3 node n4 s5 sample" transform="translate(14.6667 31.5333)"><path class="edge e2" d="M 0 0 V -31.5333 H -14.6667"/><g class="mut m3 s5" transform="translate(0 -16.7616)"><line x1="0" x2="0" y1="0" y2="16.7616"/><path class="sym" d="M -3,-3 l 6,6 M -3,3 l 6,-6"/><text class="lab rgt" transform="translate(5 0)">3</text></g><rect class="sym" height="6" width="6" x="-3" y="-3"/><text class="lab" transform="translate(0 11)">4</text></g><path class="edge e9" d="M 0 0 V -63.0667 H 0.0"/><g class="mut m10 s13" transform="translate(0 -57.3761)"><line x1="0" x2="0" y1="0" y2="57.3761"/><path class="sym" d="M -3,-3 l 6,6 M -3,3 l 6,-6"/><text class="lab lft" transform="translate(-5 0)">10</text></g><g class="mut m4 s6" transform="translate(0 -32.2684)"><line x1="0" x2="0" y1="0" y2="32.2684"/><path class="sym" d="M -3,-3 l 6,6 M -3,3 l 6,-6"/><text class="lab lft" transform="translate(-5 0)">4</text></g><g class="mut m9 s11" transform="translate(0 -13.7722)"><line x1="0" x2="0" y1="0" y2="13.7722"/><path class="sym" d="M -3,-3 l 6,6 M -3,3 l 6,-6"/><text class="lab lft" transform="translate(-5 0)">9</text></g><circle class="sym" cx="0" cy="0" r="3"/><text class="lab lft" transform="translate(-3 -7)">5</text></g><circle class="sym" cx="0" cy="0" r="3"/><text class="lab" transform="translate(0 -11)">7</text></g></g></g><g class="tree t1" transform="translate(206.667 0)"><g class="plotbox"><g class="leaf node n0 root sample" transform="translate(34.6667 121.4)"><rect class="sym" height="6" width="6" x="-3" y="-3"/><text class="lab" transform="translate(0 11)">0</text></g><g class="leaf node n1 root sample" transform="translate(64 121.4)"><rect class="sym" height="6" width="6" x="-3" y="-3"/><text class="lab" transform="translate(0 11)">1</text></g><g class="leaf node n2 root sample" transform="translate(93.3333 121.4)"><rect class="sym" height="6" width="6" x="-3" y="-3"/><text class="lab" transform="translate(0 11)">2</text></g><g class="leaf node n3 root sample" transform="translate(122.667 121.4)"><rect class="sym" height="6" width="6" x="-3" y="-3"/><text class="lab" transform="translate(0 11)">3</text></g><g class="leaf node n4 root sample" transform="translate(152 121.4)"><rect class="sym" height="6" width="6" x="-3" y="-3"/><text class="lab" transform="translate(0 11)">4</text></g></g></g><g class="tree t2" transform="translate(393.333 0)"><g class="plotbox"><g class="c2 node n6 root" transform="translate(49.3333 58.3333)"><g class="a6 leaf m11 m13 m19 node n0 s45 s46 s53 sample" transform="translate(-14.6667 63.0667)"><path class="edge e5" d="M 0 0 V -63.0667 H 14.6667"/><g class="mut m11 s45" transform="translate(0 -56.3431)"><line x1="0" x2="0" y1="0" y2="56.3431"/><path class="sym" d="M -3,-3 l 6,6 M -3,3 l 6,-6"/><text class="lab lft" transform="translate(-5 0)">11</text></g><g class="mut m13 s46" transform="translate(0 -27.3521)"><line x1="0" x2="0" y1="0" y2="27.3521"/><path class="sym" d="M -3,-3 l 6,6 M -3,3 l 6,-6"/><text class="lab lft" transform="translate(-5 0)">13</text></g><g class="mut m19 s53" transform="translate(0 -26.8886)"><line x1="0" x2="0" y1="0" y2="26.8886"/><path class="sym" d="M -3,-3 l 6,6 M -3,3 l 6,-6"/><text class="lab lft" transform="translate(-5 0)">19</text></g><rect class="sym" height="6" width="6" x="-3" y="-3"/><text class="lab" transform="translate(0 11)">0</text></g><g class="a6 leaf m16 m17 m18 node n1 s49 s50 s52 sample" transform="translate(14.6667 63.0667)"><path class="edge e7" d="M 0 0 V -63.0667 H -14.6667"/><g class="mut m16 s49" transform="translate(0 -50.3101)"><line x1="0" x2="0" y1="0" y2="50.3101"/><path class="sym" d="M -3,-3 l 6,6 M -3,3 l 6,-6"/><text class="lab rgt" transform="translate(5 0)">16</text></g><g class="mut m18 s52" transform="translate(0 -16.8895)"><line x1="0" x2="0" y1="0" y2="16.8895"/><path class="sym" d="M -3,-3 l 6,6 M -3,3 l 6,-6"/><text class="lab rgt" transform="translate(5 0)">18</text></g><g class="mut m17 s50" transform="translate(0 -11.0602)"><line x1="0" x2="0" y1="0" y2="11.0602"/><path class="sym" d="M -3,-3 l 6,6 M -3,3 l 6,-6"/><text class="lab rgt" transform="translate(5 0)">17</text></g><rect class="sym" height="6" width="6" x="-3" y="-3"/><text class="lab" transform="translate(0 11)">1</text></g><circle class="sym" cx="0" cy="0" r="3"/><text class="lab" transform="translate(0 -11)">6</text></g><g class="leaf node n2 root sample" transform="translate(93.3333 121.4)"><rect class="sym" height="6" width="6" x="-3" y="-3"/><text class="lab" transform="translate(0 11)">2</text></g><g class="c1 node n7 root" transform="translate(137.333 26.8)"><g class="a7 c2 m12 m14 m15 m20 m21 m23 node n5 s46 s47 s54 s55 s59" transform="translate(0.0 63.0667)"><g class="a5 leaf m22 node n3 s58 sample" transform="translate(-14.6667 31.5333)"><path class="edge e1" d="M 0 0 V -31.5333 H 14.6667"/><g class="mut m22 s58" transform="translate(0 -12.9578)"><line x1="0" x2="0" y1="0" y2="12.9578"/><path class="sym" d="M -3,-3 l 6,6 M -3,3 l 6,-6"/><text class="lab lft" transform="translate(-5 0)">22</text></g><rect class="sym" height="6" width="6" x="-3" y="-3"/><text class="lab" transform="translate(0 11)">3</text></g><g class="a5 leaf node n4 sample" transform="translate(14.6667 31.5333)"><path class="edge e3" d="M 0 0 V -31.5333 H -14.6667"/><rect class="sym" height="6" width="6" x="-3" y="-3"/><text class="lab" transform="translate(0 11)">4</text></g><path class="edge e10" d="M 0 0 V -63.0667 H 0.0"/><g class="mut m14 s47" transform="translate(0 -40.238)"><line x1="0" x2="0" y1="0" y2="40.238"/><path class="sym" d="M -3,-3 l 6,6 M -3,3 l 6,-6"/><text class="lab lft" transform="translate(-5 0)">14</text></g><g class="mut m20 s54" transform="translate(0 -35.1104)"><line x1="0" x2="0" y1="0" y2="35.1104"/><path class="sym" d="M -3,-3 l 6,6 M -3,3 l 6,-6"/><text class="lab lft" transform="translate(-5 0)">20</text></g><g class="mut m15 s47" transform="translate(0 -34.6338)"><line x1="0" x2="0" y1="0" y2="34.6338"/><path class="sym" d="M -3,-3 l 6,6 M -3,3 l 6,-6"/><text class="lab lft" transform="translate(-5 0)">15</text></g><g class="mut m12 s46" transform="translate(0 -23.9764)"><line x1="0" x2="0" y1="0" y2="23.9764"/><path class="sym" d="M -3,-3 l 6,6 M -3,3 l 6,-6"/><text class="lab lft" transform="translate(-5 0)">12</text></g><g class="mut m21 s55" transform="translate(0 -3.63567)"><line x1="0" x2="0" y1="0" y2="3.63567"/><path class="sym" d="M -3,-3 l 6,6 M -3,3 l 6,-6"/><text class="lab lft" transform="translate(-5 0)">21</text></g><g class="mut m23 s59" transform="translate(0 -0.260758)"><line x1="0" x2="0" y1="0" y2="0.260758"/><path class="sym" d="M -3,-3 l 6,6 M -3,3 l 6,-6"/><text class="lab lft" transform="translate(-5 0)">23</text></g><circle class="sym" cx="0" cy="0" r="3"/><text class="lab lft" transform="translate(-3 -7)">5</text></g><circle class="sym" cx="0" cy="0" r="3"/><text class="lab" transform="translate(0 -11)">7</text></g></g></g></g></g></svg>