<svg xmlns="http://www.w3.org/2000/svg" xmlns:ev="http://www.w3.org/2001/xml-events" xmlns:xlink="http://www.w3.org/1999/xlink" baseProfile="full" height="200" version="1.1" width="600"><defs><style type="text/css"><![CDATA[.background path {fill: #808080; fill-opacity: 0}.background path:nth-child(odd) {fill-opacity: .1}.x-regions rect {fill: yellow; stroke: black; opacity: 0.5}.axes {font-size: 14px}.x-axis .tick .lab {font-weight: bold; dominant-baseline: hanging}.axes, .tree {font-size: 14px; text-anchor: middle}.axes line, .edge {stroke: black; fill: none}.axes .ax-skip {stroke-dasharray: 4}.y-axis .grid {stroke: #FAFAFA}.node > .sym {fill: black; stroke: none}.site > .sym {stroke: black}.mut text {fill: red; font-style: italic}.mut.extra text {fill: hotpink}.mut line {fill: none; stroke: none}.mut .sym {fill: none; stroke: red}.mut.extra .sym {stroke: hotpink}.node .mut .sym {stroke-width: 1.5px}.tree text, .tree-sequence text {dominant-baseline: central}.plotbox .lab.lft {text-anchor: end}.plotbox .lab.rgt {text-anchor: start}.polytomy line {stroke: black; stroke-dasharray: 1px, 1px}.polytomy text {paint-order:stroke;stroke-width:0.3em;stroke:white}]]></style></defs><g class="tree-sequence"><g class="background"><path d="M20,0 l186.667,0 l0,138.2 l2.84217e-14,25 l0,5 l-186.667,0 l0,-5 l0,-25 l0,-138.2z"/><path d="M206.667,0 l186.667,0 l0,138.2 l5.68434e-14,25 l0,5 l-186.667,0 l0,-5 l0,-25 l0,-138.2z"/><path d="M393.333,0 l186.667,0 l0,138.2 l0,25 l0,5 l-186.667,0 l0,-5 l0,-25 l0,-138.2z"/></g><g class="axes"><g class="x-axis"><g class="title" transform="translate(300 200)"><text class="lab" text-anchor="middle" transform="translate(0 -11)">Genome position</text></g><line class="ax-line" x1="20" x2="580" y1="163.2" y2="163.2"/><g class="ticks"><g class="tick" transform="translate(20 163.2)"><line x1="0" x2="0" y1="0" y2="5"/><g transform="translate(0 6)"><text class="lab">0</text></g></g><g class="tick" transform="translate(206.667 163.2)"><line x1="0" x2="0" y1="0" y2="5"/><g transform="translate(0 6)"><text class="lab">20</text></g></g><g class="tick" transform="translate(393.333 163.2)"><line x1="0" x2="0" y1="0" y2="5"/><g transform="translate(0 6)"><text class="lab">40</text></g></g><g class="tick" transform="translate(580 163.2)"><line x1="0" x2="0" y1="0" y2="5"/><g transform="translate(0 6)"><text class="lab">60</text></g></g></g></g></g><g class="plotbox trees"><g class="tree t0" transform="translate(20 0)"><g class="plotbox"><g class="c3 node n6 root" transform="translate(64 58.3333)"><g class="a6 leaf node n0 sample" transform="translate(-29.3333 63.0667)"><path class="edge e2" d="M 0 0 V -63.0667 H 29.3333"/><rect class="sym" height="6" width="6" x="-3" y="-3"/><text class="lab" transform="translate(0 11)">0</text></g><g class="a6 leaf node n1 sample" transform="translate(0.0 63.0667)"><path class="edge e3" d="M 0 0 V -63.0667 H 0.0"/><rect class="sym" height="6" width="6" x="-3" y="-3"/><text class="lab" transform="translate(0 11)">1</text></g><g class="a6 leaf node n2 sample" transform="translate(29.3333 63.0667)"><path class="edge e4" d="M 0 0 V -63.0667 H -29.3333"/><rect class="sym" height="6" width="6" x="-3" y="-3"/><text class="lab" transform="translate(0 11)">2</text></g><circle class="sym" cx="0" cy="0" r="3"/><text class="lab" transform="translate(0 -11)">6</text></g><g class="c1 node n7 root" transform="translate(137.333 26.8)"><g class="a7 c2 node n5" transform="translate(0.0 63.0667)"><g class="a5 leaf node n3 sample" transform="translate(-14.6667 31.5333)"><path class="edge e0" d="M 0 0 V -31.5333 H 14.6667"/><rect class="sym" height="6" width="6" x="-3" y="-3"/><text class="lab" transform="translate(0 11)">3</text></g><g class="a5 leaf node n4 sample" transform="translate(14.6667 31.5333)"><path class="edge e1" d="M 0 0 V -31.5333 H -14.6667"/><rect class="sym" height="6" width="6" x="-3" y="-3"/><text class="lab" transform="translate(0 11)">4</text></g><path class="edge e6" d="M 0 0 V -63.0667 H 0.0"/><circle class="sym" cx="0" cy="0" r="3"/><text class="lab lft" transform="translate(-3 -7)">5</text></g><circle class="sym" cx="0" cy="0" r="3"/><text class="lab" transform="translate(0 -11)">7</text></g></g></g><g class="tree t1" transform="translate(206.667 0)"><g class="plotbox"><g class="c4 node n6 root" transform="translate(86 58.3333)"><g class="a6 leaf node n0 sample" transform="translate(-51.3333 63.0667)"><path class="edge e2" d="M 0 0 V -63.0667 H 51.3333"/><rect class="sym" height="6" width="6" x="-3" y="-3"/><text class="lab" transform="translate(0 11)">0</text></g><g class="a6 leaf node n1 sample" transform="translate(-22 63.0667)"><path class="edge e3" d="M 0 0 V -63.0667 H 22"/><rect class="sym" height="6" width="6" x="-3" y="-3"/><text class="lab" transform="translate(0 11)">1</text></g><g class="a6 leaf node n2 sample" transform="translate(7.33333 63.0667)"><path class="edge e4" d="M 0 0 V -63.0667 H -7.33333"/><rect class="sym" height="6" width="6" x="-3" y="-3"/><text class="lab" transform="translate(0 11)">2</text></g><g class="a6 c2 node n5" transform="translate(51.3333 31.5333)"><g class="a5 leaf node n3 sample" transform="translate(-14.6667 31.5333)"><path class="edge e0" d="M 0 0 V -31.5333 H 14.6667"/><rect class="sym" height="6" width="6" x="-3" y="-3"/><text class="lab" transform="translate(0 11)">3</text></g><g class="a5 leaf node n4 sample" transform="translate(14.6667 31.5333)"><path class="edge e1" d="M 0 0 V -31.5333 H -14.6667"/><rect class="sym" height="6" width="6" x="-3" y="-3"/><text class="lab" transform="translate(0 11)">4</text></g><path class="edge e5" d="M 0 0 V -31.5333 H -51.3333"/><circle class="sym" cx="0" cy="0" r="3"/><text class="lab rgt" transform="translate(3 -7)">5</text></g><circle class="sym" cx="0" cy="0" r="3"/><text class="lab" transform="translate(0 -11)">6</text></g></g></g><g class="tree t2" transform="translate(393.333 0)"><g class="plotbox"><g class="c2 node n6 root" transform="translate(49.3333 58.3333)"><g class="a6 leaf node n0 sample" transform="translate(-14.6667 63.0667)"><path class="edge e2" d="M 0 0 V -63.0667 H 14.6667"/><rect class="sym" height="6" width="6" x="-3" y="-3"/><text class="lab" transform="translate(0 11)">0</text></g><g class="a6 leaf node n1 sample" transform="translate(14.6667 63.0667)"><path class="edge e3" d="M 0 0 V -63.0667 H -14.6667"/><rect class="sym" height="6" width="6" x="-3" y="-3"/><text class="lab" transform="translate(0 11)">1</text></g><circle class="sym" cx="0" cy="0" r="3"/><text class="lab" transform="translate(0 -11)">6</text></g><g class="leaf node n2 root sample" transform="translate(93.3333 121.4)"><rect class="sym" height="6" width="6" x="-3" y="-3"/><text class="lab" transform="translate(0 11)">2</text></g><g class="c1 node n7 root" transform="translate(137.333 26.8)"><g class="a7 c2 node n5" transform="translate(0.0 63.0667)"><g class="a5 leaf node n3 sample" transform="translate(-14.6667 31.5333)"><path class="edge e0" d="M 0 0 V -31.5333 H 14.6667"/><rect class="sym" height="6" width="6" x="-3" y="-3"/><text class="lab" transform="translate(0 11)">3</text></g><g class="a5 leaf node n4 sample" transform="translate(14.6667 31.5333)"><path class="edge e1" d="M 0 0 V -31.5333 H -14.6667"/><rect class="sym" height="6" width="6" x="-3" y="-3"/><text class="lab" transform="translate(0 11)">4</text></g><path class="edge e7" d="M 0 0 V -63.0667 H 0.0"/><circle class="sym" cx="0" cy="0" r="3"/><text class="lab lft" transform="translate(-3 -7)">5</text></g><circle class="sym" cx="0" cy="0" r="3"/><text class="lab" transform="translate(0 -11)">7</text></g></g></g></g></g></svg>