<svg xmlns="http://www.w3.org/2000/svg" xmlns:ev="http://www.w3.org/2001/xml-events" xmlns:xlink="http://www.w3.org/1999/xlink" baseProfile="full" height="200" version="1.1" width="200"><defs><style type="text/css"><![CDATA[.background path {fill: #808080; fill-opacity: 0}.background path:nth-child(odd) {fill-opacity: .1}.x-regions rect {fill: yellow; stroke: black; opacity: 0.5}.axes {font-size: 14px}.x-axis .tick .lab {font-weight: bold; dominant-baseline: hanging}.axes, .tree {font-size: 14px; text-anchor: middle}.axes line, .edge {stroke: black; fill: none}.axes .ax-skip {stroke-dasharray: 4}.y-axis .grid {stroke: #FAFAFA}.node > .sym {fill: black; stroke: none}.site > .sym {stroke: black}.mut text {fill: red; font-style: italic}.mut.extra text {fill: hotpink}.mut line {fill: none; stroke: none}.mut .sym {fill: none; stroke: red}.mut.extra .sym {stroke: hotpink}.node .mut .sym {stroke-width: 1.5px}.tree text, .tree-sequence text {dominant-baseline: central}.plotbox .lab.lft {text-anchor: end}.plotbox .lab.rgt {text-anchor: start}.polytomy line {stroke: black; stroke-dasharray: 1px, 1px}.polytomy text {paint-order:stroke;stroke-width:0.3em;stroke:white}]]></style></defs><g class="tree t0"><g class="plotbox"><g class="c3 node n14 root" transform="translate(94 26.8)"><g class="a14 c3 node n10" transform="translate(-50 94.2667)"><g class="a10 leaf node n0 sample" transform="translate(-16 47.1333)"><path class="edge e0" d="M 0 0 V -47.1333 H 16"/><rect class="sym" height="6" width="6" x="-3" y="-3"/><text class="lab" transform="translate(0 11)">0</text></g><g class="a10 leaf node n1 sample" transform="translate(0.0 47.1333)"><path class="edge e1" d="M 0 0 V -47.1333 H 0.0"/><rect class="sym" height="6" width="6" x="-3" y="-3"/><text class="lab" transform="translate(0 11)">1</text></g><g class="a10 leaf node n2 sample" transform="translate(16 47.1333)"><path class="edge e2" d="M 0 0 V -47.1333 H -16"/><rect class="sym" height="6" width="6" x="-3" y="-3"/><text class="lab" transform="translate(0 11)">2</text></g><path class="edge e11" d="M 0 0 V -94.2667 H 50"/><circle class="sym" cx="0" cy="0" r="3"/><text class="lab lft" transform="translate(-3 -7)">10</text></g><g class="a14 c3 node n11" transform="translate(-2 94.2667)"><g class="a11 leaf node n3 sample" transform="translate(-16 47.1333)"><path class="edge e3" d="M 0 0 V -47.1333 H 16"/><rect class="sym" height="6" width="6" x="-3" y="-3"/><text class="lab" transform="translate(0 11)">3</text></g><g class="a11 leaf node n4 sample" transform="translate(0.0 47.1333)"><path class="edge e4" d="M 0 0 V -47.1333 H 0.0"/><rect class="sym" height="6" width="6" x="-3" y="-3"/><text class="lab" transform="translate(0 11)">4</text></g><g class="a11 leaf node n5 sample" transform="translate(16 47.1333)"><path class="edge e5" d="M 0 0 V -47.1333 H -16"/><rect class="sym" height="6" width="6" x="-3" y="-3"/><text class="lab" transform="translate(0 11)">5</text></g><path class="edge e12" d="M 0 0 V -94.2667 H 2"/><circle class="sym" cx="0" cy="0" r="3"/><text class="lab rgt" transform="translate(3 -7)">11</text></g><g class="a14 c3 node n13" transform="translate(50 47.1333)"><g class="a13 leaf node n6 sample" transform="translate(-20 94.2667)"><path class="edge e8" d="M 0 0 V -94.2667 H 20"/><rect class="sym" height="6" width="6" x="-3" y="-3"/><text class="lab" transform="translate(0 11)">6</text></g><g class="a13 leaf node n7 sample" transform="translate(-4 94.2667)"><path class="edge e9" d="M 0 0 V -94.2667 H 4"/><rect class="sym" height="6" width="6" x="-3" y="-3"/><text class="lab" transform="translate(0 11)">7</text></g><g class="a13 c2 node n12" transform="translate(20 47.1333)"><g class="a12 leaf node n8 sample" transform="translate(-8 47.1333)"><path class="edge e6" d="M 0 0 V -47.1333 H 8"/><rect class="sym" height="6" width="6" x="-3" y="-3"/><text class="lab" transform="translate(0 11)">8</text></g><g class="a12 leaf node n9 sample" transform="translate(8 47.1333)"><path class="edge e7" d="M 0 0 V -47.1333 H -8"/><rect class="sym" height="6" width="6" x="-3" y="-3"/><text class="lab" transform="translate(0 11)">9</text></g><path class="edge e10" d="M 0 0 V -47.1333 H -20"/><circle class="sym" cx="0" cy="0" r="3"/><text class="lab rgt" transform="translate(3 -7)">12</text></g><path class="edge e13" d="M 0 0 V -47.1333 H -50"/><circle class="sym" cx="0" cy="0" r="3"/><text class="lab rgt" transform="translate(3 -7)">13</text></g><circle class="sym" cx="0" cy="0" r="3"/><text class="lab" transform="translate(0 -11)">14</text></g></g></g></svg>