<?xml version="1.0" encoding="UTF-8" standalone="no"?>
<svg
   xmlns:dc="http://purl.org/dc/elements/1.1/"
   xmlns:cc="http://creativecommons.org/ns#"
   xmlns:rdf="http://www.w3.org/1999/02/22-rdf-syntax-ns#"
   xmlns:svg="http://www.w3.org/2000/svg"
   xmlns="http://www.w3.org/2000/svg"
   xmlns:sodipodi="http://sodipodi.sourceforge.net/DTD/sodipodi-0.dtd"
   xmlns:inkscape="http://www.inkscape.org/namespaces/inkscape"
   version="1.0"
   width="1200.000000pt"
   height="1280.000000pt"
   viewBox="0 0 1200.000000 1280.000000"
   preserveAspectRatio="xMidYMid meet"
   id="svg14"
   sodipodi:docname="gears.svg"
   inkscape:version="0.92.5 (2060ec1f9f, 2020-04-08)">
  <defs
     id="defs18" />
  <sodipodi:namedview
     pagecolor="#ffffff"
     bordercolor="#666666"
     borderopacity="1"
     objecttolerance="10"
     gridtolerance="10"
     guidetolerance="10"
     inkscape:pageopacity="0"
     inkscape:pageshadow="2"
     inkscape:window-width="1920"
     inkscape:window-height="1056"
     id="namedview16"
     showgrid="false"
     inkscape:zoom="0.13828125"
     inkscape:cx="792.76836"
     inkscape:cy="853.33333"
     inkscape:window-x="0"
     inkscape:window-y="0"
     inkscape:window-maximized="1"
     inkscape:current-layer="svg14" />
  <metadata
     id="metadata2">
Created by potrace 1.15, written by Peter Selinger 2001-2017
<rdf:RDF>
  <cc:Work
     rdf:about="">
    <dc:format>image/svg+xml</dc:format>
    <dc:type
       rdf:resource="http://purl.org/dc/dcmitype/StillImage" />
    <dc:title></dc:title>
  </cc:Work>
</rdf:RDF>
</metadata>
  <g
     transform="translate(0.000000,1280.000000) scale(0.100000,-0.100000)"
     fill="#000000"
     stroke="none"
     id="g12">
    <path
       d="M8500 12793 c-203 -19 -252 -24 -264 -29 -21 -8 -67 -401 -84 -718 l-7 -129 -110 -27 c-60 -15 -144 -41 -185 -58 -105 -43 -337 -154 -397 -191 -28 -17 -53 -31 -55 -31 -3 0 -151 120 -329 266 -178 146 -330 268 -336 271 -24 10 -229 -164 -382 -323 -147 -152 -315 -362 -303 -377 43 -57 207 -259 347 -427 94 -113 175 -211 179 -218 4 -8 -9 -38 -34 -78 -67 -106 -145 -271 -180 -379 -18 -55 -43 -132 -56 -172 -13 -39 -24 -78 -24 -86 0 -11 -19 -16 -72 -21 -390 -36 -765 -79 -775 -90 -31 -30 -51 -432 -34 -649 12 -151 35 -315 46 -325 4 -5 299 -34 757 -77 l77 -7 6 -41 c4 -23 15 -62 25 -87 10 -25 34 -97 54 -161 39 -121 120 -293 187 -393 22 -33 38 -65 35 -73 -3 -7 -83 -106 -179 -220 -264 -316 -348 -423 -340 -436 34 -60 195 -249 308 -363 149 -150 382 -344 393 -328 4 6 99 86 212 179 113 93 250 207 305 254 55 48 107 92 117 99 14 11 33 4 130 -51 134 -76 299 -144 459 -187 63 -17 121 -35 127 -39 8 -5 23 -109 42 -302 30 -293 57 -524 64 -545 8 -21 310 -37 569 -31 206 5 407 24 423 39 2 3 20 180 39 394 20 214 38 404 41 422 6 38 4 37 177 88 145 43 338 128 455 201 47 30 90 52 96 49 6 -2 67 -52 136 -111 232 -200 522 -426 537 -421 27 11 138 96 200 153 129 120 483 521 483 547 0 3 -114 141 -252 307 -139 165 -263 313 -275 328 l-22 27 59 114 c79 151 156 344 189 471 l26 104 185 17 c102 9 294 27 427 39 l242 23 6 26 c13 63 26 219 31 380 9 237 -17 582 -44 599 -7 4 -197 24 -424 45 -227 21 -416 40 -420 42 -4 2 -12 30 -18 62 -27 137 -115 364 -206 533 l-65 121 38 46 c21 26 139 171 264 323 124 152 229 281 233 288 8 12 -71 113 -203 260 -146 162 -481 451 -504 434 -83 -63 -382 -305 -487 -394 -75 -62 -142 -119 -151 -126 -12 -10 -54 7 -229 96 -153 76 -247 116 -325 139 -60 18 -120 32 -132 32 -25 0 -25 -3 -49 255 -17 191 -64 608 -68 612 -8 8 -126 23 -252 32 -130 10 -372 12 -454 4z m455 -2094 c217 -36 427 -151 610 -333 179 -178 289 -374 335 -601 104 -501 -99 -998 -520 -1276 -192 -127 -378 -186 -616 -196 -222 -10 -388 24 -579 117 -239 117 -419 293 -546 534 -96 183 -134 343 -133 571 1 281 77 507 244 723 212 275 500 446 795 471 111 9 329 4 410 -10z"
       id="path4"
       style="fill:#12e3a8;fill-opacity:1" />
    <path
       d="M4716 8448 c-75 -191 -162 -428 -251 -680 l-98 -278 -122 0 c-231 0 -583 -47 -788 -106 -70 -20 -129 -35 -131 -33 -1 2 -36 51 -77 109 -140 200 -570 790 -575 790 -10 0 -181 -68 -219 -88 -22 -11 -74 -36 -115 -56 -41 -19 -120 -61 -175 -94 -55 -32 -148 -87 -207 -122 -105 -62 -250 -166 -342 -245 l-46 -41 120 -259 c67 -143 171 -367 232 -498 l111 -238 -76 -77 c-196 -200 -433 -511 -513 -675 -16 -32 -32 -57 -37 -57 -4 0 -146 24 -315 54 -329 58 -773 129 -777 124 -8 -8 -103 -248 -140 -353 -51 -146 -135 -558 -170 -840 l-6 -50 508 -195 508 -195 2 -95 c4 -171 23 -381 44 -489 11 -58 27 -141 35 -183 8 -43 26 -116 39 -163 14 -47 25 -92 25 -100 0 -7 -93 -80 -207 -161 -115 -81 -313 -224 -441 -318 -208 -152 -232 -173 -227 -193 22 -88 216 -464 346 -672 74 -116 223 -330 264 -378 l30 -34 175 81 c172 81 736 339 796 365 l30 14 135 -125 c169 -158 253 -221 482 -361 138 -84 182 -116 180 -130 -1 -10 -22 -142 -47 -293 -44 -266 -116 -748 -116 -773 0 -7 15 -18 33 -26 225 -90 426 -152 715 -220 193 -46 473 -94 483 -83 18 20 261 659 355 929 l38 113 152 0 c262 0 447 26 712 102 122 34 146 38 157 27 7 -8 153 -212 325 -454 172 -242 314 -442 316 -443 3 -4 91 37 361 170 112 55 243 130 345 197 145 96 331 233 381 281 18 16 15 25 -81 241 -55 123 -159 350 -230 504 l-130 279 117 126 c160 170 305 368 405 552 25 48 50 89 54 91 4 2 95 -11 202 -29 559 -94 883 -145 894 -141 22 9 178 453 221 627 8 36 20 75 25 87 9 21 73 382 84 475 l6 47 -48 21 c-62 28 -480 186 -764 290 l-228 83 0 156 c0 179 -10 281 -41 448 -18 99 -67 314 -85 375 -4 12 44 51 188 154 217 155 695 511 703 525 7 11 -61 171 -143 334 -116 233 -266 468 -424 667 l-77 97 -133 -58 c-184 -81 -480 -217 -687 -317 l-173 -84 -134 127 c-142 134 -314 268 -429 336 -60 35 -183 116 -208 137 -4 4 11 123 33 266 112 714 131 836 128 839 -2 1 -73 29 -158 62 -180 70 -399 143 -431 143 -12 0 -47 9 -78 19 -80 28 -488 110 -546 111 -16 0 -26 -16 -49 -72z m-181 -2623 c276 -49 564 -184 772 -363 246 -212 460 -599 518 -936 22 -127 20 -347 -4 -488 -44 -255 -154 -525 -285 -698 -231 -307 -631 -548 -1020 -615 -114 -19 -334 -19 -454 0 -228 37 -486 130 -646 233 -356 230 -620 625 -702 1052 -24 127 -24 358 0 495 90 509 329 862 761 1126 114 70 293 142 430 175 193 46 439 53 630 19z"
       id="path8"
       style="fill:#046f8f;fill-opacity:1" />
  </g>
</svg>
