<svg baseProfile="full" height="200" version="1.1" width="400" xmlns="http://www.w3.org/2000/svg" xmlns:ev="http://www.w3.org/2001/xml-events" xmlns:xlink="http://www.w3.org/1999/xlink"><defs><style type="text/css"><![CDATA[.background path {fill: #808080; fill-opacity: 0}.background path:nth-child(odd) {fill-opacity: .1}.x-regions rect {fill: yellow; stroke: black; opacity: 0.5}.axes {font-size: 14px}.x-axis .tick .lab {font-weight: bold; dominant-baseline: hanging}.axes, .tree {font-size: 14px; text-anchor: middle}.axes line, .edge {stroke: black; fill: none}.axes .ax-skip {stroke-dasharray: 4}.y-axis .grid {stroke: #FAFAFA}.node > .sym {fill: black; stroke: none}.site > .sym {stroke: black}.mut text {fill: red; font-style: italic}.mut.extra text {fill: hotpink}.mut line {fill: none; stroke: none}.mut .sym {fill: none; stroke: red}.mut.extra .sym {stroke: hotpink}.node .mut .sym {stroke-width: 1.5px}.tree text, .tree-sequence text {dominant-baseline: central}.plotbox .lab.lft {text-anchor: end}.plotbox .lab.rgt {text-anchor: start}.polytomy line {stroke: black; stroke-dasharray: 1px, 1px}.polytomy text {paint-order:stroke;stroke-width:0.3em;stroke:white}.n2 > .sym,.n3 > .sym,.n4 > .sym,.n5 > .sym,.n6 > .sym,.n7 > .sym{fill: cyan}]]></style></defs><g class="tree t0"><g class="plotbox"><g class="c4 node n28 root" transform="translate(195.5 43.6)"><g class="a28 c4 node n21" transform="translate(-135 41.5333)"><g class="a21 leaf node n0 sample" transform="translate(-31.5 83.0667)"><path class="edge" d="M 0 0 V -83.0667 H 31.5" /><rect class="sym" height="6" width="6" x="-3" y="-3" /><text class="lab" transform="translate(0 11)">0</text></g><g class="a21 leaf node n1 sample" transform="translate(-13.5 83.0667)"><path class="edge" d="M 0 0 V -83.0667 H 13.5" /><rect class="sym" height="6" width="6" x="-3" y="-3" /><text class="lab" transform="translate(0 11)">1</text></g><g class="a21 leaf node n2 sample" transform="translate(4.5 83.0667)"><path class="edge" d="M 0 0 V -83.0667 H -4.5" /><rect class="sym" height="6" width="6" x="-3" y="-3" /><text class="lab" transform="translate(0 11)">2</text></g><g class="a21 c2 node n20" transform="translate(31.5 41.5333)"><g class="a20 leaf node n3 sample" transform="translate(-9 41.5333)"><path class="edge" d="M 0 0 V -41.5333 H 9" /><rect class="sym" height="6" width="6" x="-3" y="-3" /><text class="lab" transform="translate(0 11)">3</text></g><g class="a20 leaf node n4 sample" transform="translate(9 41.5333)"><path class="edge" d="M 0 0 V -41.5333 H -9" /><rect class="sym" height="6" width="6" x="-3" y="-3" /><text class="lab" transform="translate(0 11)">4</text></g><path class="edge" d="M 0 0 V -41.5333 H -31.5" /><circle class="sym" cx="0" cy="0" r="3" /><text class="lab rgt" transform="translate(3 -7)">20</text></g><path class="edge" d="M 0 0 V -41.5333 H 135" /><circle class="sym" cx="0" cy="0" r="3" /><text class="lab lft" transform="translate(-3 -7)">21</text></g><g class="a28 c4 node n23" transform="translate(-45 41.5333)"><g class="a23 leaf node n5 sample" transform="translate(-31.5 83.0667)"><path class="edge" d="M 0 0 V -83.0667 H 31.5" /><rect class="sym" height="6" width="6" x="-3" y="-3" /><text class="lab" transform="translate(0 11)">5</text></g><g class="a23 leaf node n6 sample" transform="translate(-13.5 83.0667)"><path class="edge" d="M 0 0 V -83.0667 H 13.5" /><rect class="sym" height="6" width="6" x="-3" y="-3" /><text class="lab" transform="translate(0 11)">6</text></g><g class="a23 leaf node n7 sample" transform="translate(4.5 83.0667)"><path class="edge" d="M 0 0 V -83.0667 H -4.5" /><rect class="sym" height="6" width="6" x="-3" y="-3" /><text class="lab" transform="translate(0 11)">7</text></g><g class="a23 c2 node n22" transform="translate(31.5 41.5333)"><g class="a22 leaf node n8 sample" transform="translate(-9 41.5333)"><path class="edge" d="M 0 0 V -41.5333 H 9" /><rect class="sym" height="6" width="6" x="-3" y="-3" /><text class="lab" transform="translate(0 11)">8</text></g><g class="a22 leaf node n9 sample" transform="translate(9 41.5333)"><path class="edge" d="M 0 0 V -41.5333 H -9" /><rect class="sym" height="6" width="6" x="-3" y="-3" /><text class="lab" transform="translate(0 11)">9</text></g><path class="edge" d="M 0 0 V -41.5333 H -31.5" /><circle class="sym" cx="0" cy="0" r="3" /><text class="lab rgt" transform="translate(3 -7)">22</text></g><path class="edge" d="M 0 0 V -41.5333 H 45" /><circle class="sym" cx="0" cy="0" r="3" /><text class="lab rgt" transform="translate(3 -7)">23</text></g><g class="a28 c4 node n25" transform="translate(45 41.5333)"><g class="a25 leaf node n10 sample" transform="translate(-31.5 83.0667)"><path class="edge" d="M 0 0 V -83.0667 H 31.5" /><rect class="sym" height="6" width="6" x="-3" y="-3" /><text class="lab" transform="translate(0 11)">10</text></g><g class="a25 leaf node n11 sample" transform="translate(-13.5 83.0667)"><path class="edge" d="M 0 0 V -83.0667 H 13.5" /><rect class="sym" height="6" width="6" x="-3" y="-3" /><text class="lab" transform="translate(0 11)">11</text></g><g class="a25 leaf node n12 sample" transform="translate(4.5 83.0667)"><path class="edge" d="M 0 0 V -83.0667 H -4.5" /><rect class="sym" height="6" width="6" x="-3" y="-3" /><text class="lab" transform="translate(0 11)">12</text></g><g class="a25 c2 node n24" transform="translate(31.5 41.5333)"><g class="a24 leaf node n13 sample" transform="translate(-9 41.5333)"><path class="edge" d="M 0 0 V -41.5333 H 9" /><rect class="sym" height="6" width="6" x="-3" y="-3" /><text class="lab" transform="translate(0 11)">13</text></g><g class="a24 leaf node n14 sample" transform="translate(9 41.5333)"><path class="edge" d="M 0 0 V -41.5333 H -9" /><rect class="sym" height="6" width="6" x="-3" y="-3" /><text class="lab" transform="translate(0 11)">14</text></g><path class="edge" d="M 0 0 V -41.5333 H -31.5" /><circle class="sym" cx="0" cy="0" r="3" /><text class="lab rgt" transform="translate(3 -7)">24</text></g><path class="edge" d="M 0 0 V -41.5333 H -45" /><circle class="sym" cx="0" cy="0" r="3" /><text class="lab rgt" transform="translate(3 -7)">25</text></g><g class="a28 c4 node n27" transform="translate(135 41.5333)"><g class="a27 leaf node n15 sample" transform="translate(-31.5 83.0667)"><path class="edge" d="M 0 0 V -83.0667 H 31.5" /><rect class="sym" height="6" width="6" x="-3" y="-3" /><text class="lab" transform="translate(0 11)">15</text></g><g class="a27 leaf node n16 sample" transform="translate(-13.5 83.0667)"><path class="edge" d="M 0 0 V -83.0667 H 13.5" /><rect class="sym" height="6" width="6" x="-3" y="-3" /><text class="lab" transform="translate(0 11)">16</text></g><g class="a27 leaf node n17 sample" transform="translate(4.5 83.0667)"><path class="edge" d="M 0 0 V -83.0667 H -4.5" /><rect class="sym" height="6" width="6" x="-3" y="-3" /><text class="lab" transform="translate(0 11)">17</text></g><g class="a27 c2 node n26" transform="translate(31.5 41.5333)"><g class="a26 leaf node n18 sample" transform="translate(-9 41.5333)"><path class="edge" d="M 0 0 V -41.5333 H 9" /><rect class="sym" height="6" width="6" x="-3" y="-3" /><text class="lab" transform="translate(0 11)">18</text></g><g class="a26 leaf node n19 sample" transform="translate(9 41.5333)"><path class="edge" d="M 0 0 V -41.5333 H -9" /><rect class="sym" height="6" width="6" x="-3" y="-3" /><text class="lab" transform="translate(0 11)">19</text></g><path class="edge" d="M 0 0 V -41.5333 H -31.5" /><circle class="sym" cx="0" cy="0" r="3" /><text class="lab rgt" transform="translate(3 -7)">26</text></g><path class="edge" d="M 0 0 V -41.5333 H -135" /><circle class="sym" cx="0" cy="0" r="3" /><text class="lab rgt" transform="translate(3 -7)">27</text></g><circle class="sym" cx="0" cy="0" r="3" /><text class="lab" transform="translate(0 -11)">28</text></g></g></g><g class="title" transform="translate(200 0)"><text dominant-baseline="hanging" text-anchor="middle">Standard plot: tracked samples in cyan</text></g></svg>