<svg baseProfile="full" height="300" version="1.1" width="800" xmlns="http://www.w3.org/2000/svg" xmlns:ev="http://www.w3.org/2001/xml-events" xmlns:xlink="http://www.w3.org/1999/xlink"><defs><style type="text/css"><![CDATA[.background path {fill: #808080; fill-opacity: 0}.background path:nth-child(odd) {fill-opacity: .1}.x-regions rect {fill: yellow; stroke: black; opacity: 0.5}.axes {font-size: 14px}.x-axis .tick .lab {font-weight: bold; dominant-baseline: hanging}.axes, .tree {font-size: 14px; text-anchor: middle}.axes line, .edge {stroke: black; fill: none}.axes .ax-skip {stroke-dasharray: 4}.y-axis .grid {stroke: #FAFAFA}.node > .sym {fill: black; stroke: none}.site > .sym {stroke: black}.mut text {fill: red; font-style: italic}.mut.extra text {fill: hotpink}.mut line {fill: none; stroke: none}.mut .sym {fill: none; stroke: red}.mut.extra .sym {stroke: hotpink}.node .mut .sym {stroke-width: 1.5px}.tree text, .tree-sequence text {dominant-baseline: central}.plotbox .lab.lft {text-anchor: end}.plotbox .lab.rgt {text-anchor: start}.polytomy line {stroke: black; stroke-dasharray: 1px, 1px}.polytomy text {paint-order:stroke;stroke-width:0.3em;stroke:white}.x-axis .tick:nth-child(2) .lab, .x-axis .tick:nth-child(4) .lab {display: none}]]></style></defs><g class="tree-sequence"><g class="background"><path d="M20,16.8 l152,0 l0,221.4 l-90.2857,25 l0,5 l-61.7143,0 l0,-5 l0,-25 l0,-221.4z" /><path d="M172,16.8 l152,0 l0,221.4 l143.429,25 l0,5 l-385.714,0 l0,-5 l90.2857,-25 l0,-221.4z" /><path d="M324,16.8 l152,0 l0,221.4 l103.429,25 l0,5 l-112,0 l0,-5 l-143.429,-25 l0,-221.4z" /><path d="M476,16.8 l152,0 l0,221.4 l71.7714,25 l0,5 l-120.343,0 l0,-5 l-103.429,-25 l0,-221.4z" /><path d="M628,16.8 l152,0 l0,221.4 l0,25 l0,5 l-80.2286,0 l0,-5 l-71.771,-25 l0,-221.4z" /></g><g class="axes"><g class="x-axis"><g class="title" transform="translate(400 300)"><text class="lab" text-anchor="middle" transform="translate(0 -11)">Genome position</text></g><g class="x-regions"><g class="r0"><rect class="r{i}" height="16.8" width="277.7142857142858" x="50.85714285714286" y="263.2" /><g transform="translate(189.714 271.6)"><text class="lab" text-anchor="middle">Gene 1</text></g></g><g class="r1"><rect class="r{i}" height="16.8" width="79.60216998191686" x="546.1121157323689" y="263.2" /><g transform="translate(585.913 271.6)"><text class="lab" text-anchor="middle">Gene 2</text></g></g></g><line class="ax-line" x1="20" x2="467.429" y1="263.2" y2="263.2" /><line class="ax-skip" x1="467.429" x2="579.429" y1="263.2" y2="263.2" /><line class="ax-line" x1="579.429" x2="780" y1="263.2" y2="263.2" /><g class="ticks"><g class="tick" transform="translate(20 263.2)"><line x1="0" x2="0" y1="0" y2="5" /><g transform="translate(0 6)"><text class="lab">0</text></g></g><g class="tick" transform="translate(81.7143 263.2)"><line x1="0" x2="0" y1="0" y2="5" /><g transform="translate(0 6)"><text class="lab">20</text></g></g><g class="tick" transform="translate(467.429 263.2)"><line x1="0" x2="0" y1="0" y2="5" /><g transform="translate(0 6)"><text class="lab">145</text></g></g><g class="tick" transform="translate(579.429 263.2)"><line x1="0" x2="0" y1="0" y2="5" /><g transform="translate(0 6)"><text class="lab">935</text></g></g><g class="tick" transform="translate(699.771 263.2)"><line x1="0" x2="0" y1="0" y2="5" /><g transform="translate(0 6)"><text class="lab">974</text></g></g><g class="tick" transform="translate(780 263.2)"><line x1="0" x2="0" y1="0" y2="5" /><g transform="translate(0 6)"><text class="lab">1000</text></g></g></g></g></g><g class="plotbox trees"><g class="tree t0" transform="translate(20 16.8)"><g class="plotbox"><g class="c2 node n16 p0 root" transform="translate(65.5 98.54)"><g class="a16 i0 leaf node n0 p0 sample" transform="translate(-31.5 106.06)"><path class="edge" d="M 0 0 V -106.06 H 31.5" /><rect class="sym" height="6" width="6" x="-3" y="-3"><title>This is sample node 0</title></rect><text class="lab" transform="translate(0 11)">0</text></g><g class="a16 c2 node n10 p0" transform="translate(31.5 82.2599)"><g class="a10 i1 leaf node n3 p0 sample" transform="translate(21 23.8001)"><path class="edge" d="M 0 0 V -23.8001 H -21" /><rect class="sym" height="6" width="6" x="-3" y="-3"><title>This is sample node 3</title></rect><text class="lab" transform="translate(0 11)">3</text></g><g class="a10 c2 node n4 p0" transform="translate(-21 20.2146)"><g class="a4 i0 leaf node n1 p0 sample" transform="translate(-14 3.58545)"><path class="edge" d="M 0 0 V -3.58545 H 14" /><rect class="sym" height="6" width="6" x="-3" y="-3"><title>This is sample node 1</title></rect><text class="lab" transform="translate(0 11)">1</text></g><g class="a4 i1 leaf node n2 p0 sample" transform="translate(14 3.58545)"><path class="edge" d="M 0 0 V -3.58545 H -14" /><rect class="sym" height="6" width="6" x="-3" y="-3"><title>This is sample node 2</title></rect><text class="lab" transform="translate(0 11)">2</text></g><path class="edge" d="M 0 0 V -20.2146 H 21" /><circle class="sym" cx="0" cy="0" r="3" /><text class="lab lft" transform="translate(-3 -7)">4</text></g><path class="edge" d="M 0 0 V -82.2599 H -31.5" /><circle class="sym" cx="0" cy="0" r="3" /><text class="lab rgt" transform="translate(3 -7)">10</text></g><circle class="sym" cx="0" cy="0" r="3" /><text class="lab" transform="translate(0 -11)">16</text></g></g></g><g class="tree t1" transform="translate(172 16.8)"><g class="plotbox"><g class="c2 node n11 p0 root" transform="translate(65.5 170.588)"><g class="a11 i0 leaf node n0 p0 sample" transform="translate(-31.5 34.0118)"><path class="edge" d="M 0 0 V -34.0118 H 31.5" /><rect class="sym" height="6" width="6" x="-3" y="-3"><title>This is sample node 0</title></rect><text class="lab" transform="translate(0 11)">0</text></g><g class="a11 c2 node n10 p0" transform="translate(31.5 10.2117)"><g class="a10 i1 leaf node n3 p0 sample" transform="translate(21 23.8001)"><path class="edge" d="M 0 0 V -23.8001 H -21" /><rect class="sym" height="6" width="6" x="-3" y="-3"><title>This is sample node 3</title></rect><text class="lab" transform="translate(0 11)">3</text></g><g class="a10 c2 node n4 p0" transform="translate(-21 20.2146)"><g class="a4 i0 leaf node n1 p0 sample" transform="translate(-14 3.58545)"><path class="edge" d="M 0 0 V -3.58545 H 14" /><rect class="sym" height="6" width="6" x="-3" y="-3"><title>This is sample node 1</title></rect><text class="lab" transform="translate(0 11)">1</text></g><g class="a4 i1 leaf node n2 p0 sample" transform="translate(14 3.58545)"><path class="edge" d="M 0 0 V -3.58545 H -14" /><rect class="sym" height="6" width="6" x="-3" y="-3"><title>This is sample node 2</title></rect><text class="lab" transform="translate(0 11)">2</text></g><path class="edge" d="M 0 0 V -20.2146 H 21" /><circle class="sym" cx="0" cy="0" r="3" /><text class="lab lft" transform="translate(-3 -7)">4</text></g><path class="edge" d="M 0 0 V -10.2117 H -31.5" /><circle class="sym" cx="0" cy="0" r="3" /><text class="lab rgt" transform="translate(3 -7)">10</text></g><circle class="sym" cx="0" cy="0" r="3" /><text class="lab" transform="translate(0 -11)">11</text></g></g></g><g class="skipped" transform="translate(324 16.8)"><g class="plotbox"><g transform="translate(76 109.8)"><text text-anchor="middle">12 trees</text></g><g transform="translate(76 126.6)"><text text-anchor="middle">skipped</text></g></g></g><g class="tree t14" transform="translate(476 16.8)"><g class="plotbox"><g class="c2 node n15 p0 root" transform="translate(76 105.554)"><g class="a15 c2 node n8 p0" transform="translate(-28 80.2764)"><g class="a8 i1 leaf node n3 p0 sample" transform="translate(14 18.7693)"><path class="edge" d="M 0 0 V -18.7693 H -14" /><rect class="sym" height="6" width="6" x="-3" y="-3"><title>This is sample node 3</title></rect><text class="lab" transform="translate(0 11)">3</text></g><g class="a8 i0 leaf node n0 p0 sample" transform="translate(-14 18.7693)"><path class="edge" d="M 0 0 V -18.7693 H 14" /><rect class="sym" height="6" width="6" x="-3" y="-3"><title>This is sample node 0</title></rect><text class="lab" transform="translate(0 11)">0</text></g><path class="edge" d="M 0 0 V -80.2764 H 28" /><circle class="sym" cx="0" cy="0" r="3" /><text class="lab lft" transform="translate(-3 -7)">8</text></g><g class="a15 c2 node n12 p0" transform="translate(28 58.4976)"><g class="a12 i0 leaf node n1 p0 sample" transform="translate(-14 40.548)"><path class="edge" d="M 0 0 V -40.548 H 14" /><rect class="sym" height="6" width="6" x="-3" y="-3"><title>This is sample node 1</title></rect><text class="lab" transform="translate(0 11)">1</text></g><g class="a12 i1 leaf node n2 p0 sample" transform="translate(14 40.548)"><path class="edge" d="M 0 0 V -40.548 H -14" /><rect class="sym" height="6" width="6" x="-3" y="-3"><title>This is sample node 2</title></rect><text class="lab" transform="translate(0 11)">2</text></g><path class="edge" d="M 0 0 V -58.4976 H -28" /><circle class="sym" cx="0" cy="0" r="3" /><text class="lab rgt" transform="translate(3 -7)">12</text></g><circle class="sym" cx="0" cy="0" r="3" /><text class="lab" transform="translate(0 -11)">15</text></g></g></g><g class="tree t15" transform="translate(628 16.8)"><g class="plotbox"><g class="c2 node n15 p0 root" transform="translate(93.5 105.554)"><g class="a15 c2 node n12 p0" transform="translate(-24.5 58.4976)"><g class="a12 i0 leaf node n1 p0 sample" transform="translate(21 40.548)"><path class="edge" d="M 0 0 V -40.548 H -21" /><rect class="sym" height="6" width="6" x="-3" y="-3"><title>This is sample node 1</title></rect><text class="lab" transform="translate(0 11)">1</text></g><g class="a12 c2 node n6 p0" transform="translate(-21 27.5614)"><g class="a6 i0 leaf node n0 p0 sample" transform="translate(-14 12.9866)"><path class="edge" d="M 0 0 V -12.9866 H 14" /><rect class="sym" height="6" width="6" x="-3" y="-3"><title>This is sample node 0</title></rect><text class="lab" transform="translate(0 11)">0</text></g><g class="a6 i1 leaf node n2 p0 sample" transform="translate(14 12.9866)"><path class="edge" d="M 0 0 V -12.9866 H -14" /><rect class="sym" height="6" width="6" x="-3" y="-3"><title>This is sample node 2</title></rect><text class="lab" transform="translate(0 11)">2</text></g><path class="edge" d="M 0 0 V -27.5614 H 21" /><circle class="sym" cx="0" cy="0" r="3" /><text class="lab lft" transform="translate(-3 -7)">6</text></g><path class="edge" d="M 0 0 V -58.4976 H 24.5" /><circle class="sym" cx="0" cy="0" r="3" /><text class="lab lft" transform="translate(-3 -7)">12</text></g><g class="a15 i1 leaf node n3 p0 sample" transform="translate(24.5 99.0457)"><path class="edge" d="M 0 0 V -99.0457 H -24.5" /><rect class="sym" height="6" width="6" x="-3" y="-3"><title>This is sample node 3</title></rect><text class="lab" transform="translate(0 11)">3</text></g><circle class="sym" cx="0" cy="0" r="3" /><text class="lab" transform="translate(0 -11)">15</text></g></g></g></g></g><g class="title" transform="translate(400 0)"><text dominant-baseline="hanging" text-anchor="middle">SVG tree sequence plots can now have titles!</text></g></svg>