<svg baseProfile="full" height="300" version="1.1" width="600" xmlns="http://www.w3.org/2000/svg" xmlns:ev="http://www.w3.org/2001/xml-events" xmlns:xlink="http://www.w3.org/1999/xlink"><g transform="translate(40, 30)" class="leaf i0"><rect width="6" height="6" class="sym" /><text x="10" y="7">Ind 0</text></g><g transform="translate(40, 48)" class="leaf i1"><rect width="6" height="6" class="sym" /><text x="10" y="7">Ind 1</text></g><g transform="translate(40, 66)" class="leaf i2"><rect width="6" height="6" class="sym" /><text x="10" y="7">Ind 2</text></g><g transform="translate(40, 84)" class="leaf i3"><rect width="6" height="6" class="sym" /><text x="10" y="7">Ind 3</text></g><defs><style type="text/css"><![CDATA[.background path {fill: #808080; fill-opacity: 0}.background path:nth-child(odd) {fill-opacity: .1}.x-regions rect {fill: yellow; stroke: black; opacity: 0.5}.axes {font-size: 14px}.x-axis .tick .lab {font-weight: bold; dominant-baseline: hanging}.axes, .tree {font-size: 14px; text-anchor: middle}.axes line, .edge {stroke: black; fill: none}.axes .ax-skip {stroke-dasharray: 4}.y-axis .grid {stroke: #FAFAFA}.node > .sym {fill: black; stroke: none}.site > .sym {stroke: black}.mut text {fill: red; font-style: italic}.mut.extra text {fill: hotpink}.mut line {fill: none; stroke: none}.mut .sym {fill: none; stroke: red}.mut.extra .sym {stroke: hotpink}.node .mut .sym {stroke-width: 1.5px}.tree text, .tree-sequence text {dominant-baseline: central}.plotbox .lab.lft {text-anchor: end}.plotbox .lab.rgt {text-anchor: start}.polytomy line {stroke: black; stroke-dasharray: 1px, 1px}.polytomy text {paint-order:stroke;stroke-width:0.3em;stroke:white}.leaf.i0 .sym {fill: red}.leaf.i1 .sym {fill: green}.leaf.i2 .sym {fill: blue}.leaf.i3 .sym {fill: magenta}]]></style></defs><g class="tree-sequence"><g class="background"><path d="M20,16.8 l560,0 l0,221.4 l0,25 l0,5 l-560,0 l0,-5 l0,-25 l0,-221.4z"/></g><g class="axes"><g class="x-axis"><g class="title" transform="translate(300 300)"><text class="lab" text-anchor="middle" transform="translate(0 -11)">Genome position</text></g><line class="ax-line" x1="20" x2="580" y1="263.2" y2="263.2"/><g class="ticks"><g class="tick" transform="translate(20 263.2)"><line x1="0" x2="0" y1="0" y2="5"/><g transform="translate(0 6)"><text class="lab">0</text></g></g><g class="tick" transform="translate(580 263.2)"><line x1="0" x2="0" y1="0" y2="5"/><g transform="translate(0 6)"><text class="lab">5</text></g></g></g><g class="site s0" transform="translate(20 263.2)"><line class="sym" x1="0" x2="0" y1="0" y2="-10"/><g class="mut m0"><polyline class="sym" points="2.5,-6.5 0,-1.5 -2.5,-6.5"/></g></g><g class="site s1" transform="translate(132 263.2)"><line class="sym" x1="0" x2="0" y1="0" y2="-10"/><g class="mut m1"><polyline class="sym" points="2.5,-6.5 0,-1.5 -2.5,-6.5"/></g></g><g class="site s2" transform="translate(244 263.2)"><line class="sym" x1="0" x2="0" y1="0" y2="-10"/><g class="mut m3"><polyline class="sym" points="2.5,-6.5 0,-1.5 -2.5,-6.5"/></g><g class="mut m2"><polyline class="sym" points="2.5,-10.5 0,-5.5 -2.5,-10.5"/></g></g><g class="site s3" transform="translate(356 263.2)"><line class="sym" x1="0" x2="0" y1="0" y2="-10"/><g class="mut m4"><polyline class="sym" points="2.5,-6.5 0,-1.5 -2.5,-6.5"/></g></g></g></g><g class="plotbox trees"><g class="tree t0" transform="translate(20 16.8)"><g class="plotbox"><g class="c2 node n14 p0 root" transform="translate(332.812 26.8)"><g class="a14 c2 m0 m2 node n12 p0 s0 s2" transform="translate(125.938 85.5295)"><g class="a12 i3 leaf m3 node n6 p0 s2 sample" transform="translate(48.75 92.2705)"><path class="edge e8" d="M 0 0 V -92.2705 H -48.75"/><g class="mut m3 s2" transform="translate(0 -71.9735)"><line x1="0" x2="0" y1="0" y2="71.9735"/><path class="sym" d="M -3,-3 l 6,6 M -3,3 l 6,-6"/><text class="lab rgt" transform="translate(5 0)">A2C</text></g><rect class="sym" height="6" width="6" x="-3" y="-3"/><text class="lab" transform="translate(0 11)">6</text></g><g class="a12 c2 m4 node n10 p0 s3" transform="translate(-48.75 78.936)"><g class="a10 i1 leaf node n3 p0 sample" transform="translate(-32.5 13.3345)"><path class="edge e4" d="M 0 0 V -13.3345 H 32.5"/><rect class="sym" height="6" width="6" x="-3" y="-3"/><text class="lab" transform="translate(0 11)">3</text></g><g class="a10 i2 leaf node n4 p0 sample" transform="translate(32.5 13.3345)"><path class="edge e5" d="M 0 0 V -13.3345 H -32.5"/><rect class="sym" height="6" width="6" x="-3" y="-3"/><text class="lab" transform="translate(0 11)">4</text></g><path class="edge e9" d="M 0 0 V -78.936 H 48.75"/><g class="mut m4 s3" transform="translate(0 -45.7588)"><line x1="0" x2="0" y1="0" y2="45.7588"/><path class="sym" d="M -3,-3 l 6,6 M -3,3 l 6,-6"/><text class="lab lft" transform="translate(-5 0)">G3T</text></g><circle class="sym" cx="0" cy="0" r="3"/><text class="lab lft" transform="translate(-3 -7)">10</text></g><path class="edge e12" d="M 0 0 V -85.5295 H -125.938"/><g class="mut m0 s0" transform="translate(0 -59.4221)"><line x1="0" x2="0" y1="0" y2="59.4221"/><path class="sym" d="M -3,-3 l 6,6 M -3,3 l 6,-6"/><text class="lab rgt" transform="translate(5 0)">G0T</text></g><g class="mut m2 s2" transform="translate(0 -20.9341)"><line x1="0" x2="0" y1="0" y2="20.9341"/><path class="sym" d="M -3,-3 l 6,6 M -3,3 l 6,-6"/><text class="lab rgt" transform="translate(5 0)">C2A</text></g><circle class="sym" cx="0" cy="0" r="3"/><text class="lab rgt" transform="translate(3 -7)">12</text></g><g class="a14 c2 node n13 p0" transform="translate(-125.938 54.1178)"><g class="a13 c2 m1 node n8 p0 s1" transform="translate(73.125 119.053)"><g class="a8 i1 leaf node n2 p0 sample" transform="translate(-32.5 4.62941)"><path class="edge e0" d="M 0 0 V -4.62941 H 32.5"/><rect class="sym" height="6" width="6" x="-3" y="-3"/><text class="lab" transform="translate(0 11)">2</text></g><g class="a8 i2 leaf node n5 p0 sample" transform="translate(32.5 4.62941)"><path class="edge e1" d="M 0 0 V -4.62941 H -32.5"/><rect class="sym" height="6" width="6" x="-3" y="-3"/><text class="lab" transform="translate(0 11)">5</text></g><path class="edge e10" d="M 0 0 V -119.053 H -73.125"/><g class="mut m1 s1" transform="translate(0 -47.7423)"><line x1="0" x2="0" y1="0" y2="47.7423"/><path class="sym" d="M -3,-3 l 6,6 M -3,3 l 6,-6"/><text class="lab rgt" transform="translate(5 0)">G1A</text></g><circle class="sym" cx="0" cy="0" r="3"/><text class="lab rgt" transform="translate(3 -7)">8</text></g><g class="a13 c2 node n11 p0" transform="translate(-73.125 103.003)"><g class="a11 i3 leaf node n7 p0 sample" transform="translate(48.75 20.6789)"><path class="edge e6" d="M 0 0 V -20.6789 H -48.75"/><rect class="sym" height="6" width="6" x="-3" y="-3"/><text class="lab" transform="translate(0 11)">7</text></g><g class="a11 c2 node n9 p0" transform="translate(-48.75 13.1532)"><g class="a9 i0 leaf node n0 p0 sample" transform="translate(-32.5 7.5257)"><path class="edge e2" d="M 0 0 V -7.5257 H 32.5"/><rect class="sym" height="6" width="6" x="-3" y="-3"/><text class="lab" transform="translate(0 11)">0</text></g><g class="a9 i0 leaf node n1 p0 sample" transform="translate(32.5 7.5257)"><path class="edge e3" d="M 0 0 V -7.5257 H -32.5"/><rect class="sym" height="6" width="6" x="-3" y="-3"/><text class="lab" transform="translate(0 11)">1</text></g><path class="edge e7" d="M 0 0 V -13.1532 H 48.75"/><circle class="sym" cx="0" cy="0" r="3"/><text class="lab lft" transform="translate(-3 -7)">9</text></g><path class="edge e11" d="M 0 0 V -103.003 H 73.125"/><circle class="sym" cx="0" cy="0" r="3"/><text class="lab lft" transform="translate(-3 -7)">11</text></g><path class="edge e13" d="M 0 0 V -54.1178 H 125.938"/><circle class="sym" cx="0" cy="0" r="3"/><text class="lab lft" transform="translate(-3 -7)">13</text></g><circle class="sym" cx="0" cy="0" r="3"/><text class="lab" transform="translate(0 -11)">14</text></g></g></g></g></g><g class="title" transform="translate(300 0)"><text dominant-baseline="hanging" text-anchor="middle">Demo of inherited states, individual nodes, and a legend</text></g></svg>