<svg baseProfile="full" height="200" version="1.1" width="500" xmlns="http://www.w3.org/2000/svg" xmlns:ev="http://www.w3.org/2001/xml-events" xmlns:xlink="http://www.w3.org/1999/xlink"><defs><style type="text/css"><![CDATA[.background path {fill: #808080; fill-opacity: 0}.background path:nth-child(odd) {fill-opacity: .1}.axes {font-size: 14px}.x-axis .tick .lab {font-weight: bold; dominant-baseline: hanging}.axes, .tree {font-size: 14px; text-anchor: middle}.axes line, .edge {stroke: black; fill: none}.axes .ax-skip {stroke-dasharray: 4}.y-axis .grid {stroke: #FAFAFA}.node > .sym {fill: black; stroke: none}.site > .sym {stroke: black}.mut text {fill: red; font-style: italic}.mut.extra text {fill: hotpink}.mut line {fill: none; stroke: none}.mut .sym {fill: none; stroke: red}.mut.extra .sym {stroke: hotpink}.node .mut .sym {stroke-width: 1.5px}.tree text, .tree-sequence text {dominant-baseline: central}.plotbox .lab.lft {text-anchor: end}.plotbox .lab.rgt {text-anchor: start}]]></style></defs><g class="tree-sequence"><g class="background"><path d="M56.8,0 l105.8,0 l0,138.2 l-52.9,25 l0,5 l-52.9,0 l0,-5 l0,-25 l0,-138.2z" /><path d="M162.6,0 l105.8,0 l0,138.2 l-52.9,25 l0,5 l-105.8,0 l0,-5 l52.9,-25 l0,-138.2z" /><path d="M268.4,0 l105.8,0 l0,138.2 l0,25 l0,5 l-158.7,0 l0,-5 l52.9,-25 l0,-138.2z" /><path d="M374.2,0 l105.8,0 l0,138.2 l0,25 l0,5 l-105.8,0 l0,-5 l0,-25 l0,-138.2z" /></g><g class="axes"><g class="x-axis"><g class="title" transform="translate(268.4 200)"><text class="lab" text-anchor="middle" transform="translate(0 -11)">Genome position</text></g><line class="ax-line" x1="56.8" x2="480" y1="163.2" y2="163.2" /><g class="ticks"><g class="tick" transform="translate(56.8 163.2)"><line x1="0" x2="0" y1="0" y2="5" /><g transform="translate(0 6)"><text class="lab">0</text></g></g><g class="tick" transform="translate(109.7 163.2)"><line x1="0" x2="0" y1="0" y2="5" /><g transform="translate(0 6)"><text class="lab">1</text></g></g><g class="tick" transform="translate(215.5 163.2)"><line x1="0" x2="0" y1="0" y2="5" /><g transform="translate(0 6)"><text class="lab">3</text></g></g><g class="tick" transform="translate(374.2 163.2)"><line x1="0" x2="0" y1="0" y2="5" /><g transform="translate(0 6)"><text class="lab">6</text></g></g><g class="tick" transform="translate(480 163.2)"><line x1="0" x2="0" y1="0" y2="5" /><g transform="translate(0 6)"><text class="lab">8</text></g></g></g><g class="site s0" transform="translate(56.8 163.2)"><line class="sym" x1="0" x2="0" y1="0" y2="-10" /><g class="mut m0"><polyline class="sym" points="2.5,-6.5 0,-1.5 -2.5,-6.5" /></g></g><g class="site s1" transform="translate(109.7 163.2)"><line class="sym" x1="0" x2="0" y1="0" y2="-10" /><g class="mut m1"><polyline class="sym" points="2.5,-6.5 0,-1.5 -2.5,-6.5" /></g></g><g class="site s2" transform="translate(162.6 163.2)"><line class="sym" x1="0" x2="0" y1="0" y2="-10" /><g class="mut m2"><polyline class="sym" points="2.5,-6.5 0,-1.5 -2.5,-6.5" /></g></g><g class="site s3" transform="translate(215.5 163.2)"><line class="sym" x1="0" x2="0" y1="0" y2="-10" /><g class="mut m3"><polyline class="sym" points="2.5,-6.5 0,-1.5 -2.5,-6.5" /></g></g><g class="site s4" transform="translate(268.4 163.2)"><line class="sym" x1="0" x2="0" y1="0" y2="-10" /></g><g class="site s5" transform="translate(321.3 163.2)"><line class="sym" x1="0" x2="0" y1="0" y2="-10" /><g class="mut m4"><polyline class="sym" points="2.5,-6.5 0,-1.5 -2.5,-6.5" /></g></g><g class="site s6" transform="translate(374.2 163.2)"><line class="sym" x1="0" x2="0" y1="0" y2="-10" /><g class="mut m5"><polyline class="sym" points="2.5,-6.5 0,-1.5 -2.5,-6.5" /></g></g><g class="site s7" transform="translate(427.1 163.2)"><line class="sym" x1="0" x2="0" y1="0" y2="-10" /><g class="mut m6"><polyline class="sym" points="2.5,-6.5 0,-1.5 -2.5,-6.5" /></g></g></g><g class="y-axis"><g class="title" transform="translate(0 65.7)"><text class="lab" text-anchor="middle" transform="translate(11) rotate(-90)">Time (uncalibrated)</text></g><line class="ax-line" x1="56.8" x2="56.8" y1="121.4" y2="10" /><g class="ticks"><g class="tick" transform="translate(56.8 121.4)"><line x1="0" x2="-5" y1="0" y2="0" /><g transform="translate(-6 0)"><text class="lab" text-anchor="end">0.00</text></g></g><g class="tick" transform="translate(56.8 91.128)"><line x1="0" x2="-5" y1="0" y2="0" /><g transform="translate(-6 0)"><text class="lab" text-anchor="end">0.33</text></g></g><g class="tick" transform="translate(56.8 75.992)"><line x1="0" x2="-5" y1="0" y2="0" /><g transform="translate(-6 0)"><text class="lab" text-anchor="end">0.50</text></g></g><g class="tick" transform="translate(56.8 60.856)"><line x1="0" x2="-5" y1="0" y2="0" /><g transform="translate(-6 0)"><text class="lab" text-anchor="end">0.67</text></g></g><g class="tick" transform="translate(56.8 45.72)"><line x1="0" x2="-5" y1="0" y2="0" /><g transform="translate(-6 0)"><text class="lab" text-anchor="end">0.83</text></g></g><g class="tick" transform="translate(56.8 26.8)"><line x1="0" x2="-5" y1="0" y2="0" /><g transform="translate(-6 0)"><text class="lab" text-anchor="end">1.04</text></g></g></g></g></g><g class="plotbox trees"><g class="tree t0" transform="translate(56.8 0)"><g class="plotbox"><g class="c3 node n12 root" transform="translate(63.8667 26.8)"><g class="a12 i1 leaf node n3 sample" transform="translate(5.48333 94.6)"><path class="edge" d="M 0 0 V -94.6 H -5.48333" /><rect class="sym" height="6" width="6" x="-3" y="-3" /><text class="lab" transform="translate(0 11)">3</text></g><g class="a12 i2 leaf node n5 sample" transform="translate(16.45 94.6)"><path class="edge" d="M 0 0 V -94.6 H -16.45" /><rect class="sym" height="6" width="6" x="-3" y="-3" /><text class="lab" transform="translate(0 11)">5</text></g><g class="a12 c1 node n11" transform="translate(-16.45 18.92)"><g class="a11 c2 m0 node n10 s0" transform="translate(0.0 15.136)"><g class="a10 c1 node n7" transform="translate(10.9667 30.272)"><g class="a7 i2 leaf node n4 sample" transform="translate(0.0 30.272)"><path class="edge" d="M 0 0 V -30.272 H 0.0" /><rect class="sym" height="6" width="6" x="-3" y="-3" /><text class="lab" transform="translate(0 11)">4</text></g><path class="edge" d="M 0 0 V -30.272 H -10.9667" /><circle class="sym" cx="0" cy="0" r="3" /><text class="lab rgt" transform="translate(3 -7.0)" /></g><g class="a10 c3 node n8" transform="translate(-10.9667 15.136)"><g class="a8 i0 leaf node n1 sample" transform="translate(0.0 45.408)"><path class="edge" d="M 0 0 V -45.408 H 0.0" /><rect class="sym" height="6" width="6" x="-3" y="-3" /><text class="lab" transform="translate(0 11)">1</text></g><g class="a8 i1 leaf node n2 sample" transform="translate(10.9667 45.408)"><path class="edge" d="M 0 0 V -45.408 H -10.9667" /><rect class="sym" height="6" width="6" x="-3" y="-3" /><text class="lab" transform="translate(0 11)">2</text></g><g class="a8 c1 node n6" transform="translate(-10.9667 15.136)"><g class="a6 i0 leaf node n0 sample" transform="translate(0.0 30.272)"><path class="edge" d="M 0 0 V -30.272 H 0.0" /><rect class="sym" height="6" width="6" x="-3" y="-3" /><text class="lab" transform="translate(0 11)">0</text></g><path class="edge" d="M 0 0 V -15.136 H 10.9667" /><circle class="sym" cx="0" cy="0" r="3" /><text class="lab lft" transform="translate(-3 -7.0)" /></g><path class="edge" d="M 0 0 V -15.136 H 10.9667" /><circle class="sym" cx="0" cy="0" r="3" /><text class="lab lft" transform="translate(-3 -7.0)" /></g><path class="edge" d="M 0 0 V -15.136 H 0.0" /><g class="mut m0 s0 unknown_time" transform="translate(0 -7.568)"><line x1="0" x2="0" y1="0" y2="7.568" /><path class="sym" d="M -3,-3 l 6,6 M -3,3 l 6,-6" /><text class="lab lft" transform="translate(-5 0)">0: G→T</text></g><circle class="sym" cx="0" cy="0" r="3" /><text class="lab lft" transform="translate(-3 -7.0)" /></g><path class="edge" d="M 0 0 V -18.92 H 16.45" /><circle class="sym" cx="0" cy="0" r="3" /><text class="lab lft" transform="translate(-3 -7.0)" /></g><circle class="sym" cx="0" cy="0" r="3" /><text class="lab" transform="translate(0 -11)" /></g></g></g><g class="tree t1" transform="translate(162.6 0)"><g class="plotbox"><g class="c2 node n13 root" transform="translate(65.2375 26.8)"><g class="a13 i1 leaf node n3 sample" transform="translate(15.0792 94.6)"><path class="edge" d="M 0 0 V -94.6 H -15.0792" /><rect class="sym" height="6" width="6" x="-3" y="-3" /><text class="lab" transform="translate(0 11)">3</text></g><g class="a13 c1 node n11" transform="translate(-15.0792 18.92)"><g class="a11 c2 node n10" transform="translate(0.0 15.136)"><g class="a10 c2 m1 node n7 s1" transform="translate(13.7083 30.272)"><g class="a7 i2 leaf node n4 sample" transform="translate(-5.48333 30.272)"><path class="edge" d="M 0 0 V -30.272 H 5.48333" /><rect class="sym" height="6" width="6" x="-3" y="-3" /><text class="lab" transform="translate(0 11)">4</text></g><g class="a7 i2 leaf node n5 sample" transform="translate(5.48333 30.272)"><path class="edge" d="M 0 0 V -30.272 H -5.48333" /><rect class="sym" height="6" width="6" x="-3" y="-3" /><text class="lab" transform="translate(0 11)">5</text></g><path class="edge" d="M 0 0 V -30.272 H -13.7083" /><g class="mut m1 s1 unknown_time" transform="translate(0 -15.136)"><line x1="0" x2="0" y1="0" y2="15.136" /><path class="sym" d="M -3,-3 l 6,6 M -3,3 l 6,-6" /><text class="lab rgt" transform="translate(5 0)">1: G→T</text></g><circle class="sym" cx="0" cy="0" r="3" /><text class="lab rgt" transform="translate(3 -7.0)" /></g><g class="a10 c3 m2 node n8 s2" transform="translate(-13.7083 15.136)"><g class="a8 i0 leaf node n1 sample" transform="translate(0.0 45.408)"><path class="edge" d="M 0 0 V -45.408 H 0.0" /><rect class="sym" height="6" width="6" x="-3" y="-3" /><text class="lab" transform="translate(0 11)">1</text></g><g class="a8 i1 leaf node n2 sample" transform="translate(10.9667 45.408)"><path class="edge" d="M 0 0 V -45.408 H -10.9667" /><rect class="sym" height="6" width="6" x="-3" y="-3" /><text class="lab" transform="translate(0 11)">2</text></g><g class="a8 c1 node n6" transform="translate(-10.9667 15.136)"><g class="a6 i0 leaf node n0 sample" transform="translate(0.0 30.272)"><path class="edge" d="M 0 0 V -30.272 H 0.0" /><rect class="sym" height="6" width="6" x="-3" y="-3" /><text class="lab" transform="translate(0 11)">0</text></g><path class="edge" d="M 0 0 V -15.136 H 10.9667" /><circle class="sym" cx="0" cy="0" r="3" /><text class="lab lft" transform="translate(-3 -7.0)" /></g><path class="edge" d="M 0 0 V -15.136 H 13.7083" /><g class="mut m2 s2 unknown_time" transform="translate(0 -7.568)"><line x1="0" x2="0" y1="0" y2="7.568" /><path class="sym" d="M -3,-3 l 6,6 M -3,3 l 6,-6" /><text class="lab lft" transform="translate(-5 0)">2: C→G</text></g><circle class="sym" cx="0" cy="0" r="3" /><text class="lab lft" transform="translate(-3 -7.0)" /></g><path class="edge" d="M 0 0 V -15.136 H 0.0" /><circle class="sym" cx="0" cy="0" r="3" /><text class="lab lft" transform="translate(-3 -7.0)" /></g><path class="edge" d="M 0 0 V -18.92 H 15.0792" /><circle class="sym" cx="0" cy="0" r="3" /><text class="lab lft" transform="translate(-3 -7.0)" /></g><circle class="sym" cx="0" cy="0" r="3" /><text class="lab" transform="translate(0 -11)" /></g></g></g><g class="tree t2" transform="translate(268.4 0)"><g class="plotbox"><g class="c2 node n13 root" transform="translate(68.6646 26.8)"><g class="a13 i1 leaf node n3 sample" transform="translate(11.6521 94.6)"><path class="edge" d="M 0 0 V -94.6 H -11.6521" /><rect class="sym" height="6" width="6" x="-3" y="-3" /><text class="lab" transform="translate(0 11)">3</text></g><g class="a13 c1 m4 node n11 s5" transform="translate(-11.6521 18.92)"><g class="a11 c2 node n10" transform="translate(0.0 15.136)"><g class="a10 c1 node n7" transform="translate(12.3375 30.272)"><g class="a7 i2 leaf node n5 sample" transform="translate(0.0 30.272)"><path class="edge" d="M 0 0 V -30.272 H 0.0" /><rect class="sym" height="6" width="6" x="-3" y="-3" /><text class="lab" transform="translate(0 11)">5</text></g><path class="edge" d="M 0 0 V -30.272 H -12.3375" /><circle class="sym" cx="0" cy="0" r="3" /><text class="lab rgt" transform="translate(3 -7.0)" /></g><g class="a10 c3 node n8" transform="translate(-12.3375 15.136)"><g class="a8 i0 leaf node n1 sample" transform="translate(2.74167 45.408)"><path class="edge" d="M 0 0 V -45.408 H -2.74167" /><rect class="sym" height="6" width="6" x="-3" y="-3" /><text class="lab" transform="translate(0 11)">1</text></g><g class="a8 i1 leaf node n2 sample" transform="translate(13.7083 45.408)"><path class="edge" d="M 0 0 V -45.408 H -13.7083" /><rect class="sym" height="6" width="6" x="-3" y="-3" /><text class="lab" transform="translate(0 11)">2</text></g><g class="a8 c2 m3 node n6 s3" transform="translate(-13.7083 15.136)"><g class="a6 i0 leaf node n0 sample" transform="translate(-5.48333 30.272)"><path class="edge" d="M 0 0 V -30.272 H 5.48333" /><rect class="sym" height="6" width="6" x="-3" y="-3" /><text class="lab" transform="translate(0 11)">0</text></g><g class="a6 i2 leaf node n4 sample" transform="translate(5.48333 30.272)"><path class="edge" d="M 0 0 V -30.272 H -5.48333" /><rect class="sym" height="6" width="6" x="-3" y="-3" /><text class="lab" transform="translate(0 11)">4</text></g><path class="edge" d="M 0 0 V -15.136 H 13.7083" /><g class="mut m3 s3 unknown_time" transform="translate(0 -7.568)"><line x1="0" x2="0" y1="0" y2="7.568" /><path class="sym" d="M -3,-3 l 6,6 M -3,3 l 6,-6" /><text class="lab lft" transform="translate(-5 0)">3: T→A</text></g><circle class="sym" cx="0" cy="0" r="3" /><text class="lab lft" transform="translate(-3 -7.0)" /></g><path class="edge" d="M 0 0 V -15.136 H 12.3375" /><circle class="sym" cx="0" cy="0" r="3" /><text class="lab lft" transform="translate(-3 -7.0)" /></g><path class="edge" d="M 0 0 V -15.136 H 0.0" /><circle class="sym" cx="0" cy="0" r="3" /><text class="lab lft" transform="translate(-3 -7.0)" /></g><path class="edge" d="M 0 0 V -18.92 H 11.6521" /><g class="mut m4 s5 unknown_time" transform="translate(0 -9.46)"><line x1="0" x2="0" y1="0" y2="9.46" /><path class="sym" d="M -3,-3 l 6,6 M -3,3 l 6,-6" /><text class="lab lft" transform="translate(-5 0)">5: A→T</text></g><circle class="sym" cx="0" cy="0" r="3" /><text class="lab lft" transform="translate(-3 -7.0)" /></g><circle class="sym" cx="0" cy="0" r="3" /><text class="lab" transform="translate(0 -11)" /></g></g></g><g class="tree t3" transform="translate(374.2 0)"><g class="plotbox"><g class="c1 node n14 root" transform="translate(61.125 26.8)"><g class="a14 c2 node n11" transform="translate(0.0 18.92)"><g class="a11 c1 node n10" transform="translate(13.7083 15.136)"><g class="a10 c2 node n8" transform="translate(0.0 15.136)"><g class="a8 i0 leaf node n1 sample" transform="translate(-5.48333 45.408)"><path class="edge" d="M 0 0 V -45.408 H 5.48333" /><rect class="sym" height="6" width="6" x="-3" y="-3" /><text class="lab" transform="translate(0 11)">1</text></g><g class="a8 i1 leaf m6 node n2 s7 sample" transform="translate(5.48333 45.408)"><path class="edge" d="M 0 0 V -45.408 H -5.48333" /><g class="mut m6 s7 unknown_time" transform="translate(0 -22.704)"><line x1="0" x2="0" y1="0" y2="22.704" /><path class="sym" d="M -3,-3 l 6,6 M -3,3 l 6,-6" /><text class="lab rgt" transform="translate(5 0)">7: A→T</text></g><rect class="sym" height="6" width="6" x="-3" y="-3" /><text class="lab" transform="translate(0 11)">2</text></g><path class="edge" d="M 0 0 V -15.136 H 0.0" /><circle class="sym" cx="0" cy="0" r="3" /><text class="lab lft" transform="translate(-3 -7.0)" /></g><path class="edge" d="M 0 0 V -15.136 H -13.7083" /><circle class="sym" cx="0" cy="0" r="3" /><text class="lab rgt" transform="translate(3 -7.0)" /></g><g class="a11 c2 m5 node n9 s6" transform="translate(-13.7083 15.136)"><g class="a9 c3 node n6" transform="translate(-10.9667 30.272)"><g class="a6 i0 leaf node n0 sample" transform="translate(-10.9667 30.272)"><path class="edge" d="M 0 0 V -30.272 H 10.9667" /><rect class="sym" height="6" width="6" x="-3" y="-3" /><text class="lab" transform="translate(0 11)">0</text></g><g class="a6 i2 leaf node n4 sample" transform="translate(10.9667 30.272)"><path class="edge" d="M 0 0 V -30.272 H -10.9667" /><rect class="sym" height="6" width="6" x="-3" y="-3" /><text class="lab" transform="translate(0 11)">4</text></g><g class="a6 i1 leaf node n3 sample" transform="translate(0.0 30.272)"><path class="edge" d="M 0 0 V -30.272 H 0.0" /><rect class="sym" height="6" width="6" x="-3" y="-3" /><text class="lab" transform="translate(0 11)">3</text></g><path class="edge" d="M 0 0 V -30.272 H 10.9667" /><circle class="sym" cx="0" cy="0" r="3" /><text class="lab lft" transform="translate(-3 -7.0)" /></g><g class="a9 c1 node n7" transform="translate(10.9667 30.272)"><g class="a7 i2 leaf node n5 sample" transform="translate(0.0 30.272)"><path class="edge" d="M 0 0 V -30.272 H 0.0" /><rect class="sym" height="6" width="6" x="-3" y="-3" /><text class="lab" transform="translate(0 11)">5</text></g><path class="edge" d="M 0 0 V -30.272 H -10.9667" /><circle class="sym" cx="0" cy="0" r="3" /><text class="lab rgt" transform="translate(3 -7.0)" /></g><path class="edge" d="M 0 0 V -15.136 H 13.7083" /><g class="mut m5 s6 unknown_time" transform="translate(0 -7.568)"><line x1="0" x2="0" y1="0" y2="7.568" /><path class="sym" d="M -3,-3 l 6,6 M -3,3 l 6,-6" /><text class="lab lft" transform="translate(-5 0)">6: G→C</text></g><circle class="sym" cx="0" cy="0" r="3" /><text class="lab lft" transform="translate(-3 -7.0)" /></g><path class="edge" d="M 0 0 V -18.92 H 0.0" /><circle class="sym" cx="0" cy="0" r="3" /><text class="lab lft" transform="translate(-3 -7.0)" /></g><circle class="sym" cx="0" cy="0" r="3" /><text class="lab" transform="translate(0 -11)" /></g></g></g></g></g></svg>