<svg baseProfile="full" height="300" version="1.1" width="640" xmlns="http://www.w3.org/2000/svg" xmlns:ev="http://www.w3.org/2001/xml-events" xmlns:xlink="http://www.w3.org/1999/xlink"><defs><style type="text/css"><![CDATA[.background path {fill: #808080; fill-opacity: 0}.background path:nth-child(odd) {fill-opacity: .1}.x-regions rect {fill: yellow; stroke: black; opacity: 0.5}.axes {font-size: 14px}.x-axis .tick .lab {font-weight: bold; dominant-baseline: hanging}.axes, .tree {font-size: 14px; text-anchor: middle}.axes line, .edge {stroke: black; fill: none}.axes .ax-skip {stroke-dasharray: 4}.y-axis .grid {stroke: #FAFAFA}.node > .sym {fill: black; stroke: none}.site > .sym {stroke: black}.mut text {fill: red; font-style: italic}.mut.extra text {fill: hotpink}.mut line {fill: none; stroke: none}.mut .sym {fill: none; stroke: red}.mut.extra .sym {stroke: hotpink}.node .mut .sym {stroke-width: 1.5px}.tree text, .tree-sequence text {dominant-baseline: central}.plotbox .lab.lft {text-anchor: end}.plotbox .lab.rgt {text-anchor: start}.polytomy line {stroke: black; stroke-dasharray: 1px, 1px}.polytomy text {paint-order:stroke;stroke-width:0.3em;stroke:white}]]></style></defs><g class="tree-sequence"><g class="background"><path d="M56.8,0 l130.8,0 l0,238.2 l52.32,25 l0,5 l-183.12,0 l0,-5 l0,-25 l0,-238.2z"/><path d="M187.6,0 l130.8,0 l0,238.2 l-6.54,25 l0,5 l-71.94,0 l0,-5 l-52.32,-25 l0,-238.2z"/><path d="M318.4,0 l130.8,0 l0,238.2 l124.26,25 l0,5 l-261.6,0 l0,-5 l6.54,-25 l0,-238.2z"/><path d="M449.2,0 l130.8,0 l0,238.2 l0,25 l0,5 l-6.54,0 l0,-5 l-124.26,-25 l0,-238.2z"/></g><g class="axes"><g class="x-axis"><g class="title" transform="translate(318.4 300)"><text class="lab" text-anchor="middle" transform="translate(0 -11)">Genome position</text></g><line class="ax-line" x1="56.8" x2="580" y1="263.2" y2="263.2"/><g class="ticks"><g class="tick" transform="translate(56.8 263.2)"><line x1="0" x2="0" y1="0" y2="5"/><g transform="translate(0 6)"><text class="lab">16</text></g></g><g class="tick" transform="translate(239.92 263.2)"><line x1="0" x2="0" y1="0" y2="5"/><g transform="translate(0 6)"><text class="lab">44</text></g></g><g class="tick" transform="translate(311.86 263.2)"><line x1="0" x2="0" y1="0" y2="5"/><g transform="translate(0 6)"><text class="lab">55</text></g></g><g class="tick" transform="translate(573.46 263.2)"><line x1="0" x2="0" y1="0" y2="5"/><g transform="translate(0 6)"><text class="lab">95</text></g></g><g class="tick" transform="translate(580 263.2)"><line x1="0" x2="0" y1="0" y2="5"/><g transform="translate(0 6)"><text class="lab">96</text></g></g></g><g class="site s0" transform="translate(56.8 263.2)"><line class="sym" x1="0" x2="0" y1="0" y2="-10"/><g class="mut m0"><polyline class="sym" points="2.5,-6.5 0,-1.5 -2.5,-6.5"/></g></g><g class="site s1" transform="translate(239.92 263.2)"><line class="sym" x1="0" x2="0" y1="0" y2="-10"/><g class="mut m1"><polyline class="sym" points="2.5,-6.5 0,-1.5 -2.5,-6.5"/></g></g><g class="site s2" transform="translate(279.16 263.2)"><line class="sym" x1="0" x2="0" y1="0" y2="-10"/><g class="mut m2"><polyline class="sym" points="2.5,-6.5 0,-1.5 -2.5,-6.5"/></g></g><g class="site s3" transform="translate(311.86 263.2)"><line class="sym" x1="0" x2="0" y1="0" y2="-10"/><g class="mut m3"><polyline class="sym" points="2.5,-6.5 0,-1.5 -2.5,-6.5"/></g></g><g class="site s4" transform="translate(416.5 263.2)"><line class="sym" x1="0" x2="0" y1="0" y2="-10"/></g><g class="site s5" transform="translate(442.66 263.2)"><line class="sym" x1="0" x2="0" y1="0" y2="-10"/><g class="mut m4"><polyline class="sym" points="2.5,-6.5 0,-1.5 -2.5,-6.5"/></g></g><g class="site s6" transform="translate(508.06 263.2)"><line class="sym" x1="0" x2="0" y1="0" y2="-10"/><g class="mut m6"><polyline class="sym" points="2.5,-6.5 0,-1.5 -2.5,-6.5"/></g><g class="mut m5"><polyline class="sym" points="2.5,-10.5 0,-5.5 -2.5,-10.5"/></g></g><g class="site s7" transform="translate(573.46 263.2)"><line class="sym" x1="0" x2="0" y1="0" y2="-10"/><g class="mut m7"><polyline class="sym" points="2.5,-6.5 0,-1.5 -2.5,-6.5"/></g></g></g><g class="y-axis"><g class="title" transform="translate(0 115.7)"><text class="lab" text-anchor="middle" transform="translate(11) rotate(-90)">Time ago (uncalibrated)</text></g><line class="ax-line" x1="56.8" x2="56.8" y1="221.4" y2="10"/><g class="ticks"><g class="tick" transform="translate(56.8 221.4)"><line x1="0" x2="-5" y1="0" y2="0"/><g transform="translate(-6 0)"><text class="lab" text-anchor="end">0.00</text></g></g><g class="tick" transform="translate(56.8 159.128)"><line x1="0" x2="-5" y1="0" y2="0"/><g transform="translate(-6 0)"><text class="lab" text-anchor="end">0.33</text></g></g><g class="tick" transform="translate(56.8 127.992)"><line x1="0" x2="-5" y1="0" y2="0"/><g transform="translate(-6 0)"><text class="lab" text-anchor="end">0.50</text></g></g><g class="tick" transform="translate(56.8 96.856)"><line x1="0" x2="-5" y1="0" y2="0"/><g transform="translate(-6 0)"><text class="lab" text-anchor="end">0.67</text></g></g><g class="tick" transform="translate(56.8 65.72)"><line x1="0" x2="-5" y1="0" y2="0"/><g transform="translate(-6 0)"><text class="lab" text-anchor="end">0.83</text></g></g><g class="tick" transform="translate(56.8 26.8)"><line x1="0" x2="-5" y1="0" y2="0"/><g transform="translate(-6 0)"><text class="lab" text-anchor="end">1.04</text></g></g></g></g></g><g class="plotbox trees"><g class="tree t1" transform="translate(56.8 0)"><g class="plotbox"><g class="c3 node n12 root" transform="translate(80.5333 26.8)"><g class="a12 i2 leaf node n5 sample" transform="translate(22.7 194.6)"><path class="edge" d="M 0 0 V -194.6 H -22.7"/><rect class="sym" height="6" width="6" x="-3" y="-3"/><text class="lab" transform="translate(0 11)">5</text></g><g class="a12 c1 node n10" transform="translate(7.56667 38.92)"><g class="a10 i1 leaf node n3 sample" transform="translate(0.0 155.68)"><path class="edge" d="M 0 0 V -155.68 H 0.0"/><rect class="sym" height="6" width="6" x="-3" y="-3"/><text class="lab" transform="translate(0 11)">3</text></g><path class="edge" d="M 0 0 V -38.92 H -7.56667"/><circle class="sym" cx="0" cy="0" r="3"/><text class="lab rgt" transform="translate(3 -7)"/></g><g class="a12 c1 node n11" transform="translate(-22.7 38.92)"><g class="a11 c2 m0 node n9 s0" transform="translate(0.0 31.136)"><g class="a9 c1 node n7" transform="translate(15.1333 62.272)"><g class="a7 i2 leaf node n4 sample" transform="translate(0.0 62.272)"><path class="edge" d="M 0 0 V -62.272 H 0.0"/><rect class="sym" height="6" width="6" x="-3" y="-3"/><text class="lab" transform="translate(0 11)">4</text></g><path class="edge" d="M 0 0 V -62.272 H -15.1333"/><circle class="sym" cx="0" cy="0" r="3"/><text class="lab rgt" transform="translate(3 -7)"/></g><g class="a9 c3 node n8" transform="translate(-15.1333 31.136)"><g class="a8 i0 leaf node n1 sample" transform="translate(0.0 93.408)"><path class="edge" d="M 0 0 V -93.408 H 0.0"/><rect class="sym" height="6" width="6" x="-3" y="-3"/><text class="lab" transform="translate(0 11)">1</text></g><g class="a8 i1 leaf node n2 sample" transform="translate(15.1333 93.408)"><path class="edge" d="M 0 0 V -93.408 H -15.1333"/><rect class="sym" height="6" width="6" x="-3" y="-3"/><text class="lab" transform="translate(0 11)">2</text></g><g class="a8 c1 node n6" transform="translate(-15.1333 31.136)"><g class="a6 i0 leaf node n0 sample" transform="translate(0.0 62.272)"><path class="edge" d="M 0 0 V -62.272 H 0.0"/><rect class="sym" height="6" width="6" x="-3" y="-3"/><text class="lab" transform="translate(0 11)">0</text></g><path class="edge" d="M 0 0 V -31.136 H 15.1333"/><circle class="sym" cx="0" cy="0" r="3"/><text class="lab lft" transform="translate(-3 -7)"/></g><path class="edge" d="M 0 0 V -31.136 H 15.1333"/><circle class="sym" cx="0" cy="0" r="3"/><text class="lab lft" transform="translate(-3 -7)"/></g><path class="edge" d="M 0 0 V -31.136 H 0.0"/><g class="mut m0 s0 unknown_time" transform="translate(0 -15.568)"><line x1="0" x2="0" y1="0" y2="15.568"/><path class="sym" d="M -3,-3 l 6,6 M -3,3 l 6,-6"/><text class="lab lft" transform="translate(-5 0)">16: G→T</text></g><circle class="sym" cx="0" cy="0" r="3"/><text class="lab lft" transform="translate(-3 -7)"/></g><path class="edge" d="M 0 0 V -38.92 H 22.7"/><circle class="sym" cx="0" cy="0" r="3"/><text class="lab lft" transform="translate(-3 -7)"/></g><circle class="sym" cx="0" cy="0" r="3"/><text class="lab" transform="translate(0 -11)"/></g></g></g><g class="tree t2" transform="translate(187.6 0)"><g class="plotbox"><g class="c2 node n13 root" transform="translate(82.425 26.8)"><g class="a13 c1 node n10" transform="translate(20.8083 38.92)"><g class="a10 i1 leaf node n3 sample" transform="translate(0.0 155.68)"><path class="edge" d="M 0 0 V -155.68 H 0.0"/><rect class="sym" height="6" width="6" x="-3" y="-3"/><text class="lab" transform="translate(0 11)">3</text></g><path class="edge" d="M 0 0 V -38.92 H -20.8083"/><circle class="sym" cx="0" cy="0" r="3"/><text class="lab rgt" transform="translate(3 -7)"/></g><g class="a13 c1 node n11" transform="translate(-20.8083 38.92)"><g class="a11 c2 node n9" transform="translate(0.0 31.136)"><g class="a9 c2 m1 node n7 s1" transform="translate(18.9167 62.272)"><g class="a7 i2 leaf node n4 sample" transform="translate(-7.56667 62.272)"><path class="edge" d="M 0 0 V -62.272 H 7.56667"/><rect class="sym" height="6" width="6" x="-3" y="-3"/><text class="lab" transform="translate(0 11)">4</text></g><g class="a7 i2 leaf node n5 sample" transform="translate(7.56667 62.272)"><path class="edge" d="M 0 0 V -62.272 H -7.56667"/><rect class="sym" height="6" width="6" x="-3" y="-3"/><text class="lab" transform="translate(0 11)">5</text></g><path class="edge" d="M 0 0 V -62.272 H -18.9167"/><g class="mut m1 s1 unknown_time" transform="translate(0 -31.136)"><line x1="0" x2="0" y1="0" y2="31.136"/><path class="sym" d="M -3,-3 l 6,6 M -3,3 l 6,-6"/><text class="lab rgt" transform="translate(5 0)">44: G→T</text></g><circle class="sym" cx="0" cy="0" r="3"/><text class="lab rgt" transform="translate(3 -7)"/></g><g class="a9 c3 m2 node n8 s2" transform="translate(-18.9167 31.136)"><g class="a8 i0 leaf node n1 sample" transform="translate(0.0 93.408)"><path class="edge" d="M 0 0 V -93.408 H 0.0"/><rect class="sym" height="6" width="6" x="-3" y="-3"/><text class="lab" transform="translate(0 11)">1</text></g><g class="a8 i1 leaf node n2 sample" transform="translate(15.1333 93.408)"><path class="edge" d="M 0 0 V -93.408 H -15.1333"/><rect class="sym" height="6" width="6" x="-3" y="-3"/><text class="lab" transform="translate(0 11)">2</text></g><g class="a8 c1 node n6" transform="translate(-15.1333 31.136)"><g class="a6 i0 leaf node n0 sample" transform="translate(0.0 62.272)"><path class="edge" d="M 0 0 V -62.272 H 0.0"/><rect class="sym" height="6" width="6" x="-3" y="-3"/><text class="lab" transform="translate(0 11)">0</text></g><path class="edge" d="M 0 0 V -31.136 H 15.1333"/><circle class="sym" cx="0" cy="0" r="3"/><text class="lab lft" transform="translate(-3 -7)"/></g><path class="edge" d="M 0 0 V -31.136 H 18.9167"/><g class="mut m2 s2 unknown_time" transform="translate(0 -15.568)"><line x1="0" x2="0" y1="0" y2="15.568"/><path class="sym" d="M -3,-3 l 6,6 M -3,3 l 6,-6"/><text class="lab lft" transform="translate(-5 0)">50: C→G</text></g><circle class="sym" cx="0" cy="0" r="3"/><text class="lab lft" transform="translate(-3 -7)"/></g><path class="edge" d="M 0 0 V -31.136 H 0.0"/><circle class="sym" cx="0" cy="0" r="3"/><text class="lab lft" transform="translate(-3 -7)"/></g><path class="edge" d="M 0 0 V -38.92 H 20.8083"/><circle class="sym" cx="0" cy="0" r="3"/><text class="lab lft" transform="translate(-3 -7)"/></g><circle class="sym" cx="0" cy="0" r="3"/><text class="lab" transform="translate(0 -11)"/></g></g></g><g class="tree t3" transform="translate(318.4 0)"><g class="plotbox"><g class="c2 node n13 root" transform="translate(87.1542 26.8)"><g class="a13 c1 node n10" transform="translate(16.0792 38.92)"><g class="a10 i1 leaf node n3 sample" transform="translate(0.0 155.68)"><path class="edge" d="M 0 0 V -155.68 H 0.0"/><rect class="sym" height="6" width="6" x="-3" y="-3"/><text class="lab" transform="translate(0 11)">3</text></g><path class="edge" d="M 0 0 V -38.92 H -16.0792"/><circle class="sym" cx="0" cy="0" r="3"/><text class="lab rgt" transform="translate(3 -7)"/></g><g class="a13 c1 m4 node n11 s5" transform="translate(-16.0792 38.92)"><g class="a11 c2 node n9" transform="translate(0.0 31.136)"><g class="a9 c1 node n7" transform="translate(17.025 62.272)"><g class="a7 i2 leaf node n5 sample" transform="translate(0.0 62.272)"><path class="edge" d="M 0 0 V -62.272 H 0.0"/><rect class="sym" height="6" width="6" x="-3" y="-3"/><text class="lab" transform="translate(0 11)">5</text></g><path class="edge" d="M 0 0 V -62.272 H -17.025"/><circle class="sym" cx="0" cy="0" r="3"/><text class="lab rgt" transform="translate(3 -7)"/></g><g class="a9 c3 m5 node n8 s6" transform="translate(-17.025 31.136)"><g class="a8 i0 leaf node n1 sample" transform="translate(3.78333 93.408)"><path class="edge" d="M 0 0 V -93.408 H -3.78333"/><rect class="sym" height="6" width="6" x="-3" y="-3"/><text class="lab" transform="translate(0 11)">1</text></g><g class="a8 i1 leaf node n2 sample" transform="translate(18.9167 93.408)"><path class="edge" d="M 0 0 V -93.408 H -18.9167"/><rect class="sym" height="6" width="6" x="-3" y="-3"/><text class="lab" transform="translate(0 11)">2</text></g><g class="a8 c2 m3 m6 node n6 s3 s6" transform="translate(-18.9167 31.136)"><g class="a6 i0 leaf node n0 sample" transform="translate(-7.56667 62.272)"><path class="edge" d="M 0 0 V -62.272 H 7.56667"/><rect class="sym" height="6" width="6" x="-3" y="-3"/><text class="lab" transform="translate(0 11)">0</text></g><g class="a6 i2 leaf node n4 sample" transform="translate(7.56667 62.272)"><path class="edge" d="M 0 0 V -62.272 H -7.56667"/><rect class="sym" height="6" width="6" x="-3" y="-3"/><text class="lab" transform="translate(0 11)">4</text></g><path class="edge" d="M 0 0 V -31.136 H 18.9167"/><g class="mut m3 s3 unknown_time" transform="translate(0 -20.7573)"><line x1="0" x2="0" y1="0" y2="20.7573"/><path class="sym" d="M -3,-3 l 6,6 M -3,3 l 6,-6"/><text class="lab lft" transform="translate(-5 0)">55: T→A</text></g><g class="mut m6 s6 unknown_time" transform="translate(0 -10.3787)"><line x1="0" x2="0" y1="0" y2="10.3787"/><path class="sym" d="M -3,-3 l 6,6 M -3,3 l 6,-6"/><text class="lab lft" transform="translate(-5 0)">85: G→C</text></g><circle class="sym" cx="0" cy="0" r="3"/><text class="lab lft" transform="translate(-3 -7)"/></g><path class="edge" d="M 0 0 V -31.136 H 17.025"/><g class="mut m5 s6 unknown_time" transform="translate(0 -15.568)"><line x1="0" x2="0" y1="0" y2="15.568"/><path class="sym" d="M -3,-3 l 6,6 M -3,3 l 6,-6"/><text class="lab lft" transform="translate(-5 0)">85: C→G</text></g><circle class="sym" cx="0" cy="0" r="3"/><text class="lab lft" transform="translate(-3 -7)"/></g><path class="edge" d="M 0 0 V -31.136 H 0.0"/><circle class="sym" cx="0" cy="0" r="3"/><text class="lab lft" transform="translate(-3 -7)"/></g><path class="edge" d="M 0 0 V -38.92 H 16.0792"/><g class="mut m4 s5 unknown_time" transform="translate(0 -19.46)"><line x1="0" x2="0" y1="0" y2="19.46"/><path class="sym" d="M -3,-3 l 6,6 M -3,3 l 6,-6"/><text class="lab lft" transform="translate(-5 0)">75: A→T</text></g><circle class="sym" cx="0" cy="0" r="3"/><text class="lab lft" transform="translate(-3 -7)"/></g><circle class="sym" cx="0" cy="0" r="3"/><text class="lab" transform="translate(0 -11)"/></g></g></g><g class="tree t4" transform="translate(449.2 0)"><g class="plotbox"><g class="c2 node n14 root" transform="translate(88.5729 26.8)"><g class="a14 i1 leaf node n2 sample" transform="translate(14.6604 194.6)"><path class="edge" d="M 0 0 V -194.6 H -14.6604"/><rect class="sym" height="6" width="6" x="-3" y="-3"/><text class="lab" transform="translate(0 11)">2</text></g><g class="a14 c2 m7 node n10 s7" transform="translate(-14.6604 38.92)"><g class="a10 i1 leaf node n3 sample" transform="translate(14.1875 155.68)"><path class="edge" d="M 0 0 V -155.68 H -14.1875"/><rect class="sym" height="6" width="6" x="-3" y="-3"/><text class="lab" transform="translate(0 11)">3</text></g><g class="a10 c2 node n9" transform="translate(-14.1875 31.136)"><g class="a9 c1 node n7" transform="translate(13.2417 62.272)"><g class="a7 i2 leaf node n5 sample" transform="translate(0.0 62.272)"><path class="edge" d="M 0 0 V -62.272 H 0.0"/><rect class="sym" height="6" width="6" x="-3" y="-3"/><text class="lab" transform="translate(0 11)">5</text></g><path class="edge" d="M 0 0 V -62.272 H -13.2417"/><circle class="sym" cx="0" cy="0" r="3"/><text class="lab rgt" transform="translate(3 -7)"/></g><g class="a9 c2 node n8" transform="translate(-13.2417 31.136)"><g class="a8 i0 leaf node n1 sample" transform="translate(11.35 93.408)"><path class="edge" d="M 0 0 V -93.408 H -11.35"/><rect class="sym" height="6" width="6" x="-3" y="-3"/><text class="lab" transform="translate(0 11)">1</text></g><g class="a8 c2 node n6" transform="translate(-11.35 31.136)"><g class="a6 i0 leaf node n0 sample" transform="translate(-7.56667 62.272)"><path class="edge" d="M 0 0 V -62.272 H 7.56667"/><rect class="sym" height="6" width="6" x="-3" y="-3"/><text class="lab" transform="translate(0 11)">0</text></g><g class="a6 i2 leaf node n4 sample" transform="translate(7.56667 62.272)"><path class="edge" d="M 0 0 V -62.272 H -7.56667"/><rect class="sym" height="6" width="6" x="-3" y="-3"/><text class="lab" transform="translate(0 11)">4</text></g><path class="edge" d="M 0 0 V -31.136 H 11.35"/><circle class="sym" cx="0" cy="0" r="3"/><text class="lab lft" transform="translate(-3 -7)"/></g><path class="edge" d="M 0 0 V -31.136 H 13.2417"/><circle class="sym" cx="0" cy="0" r="3"/><text class="lab lft" transform="translate(-3 -7)"/></g><path class="edge" d="M 0 0 V -31.136 H 14.1875"/><circle class="sym" cx="0" cy="0" r="3"/><text class="lab lft" transform="translate(-3 -7)"/></g><path class="edge" d="M 0 0 V -38.92 H 14.6604"/><g class="mut m7 s7 unknown_time" transform="translate(0 -19.46)"><line x1="0" x2="0" y1="0" y2="19.46"/><path class="sym" d="M -3,-3 l 6,6 M -3,3 l 6,-6"/><text class="lab lft" transform="translate(-5 0)">95: A→AGGT</text></g><circle class="sym" cx="0" cy="0" r="3"/><text class="lab lft" transform="translate(-3 -7)"/></g><circle class="sym" cx="0" cy="0" r="3"/><text class="lab" transform="translate(0 -11)"/></g></g></g></g></g></svg>