<svg baseProfile="full" height="700" version="1.1" width="1200" xmlns="http://www.w3.org/2000/svg" xmlns:ev="http://www.w3.org/2001/xml-events" xmlns:xlink="http://www.w3.org/1999/xlink"><defs><style type="text/css"><![CDATA[.background path {fill: #808080; fill-opacity: 0}.background path:nth-child(odd) {fill-opacity: .1}.x-regions rect {fill: yellow; stroke: black; opacity: 0.5}.axes {font-size: 14px}.x-axis .tick .lab {font-weight: bold; dominant-baseline: hanging}.axes, .tree {font-size: 14px; text-anchor: middle}.axes line, .edge {stroke: black; fill: none}.axes .ax-skip {stroke-dasharray: 4}.y-axis .grid {stroke: #FAFAFA}.node > .sym {fill: black; stroke: none}.site > .sym {stroke: black}.mut text {fill: red; font-style: italic}.mut.extra text {fill: hotpink}.mut line {fill: none; stroke: none}.mut .sym {fill: none; stroke: red}.mut.extra .sym {stroke: hotpink}.node .mut .sym {stroke-width: 1.5px}.tree text, .tree-sequence text {dominant-baseline: central}.plotbox .lab.lft {text-anchor: end}.plotbox .lab.rgt {text-anchor: start}.polytomy line {stroke: black; stroke-dasharray: 1px, 1px}.polytomy text {paint-order:stroke;stroke-width:0.3em;stroke:white}]]></style></defs><g class="tree t1110"><g class="plotbox"><g class="c3 node n7796 root" transform="translate(1038.74 26.8)"><g class="a7796 i3 leaf node n6 p0 sample" transform="translate(54.2617 641.4)"><path class="edge" d="M 0 0 V -641.4 H -54.2617" /><rect class="sym" height="6" style="fill:red;" width="6" x="-3" y="-3" /><text class="lab" transform="translate(0 11)">8N05890</text></g><g class="a7796 i3 leaf node n7 p0 sample" transform="translate(112.262 641.4)"><path class="edge" d="M 0 0 V -641.4 H -112.262" /><rect class="sym" height="6" style="fill:red;" width="6" x="-3" y="-3" /><text class="lab" transform="translate(0 11)">8N05890</text></g><g class="a7796 c1 node n7287" transform="translate(-112.262 33.7579)"><g class="a7287 c1 node n7276" transform="translate(0.0 1.48924e-07)"><g class="a7276 c3 node n7238" transform="translate(0.0 31.9812)"><g class="a7238 i5 leaf node n10 p1 sample" transform="translate(50.5234 575.661)"><path class="edge" d="M 0 0 V -575.661 H -50.5234" /><rect class="sym" height="6" style="fill:blue;" width="6" x="-3" y="-3" /><text class="lab" transform="translate(0 11)">FR041</text></g><g class="a7238 i6 leaf node n13 p1 sample" transform="translate(108.523 575.661)"><path class="edge" d="M 0 0 V -575.661 H -108.523" /><rect class="sym" height="6" style="fill:blue;" width="6" x="-3" y="-3" /><text class="lab" transform="translate(0 11)">FR044</text></g><g class="a7238 c1 node n7092" transform="translate(-108.523 1.48924e-07)"><g class="a7092 c1 node n7037" transform="translate(0.0 31.9812)"><g class="a7037 c2 node n6852" transform="translate(0.0 1.48924e-07)"><g class="a6852 c1 node n6794" transform="translate(101.047 31.9812)"><g class="a6794 i1 leaf node n2 p0 sample" transform="translate(0.0 511.699)"><path class="edge" d="M 0 0 V -511.699 H 0.0" /><rect class="sym" height="6" style="fill:red;" width="6" x="-3" y="-3" /><text class="lab" transform="translate(0 11)">8L19766</text></g><path class="edge" d="M 0 0 V -31.9812 H -101.047" /><circle class="sym" cx="0" cy="0" r="3" /><text class="lab rgt" transform="translate(3 -7)" /></g><g class="a6852 c2 node n6793" transform="translate(-101.047 31.9812)"><g class="a6793 i7 leaf node n15 p1 sample" transform="translate(144.094 511.699)"><path class="edge" d="M 0 0 V -511.699 H -144.094" /><rect class="sym" height="6" style="fill:blue;" width="6" x="-3" y="-3" /><text class="lab" transform="translate(0 11)">FR046</text></g><g class="a6793 c1 node n6558" transform="translate(-144.094 1.48924e-07)"><g class="a6558 c3 node n6485" transform="translate(0.0 31.9812)"><g class="a6485 i4 leaf node n9 p0 sample" transform="translate(172.188 479.717)"><path class="edge" d="M 0 0 V -479.717 H -172.188" /><rect class="sym" height="6" style="fill:red;" width="6" x="-3" y="-3" /><text class="lab" transform="translate(0 11)">8N73604</text></g><g class="a6485 c1 node n3524" transform="translate(230.188 319.812)"><g class="a3524 i8 leaf node n16 p1 sample" transform="translate(0.0 159.906)"><path class="edge" d="M 0 0 V -159.906 H 0.0" /><rect class="sym" height="6" style="fill:blue;" width="6" x="-3" y="-3" /><text class="lab" transform="translate(0 11)">FR048</text></g><path class="edge" d="M 0 0 V -319.812 H -230.188" /><circle class="sym" cx="0" cy="0" r="3" /><text class="lab rgt" transform="translate(3 -7)" /></g><g class="a6485 c1 node n6272" transform="translate(-230.188 1.48924e-07)"><g class="a6272 c2 node n6195" transform="translate(0.0 31.9812)"><g class="a6195 c1 node n5906" transform="translate(177.625 31.9812)"><g class="a5906 c1 node n5669" transform="translate(0.0 31.9812)"><g class="a5669 c1 node n5439" transform="translate(0.0 31.9812)"><g class="a5439 c1 node n5209" transform="translate(0.0 31.9812)"><g class="a5209 c3 node n4958" transform="translate(0.0 31.9812)"><g class="a4958 c1 node n4379" transform="translate(137.75 63.9623)"><g class="a4379 c1 node n3525" transform="translate(0.0 63.9623)"><g class="a3525 c2 node n2037" transform="translate(0.0 63.9623)"><g class="a2037 i9 leaf node n19 p1 sample" transform="translate(29 95.9435)"><path class="edge" d="M 0 0 V -95.9435 H -29" /><rect class="sym" height="6" style="fill:blue;" width="6" x="-3" y="-3" /><text class="lab" transform="translate(0 11)">FR050</text></g><g class="a2037 c1 node n1029" transform="translate(-29 31.9812)"><g class="a1029 i7 leaf node n14 p1 sample" transform="translate(0.0 63.9623)"><path class="edge" d="M 0 0 V -63.9623 H 0.0" /><rect class="sym" height="6" style="fill:blue;" width="6" x="-3" y="-3" /><text class="lab" transform="translate(0 11)">FR046</text></g><path class="edge" d="M 0 0 V -31.9812 H 29" /><circle class="sym" cx="0" cy="0" r="3" /><text class="lab lft" transform="translate(-3 -7)" /></g><path class="edge" d="M 0 0 V -63.9623 H 0.0" /><circle class="sym" cx="0" cy="0" r="3" /><text class="lab lft" transform="translate(-3 -7)" /></g><path class="edge" d="M 0 0 V -63.9623 H 0.0" /><circle class="sym" cx="0" cy="0" r="3" /><text class="lab lft" transform="translate(-3 -7)" /></g><path class="edge" d="M 0 0 V -63.9623 H -137.75" /><circle class="sym" cx="0" cy="0" r="3" /><text class="lab rgt" transform="translate(3 -7)" /></g><g class="a4958 c2 node n4712" transform="translate(-137.75 31.9812)"><g class="a4712 c1 node n2034" transform="translate(-43.5 159.906)"><g class="a2034 c1 node n1007" transform="translate(0.0 31.9812)"><g class="a1007 i0 leaf node n1 p0 sample" transform="translate(0.0 63.9623)"><path class="edge" d="M 0 0 V -63.9623 H 0.0" /><rect class="sym" height="6" style="fill:red;" width="6" x="-3" y="-3" /><text class="lab" transform="translate(0 11)">8934547</text></g><path class="edge" d="M 0 0 V -31.9812 H 0.0" /><circle class="sym" cx="0" cy="0" r="3" /><text class="lab lft" transform="translate(-3 -7)" /></g><path class="edge" d="M 0 0 V -159.906 H 43.5" /><circle class="sym" cx="0" cy="0" r="3" /><text class="lab lft" transform="translate(-3 -7)" /></g><g class="a4712 c1 node n4381" transform="translate(43.5 31.9812)"><g class="a4381 c1 node n3520" transform="translate(0.0 63.9623)"><g class="a3520 c2 m2023 node n1016 s2030" transform="translate(0.0 95.9435)"><g class="a1016 i4 leaf node n8 p0 sample" transform="translate(-29 63.9623)"><path class="edge" d="M 0 0 V -63.9623 H 29" /><rect class="sym" height="6" style="fill:red;" width="6" x="-3" y="-3" /><text class="lab" transform="translate(0 11)">8N73604</text></g><g class="a1016 i6 leaf node n12 p1 sample" transform="translate(29 63.9623)"><path class="edge" d="M 0 0 V -63.9623 H -29" /><rect class="sym" height="6" style="fill:blue;" width="6" x="-3" y="-3" /><text class="lab" transform="translate(0 11)">FR044</text></g><path class="edge" d="M 0 0 V -95.9435 H 0.0" /><g class="mut m2023 s2030 unknown_time" transform="translate(0 -47.9717)"><line x1="0" x2="0" y1="0" y2="47.9717" /><path class="sym" d="M -3,-3 l 6,6 M -3,3 l 6,-6" /><text class="lab lft" transform="translate(-5 0)">2023</text></g><circle class="sym" cx="0" cy="0" r="3" /><text class="lab lft" transform="translate(-3 -7)" /></g><path class="edge" d="M 0 0 V -63.9623 H 0.0" /><circle class="sym" cx="0" cy="0" r="3" /><text class="lab lft" transform="translate(-3 -7)" /></g><path class="edge" d="M 0 0 V -31.9812 H -43.5" /><circle class="sym" cx="0" cy="0" r="3" /><text class="lab rgt" transform="translate(3 -7)" /></g><path class="edge" d="M 0 0 V -31.9812 H 137.75" /><circle class="sym" cx="0" cy="0" r="3" /><text class="lab lft" transform="translate(-3 -7)" /></g><g class="a4958 c2 node n3522" transform="translate(21.75 127.925)"><g class="a3522 i2 leaf node n5 p0 sample" transform="translate(-29 159.906)"><path class="edge" d="M 0 0 V -159.906 H 29" /><rect class="sym" height="6" style="fill:red;" width="6" x="-3" y="-3" /><text class="lab" transform="translate(0 11)">8M31651</text></g><g class="a3522 i9 leaf node n18 p1 sample" transform="translate(29 159.906)"><path class="edge" d="M 0 0 V -159.906 H -29" /><rect class="sym" height="6" style="fill:blue;" width="6" x="-3" y="-3" /><text class="lab" transform="translate(0 11)">FR050</text></g><path class="edge" d="M 0 0 V -127.925 H -21.75" /><circle class="sym" cx="0" cy="0" r="3" /><text class="lab rgt" transform="translate(3 -7)" /></g><path class="edge" d="M 0 0 V -31.9812 H 0.0" /><circle class="sym" cx="0" cy="0" r="3" /><text class="lab lft" transform="translate(-3 -7)" /></g><path class="edge" d="M 0 0 V -31.9812 H 0.0" /><circle class="sym" cx="0" cy="0" r="3" /><text class="lab lft" transform="translate(-3 -7)" /></g><path class="edge" d="M 0 0 V -31.9812 H 0.0" /><circle class="sym" cx="0" cy="0" r="3" /><text class="lab lft" transform="translate(-3 -7)" /></g><path class="edge" d="M 0 0 V -31.9812 H 0.0" /><circle class="sym" cx="0" cy="0" r="3" /><text class="lab lft" transform="translate(-3 -7)" /></g><path class="edge" d="M 0 0 V -31.9812 H -177.625" /><circle class="sym" cx="0" cy="0" r="3" /><text class="lab rgt" transform="translate(3 -7)" /></g><g class="a6195 c1 node n5907" transform="translate(-177.625 31.9812)"><g class="a5907 c4 node n4380" transform="translate(0.0 191.887)"><g class="a4380 i8 leaf node n17 p1 sample" transform="translate(116 223.868)"><path class="edge" d="M 0 0 V -223.868 H -116" /><rect class="sym" height="6" style="fill:blue;" width="6" x="-3" y="-3" /><text class="lab" transform="translate(0 11)">FR048</text></g><g class="a4380 i5 leaf node n11 p1 sample" transform="translate(58 223.868)"><path class="edge" d="M 0 0 V -223.868 H -58" /><rect class="sym" height="6" style="fill:blue;" width="6" x="-3" y="-3" /><text class="lab" transform="translate(0 11)">FR041</text></g><g class="a4380 c2 node n4008" transform="translate(-29 31.9812)"><g class="a4008 c1 node n3523" transform="translate(-29 31.9812)"><g class="a3523 c1 node n1017" transform="translate(0.0 95.9435)"><g class="a1017 i1 leaf node n3 p0 sample" transform="translate(0.0 63.9623)"><path class="edge" d="M 0 0 V -63.9623 H 0.0" /><rect class="sym" height="6" style="fill:red;" width="6" x="-3" y="-3" /><text class="lab" transform="translate(0 11)">8L19766</text></g><path class="edge" d="M 0 0 V -95.9435 H 0.0" /><circle class="sym" cx="0" cy="0" r="3" /><text class="lab lft" transform="translate(-3 -7)" /></g><path class="edge" d="M 0 0 V -31.9812 H 29" /><circle class="sym" cx="0" cy="0" r="3" /><text class="lab lft" transform="translate(-3 -7)" /></g><g class="a4008 i2 leaf node n4 p0 sample" transform="translate(29 191.887)"><path class="edge" d="M 0 0 V -191.887 H -29" /><rect class="sym" height="6" style="fill:red;" width="6" x="-3" y="-3" /><text class="lab" transform="translate(0 11)">8M31651</text></g><path class="edge" d="M 0 0 V -31.9812 H 29" /><circle class="sym" cx="0" cy="0" r="3" /><text class="lab rgt" transform="translate(3 -7)" /></g><g class="a4380 c1 node n3521" transform="translate(-116 63.9623)"><g class="a3521 c1 node n2036" transform="translate(0.0 63.9623)"><g class="a2036 i0 leaf node n0 p0 sample" transform="translate(0.0 95.9435)"><path class="edge" d="M 0 0 V -95.9435 H 0.0" /><rect class="sym" height="6" style="fill:red;" width="6" x="-3" y="-3" /><text class="lab" transform="translate(0 11)">8934547</text></g><path class="edge" d="M 0 0 V -63.9623 H 0.0" /><circle class="sym" cx="0" cy="0" r="3" /><text class="lab lft" transform="translate(-3 -7)" /></g><path class="edge" d="M 0 0 V -63.9623 H 116" /><circle class="sym" cx="0" cy="0" r="3" /><text class="lab lft" transform="translate(-3 -7)" /></g><path class="edge" d="M 0 0 V -191.887 H 0.0" /><circle class="sym" cx="0" cy="0" r="3" /><text class="lab lft" transform="translate(-3 -7)" /></g><path class="edge" d="M 0 0 V -31.9812 H 177.625" /><circle class="sym" cx="0" cy="0" r="3" /><text class="lab lft" transform="translate(-3 -7)" /></g><path class="edge" d="M 0 0 V -31.9812 H 0.0" /><circle class="sym" cx="0" cy="0" r="3" /><text class="lab lft" transform="translate(-3 -7)" /></g><path class="edge" d="M 0 0 V -1.48924e-07 H 230.188" /><circle class="sym" cx="0" cy="0" r="3" /><text class="lab lft" transform="translate(-3 -7)" /></g><path class="edge" d="M 0 0 V -31.9812 H 0.0" /><circle class="sym" cx="0" cy="0" r="3" /><text class="lab lft" transform="translate(-3 -7)" /></g><path class="edge" d="M 0 0 V -1.48924e-07 H 144.094" /><circle class="sym" cx="0" cy="0" r="3" /><text class="lab lft" transform="translate(-3 -7)" /></g><path class="edge" d="M 0 0 V -31.9812 H 101.047" /><circle class="sym" cx="0" cy="0" r="3" /><text class="lab lft" transform="translate(-3 -7)" /></g><path class="edge" d="M 0 0 V -1.48924e-07 H 0.0" /><circle class="sym" cx="0" cy="0" r="3" /><text class="lab lft" transform="translate(-3 -7)" /></g><path class="edge" d="M 0 0 V -31.9812 H 0.0" /><circle class="sym" cx="0" cy="0" r="3" /><text class="lab lft" transform="translate(-3 -7)" /></g><path class="edge" d="M 0 0 V -1.48924e-07 H 108.523" /><circle class="sym" cx="0" cy="0" r="3" /><text class="lab lft" transform="translate(-3 -7)" /></g><path class="edge" d="M 0 0 V -31.9812 H 0.0" /><circle class="sym" cx="0" cy="0" r="3" /><text class="lab lft" transform="translate(-3 -7)" /></g><path class="edge" d="M 0 0 V -1.48924e-07 H 0.0" /><circle class="sym" cx="0" cy="0" r="3" /><text class="lab lft" transform="translate(-3 -7)" /></g><path class="edge" d="M 0 0 V -33.7579 H 112.262" /><circle class="sym" cx="0" cy="0" r="3" /><text class="lab lft" transform="translate(-3 -7)" /></g><circle class="sym" cx="0" cy="0" r="3" /><text class="lab" transform="translate(0 -11)" /></g></g></g></svg>