<svg baseProfile="full" height="700" version="1.1" width="1200" xmlns="http://www.w3.org/2000/svg" xmlns:ev="http://www.w3.org/2001/xml-events" xmlns:xlink="http://www.w3.org/1999/xlink"><defs><style type="text/css"><![CDATA[.background path {fill: #808080; fill-opacity: 0}.background path:nth-child(odd) {fill-opacity: .1}.x-regions rect {fill: yellow; stroke: black; opacity: 0.5}.axes {font-size: 14px}.x-axis .tick .lab {font-weight: bold; dominant-baseline: hanging}.axes, .tree {font-size: 14px; text-anchor: middle}.axes line, .edge {stroke: black; fill: none}.axes .ax-skip {stroke-dasharray: 4}.y-axis .grid {stroke: #FAFAFA}.node > .sym {fill: black; stroke: none}.site > .sym {stroke: black}.mut text {fill: red; font-style: italic}.mut.extra text {fill: hotpink}.mut line {fill: none; stroke: none}.mut .sym {fill: none; stroke: red}.mut.extra .sym {stroke: hotpink}.node .mut .sym {stroke-width: 1.5px}.tree text, .tree-sequence text {dominant-baseline: central}.plotbox .lab.lft {text-anchor: end}.plotbox .lab.rgt {text-anchor: start}.polytomy line {stroke: black; stroke-dasharray: 1px, 1px}.polytomy text {paint-order:stroke;stroke-width:0.3em;stroke:white}]]></style></defs><g class="tree t1120"><g class="plotbox"><g class="c5 node n7669 root" transform="translate(585.5 26.8)"><g class="a7669 i0 leaf node n0 p0 sample" transform="translate(-536.5 641.4)"><path class="edge" d="M 0 0 V -641.4 H 536.5"/><rect class="sym" height="6" style="fill:red;" width="6" x="-3" y="-3"/><text class="lab" transform="translate(0 11)">8934547</text></g><g class="a7669 i3 leaf node n6 p0 sample" transform="translate(449.5 641.4)"><path class="edge" d="M 0 0 V -641.4 H -449.5"/><rect class="sym" height="6" style="fill:red;" width="6" x="-3" y="-3"/><text class="lab" transform="translate(0 11)">8N05890</text></g><g class="a7669 c1 node n1014" transform="translate(391.5 577.438)"><g class="a1014 i1 leaf node n2 p0 sample" transform="translate(0.0 63.9623)"><path class="edge" d="M 0 0 V -63.9623 H 0.0"/><rect class="sym" height="6" style="fill:red;" width="6" x="-3" y="-3"/><text class="lab" transform="translate(0 11)">8L19766</text></g><path class="edge" d="M 0 0 V -577.438 H -391.5"/><circle class="sym" cx="0" cy="0" r="3"/><text class="lab rgt" transform="translate(3 -7)"/></g><g class="a7669 c2 node n2015" transform="translate(536.5 545.457)"><g class="a2015 i5 leaf node n10 p1 sample" transform="translate(29 95.9435)"><path class="edge" d="M 0 0 V -95.9435 H -29"/><rect class="sym" height="6" style="fill:blue;" width="6" x="-3" y="-3"/><text class="lab" transform="translate(0 11)">FR041</text></g><g class="a2015 i3 leaf node n7 p0 sample" transform="translate(-29 95.9435)"><path class="edge" d="M 0 0 V -95.9435 H 29"/><rect class="sym" height="6" style="fill:red;" width="6" x="-3" y="-3"/><text class="lab" transform="translate(0 11)">8N05890</text></g><path class="edge" d="M 0 0 V -545.457 H -536.5"/><circle class="sym" cx="0" cy="0" r="3"/><text class="lab rgt" transform="translate(3 -7)"/></g><g class="a7669 c1 node n6809" transform="translate(239.25 65.7391)"><g class="a6809 c2 node n6549" transform="translate(0.0 63.9623)"><g class="a6549 i4 leaf node n9 p0 sample" transform="translate(94.25 511.699)"><path class="edge" d="M 0 0 V -511.699 H -94.25"/><rect class="sym" height="6" style="fill:red;" width="6" x="-3" y="-3"/><text class="lab" transform="translate(0 11)">8N73604</text></g><g class="a6549 c2 node n6263" transform="translate(-94.25 31.9812)"><g class="a6263 c3 node n5998" transform="translate(-130.5 31.9812)"><g class="a5998 c3 node n4322" transform="translate(87 223.868)"><g class="a4322 i8 leaf node n17 p1 sample" transform="translate(58 223.868)"><path class="edge" d="M 0 0 V -223.868 H -58"/><rect class="sym" height="6" style="fill:blue;" width="6" x="-3" y="-3"/><text class="lab" transform="translate(0 11)">FR048</text></g><g class="a4322 c1 node n3474" transform="translate(0.0 63.9623)"><g class="a3474 i8 leaf node n16 p1 sample" transform="translate(0.0 159.906)"><path class="edge" d="M 0 0 V -159.906 H 0.0"/><rect class="sym" height="6" style="fill:blue;" width="6" x="-3" y="-3"/><text class="lab" transform="translate(0 11)">FR048</text></g><path class="edge" d="M 0 0 V -63.9623 H 0.0"/><circle class="sym" cx="0" cy="0" r="3"/><text class="lab rgt" transform="translate(3 -7)"/></g><g class="a4322 c1 node n3963" transform="translate(-58 31.9812)"><g class="a3963 c1 node n3473" transform="translate(0.0 31.9812)"><g class="a3473 c1 node n1017" transform="translate(0.0 95.9435)"><g class="a1017 i1 leaf node n3 p0 sample" transform="translate(0.0 63.9623)"><path class="edge" d="M 0 0 V -63.9623 H 0.0"/><rect class="sym" height="6" style="fill:red;" width="6" x="-3" y="-3"/><text class="lab" transform="translate(0 11)">8L19766</text></g><path class="edge" d="M 0 0 V -95.9435 H 0.0"/><circle class="sym" cx="0" cy="0" r="3"/><text class="lab lft" transform="translate(-3 -7)"/></g><path class="edge" d="M 0 0 V -31.9812 H 0.0"/><circle class="sym" cx="0" cy="0" r="3"/><text class="lab lft" transform="translate(-3 -7)"/></g><path class="edge" d="M 0 0 V -31.9812 H 58"/><circle class="sym" cx="0" cy="0" r="3"/><text class="lab lft" transform="translate(-3 -7)"/></g><path class="edge" d="M 0 0 V -223.868 H -87"/><circle class="sym" cx="0" cy="0" r="3"/><text class="lab rgt" transform="translate(3 -7)"/></g><g class="a5998 c2 node n4883" transform="translate(-203 159.906)"><g class="a4883 c3 node n4323" transform="translate(-145 63.9623)"><g class="a4323 c1 node n3471" transform="translate(-145 63.9623)"><g class="a3471 i0 leaf node n1 p0 sample" transform="translate(0.0 159.906)"><path class="edge" d="M 0 0 V -159.906 H 0.0"/><rect class="sym" height="6" style="fill:red;" width="6" x="-3" y="-3"/><text class="lab" transform="translate(0 11)">8934547</text></g><path class="edge" d="M 0 0 V -63.9623 H 145"/><circle class="sym" cx="0" cy="0" r="3"/><text class="lab lft" transform="translate(-3 -7)"/></g><g class="a4323 c2 node n2014" transform="translate(-43.5 127.925)"><g class="a2014 c2 m2023 node n1016 s2030" transform="translate(43.5 31.9812)"><g class="a1016 i4 leaf node n8 p0 sample" transform="translate(-29 63.9623)"><path class="edge" d="M 0 0 V -63.9623 H 29"/><rect class="sym" height="6" style="fill:red;" width="6" x="-3" y="-3"/><text class="lab" transform="translate(0 11)">8N73604</text></g><g class="a1016 i6 leaf node n12 p1 sample" transform="translate(29 63.9623)"><path class="edge" d="M 0 0 V -63.9623 H -29"/><rect class="sym" height="6" style="fill:blue;" width="6" x="-3" y="-3"/><text class="lab" transform="translate(0 11)">FR044</text></g><path class="edge" d="M 0 0 V -31.9812 H -43.5"/><g class="mut m2023 s2030 unknown_time" transform="translate(0 -15.9906)"><line x1="0" x2="0" y1="0" y2="15.9906"/><path class="sym" d="M -3,-3 l 6,6 M -3,3 l 6,-6"/><text class="lab rgt" transform="translate(5 0)">2023</text></g><circle class="sym" cx="0" cy="0" r="3"/><text class="lab rgt" transform="translate(3 -7)"/></g><g class="a2014 i2 leaf node n5 p0 sample" transform="translate(-43.5 95.9435)"><path class="edge" d="M 0 0 V -95.9435 H 43.5"/><rect class="sym" height="6" style="fill:red;" width="6" x="-3" y="-3"/><text class="lab" transform="translate(0 11)">8M31651</text></g><path class="edge" d="M 0 0 V -127.925 H 43.5"/><circle class="sym" cx="0" cy="0" r="3"/><text class="lab rgt" transform="translate(3 -7)"/></g><g class="a4323 c3 node n3475" transform="translate(145 63.9623)"><g class="a3475 c1 node n1022" transform="translate(58 95.9435)"><g class="a1022 i9 leaf node n19 p1 sample" transform="translate(0.0 63.9623)"><path class="edge" d="M 0 0 V -63.9623 H 0.0"/><rect class="sym" height="6" style="fill:blue;" width="6" x="-3" y="-3"/><text class="lab" transform="translate(0 11)">FR050</text></g><path class="edge" d="M 0 0 V -95.9435 H -58"/><circle class="sym" cx="0" cy="0" r="3"/><text class="lab rgt" transform="translate(3 -7)"/></g><g class="a3475 c1 node n2017" transform="translate(-58 63.9623)"><g class="a2017 i7 leaf node n14 p1 sample" transform="translate(0.0 95.9435)"><path class="edge" d="M 0 0 V -95.9435 H 0.0"/><rect class="sym" height="6" style="fill:blue;" width="6" x="-3" y="-3"/><text class="lab" transform="translate(0 11)">FR046</text></g><path class="edge" d="M 0 0 V -63.9623 H 58"/><circle class="sym" cx="0" cy="0" r="3"/><text class="lab lft" transform="translate(-3 -7)"/></g><g class="a3475 i9 leaf node n18 p1 sample" transform="translate(0.0 159.906)"><path class="edge" d="M 0 0 V -159.906 H 0.0"/><rect class="sym" height="6" style="fill:blue;" width="6" x="-3" y="-3"/><text class="lab" transform="translate(0 11)">FR050</text></g><path class="edge" d="M 0 0 V -63.9623 H -145"/><circle class="sym" cx="0" cy="0" r="3"/><text class="lab rgt" transform="translate(3 -7)"/></g><path class="edge" d="M 0 0 V -63.9623 H 145"/><circle class="sym" cx="0" cy="0" r="3"/><text class="lab lft" transform="translate(-3 -7)"/></g><g class="a4883 c2 node n1015" transform="translate(145 223.868)"><g class="a1015 i5 leaf node n11 p1 sample" transform="translate(-29 63.9623)"><path class="edge" d="M 0 0 V -63.9623 H 29"/><rect class="sym" height="6" style="fill:blue;" width="6" x="-3" y="-3"/><text class="lab" transform="translate(0 11)">FR041</text></g><g class="a1015 i6 leaf node n13 p1 sample" transform="translate(29 63.9623)"><path class="edge" d="M 0 0 V -63.9623 H -29"/><rect class="sym" height="6" style="fill:blue;" width="6" x="-3" y="-3"/><text class="lab" transform="translate(0 11)">FR044</text></g><path class="edge" d="M 0 0 V -223.868 H -145"/><circle class="sym" cx="0" cy="0" r="3"/><text class="lab rgt" transform="translate(3 -7)"/></g><path class="edge" d="M 0 0 V -159.906 H 203"/><circle class="sym" cx="0" cy="0" r="3"/><text class="lab lft" transform="translate(-3 -7)"/></g><g class="a5998 c1 node n4882" transform="translate(203 159.906)"><g class="a4882 i2 leaf node n4 p0 sample" transform="translate(0.0 287.83)"><path class="edge" d="M 0 0 V -287.83 H 0.0"/><rect class="sym" height="6" style="fill:red;" width="6" x="-3" y="-3"/><text class="lab" transform="translate(0 11)">8M31651</text></g><path class="edge" d="M 0 0 V -159.906 H -203"/><circle class="sym" cx="0" cy="0" r="3"/><text class="lab rgt" transform="translate(3 -7)"/></g><path class="edge" d="M 0 0 V -31.9812 H 130.5"/><circle class="sym" cx="0" cy="0" r="3"/><text class="lab lft" transform="translate(-3 -7)"/></g><g class="a6263 c1 node n2018" transform="translate(130.5 383.774)"><g class="a2018 i7 leaf node n15 p1 sample" transform="translate(0.0 95.9435)"><path class="edge" d="M 0 0 V -95.9435 H 0.0"/><rect class="sym" height="6" style="fill:blue;" width="6" x="-3" y="-3"/><text class="lab" transform="translate(0 11)">FR046</text></g><path class="edge" d="M 0 0 V -383.774 H -130.5"/><circle class="sym" cx="0" cy="0" r="3"/><text class="lab rgt" transform="translate(3 -7)"/></g><path class="edge" d="M 0 0 V -31.9812 H 94.25"/><circle class="sym" cx="0" cy="0" r="3"/><text class="lab lft" transform="translate(-3 -7)"/></g><path class="edge" d="M 0 0 V -63.9623 H 0.0"/><circle class="sym" cx="0" cy="0" r="3"/><text class="lab lft" transform="translate(-3 -7)"/></g><path class="edge" d="M 0 0 V -65.7391 H -239.25"/><circle class="sym" cx="0" cy="0" r="3"/><text class="lab rgt" transform="translate(3 -7)"/></g><circle class="sym" cx="0" cy="0" r="3"/><text class="lab" transform="translate(0 -11)"/></g></g></g></svg>