<svg baseProfile="full" height="200" version="1.1" width="800" xmlns="http://www.w3.org/2000/svg" xmlns:ev="http://www.w3.org/2001/xml-events" xmlns:xlink="http://www.w3.org/1999/xlink"><defs><style type="text/css"><![CDATA[.background path {fill: #808080; fill-opacity: 0}.background path:nth-child(odd) {fill-opacity: .1}.x-regions rect {fill: yellow; stroke: black; opacity: 0.5}.axes {font-size: 14px}.x-axis .tick .lab {font-weight: bold; dominant-baseline: hanging}.axes, .tree {font-size: 14px; text-anchor: middle}.axes line, .edge {stroke: black; fill: none}.axes .ax-skip {stroke-dasharray: 4}.y-axis .grid {stroke: #FAFAFA}.node > .sym {fill: black; stroke: none}.site > .sym {stroke: black}.mut text {fill: red; font-style: italic}.mut.extra text {fill: hotpink}.mut line {fill: none; stroke: none}.mut .sym {fill: none; stroke: red}.mut.extra .sym {stroke: hotpink}.node .mut .sym {stroke-width: 1.5px}.tree text, .tree-sequence text {dominant-baseline: central}.plotbox .lab.lft {text-anchor: end}.plotbox .lab.rgt {text-anchor: start}.polytomy line {stroke: black; stroke-dasharray: 1px, 1px}.polytomy text {paint-order:stroke;stroke-width:0.3em;stroke:white}]]></style></defs><g class="tree-sequence"><g class="background"><path d="M20,0 l253.333,0 l0,138.2 l-4.43333,25 l0,5 l-248.9,0 l0,-5 l0,-25 l0,-138.2z"/><path d="M273.333,0 l253.333,0 l0,138.2 l62.9533,25 l0,5 l-320.72,0 l0,-5 l4.433,-25 l0,-138.2z"/><path d="M526.667,0 l253.333,0 l0,138.2 l0,25 l0,5 l-190.38,0 l0,-5 l-62.953,-25 l0,-138.2z"/></g><g class="axes"><g class="x-axis"><g class="title" transform="translate(400 200)"><text class="lab" text-anchor="middle" transform="translate(0 -11)">Genome position</text></g><line class="ax-line" x1="20" x2="780" y1="163.2" y2="163.2"/><g class="ticks"><g class="tick" transform="translate(20 163.2)"><line x1="0" x2="0" y1="0" y2="5"/><g transform="translate(0 6)"><text class="lab">0</text></g></g><g class="tick" transform="translate(268.9 163.2)"><line x1="0" x2="0" y1="0" y2="5"/><g transform="translate(0 6)"><text class="lab">655</text></g></g><g class="tick" transform="translate(589.62 163.2)"><line x1="0" x2="0" y1="0" y2="5"/><g transform="translate(0 6)"><text class="lab">1499</text></g></g></g><g class="site s0" transform="translate(268.9 163.2)"><line class="sym" x1="0" x2="0" y1="0" y2="-10"/><g class="mut m0"><polyline class="sym" points="2.5,-6.5 0,-1.5 -2.5,-6.5"/></g></g><g class="site s1" transform="translate(292.46 163.2)"><line class="sym" x1="0" x2="0" y1="0" y2="-10"/></g><g class="site s2" transform="translate(449.4 163.2)"><line class="sym" x1="0" x2="0" y1="0" y2="-10"/><g class="mut m1"><polyline class="sym" points="2.5,-6.5 0,-1.5 -2.5,-6.5"/></g></g><g class="site s3" transform="translate(589.62 163.2)"><line class="sym" x1="0" x2="0" y1="0" y2="-10"/><g class="mut m2"><polyline class="sym" points="2.5,-6.5 0,-1.5 -2.5,-6.5"/></g></g><g class="site s4" transform="translate(670.18 163.2)"><line class="sym" x1="0" x2="0" y1="0" y2="-10"/><g class="mut m3"><polyline class="sym" points="2.5,-6.5 0,-1.5 -2.5,-6.5"/></g></g></g></g><g class="plotbox trees"><g class="tree t-1" transform="translate(20 0)"><g class="plotbox"><g class="i0 leaf node n0 root sample" transform="translate(37.7778 121.4)"><rect class="sym" height="6" width="6" x="-3" y="-3"/><text class="lab" transform="translate(0 11)">0</text></g><g class="i0 leaf node n1 root sample" transform="translate(73.3333 121.4)"><rect class="sym" height="6" width="6" x="-3" y="-3"/><text class="lab" transform="translate(0 11)">1</text></g><g class="i1 leaf node n2 root sample" transform="translate(108.889 121.4)"><rect class="sym" height="6" width="6" x="-3" y="-3"/><text class="lab" transform="translate(0 11)">2</text></g><g class="i1 leaf node n3 root sample" transform="translate(144.444 121.4)"><rect class="sym" height="6" width="6" x="-3" y="-3"/><text class="lab" transform="translate(0 11)">3</text></g><g class="i2 leaf node n4 root sample" transform="translate(180 121.4)"><rect class="sym" height="6" width="6" x="-3" y="-3"/><text class="lab" transform="translate(0 11)">4</text></g><g class="i2 leaf node n5 root sample" transform="translate(215.556 121.4)"><rect class="sym" height="6" width="6" x="-3" y="-3"/><text class="lab" transform="translate(0 11)">5</text></g></g></g><g class="tree t0" transform="translate(273.333 0)"><g class="plotbox"><g class="c2 node n9 root" transform="translate(162.222 26.8)"><g class="a9 i2 leaf m1 node n5 s2 sample" transform="translate(53.3333 94.6)"><path class="edge" d="M 0 0 V -94.6 H -53.3333"/><g class="mut m1 s2 unknown_time" transform="translate(0 -47.3)"><line x1="0" x2="0" y1="0" y2="47.3"/><path class="sym" d="M -3,-3 l 6,6 M -3,3 l 6,-6"/><text class="lab rgt" transform="translate(5 0)">1</text></g><rect class="sym" height="6" width="6" x="-3" y="-3"/><text class="lab" transform="translate(0 11)">5</text></g><g class="a9 c3 node n8" transform="translate(-53.3333 6.75714)"><g class="a8 i0 leaf node n0 sample" transform="translate(-71.1111 87.8429)"><path class="edge" d="M 0 0 V -87.8429 H 71.1111"/><rect class="sym" height="6" width="6" x="-3" y="-3"/><text class="lab" transform="translate(0 11)">0</text></g><g class="a8 i2 leaf node n4 sample" transform="translate(71.1111 87.8429)"><path class="edge" d="M 0 0 V -87.8429 H -71.1111"/><rect class="sym" height="6" width="6" x="-3" y="-3"/><text class="lab" transform="translate(0 11)">4</text></g><g class="a8 c3 m0 node n6 s0" transform="translate(0.0 49.0708)"><g class="a6 i0 leaf node n1 sample" transform="translate(-35.5556 38.772)"><path class="edge" d="M 0 0 V -38.772 H 35.5556"/><rect class="sym" height="6" width="6" x="-3" y="-3"/><text class="lab" transform="translate(0 11)">1</text></g><g class="a6 i1 leaf node n2 sample" transform="translate(0.0 38.772)"><path class="edge" d="M 0 0 V -38.772 H 0.0"/><rect class="sym" height="6" width="6" x="-3" y="-3"/><text class="lab" transform="translate(0 11)">2</text></g><g class="a6 i1 leaf node n3 sample" transform="translate(35.5556 38.772)"><path class="edge" d="M 0 0 V -38.772 H -35.5556"/><rect class="sym" height="6" width="6" x="-3" y="-3"/><text class="lab" transform="translate(0 11)">3</text></g><path class="edge" d="M 0 0 V -49.0708 H 0.0"/><g class="mut m0 s0 unknown_time" transform="translate(0 -24.5354)"><line x1="0" x2="0" y1="0" y2="24.5354"/><path class="sym" d="M -3,-3 l 6,6 M -3,3 l 6,-6"/><text class="lab rgt" transform="translate(5 0)">0</text></g><circle class="sym" cx="0" cy="0" r="3"/><text class="lab rgt" transform="translate(3 -7)">6</text></g><path class="edge" d="M 0 0 V -6.75714 H 53.3333"/><circle class="sym" cx="0" cy="0" r="3"/><text class="lab lft" transform="translate(-3 -7)">8</text></g><circle class="sym" cx="0" cy="0" r="3"/><text class="lab" transform="translate(0 -11)">9</text></g></g></g><g class="tree t1" transform="translate(526.667 0)"><g class="plotbox"><g class="c3 node n10 root" transform="translate(153.333 26.8)"><g class="a10 i1 leaf node n3 sample" transform="translate(26.6667 94.6)"><path class="edge" d="M 0 0 V -94.6 H -26.6667"/><rect class="sym" height="6" width="6" x="-3" y="-3"/><text class="lab" transform="translate(0 11)">3</text></g><g class="a10 i2 leaf m3 node n5 s4 sample" transform="translate(62.2222 94.6)"><path class="edge" d="M 0 0 V -94.6 H -62.2222"/><g class="mut m3 s4 unknown_time" transform="translate(0 -47.3)"><line x1="0" x2="0" y1="0" y2="47.3"/><path class="sym" d="M -3,-3 l 6,6 M -3,3 l 6,-6"/><text class="lab rgt" transform="translate(5 0)">3</text></g><rect class="sym" height="6" width="6" x="-3" y="-3"/><text class="lab" transform="translate(0 11)">5</text></g><g class="a10 c3 m2 node n8 s3" transform="translate(-62.2222 6.75714)"><g class="a8 i0 leaf node n0 sample" transform="translate(-53.3333 87.8429)"><path class="edge" d="M 0 0 V -87.8429 H 53.3333"/><rect class="sym" height="6" width="6" x="-3" y="-3"/><text class="lab" transform="translate(0 11)">0</text></g><g class="a8 i2 leaf node n4 sample" transform="translate(53.3333 87.8429)"><path class="edge" d="M 0 0 V -87.8429 H -53.3333"/><rect class="sym" height="6" width="6" x="-3" y="-3"/><text class="lab" transform="translate(0 11)">4</text></g><g class="a8 c2 node n6" transform="translate(0.0 49.0708)"><g class="a6 i0 leaf node n1 sample" transform="translate(-17.7778 38.772)"><path class="edge" d="M 0 0 V -38.772 H 17.7778"/><rect class="sym" height="6" width="6" x="-3" y="-3"/><text class="lab" transform="translate(0 11)">1</text></g><g class="a6 i1 leaf node n2 sample" transform="translate(17.7778 38.772)"><path class="edge" d="M 0 0 V -38.772 H -17.7778"/><rect class="sym" height="6" width="6" x="-3" y="-3"/><text class="lab" transform="translate(0 11)">2</text></g><path class="edge" d="M 0 0 V -49.0708 H 0.0"/><circle class="sym" cx="0" cy="0" r="3"/><text class="lab rgt" transform="translate(3 -7)">6</text></g><path class="edge" d="M 0 0 V -6.75714 H 62.2222"/><g class="mut m2 s3 unknown_time" transform="translate(0 -3.37857)"><line x1="0" x2="0" y1="0" y2="3.37857"/><path class="sym" d="M -3,-3 l 6,6 M -3,3 l 6,-6"/><text class="lab lft" transform="translate(-5 0)">2</text></g><circle class="sym" cx="0" cy="0" r="3"/><text class="lab lft" transform="translate(-3 -7)">8</text></g><circle class="sym" cx="0" cy="0" r="3"/><text class="lab" transform="translate(0 -11)">10</text></g></g></g></g></g></svg>