<svg baseProfile="full" height="200" version="1.1" width="800" xmlns="http://www.w3.org/2000/svg" xmlns:ev="http://www.w3.org/2001/xml-events" xmlns:xlink="http://www.w3.org/1999/xlink"><defs><style type="text/css"><![CDATA[.background path {fill: #808080; fill-opacity: 0}.background path:nth-child(odd) {fill-opacity: .1}.x-regions rect {fill: yellow; stroke: black; opacity: 0.5}.axes {font-size: 14px}.x-axis .tick .lab {font-weight: bold; dominant-baseline: hanging}.axes, .tree {font-size: 14px; text-anchor: middle}.axes line, .edge {stroke: black; fill: none}.axes .ax-skip {stroke-dasharray: 4}.y-axis .grid {stroke: #FAFAFA}.node > .sym {fill: black; stroke: none}.site > .sym {stroke: black}.mut text {fill: red; font-style: italic}.mut.extra text {fill: hotpink}.mut line {fill: none; stroke: none}.mut .sym {fill: none; stroke: red}.mut.extra .sym {stroke: hotpink}.node .mut .sym {stroke-width: 1.5px}.tree text, .tree-sequence text {dominant-baseline: central}.plotbox .lab.lft {text-anchor: end}.plotbox .lab.rgt {text-anchor: start}.polytomy line {stroke: black; stroke-dasharray: 1px, 1px}.polytomy text {paint-order:stroke;stroke-width:0.3em;stroke:white}]]></style></defs><g class="tree-sequence"><g class="background"><path d="M20,0 l126.667,0 l0,138.2 l12.7933,25 l0,5 l-139.46,0 l0,-5 l0,-25 l0,-138.2z"/><path d="M146.667,0 l126.667,0 l0,138.2 l69.2867,25 l0,5 l-183.16,0 l0,-5 l-12.793,-25 l0,-138.2z"/><path d="M273.333,0 l126.667,0 l0,138.2 l36.1,25 l0,5 l-93.48,0 l0,-5 l-69.287,-25 l0,-138.2z"/><path d="M400,0 l126.667,0 l0,138.2 l27.2333,25 l0,5 l-117.8,0 l0,-5 l-36.1,-25 l0,-138.2z"/><path d="M526.667,0 l126.667,0 l0,138.2 l-90.6933,25 l0,5 l-8.74,0 l0,-5 l-27.233,-25 l0,-138.2z"/><path d="M653.333,0 l126.667,0 l0,138.2 l0,25 l0,5 l-217.36,0 l0,-5 l90.693,-25 l0,-138.2z"/></g><g class="axes"><g class="x-axis"><g class="title" transform="translate(400 200)"><text class="lab" text-anchor="middle" transform="translate(0 -11)">Genome position</text></g><line class="ax-line" x1="20" x2="780" y1="163.2" y2="163.2"/><g class="ticks"><g class="tick" transform="translate(20 163.2)"><line x1="0" x2="0" y1="0" y2="5"/><g transform="translate(0 6)"><text class="lab">0</text></g></g><g class="tick" transform="translate(159.46 163.2)"><line x1="0" x2="0" y1="0" y2="5"/><g transform="translate(0 6)"><text class="lab">367</text></g></g><g class="tick" transform="translate(342.62 163.2)"><line x1="0" x2="0" y1="0" y2="5"/><g transform="translate(0 6)"><text class="lab">849</text></g></g><g class="tick" transform="translate(436.1 163.2)"><line x1="0" x2="0" y1="0" y2="5"/><g transform="translate(0 6)"><text class="lab">1095</text></g></g><g class="tick" transform="translate(553.9 163.2)"><line x1="0" x2="0" y1="0" y2="5"/><g transform="translate(0 6)"><text class="lab">1405</text></g></g><g class="tick" transform="translate(562.64 163.2)"><line x1="0" x2="0" y1="0" y2="5"/><g transform="translate(0 6)"><text class="lab">1428</text></g></g></g><g class="site s0" transform="translate(268.9 163.2)"><line class="sym" x1="0" x2="0" y1="0" y2="-10"/><g class="mut m0"><polyline class="sym" points="2.5,-6.5 0,-1.5 -2.5,-6.5"/></g></g><g class="site s1" transform="translate(292.46 163.2)"><line class="sym" x1="0" x2="0" y1="0" y2="-10"/></g><g class="site s2" transform="translate(449.4 163.2)"><line class="sym" x1="0" x2="0" y1="0" y2="-10"/><g class="mut m1"><polyline class="sym" points="2.5,-6.5 0,-1.5 -2.5,-6.5"/></g></g><g class="site s3" transform="translate(589.62 163.2)"><line class="sym" x1="0" x2="0" y1="0" y2="-10"/><g class="mut m2"><polyline class="sym" points="2.5,-6.5 0,-1.5 -2.5,-6.5"/></g></g><g class="site s4" transform="translate(670.18 163.2)"><line class="sym" x1="0" x2="0" y1="0" y2="-10"/><g class="mut m3"><polyline class="sym" points="2.5,-6.5 0,-1.5 -2.5,-6.5"/></g></g></g></g><g class="plotbox trees"><g class="tree t-1" transform="translate(20 0)"><g class="plotbox"><g class="c2 node n17 p0 root" transform="translate(66.9444 45.72)"><g class="a17 c2 node n7 p0" transform="translate(21.6667 56.76)"><g class="a7 i1 leaf node n3 p0 sample" transform="translate(10.8333 18.92)"><path class="edge" d="M 0 0 V -18.92 H -10.8333"/><rect class="sym" height="6" width="6" x="-3" y="-3"/><text class="lab" transform="translate(0 11)">3</text></g><g class="a7 c2 node n6 p0" transform="translate(-10.8333 9.46)"><g class="a6 i0 leaf node n1 p0 sample" transform="translate(-7.22222 9.46)"><path class="edge" d="M 0 0 V -9.46 H 7.22222"/><rect class="sym" height="6" width="6" x="-3" y="-3"/><text class="lab" transform="translate(0 11)">1</text></g><g class="a6 i1 leaf node n2 p0 sample" transform="translate(7.22222 9.46)"><path class="edge" d="M 0 0 V -9.46 H -7.22222"/><rect class="sym" height="6" width="6" x="-3" y="-3"/><text class="lab" transform="translate(0 11)">2</text></g><path class="edge" d="M 0 0 V -9.46 H 10.8333"/><circle class="sym" cx="0" cy="0" r="3"/><text class="lab lft" transform="translate(-3 -7)">6</text></g><path class="edge" d="M 0 0 V -56.76 H -21.6667"/><circle class="sym" cx="0" cy="0" r="3"/><text class="lab rgt" transform="translate(3 -7)">7</text></g><g class="a17 c2 node n15 p0" transform="translate(-21.6667 18.92)"><g class="a15 i2 leaf node n5 p0 sample" transform="translate(10.8333 56.76)"><path class="edge" d="M 0 0 V -56.76 H -10.8333"/><rect class="sym" height="6" width="6" x="-3" y="-3"/><text class="lab" transform="translate(0 11)">5</text></g><g class="a15 c2 node n10 p0" transform="translate(-10.8333 28.38)"><g class="a10 i0 leaf node n0 p0 sample" transform="translate(-7.22222 28.38)"><path class="edge" d="M 0 0 V -28.38 H 7.22222"/><rect class="sym" height="6" width="6" x="-3" y="-3"/><text class="lab" transform="translate(0 11)">0</text></g><g class="a10 i2 leaf node n4 p0 sample" transform="translate(7.22222 28.38)"><path class="edge" d="M 0 0 V -28.38 H -7.22222"/><rect class="sym" height="6" width="6" x="-3" y="-3"/><text class="lab" transform="translate(0 11)">4</text></g><path class="edge" d="M 0 0 V -28.38 H 10.8333"/><circle class="sym" cx="0" cy="0" r="3"/><text class="lab lft" transform="translate(-3 -7)">10</text></g><path class="edge" d="M 0 0 V -18.92 H 21.6667"/><circle class="sym" cx="0" cy="0" r="3"/><text class="lab lft" transform="translate(-3 -7)">15</text></g><circle class="sym" cx="0" cy="0" r="3"/><text class="lab" transform="translate(0 -11)">17</text></g></g></g><g class="tree t0" transform="translate(146.667 0)"><g class="plotbox"><g class="c2 node n18 p0 root" transform="translate(66.9444 36.26)"><g class="a18 c2 m0 node n7 p0 s0" transform="translate(21.6667 66.22)"><g class="a7 i1 leaf node n3 p0 sample" transform="translate(10.8333 18.92)"><path class="edge" d="M 0 0 V -18.92 H -10.8333"/><rect class="sym" height="6" width="6" x="-3" y="-3"/><text class="lab" transform="translate(0 11)">3</text></g><g class="a7 c2 node n6 p0" transform="translate(-10.8333 9.46)"><g class="a6 i0 leaf node n1 p0 sample" transform="translate(-7.22222 9.46)"><path class="edge" d="M 0 0 V -9.46 H 7.22222"/><rect class="sym" height="6" width="6" x="-3" y="-3"/><text class="lab" transform="translate(0 11)">1</text></g><g class="a6 i1 leaf node n2 p0 sample" transform="translate(7.22222 9.46)"><path class="edge" d="M 0 0 V -9.46 H -7.22222"/><rect class="sym" height="6" width="6" x="-3" y="-3"/><text class="lab" transform="translate(0 11)">2</text></g><path class="edge" d="M 0 0 V -9.46 H 10.8333"/><circle class="sym" cx="0" cy="0" r="3"/><text class="lab lft" transform="translate(-3 -7)">6</text></g><path class="edge" d="M 0 0 V -66.22 H -21.6667"/><g class="mut m0 s0" transform="translate(0 -33.11)"><line x1="0" x2="0" y1="0" y2="33.11"/><path class="sym" d="M -3,-3 l 6,6 M -3,3 l 6,-6"/><text class="lab rgt" transform="translate(5 0)">0</text></g><circle class="sym" cx="0" cy="0" r="3"/><text class="lab rgt" transform="translate(3 -7)">7</text></g><g class="a18 c2 node n15 p0" transform="translate(-21.6667 28.38)"><g class="a15 i2 leaf node n5 p0 sample" transform="translate(10.8333 56.76)"><path class="edge" d="M 0 0 V -56.76 H -10.8333"/><rect class="sym" height="6" width="6" x="-3" y="-3"/><text class="lab" transform="translate(0 11)">5</text></g><g class="a15 c2 node n10 p0" transform="translate(-10.8333 28.38)"><g class="a10 i0 leaf node n0 p0 sample" transform="translate(-7.22222 28.38)"><path class="edge" d="M 0 0 V -28.38 H 7.22222"/><rect class="sym" height="6" width="6" x="-3" y="-3"/><text class="lab" transform="translate(0 11)">0</text></g><g class="a10 i2 leaf node n4 p0 sample" transform="translate(7.22222 28.38)"><path class="edge" d="M 0 0 V -28.38 H -7.22222"/><rect class="sym" height="6" width="6" x="-3" y="-3"/><text class="lab" transform="translate(0 11)">4</text></g><path class="edge" d="M 0 0 V -28.38 H 10.8333"/><circle class="sym" cx="0" cy="0" r="3"/><text class="lab lft" transform="translate(-3 -7)">10</text></g><path class="edge" d="M 0 0 V -28.38 H 21.6667"/><circle class="sym" cx="0" cy="0" r="3"/><text class="lab lft" transform="translate(-3 -7)">15</text></g><circle class="sym" cx="0" cy="0" r="3"/><text class="lab" transform="translate(0 -11)">18</text></g></g></g><g class="tree t1" transform="translate(273.333 0)"><g class="plotbox"><g class="c2 node n18 p0 root" transform="translate(76.875 36.26)"><g class="a18 i2 leaf node n5 p0 sample" transform="translate(22.5694 85.14)"><path class="edge" d="M 0 0 V -85.14 H -22.5694"/><rect class="sym" height="6" width="6" x="-3" y="-3"/><text class="lab" transform="translate(0 11)">5</text></g><g class="a18 c2 node n14 p0" transform="translate(-22.5694 37.84)"><g class="a14 c2 node n7 p0" transform="translate(19.8611 28.38)"><g class="a7 i1 leaf node n3 p0 sample" transform="translate(10.8333 18.92)"><path class="edge" d="M 0 0 V -18.92 H -10.8333"/><rect class="sym" height="6" width="6" x="-3" y="-3"/><text class="lab" transform="translate(0 11)">3</text></g><g class="a7 c2 node n6 p0" transform="translate(-10.8333 9.46)"><g class="a6 i0 leaf node n1 p0 sample" transform="translate(-7.22222 9.46)"><path class="edge" d="M 0 0 V -9.46 H 7.22222"/><rect class="sym" height="6" width="6" x="-3" y="-3"/><text class="lab" transform="translate(0 11)">1</text></g><g class="a6 i1 leaf node n2 p0 sample" transform="translate(7.22222 9.46)"><path class="edge" d="M 0 0 V -9.46 H -7.22222"/><rect class="sym" height="6" width="6" x="-3" y="-3"/><text class="lab" transform="translate(0 11)">2</text></g><path class="edge" d="M 0 0 V -9.46 H 10.8333"/><circle class="sym" cx="0" cy="0" r="3"/><text class="lab lft" transform="translate(-3 -7)">6</text></g><path class="edge" d="M 0 0 V -28.38 H -19.8611"/><circle class="sym" cx="0" cy="0" r="3"/><text class="lab rgt" transform="translate(3 -7)">7</text></g><g class="a14 c2 node n10 p0" transform="translate(-19.8611 18.92)"><g class="a10 i0 leaf node n0 p0 sample" transform="translate(-7.22222 28.38)"><path class="edge" d="M 0 0 V -28.38 H 7.22222"/><rect class="sym" height="6" width="6" x="-3" y="-3"/><text class="lab" transform="translate(0 11)">0</text></g><g class="a10 i2 leaf node n4 p0 sample" transform="translate(7.22222 28.38)"><path class="edge" d="M 0 0 V -28.38 H -7.22222"/><rect class="sym" height="6" width="6" x="-3" y="-3"/><text class="lab" transform="translate(0 11)">4</text></g><path class="edge" d="M 0 0 V -18.92 H 19.8611"/><circle class="sym" cx="0" cy="0" r="3"/><text class="lab lft" transform="translate(-3 -7)">10</text></g><path class="edge" d="M 0 0 V -37.84 H 22.5694"/><circle class="sym" cx="0" cy="0" r="3"/><text class="lab lft" transform="translate(-3 -7)">14</text></g><circle class="sym" cx="0" cy="0" r="3"/><text class="lab" transform="translate(0 -11)">18</text></g></g></g><g class="tree t2" transform="translate(400 0)"><g class="plotbox"><g class="c2 node n19 p0 root" transform="translate(76.875 26.8)"><g class="a19 i2 leaf m1 node n5 p0 s2 sample" transform="translate(22.5694 94.6)"><path class="edge" d="M 0 0 V -94.6 H -22.5694"/><g class="mut m1 s2" transform="translate(0 -47.3)"><line x1="0" x2="0" y1="0" y2="47.3"/><path class="sym" d="M -3,-3 l 6,6 M -3,3 l 6,-6"/><text class="lab rgt" transform="translate(5 0)">1</text></g><rect class="sym" height="6" width="6" x="-3" y="-3"/><text class="lab" transform="translate(0 11)">5</text></g><g class="a19 c2 node n14 p0" transform="translate(-22.5694 47.3)"><g class="a14 c2 node n7 p0" transform="translate(19.8611 28.38)"><g class="a7 i1 leaf node n3 p0 sample" transform="translate(10.8333 18.92)"><path class="edge" d="M 0 0 V -18.92 H -10.8333"/><rect class="sym" height="6" width="6" x="-3" y="-3"/><text class="lab" transform="translate(0 11)">3</text></g><g class="a7 c2 node n6 p0" transform="translate(-10.8333 9.46)"><g class="a6 i0 leaf node n1 p0 sample" transform="translate(-7.22222 9.46)"><path class="edge" d="M 0 0 V -9.46 H 7.22222"/><rect class="sym" height="6" width="6" x="-3" y="-3"/><text class="lab" transform="translate(0 11)">1</text></g><g class="a6 i1 leaf node n2 p0 sample" transform="translate(7.22222 9.46)"><path class="edge" d="M 0 0 V -9.46 H -7.22222"/><rect class="sym" height="6" width="6" x="-3" y="-3"/><text class="lab" transform="translate(0 11)">2</text></g><path class="edge" d="M 0 0 V -9.46 H 10.8333"/><circle class="sym" cx="0" cy="0" r="3"/><text class="lab lft" transform="translate(-3 -7)">6</text></g><path class="edge" d="M 0 0 V -28.38 H -19.8611"/><circle class="sym" cx="0" cy="0" r="3"/><text class="lab rgt" transform="translate(3 -7)">7</text></g><g class="a14 c2 node n10 p0" transform="translate(-19.8611 18.92)"><g class="a10 i0 leaf node n0 p0 sample" transform="translate(-7.22222 28.38)"><path class="edge" d="M 0 0 V -28.38 H 7.22222"/><rect class="sym" height="6" width="6" x="-3" y="-3"/><text class="lab" transform="translate(0 11)">0</text></g><g class="a10 i2 leaf node n4 p0 sample" transform="translate(7.22222 28.38)"><path class="edge" d="M 0 0 V -28.38 H -7.22222"/><rect class="sym" height="6" width="6" x="-3" y="-3"/><text class="lab" transform="translate(0 11)">4</text></g><path class="edge" d="M 0 0 V -18.92 H 19.8611"/><circle class="sym" cx="0" cy="0" r="3"/><text class="lab lft" transform="translate(-3 -7)">10</text></g><path class="edge" d="M 0 0 V -47.3 H 22.5694"/><circle class="sym" cx="0" cy="0" r="3"/><text class="lab lft" transform="translate(-3 -7)">14</text></g><circle class="sym" cx="0" cy="0" r="3"/><text class="lab" transform="translate(0 -11)">19</text></g></g></g><g class="tree t3" transform="translate(526.667 0)"><g class="plotbox"><g class="c2 node n16 p0 root" transform="translate(76.875 55.18)"><g class="a16 i2 leaf node n5 p0 sample" transform="translate(22.5694 66.22)"><path class="edge" d="M 0 0 V -66.22 H -22.5694"/><rect class="sym" height="6" width="6" x="-3" y="-3"/><text class="lab" transform="translate(0 11)">5</text></g><g class="a16 c2 node n14 p0" transform="translate(-22.5694 18.92)"><g class="a14 c2 node n7 p0" transform="translate(19.8611 28.38)"><g class="a7 i1 leaf node n3 p0 sample" transform="translate(10.8333 18.92)"><path class="edge" d="M 0 0 V -18.92 H -10.8333"/><rect class="sym" height="6" width="6" x="-3" y="-3"/><text class="lab" transform="translate(0 11)">3</text></g><g class="a7 c2 node n6 p0" transform="translate(-10.8333 9.46)"><g class="a6 i0 leaf node n1 p0 sample" transform="translate(-7.22222 9.46)"><path class="edge" d="M 0 0 V -9.46 H 7.22222"/><rect class="sym" height="6" width="6" x="-3" y="-3"/><text class="lab" transform="translate(0 11)">1</text></g><g class="a6 i1 leaf node n2 p0 sample" transform="translate(7.22222 9.46)"><path class="edge" d="M 0 0 V -9.46 H -7.22222"/><rect class="sym" height="6" width="6" x="-3" y="-3"/><text class="lab" transform="translate(0 11)">2</text></g><path class="edge" d="M 0 0 V -9.46 H 10.8333"/><circle class="sym" cx="0" cy="0" r="3"/><text class="lab lft" transform="translate(-3 -7)">6</text></g><path class="edge" d="M 0 0 V -28.38 H -19.8611"/><circle class="sym" cx="0" cy="0" r="3"/><text class="lab rgt" transform="translate(3 -7)">7</text></g><g class="a14 c2 node n10 p0" transform="translate(-19.8611 18.92)"><g class="a10 i0 leaf node n0 p0 sample" transform="translate(-7.22222 28.38)"><path class="edge" d="M 0 0 V -28.38 H 7.22222"/><rect class="sym" height="6" width="6" x="-3" y="-3"/><text class="lab" transform="translate(0 11)">0</text></g><g class="a10 i2 leaf node n4 p0 sample" transform="translate(7.22222 28.38)"><path class="edge" d="M 0 0 V -28.38 H -7.22222"/><rect class="sym" height="6" width="6" x="-3" y="-3"/><text class="lab" transform="translate(0 11)">4</text></g><path class="edge" d="M 0 0 V -18.92 H 19.8611"/><circle class="sym" cx="0" cy="0" r="3"/><text class="lab lft" transform="translate(-3 -7)">10</text></g><path class="edge" d="M 0 0 V -18.92 H 22.5694"/><circle class="sym" cx="0" cy="0" r="3"/><text class="lab lft" transform="translate(-3 -7)">14</text></g><circle class="sym" cx="0" cy="0" r="3"/><text class="lab" transform="translate(0 -11)">16</text></g></g></g><g class="tree t4" transform="translate(653.333 0)"><g class="plotbox"><g class="c2 node n16 p0 root" transform="translate(70.5556 55.18)"><g class="a16 c2 m2 node n14 p0 s3" transform="translate(-21.6667 18.92)"><g class="a14 c2 node n10 p0" transform="translate(-14.4444 18.92)"><g class="a10 i0 leaf node n0 p0 sample" transform="translate(-7.22222 28.38)"><path class="edge" d="M 0 0 V -28.38 H 7.22222"/><rect class="sym" height="6" width="6" x="-3" y="-3"/><text class="lab" transform="translate(0 11)">0</text></g><g class="a10 i2 leaf node n4 p0 sample" transform="translate(7.22222 28.38)"><path class="edge" d="M 0 0 V -28.38 H -7.22222"/><rect class="sym" height="6" width="6" x="-3" y="-3"/><text class="lab" transform="translate(0 11)">4</text></g><path class="edge" d="M 0 0 V -18.92 H 14.4444"/><circle class="sym" cx="0" cy="0" r="3"/><text class="lab lft" transform="translate(-3 -7)">10</text></g><g class="a14 c2 node n6 p0" transform="translate(14.4444 37.84)"><g class="a6 i0 leaf node n1 p0 sample" transform="translate(-7.22222 9.46)"><path class="edge" d="M 0 0 V -9.46 H 7.22222"/><rect class="sym" height="6" width="6" x="-3" y="-3"/><text class="lab" transform="translate(0 11)">1</text></g><g class="a6 i1 leaf node n2 p0 sample" transform="translate(7.22222 9.46)"><path class="edge" d="M 0 0 V -9.46 H -7.22222"/><rect class="sym" height="6" width="6" x="-3" y="-3"/><text class="lab" transform="translate(0 11)">2</text></g><path class="edge" d="M 0 0 V -37.84 H -14.4444"/><circle class="sym" cx="0" cy="0" r="3"/><text class="lab rgt" transform="translate(3 -7)">6</text></g><path class="edge" d="M 0 0 V -18.92 H 21.6667"/><g class="mut m2 s3" transform="translate(0 -9.46)"><line x1="0" x2="0" y1="0" y2="9.46"/><path class="sym" d="M -3,-3 l 6,6 M -3,3 l 6,-6"/><text class="lab lft" transform="translate(-5 0)">2</text></g><circle class="sym" cx="0" cy="0" r="3"/><text class="lab lft" transform="translate(-3 -7)">14</text></g><g class="a16 c2 node n11 p0" transform="translate(21.6667 28.38)"><g class="a11 i1 leaf node n3 p0 sample" transform="translate(-7.22222 37.84)"><path class="edge" d="M 0 0 V -37.84 H 7.22222"/><rect class="sym" height="6" width="6" x="-3" y="-3"/><text class="lab" transform="translate(0 11)">3</text></g><g class="a11 i2 leaf m3 node n5 p0 s4 sample" transform="translate(7.22222 37.84)"><path class="edge" d="M 0 0 V -37.84 H -7.22222"/><g class="mut m3 s4" transform="translate(0 -18.92)"><line x1="0" x2="0" y1="0" y2="18.92"/><path class="sym" d="M -3,-3 l 6,6 M -3,3 l 6,-6"/><text class="lab rgt" transform="translate(5 0)">3</text></g><rect class="sym" height="6" width="6" x="-3" y="-3"/><text class="lab" transform="translate(0 11)">5</text></g><path class="edge" d="M 0 0 V -28.38 H -21.6667"/><circle class="sym" cx="0" cy="0" r="3"/><text class="lab rgt" transform="translate(3 -7)">11</text></g><circle class="sym" cx="0" cy="0" r="3"/><text class="lab" transform="translate(0 -11)">16</text></g></g></g></g></g></svg>