<svg xmlns="http://www.w3.org/2000/svg" xmlns:ev="http://www.w3.org/2001/xml-events" xmlns:xlink="http://www.w3.org/1999/xlink" baseProfile="full" height="200" version="1.1" width="200"><defs><style type="text/css"><![CDATA[.background path {fill: #808080; fill-opacity: 0}.background path:nth-child(odd) {fill-opacity: .1}.x-regions rect {fill: yellow; stroke: black; opacity: 0.5}.axes {font-size: 14px}.x-axis .tick .lab {font-weight: bold; dominant-baseline: hanging}.axes, .tree {font-size: 14px; text-anchor: middle}.axes line, .edge {stroke: black; fill: none}.axes .ax-skip {stroke-dasharray: 4}.y-axis .grid {stroke: #FAFAFA}.node > .sym {fill: black; stroke: none}.site > .sym {stroke: black}.mut text {fill: red; font-style: italic}.mut.extra text {fill: hotpink}.mut line {fill: none; stroke: none}.mut .sym {fill: none; stroke: red}.mut.extra .sym {stroke: hotpink}.node .mut .sym {stroke-width: 1.5px}.tree text, .tree-sequence text {dominant-baseline: central}.plotbox .lab.lft {text-anchor: end}.plotbox .lab.rgt {text-anchor: start}.polytomy line {stroke: black; stroke-dasharray: 1px, 1px}.polytomy text {paint-order:stroke;stroke-width:0.3em;stroke:white}]]></style></defs><g class="tree-sequence"><g class="background"><path d="M56.8,0 l123.2,0 l0,138.2 l0,25 l0,5 l-123.2,0 l0,-5 l0,-25 l0,-138.2z"/></g><g class="axes"><g class="x-axis"><g class="title" transform="translate(118.4 200)"><text class="lab" text-anchor="middle" transform="translate(0 -11)">Genome position</text></g><line class="ax-line" x1="56.8" x2="180" y1="163.2" y2="163.2"/><g class="ticks"><g class="tick" transform="translate(56.8 163.2)"><line x1="0" x2="0" y1="0" y2="5"/><g transform="translate(0 6)"><text class="lab">0</text></g></g><g class="tick" transform="translate(180 163.2)"><line x1="0" x2="0" y1="0" y2="5"/><g transform="translate(0 6)"><text class="lab">1</text></g></g></g></g><g class="y-axis"><g class="title" transform="translate(0 65.7)"><text class="lab" text-anchor="middle" transform="translate(11) rotate(-90)">Time ago (generations)</text></g><line class="ax-line" x1="56.8" x2="56.8" y1="121.4" y2="10"/><g class="ticks"><g class="tick" transform="translate(56.8 121.4)"><line x1="0" x2="-5" y1="0" y2="0"/><g transform="translate(-6 0)"><text class="lab" text-anchor="end">0.00</text></g></g><g class="tick" transform="translate(56.8 119.835)"><line x1="0" x2="-5" y1="0" y2="0"/><g transform="translate(-6 0)"><text class="lab" text-anchor="end">0.07</text></g></g><g class="tick" transform="translate(56.8 94.7646)"><line x1="0" x2="-5" y1="0" y2="0"/><g transform="translate(-6 0)"><text class="lab" text-anchor="end">1.21</text></g></g><g class="tick" transform="translate(56.8 26.8)"><line x1="0" x2="-5" y1="0" y2="0"/><g transform="translate(-6 0)"><text class="lab" text-anchor="end">4.28</text></g></g></g></g></g><g class="plotbox trees"><g class="tree t0" transform="translate(56.8 0)"><g class="plotbox"><g class="c2 node n6 p0 root" transform="translate(61.6 26.8)"><g class="a6 c2 node n4 p0" transform="translate(20.8 93.035)"><g class="a4 i1 leaf node n1 p0 sample" transform="translate(-10.4 1.565)"><path class="edge e0" d="M 0 0 V -1.565 H 10.4"/><rect class="sym" height="6" width="6" x="-3" y="-3"/><text class="lab" transform="translate(0 11)">1</text></g><g class="a4 i2 leaf node n2 p0 sample" transform="translate(10.4 1.565)"><path class="edge e1" d="M 0 0 V -1.565 H -10.4"/><rect class="sym" height="6" width="6" x="-3" y="-3"/><text class="lab" transform="translate(0 11)">2</text></g><path class="edge e4" d="M 0 0 V -93.035 H -20.8"/><circle class="sym" cx="0" cy="0" r="3"/><text class="lab rgt" transform="translate(3 -7)">4</text></g><g class="a6 c2 node n5 p0" transform="translate(-20.8 67.9646)"><g class="a5 i0 leaf node n0 p0 sample" transform="translate(-10.4 26.6354)"><path class="edge e2" d="M 0 0 V -26.6354 H 10.4"/><rect class="sym" height="6" width="6" x="-3" y="-3"/><text class="lab" transform="translate(0 11)">0</text></g><g class="a5 i3 leaf node n3 p0 sample" transform="translate(10.4 26.6354)"><path class="edge e3" d="M 0 0 V -26.6354 H -10.4"/><rect class="sym" height="6" width="6" x="-3" y="-3"/><text class="lab" transform="translate(0 11)">3</text></g><path class="edge e5" d="M 0 0 V -67.9646 H 20.8"/><circle class="sym" cx="0" cy="0" r="3"/><text class="lab lft" transform="translate(-3 -7)">5</text></g><circle class="sym" cx="0" cy="0" r="3"/><text class="lab" transform="translate(0 -11)">6</text></g></g></g></g></g></svg>