<svg xmlns="http://www.w3.org/2000/svg" xmlns:ev="http://www.w3.org/2001/xml-events" xmlns:xlink="http://www.w3.org/1999/xlink" baseProfile="full" height="200" version="1.1" width="200"><defs><style type="text/css"><![CDATA[.background path {fill: #808080; fill-opacity: 0}.background path:nth-child(odd) {fill-opacity: .1}.x-regions rect {fill: yellow; stroke: black; opacity: 0.5}.axes {font-size: 14px}.x-axis .tick .lab {font-weight: bold; dominant-baseline: hanging}.axes, .tree {font-size: 14px; text-anchor: middle}.axes line, .edge {stroke: black; fill: none}.axes .ax-skip {stroke-dasharray: 4}.y-axis .grid {stroke: #FAFAFA}.node > .sym {fill: black; stroke: none}.site > .sym {stroke: black}.mut text {fill: red; font-style: italic}.mut.extra text {fill: hotpink}.mut line {fill: none; stroke: none}.mut .sym {fill: none; stroke: red}.mut.extra .sym {stroke: hotpink}.node .mut .sym {stroke-width: 1.5px}.tree text, .tree-sequence text {dominant-baseline: central}.plotbox .lab.lft {text-anchor: end}.plotbox .lab.rgt {text-anchor: start}.polytomy line {stroke: black; stroke-dasharray: 1px, 1px}.polytomy text {paint-order:stroke;stroke-width:0.3em;stroke:white}]]></style></defs><g class="tree-sequence"><g class="background"><path d="M56.8,0 l123.2,0 l0,138.2 l0,25 l0,5 l-123.2,0 l0,-5 l0,-25 l0,-138.2z"/></g><g class="axes"><g class="x-axis"><g class="title" transform="translate(118.4 200)"><text class="lab" text-anchor="middle" transform="translate(0 -11)">Genome position</text></g><line class="ax-line" x1="56.8" x2="180" y1="163.2" y2="163.2"/><g class="ticks"><g class="tick" transform="translate(56.8 163.2)"><line x1="0" x2="0" y1="0" y2="5"/><g transform="translate(0 6)"><text class="lab">0</text></g></g><g class="tick" transform="translate(180 163.2)"><line x1="0" x2="0" y1="0" y2="5"/><g transform="translate(0 6)"><text class="lab">1</text></g></g></g></g><g class="y-axis"><g class="title" transform="translate(0 65.7)"><text class="lab" text-anchor="middle" transform="translate(11) rotate(-90)">Time ago (generations)</text></g><line class="ax-line" x1="56.8" x2="56.8" y1="121.4" y2="10"/><g class="ticks"><g class="tick" transform="translate(56.8 121.4)"><line x1="0" x2="-5" y1="0" y2="0"/><g transform="translate(-6 0)"><text class="lab" text-anchor="end">0</text></g></g><g class="tick" transform="translate(56.8 97.1864)"><line x1="0" x2="-5" y1="0" y2="0"/><g transform="translate(-6 0)"><text class="lab" text-anchor="end">1</text></g></g><g class="tick" transform="translate(56.8 72.9727)"><line x1="0" x2="-5" y1="0" y2="0"/><g transform="translate(-6 0)"><text class="lab" text-anchor="end">3</text></g></g><g class="tick" transform="translate(56.8 58.8087)"><line x1="0" x2="-5" y1="0" y2="0"/><g transform="translate(-6 0)"><text class="lab" text-anchor="end">5</text></g></g><g class="tick" transform="translate(56.8 37.6346)"><line x1="0" x2="-5" y1="0" y2="0"/><g transform="translate(-6 0)"><text class="lab" text-anchor="end">10</text></g></g><g class="tick" transform="translate(56.8 26.8)"><line x1="0" x2="-5" y1="0" y2="0"/><g transform="translate(-6 0)"><text class="lab" text-anchor="end">14</text></g></g></g></g></g><g class="plotbox trees"><g class="tree t0" transform="translate(56.8 0)"><g class="plotbox"><g class="c2 node n10 p0 root" transform="translate(76.3333 26.8)"><g class="a10 i2 leaf node n5 p0 sample" transform="translate(19.9333 94.6)"><path class="edge e8" d="M 0 0 V -94.6 H -19.9333"/><rect class="sym" height="6" width="6" x="-3" y="-3"/><text class="lab" transform="translate(0 11)">5</text></g><g class="a10 c2 node n9 p0" transform="translate(-19.9333 10.8346)"><g class="a9 c2 node n7 p0" transform="translate(19.0667 35.3381)"><g class="a7 i0 leaf node n1 p0 sample" transform="translate(-6.93333 48.4273)"><path class="edge e2" d="M 0 0 V -48.4273 H 6.93333"/><rect class="sym" height="6" width="6" x="-3" y="-3"/><text class="lab" transform="translate(0 11)">1</text></g><g class="a7 i1 leaf node n3 p0 sample" transform="translate(6.93333 48.4273)"><path class="edge e3" d="M 0 0 V -48.4273 H -6.93333"/><rect class="sym" height="6" width="6" x="-3" y="-3"/><text class="lab" transform="translate(0 11)">3</text></g><path class="edge e6" d="M 0 0 V -35.3381 H -19.0667"/><circle class="sym" cx="0" cy="0" r="3"/><text class="lab rgt" transform="translate(3 -7)">7</text></g><g class="a9 c2 node n8 p0" transform="translate(-19.0667 21.1741)"><g class="a8 i0 leaf node n0 p0 sample" transform="translate(-10.4 62.5913)"><path class="edge e4" d="M 0 0 V -62.5913 H 10.4"/><rect class="sym" height="6" width="6" x="-3" y="-3"/><text class="lab" transform="translate(0 11)">0</text></g><g class="a8 c2 node n6 p0" transform="translate(10.4 38.3777)"><g class="a6 i1 leaf node n2 p0 sample" transform="translate(-6.93333 24.2136)"><path class="edge e0" d="M 0 0 V -24.2136 H 6.93333"/><rect class="sym" height="6" width="6" x="-3" y="-3"/><text class="lab" transform="translate(0 11)">2</text></g><g class="a6 i2 leaf node n4 p0 sample" transform="translate(6.93333 24.2136)"><path class="edge e1" d="M 0 0 V -24.2136 H -6.93333"/><rect class="sym" height="6" width="6" x="-3" y="-3"/><text class="lab" transform="translate(0 11)">4</text></g><path class="edge e5" d="M 0 0 V -38.3777 H -10.4"/><circle class="sym" cx="0" cy="0" r="3"/><text class="lab rgt" transform="translate(3 -7)">6</text></g><path class="edge e7" d="M 0 0 V -21.1741 H 19.0667"/><circle class="sym" cx="0" cy="0" r="3"/><text class="lab lft" transform="translate(-3 -7)">8</text></g><path class="edge e9" d="M 0 0 V -10.8346 H 19.9333"/><circle class="sym" cx="0" cy="0" r="3"/><text class="lab lft" transform="translate(-3 -7)">9</text></g><circle class="sym" cx="0" cy="0" r="3"/><text class="lab" transform="translate(0 -11)">10</text></g></g></g></g></g></svg>