<svg xmlns="http://www.w3.org/2000/svg" xmlns:ev="http://www.w3.org/2001/xml-events" xmlns:xlink="http://www.w3.org/1999/xlink" baseProfile="full" height="200" version="1.1" width="800"><defs><style type="text/css"><![CDATA[.background path {fill: #808080; fill-opacity: 0}.background path:nth-child(odd) {fill-opacity: .1}.x-regions rect {fill: yellow; stroke: black; opacity: 0.5}.axes {font-size: 14px}.x-axis .tick .lab {font-weight: bold; dominant-baseline: hanging}.axes, .tree {font-size: 14px; text-anchor: middle}.axes line, .edge {stroke: black; fill: none}.axes .ax-skip {stroke-dasharray: 4}.y-axis .grid {stroke: #FAFAFA}.node > .sym {fill: black; stroke: none}.site > .sym {stroke: black}.mut text {fill: red; font-style: italic}.mut.extra text {fill: hotpink}.mut line {fill: none; stroke: none}.mut .sym {fill: none; stroke: red}.mut.extra .sym {stroke: hotpink}.node .mut .sym {stroke-width: 1.5px}.tree text, .tree-sequence text {dominant-baseline: central}.plotbox .lab.lft {text-anchor: end}.plotbox .lab.rgt {text-anchor: start}.polytomy line {stroke: black; stroke-dasharray: 1px, 1px}.polytomy text {paint-order:stroke;stroke-width:0.3em;stroke:white}]]></style></defs><g class="tree-sequence"><g class="background"><path d="M56.8,0 l180.8,0 l0,138.2 l180.8,25 l0,5 l-361.6,0 l0,-5 l0,-25 l0,-138.2z"/><path d="M237.6,0 l180.8,0 l0,138.2 l216.96,25 l0,5 l-216.96,0 l0,-5 l-180.8,-25 l0,-138.2z"/><path d="M418.4,0 l180.8,0 l0,138.2 l108.48,25 l0,5 l-72.32,0 l0,-5 l-216.96,-25 l0,-138.2z"/><path d="M599.2,0 l180.8,0 l0,138.2 l0,25 l0,5 l-72.32,0 l0,-5 l-108.48,-25 l0,-138.2z"/></g><g class="axes"><g class="x-axis"><g class="title" transform="translate(418.4 200)"><text class="lab" text-anchor="middle" transform="translate(0 -11)">Genome position</text></g><line class="ax-line" x1="56.8" x2="780" y1="163.2" y2="163.2"/><g class="ticks"><g class="tick" transform="translate(56.8 163.2)"><line x1="0" x2="0" y1="0" y2="5"/><g transform="translate(0 6)"><text class="lab">0</text></g></g><g class="tick" transform="translate(418.4 163.2)"><line x1="0" x2="0" y1="0" y2="5"/><g transform="translate(0 6)"><text class="lab">5</text></g></g><g class="tick" transform="translate(635.36 163.2)"><line x1="0" x2="0" y1="0" y2="5"/><g transform="translate(0 6)"><text class="lab">8</text></g></g><g class="tick" transform="translate(707.68 163.2)"><line x1="0" x2="0" y1="0" y2="5"/><g transform="translate(0 6)"><text class="lab">9</text></g></g><g class="tick" transform="translate(780 163.2)"><line x1="0" x2="0" y1="0" y2="5"/><g transform="translate(0 6)"><text class="lab">10</text></g></g></g></g><g class="y-axis"><g class="title" transform="translate(0 65.7)"><text class="lab" text-anchor="middle" transform="translate(11) rotate(-90)">Time ago (generations)</text></g><line class="ax-line" x1="56.8" x2="56.8" y1="121.4" y2="10"/><g class="ticks"><g class="tick" transform="translate(56.8 121.4)"><line x1="0" x2="-5" y1="0" y2="0"/><g transform="translate(-6 0)"><text class="lab" text-anchor="end">0</text></g></g><g class="tick" transform="translate(56.8 99.0584)"><line x1="0" x2="-5" y1="0" y2="0"/><g transform="translate(-6 0)"><text class="lab" text-anchor="end">1</text></g></g><g class="tick" transform="translate(56.8 76.7168)"><line x1="0" x2="-5" y1="0" y2="0"/><g transform="translate(-6 0)"><text class="lab" text-anchor="end">2</text></g></g><g class="tick" transform="translate(56.8 54.3752)"><line x1="0" x2="-5" y1="0" y2="0"/><g transform="translate(-6 0)"><text class="lab" text-anchor="end">3</text></g></g><g class="tick" transform="translate(56.8 32.0336)"><line x1="0" x2="-5" y1="0" y2="0"/><g transform="translate(-6 0)"><text class="lab" text-anchor="end">4</text></g></g></g></g></g><g class="plotbox trees"><g class="tree t0" transform="translate(56.8 0)"><g class="plotbox"><g class="c2 node n9 p0 root" transform="translate(68.4 26.8)"><g class="a9 i0 leaf node n0 p0 sample" transform="translate(-30.8 94.6)"><path class="edge e12" d="M 0 0 V -94.6 H 30.8"/><rect class="sym" height="6" width="6" x="-3" y="-3"/><text class="lab" transform="translate(0 11)">0</text></g><g class="a9 c2 node n6 p0" transform="translate(30.8 84.1936)"><g class="a6 i0 leaf node n1 p0 sample" transform="translate(-26.4 10.4064)"><path class="edge e5" d="M 0 0 V -10.4064 H 26.4"/><rect class="sym" height="6" width="6" x="-3" y="-3"/><text class="lab" transform="translate(0 11)">1</text></g><g class="a6 c2 node n5 p0" transform="translate(26.4 3.02377)"><g class="a5 i1 leaf node n2 p0 sample" transform="translate(-17.6 7.38266)"><path class="edge e2" d="M 0 0 V -7.38266 H 17.6"/><rect class="sym" height="6" width="6" x="-3" y="-3"/><text class="lab" transform="translate(0 11)">2</text></g><g class="a5 i1 leaf node n3 p0 sample" transform="translate(17.6 7.38266)"><path class="edge e3" d="M 0 0 V -7.38266 H -17.6"/><rect class="sym" height="6" width="6" x="-3" y="-3"/><text class="lab" transform="translate(0 11)">3</text></g><path class="edge e6" d="M 0 0 V -3.02377 H -26.4"/><circle class="sym" cx="0" cy="0" r="3"/><text class="lab rgt" transform="translate(3 -7)">5</text></g><path class="edge e13" d="M 0 0 V -84.1936 H -30.8"/><circle class="sym" cx="0" cy="0" r="3"/><text class="lab rgt" transform="translate(3 -7)">6</text></g><circle class="sym" cx="0" cy="0" r="3"/><text class="lab" transform="translate(0 -11)">9</text></g></g></g><g class="tree t1" transform="translate(237.6 0)"><g class="plotbox"><g class="c2 node n8 p0 root" transform="translate(68.4 35.8533)"><g class="a8 i0 leaf node n0 p0 sample" transform="translate(-30.8 85.5467)"><path class="edge e10" d="M 0 0 V -85.5467 H 30.8"/><rect class="sym" height="6" width="6" x="-3" y="-3"/><text class="lab" transform="translate(0 11)">0</text></g><g class="a8 c2 node n6 p0" transform="translate(30.8 75.1402)"><g class="a6 i0 leaf node n1 p0 sample" transform="translate(-26.4 10.4064)"><path class="edge e5" d="M 0 0 V -10.4064 H 26.4"/><rect class="sym" height="6" width="6" x="-3" y="-3"/><text class="lab" transform="translate(0 11)">1</text></g><g class="a6 c2 node n5 p0" transform="translate(26.4 3.02377)"><g class="a5 i1 leaf node n2 p0 sample" transform="translate(-17.6 7.38266)"><path class="edge e2" d="M 0 0 V -7.38266 H 17.6"/><rect class="sym" height="6" width="6" x="-3" y="-3"/><text class="lab" transform="translate(0 11)">2</text></g><g class="a5 i1 leaf node n3 p0 sample" transform="translate(17.6 7.38266)"><path class="edge e3" d="M 0 0 V -7.38266 H -17.6"/><rect class="sym" height="6" width="6" x="-3" y="-3"/><text class="lab" transform="translate(0 11)">3</text></g><path class="edge e6" d="M 0 0 V -3.02377 H -26.4"/><circle class="sym" cx="0" cy="0" r="3"/><text class="lab rgt" transform="translate(3 -7)">5</text></g><path class="edge e11" d="M 0 0 V -75.1402 H -30.8"/><circle class="sym" cx="0" cy="0" r="3"/><text class="lab rgt" transform="translate(3 -7)">6</text></g><circle class="sym" cx="0" cy="0" r="3"/><text class="lab" transform="translate(0 -11)">8</text></g></g></g><g class="tree t2" transform="translate(418.4 0)"><g class="plotbox"><g class="c2 node n7 p0 root" transform="translate(68.4 95.3192)"><g class="a7 i0 leaf node n0 p0 sample" transform="translate(-30.8 26.0808)"><path class="edge e7" d="M 0 0 V -26.0808 H 30.8"/><rect class="sym" height="6" width="6" x="-3" y="-3"/><text class="lab" transform="translate(0 11)">0</text></g><g class="a7 c2 node n6 p0" transform="translate(30.8 15.6743)"><g class="a6 i0 leaf node n1 p0 sample" transform="translate(-26.4 10.4064)"><path class="edge e5" d="M 0 0 V -10.4064 H 26.4"/><rect class="sym" height="6" width="6" x="-3" y="-3"/><text class="lab" transform="translate(0 11)">1</text></g><g class="a6 c2 node n5 p0" transform="translate(26.4 3.02377)"><g class="a5 i1 leaf node n2 p0 sample" transform="translate(-17.6 7.38266)"><path class="edge e2" d="M 0 0 V -7.38266 H 17.6"/><rect class="sym" height="6" width="6" x="-3" y="-3"/><text class="lab" transform="translate(0 11)">2</text></g><g class="a5 i1 leaf node n3 p0 sample" transform="translate(17.6 7.38266)"><path class="edge e3" d="M 0 0 V -7.38266 H -17.6"/><rect class="sym" height="6" width="6" x="-3" y="-3"/><text class="lab" transform="translate(0 11)">3</text></g><path class="edge e6" d="M 0 0 V -3.02377 H -26.4"/><circle class="sym" cx="0" cy="0" r="3"/><text class="lab rgt" transform="translate(3 -7)">5</text></g><path class="edge e9" d="M 0 0 V -15.6743 H -30.8"/><circle class="sym" cx="0" cy="0" r="3"/><text class="lab rgt" transform="translate(3 -7)">6</text></g><circle class="sym" cx="0" cy="0" r="3"/><text class="lab" transform="translate(0 -11)">7</text></g></g></g><g class="tree t3" transform="translate(599.2 0)"><g class="plotbox"><g class="c2 node n7 p0 root" transform="translate(77.2 95.3192)"><g class="a7 i0 leaf node n0 p0 sample" transform="translate(-39.6 26.0808)"><path class="edge e7" d="M 0 0 V -26.0808 H 39.6"/><rect class="sym" height="6" width="6" x="-3" y="-3"/><text class="lab" transform="translate(0 11)">0</text></g><g class="a7 c2 node n5 p0" transform="translate(39.6 18.6981)"><g class="a5 i1 leaf node n3 p0 sample" transform="translate(26.4 7.38266)"><path class="edge e3" d="M 0 0 V -7.38266 H -26.4"/><rect class="sym" height="6" width="6" x="-3" y="-3"/><text class="lab" transform="translate(0 11)">3</text></g><g class="a5 c2 node n4 p0" transform="translate(-26.4 0.47066)"><g class="a4 i0 leaf node n1 p0 sample" transform="translate(-17.6 6.912)"><path class="edge e0" d="M 0 0 V -6.912 H 17.6"/><rect class="sym" height="6" width="6" x="-3" y="-3"/><text class="lab" transform="translate(0 11)">1</text></g><g class="a4 i1 leaf node n2 p0 sample" transform="translate(17.6 6.912)"><path class="edge e1" d="M 0 0 V -6.912 H -17.6"/><rect class="sym" height="6" width="6" x="-3" y="-3"/><text class="lab" transform="translate(0 11)">2</text></g><path class="edge e4" d="M 0 0 V -0.47066 H 26.4"/><circle class="sym" cx="0" cy="0" r="3"/><text class="lab lft" transform="translate(-3 -7)">4</text></g><path class="edge e8" d="M 0 0 V -18.6981 H -39.6"/><circle class="sym" cx="0" cy="0" r="3"/><text class="lab rgt" transform="translate(3 -7)">5</text></g><circle class="sym" cx="0" cy="0" r="3"/><text class="lab" transform="translate(0 -11)">7</text></g></g></g></g></g></svg>