<?xml version="1.0" encoding="utf-8" standalone="no"?>
<!DOCTYPE svg PUBLIC "-//W3C//DTD SVG 1.1//EN"
  "http://www.w3.org/Graphics/SVG/1.1/DTD/svg11.dtd">
<svg xmlns:xlink="http://www.w3.org/1999/xlink" width="371.52pt" height="280.512pt" viewBox="0 0 371.52 280.512" xmlns="http://www.w3.org/2000/svg" version="1.1">
 <metadata>
  <rdf:RDF xmlns:dc="http://purl.org/dc/elements/1.1/" xmlns:cc="http://creativecommons.org/ns#" xmlns:rdf="http://www.w3.org/1999/02/22-rdf-syntax-ns#">
   <cc:Work>
    <dc:type rdf:resource="http://purl.org/dc/dcmitype/StillImage"/>
    <dc:date>2026-02-11T11:41:52.079537</dc:date>
    <dc:format>image/svg+xml</dc:format>
    <dc:creator>
     <cc:Agent>
      <dc:title>Matplotlib v3.10.3, https://matplotlib.org/</dc:title>
     </cc:Agent>
    </dc:creator>
   </cc:Work>
  </rdf:RDF>
 </metadata>
 <defs>
  <style type="text/css">*{stroke-linejoin: round; stroke-linecap: butt}</style>
 </defs>
 <g id="figure_1">
  <g id="patch_1">
   <path d="M 0 280.512 
L 371.52 280.512 
L 371.52 0 
L 0 0 
z
" style="fill: #ffffff"/>
  </g>
  <g id="axes_1">
   <g id="patch_2">
    <path d="M 7.2 273.312 
L 364.32 273.312 
L 364.32 7.2 
L 7.2 7.2 
z
" style="fill: #ffffff"/>
   </g>
   <g id="patch_3">
    <path d="M 178.002744 246.366032 
Q 111.972594 213.563957 46.943733 181.259297 
" clip-path="url(#pee11342d61)" style="fill: none; stroke: #000000; stroke-linecap: round"/>
    <path d="M 49.63625 184.83006 
L 46.943733 181.259297 
L 51.415854 181.247741 
z
" clip-path="url(#pee11342d61)" style="stroke: #000000; stroke-linecap: round"/>
   </g>
   <g id="patch_4">
    <path d="M 193.517256 246.366032 
Q 259.547406 213.563957 324.576267 181.259297 
" clip-path="url(#pee11342d61)" style="fill: none; stroke: #000000; stroke-linecap: round"/>
    <path d="M 320.104146 181.247741 
L 324.576267 181.259297 
L 321.88375 184.83006 
z
" clip-path="url(#pee11342d61)" style="stroke: #000000; stroke-linecap: round"/>
   </g>
   <g id="patch_5">
    <path d="M 38.189752 168.25252 
Q 38.189752 140.257709 38.189752 113.380932 
" clip-path="url(#pee11342d61)" style="fill: none; stroke: #000000; stroke-linecap: round"/>
    <path d="M 36.189752 117.380932 
L 38.189752 113.380932 
L 40.189752 117.380932 
z
" clip-path="url(#pee11342d61)" style="stroke: #000000; stroke-linecap: round"/>
   </g>
   <g id="patch_6">
    <path d="M 46.597761 174.822104 
Q 185.761634 140.255594 323.840444 105.958599 
" clip-path="url(#pee11342d61)" style="fill: none; stroke: #000000; stroke-linecap: round"/>
    <path d="M 319.476281 104.981828 
L 323.840444 105.958599 
L 320.440529 108.863867 
z
" clip-path="url(#pee11342d61)" style="stroke: #000000; stroke-linecap: round"/>
   </g>
   <g id="patch_7">
    <path d="M 324.922239 174.822104 
Q 185.758366 140.255594 47.679556 105.958599 
" clip-path="url(#pee11342d61)" style="fill: none; stroke: #000000; stroke-linecap: round"/>
    <path d="M 51.079471 108.863867 
L 47.679556 105.958599 
L 52.043719 104.981828 
z
" clip-path="url(#pee11342d61)" style="stroke: #000000; stroke-linecap: round"/>
   </g>
   <g id="patch_8">
    <path d="M 333.330248 168.25252 
Q 333.330248 140.257709 333.330248 113.380932 
" clip-path="url(#pee11342d61)" style="fill: none; stroke: #000000; stroke-linecap: round"/>
    <path d="M 331.330248 117.380932 
L 333.330248 113.380932 
L 335.330248 117.380932 
z
" clip-path="url(#pee11342d61)" style="stroke: #000000; stroke-linecap: round"/>
   </g>
   <g id="patch_9">
    <path d="M 38.189752 94.943429 
Q 38.189752 66.948618 38.189752 40.071841 
" clip-path="url(#pee11342d61)" style="fill: none; stroke: #000000; stroke-linecap: round"/>
    <path d="M 36.189752 44.071841 
L 38.189752 40.071841 
L 40.189752 44.071841 
z
" clip-path="url(#pee11342d61)" style="stroke: #000000; stroke-linecap: round"/>
   </g>
   <g id="patch_10">
    <path d="M 46.597761 101.513013 
Q 185.761634 66.946503 323.840444 32.649508 
" clip-path="url(#pee11342d61)" style="fill: none; stroke: #000000; stroke-linecap: round"/>
    <path d="M 319.476281 31.672737 
L 323.840444 32.649508 
L 320.440529 35.554776 
z
" clip-path="url(#pee11342d61)" style="stroke: #000000; stroke-linecap: round"/>
   </g>
   <g id="patch_11">
    <path d="M 324.922239 101.513013 
Q 185.758366 66.946503 47.679556 32.649508 
" clip-path="url(#pee11342d61)" style="fill: none; stroke: #000000; stroke-linecap: round"/>
    <path d="M 51.079471 35.554776 
L 47.679556 32.649508 
L 52.043719 31.672737 
z
" clip-path="url(#pee11342d61)" style="stroke: #000000; stroke-linecap: round"/>
   </g>
   <g id="patch_12">
    <path d="M 333.330248 94.943429 
Q 333.330248 66.948618 333.330248 40.071841 
" clip-path="url(#pee11342d61)" style="fill: none; stroke: #000000; stroke-linecap: round"/>
    <path d="M 331.330248 44.071841 
L 333.330248 40.071841 
L 335.330248 44.071841 
z
" clip-path="url(#pee11342d61)" style="stroke: #000000; stroke-linecap: round"/>
   </g>
   <g id="matplotlib.axis_1">
    <g id="xtick_1"/>
    <g id="xtick_2"/>
    <g id="xtick_3"/>
    <g id="xtick_4"/>
    <g id="xtick_5"/>
    <g id="xtick_6"/>
    <g id="xtick_7"/>
   </g>
   <g id="matplotlib.axis_2">
    <g id="ytick_1"/>
    <g id="ytick_2"/>
    <g id="ytick_3"/>
    <g id="ytick_4"/>
    <g id="ytick_5"/>
    <g id="ytick_6"/>
    <g id="ytick_7"/>
    <g id="ytick_8"/>
   </g>
   <g id="PathCollection_1">
    <defs>
     <path id="C0_0_6c011ef999" d="M 0 8.660254 
C 2.296726 8.660254 4.499694 7.747755 6.123724 6.123724 
C 7.747755 4.499694 8.660254 2.296726 8.660254 -0 
C 8.660254 -2.296726 7.747755 -4.499694 6.123724 -6.123724 
C 4.499694 -7.747755 2.296726 -8.660254 0 -8.660254 
C -2.296726 -8.660254 -4.499694 -7.747755 -6.123724 -6.123724 
C -7.747755 -4.499694 -8.660254 -2.296726 -8.660254 0 
C -8.660254 2.296726 -7.747755 4.499694 -6.123724 6.123724 
C -4.499694 7.747755 -2.296726 8.660254 0 8.660254 
z
"/>
    </defs>
    <g clip-path="url(#pee11342d61)">
     <use xlink:href="#C0_0_6c011ef999" x="185.76" y="250.219636" style="fill: #1f77b4; stroke: #1f77b4"/>
    </g>
    <g clip-path="url(#pee11342d61)">
     <use xlink:href="#C0_0_6c011ef999" x="38.189752" y="176.910545" style="fill: #1f77b4; stroke: #1f77b4"/>
    </g>
    <g clip-path="url(#pee11342d61)">
     <use xlink:href="#C0_0_6c011ef999" x="333.330248" y="176.910545" style="fill: #1f77b4; stroke: #1f77b4"/>
    </g>
    <g clip-path="url(#pee11342d61)">
     <use xlink:href="#C0_0_6c011ef999" x="38.189752" y="103.601455" style="fill: #1f77b4; stroke: #1f77b4"/>
    </g>
    <g clip-path="url(#pee11342d61)">
     <use xlink:href="#C0_0_6c011ef999" x="333.330248" y="103.601455" style="fill: #1f77b4; stroke: #1f77b4"/>
    </g>
    <g clip-path="url(#pee11342d61)">
     <use xlink:href="#C0_0_6c011ef999" x="38.189752" y="30.292364" style="fill: #1f77b4; stroke: #1f77b4"/>
    </g>
    <g clip-path="url(#pee11342d61)">
     <use xlink:href="#C0_0_6c011ef999" x="333.330248" y="30.292364" style="fill: #1f77b4; stroke: #1f77b4"/>
    </g>
   </g>
   <g id="patch_13">
    <path d="M 7.2 273.312 
L 7.2 7.2 
" style="fill: none; stroke: #000000; stroke-width: 0.8; stroke-linejoin: miter; stroke-linecap: square"/>
   </g>
   <g id="patch_14">
    <path d="M 364.32 273.312 
L 364.32 7.2 
" style="fill: none; stroke: #000000; stroke-width: 0.8; stroke-linejoin: miter; stroke-linecap: square"/>
   </g>
   <g id="patch_15">
    <path d="M 7.2 273.312 
L 364.32 273.312 
" style="fill: none; stroke: #000000; stroke-width: 0.8; stroke-linejoin: miter; stroke-linecap: square"/>
   </g>
   <g id="patch_16">
    <path d="M 7.2 7.2 
L 364.32 7.2 
" style="fill: none; stroke: #000000; stroke-width: 0.8; stroke-linejoin: miter; stroke-linecap: square"/>
   </g>
   <g id="text_1">
    <g clip-path="url(#pee11342d61)">
     <!-- 0 -->
     <g transform="translate(181.9425 253.530886) scale(0.12 -0.12)">
      <defs>
       <path id="DejaVuSans-30" d="M 2034 4250 
Q 1547 4250 1301 3770 
Q 1056 3291 1056 2328 
Q 1056 1369 1301 889 
Q 1547 409 2034 409 
Q 2525 409 2770 889 
Q 3016 1369 3016 2328 
Q 3016 3291 2770 3770 
Q 2525 4250 2034 4250 
z
M 2034 4750 
Q 2819 4750 3233 4129 
Q 3647 3509 3647 2328 
Q 3647 1150 3233 529 
Q 2819 -91 2034 -91 
Q 1250 -91 836 529 
Q 422 1150 422 2328 
Q 422 3509 836 4129 
Q 1250 4750 2034 4750 
z
" transform="scale(0.015625)"/>
      </defs>
      <use xlink:href="#DejaVuSans-30"/>
     </g>
    </g>
   </g>
   <g id="text_2">
    <g clip-path="url(#pee11342d61)">
     <!-- 1 -->
     <g transform="translate(34.372252 180.221795) scale(0.12 -0.12)">
      <defs>
       <path id="DejaVuSans-31" d="M 794 531 
L 1825 531 
L 1825 4091 
L 703 3866 
L 703 4441 
L 1819 4666 
L 2450 4666 
L 2450 531 
L 3481 531 
L 3481 0 
L 794 0 
L 794 531 
z
" transform="scale(0.015625)"/>
      </defs>
      <use xlink:href="#DejaVuSans-31"/>
     </g>
    </g>
   </g>
   <g id="text_3">
    <g clip-path="url(#pee11342d61)">
     <!-- 2 -->
     <g transform="translate(329.512748 180.221795) scale(0.12 -0.12)">
      <defs>
       <path id="DejaVuSans-32" d="M 1228 531 
L 3431 531 
L 3431 0 
L 469 0 
L 469 531 
Q 828 903 1448 1529 
Q 2069 2156 2228 2338 
Q 2531 2678 2651 2914 
Q 2772 3150 2772 3378 
Q 2772 3750 2511 3984 
Q 2250 4219 1831 4219 
Q 1534 4219 1204 4116 
Q 875 4013 500 3803 
L 500 4441 
Q 881 4594 1212 4672 
Q 1544 4750 1819 4750 
Q 2544 4750 2975 4387 
Q 3406 4025 3406 3419 
Q 3406 3131 3298 2873 
Q 3191 2616 2906 2266 
Q 2828 2175 2409 1742 
Q 1991 1309 1228 531 
z
" transform="scale(0.015625)"/>
      </defs>
      <use xlink:href="#DejaVuSans-32"/>
     </g>
    </g>
   </g>
   <g id="text_4">
    <g clip-path="url(#pee11342d61)">
     <!-- 3 -->
     <g transform="translate(34.372252 106.912705) scale(0.12 -0.12)">
      <defs>
       <path id="DejaVuSans-33" d="M 2597 2516 
Q 3050 2419 3304 2112 
Q 3559 1806 3559 1356 
Q 3559 666 3084 287 
Q 2609 -91 1734 -91 
Q 1441 -91 1130 -33 
Q 819 25 488 141 
L 488 750 
Q 750 597 1062 519 
Q 1375 441 1716 441 
Q 2309 441 2620 675 
Q 2931 909 2931 1356 
Q 2931 1769 2642 2001 
Q 2353 2234 1838 2234 
L 1294 2234 
L 1294 2753 
L 1863 2753 
Q 2328 2753 2575 2939 
Q 2822 3125 2822 3475 
Q 2822 3834 2567 4026 
Q 2313 4219 1838 4219 
Q 1578 4219 1281 4162 
Q 984 4106 628 3988 
L 628 4550 
Q 988 4650 1302 4700 
Q 1616 4750 1894 4750 
Q 2613 4750 3031 4423 
Q 3450 4097 3450 3541 
Q 3450 3153 3228 2886 
Q 3006 2619 2597 2516 
z
" transform="scale(0.015625)"/>
      </defs>
      <use xlink:href="#DejaVuSans-33"/>
     </g>
    </g>
   </g>
   <g id="text_5">
    <g clip-path="url(#pee11342d61)">
     <!-- 4 -->
     <g transform="translate(329.512748 106.912705) scale(0.12 -0.12)">
      <defs>
       <path id="DejaVuSans-34" d="M 2419 4116 
L 825 1625 
L 2419 1625 
L 2419 4116 
z
M 2253 4666 
L 3047 4666 
L 3047 1625 
L 3713 1625 
L 3713 1100 
L 3047 1100 
L 3047 0 
L 2419 0 
L 2419 1100 
L 313 1100 
L 313 1709 
L 2253 4666 
z
" transform="scale(0.015625)"/>
      </defs>
      <use xlink:href="#DejaVuSans-34"/>
     </g>
    </g>
   </g>
   <g id="text_6">
    <g clip-path="url(#pee11342d61)">
     <!-- 5 -->
     <g transform="translate(34.372252 33.603614) scale(0.12 -0.12)">
      <defs>
       <path id="DejaVuSans-35" d="M 691 4666 
L 3169 4666 
L 3169 4134 
L 1269 4134 
L 1269 2991 
Q 1406 3038 1543 3061 
Q 1681 3084 1819 3084 
Q 2600 3084 3056 2656 
Q 3513 2228 3513 1497 
Q 3513 744 3044 326 
Q 2575 -91 1722 -91 
Q 1428 -91 1123 -41 
Q 819 9 494 109 
L 494 744 
Q 775 591 1075 516 
Q 1375 441 1709 441 
Q 2250 441 2565 725 
Q 2881 1009 2881 1497 
Q 2881 1984 2565 2268 
Q 2250 2553 1709 2553 
Q 1456 2553 1204 2497 
Q 953 2441 691 2322 
L 691 4666 
z
" transform="scale(0.015625)"/>
      </defs>
      <use xlink:href="#DejaVuSans-35"/>
     </g>
    </g>
   </g>
   <g id="text_7">
    <g clip-path="url(#pee11342d61)">
     <!-- 6 -->
     <g transform="translate(329.512748 33.603614) scale(0.12 -0.12)">
      <defs>
       <path id="DejaVuSans-36" d="M 2113 2584 
Q 1688 2584 1439 2293 
Q 1191 2003 1191 1497 
Q 1191 994 1439 701 
Q 1688 409 2113 409 
Q 2538 409 2786 701 
Q 3034 994 3034 1497 
Q 3034 2003 2786 2293 
Q 2538 2584 2113 2584 
z
M 3366 4563 
L 3366 3988 
Q 3128 4100 2886 4159 
Q 2644 4219 2406 4219 
Q 1781 4219 1451 3797 
Q 1122 3375 1075 2522 
Q 1259 2794 1537 2939 
Q 1816 3084 2150 3084 
Q 2853 3084 3261 2657 
Q 3669 2231 3669 1497 
Q 3669 778 3244 343 
Q 2819 -91 2113 -91 
Q 1303 -91 875 529 
Q 447 1150 447 2328 
Q 447 3434 972 4092 
Q 1497 4750 2381 4750 
Q 2619 4750 2861 4703 
Q 3103 4656 3366 4563 
z
" transform="scale(0.015625)"/>
      </defs>
      <use xlink:href="#DejaVuSans-36"/>
     </g>
    </g>
   </g>
  </g>
 </g>
 <defs>
  <clipPath id="pee11342d61">
   <rect x="7.2" y="7.2" width="357.12" height="266.112"/>
  </clipPath>
 </defs>
</svg>