<svg xmlns="http://www.w3.org/2000/svg" xmlns:ev="http://www.w3.org/2001/xml-events" xmlns:xlink="http://www.w3.org/1999/xlink" baseProfile="full" height="200" version="1.1" width="600"><defs><style type="text/css"><![CDATA[.background path {fill: #808080; fill-opacity: 0}.background path:nth-child(odd) {fill-opacity: .1}.x-regions rect {fill: yellow; stroke: black; opacity: 0.5}.axes {font-size: 14px}.x-axis .tick .lab {font-weight: bold; dominant-baseline: hanging}.axes, .tree {font-size: 14px; text-anchor: middle}.axes line, .edge {stroke: black; fill: none}.axes .ax-skip {stroke-dasharray: 4}.y-axis .grid {stroke: #FAFAFA}.node > .sym {fill: black; stroke: none}.site > .sym {stroke: black}.mut text {fill: red; font-style: italic}.mut.extra text {fill: hotpink}.mut line {fill: none; stroke: none}.mut .sym {fill: none; stroke: red}.mut.extra .sym {stroke: hotpink}.node .mut .sym {stroke-width: 1.5px}.tree text, .tree-sequence text {dominant-baseline: central}.plotbox .lab.lft {text-anchor: end}.plotbox .lab.rgt {text-anchor: start}.polytomy line {stroke: black; stroke-dasharray: 1px, 1px}.polytomy text {paint-order:stroke;stroke-width:0.3em;stroke:white}]]></style></defs><g class="tree-sequence"><g class="background"><path d="M56.8,0 l523.2,0 l0,138.2 l0,25 l0,5 l-523.2,0 l0,-5 l0,-25 l0,-138.2z"/></g><g class="axes"><g class="x-axis"><g class="title" transform="translate(318.4 200)"><text class="lab" text-anchor="middle" transform="translate(0 -11)">Genome position</text></g><line class="ax-line" x1="56.8" x2="580" y1="163.2" y2="163.2"/><g class="ticks"><g class="tick" transform="translate(56.8 163.2)"><line x1="0" x2="0" y1="0" y2="5"/><g transform="translate(0 6)"><text class="lab">0</text></g></g><g class="tick" transform="translate(580 163.2)"><line x1="0" x2="0" y1="0" y2="5"/><g transform="translate(0 6)"><text class="lab">100</text></g></g></g></g><g class="y-axis"><g class="title" transform="translate(0 65.7)"><text class="lab" text-anchor="middle" transform="translate(11) rotate(-90)">Time ago (generations)</text></g><line class="ax-line" x1="56.8" x2="56.8" y1="121.4" y2="10"/><g class="ticks"><g class="tick" transform="translate(56.8 121.4)"><line x1="0" x2="-5" y1="0" y2="0"/><g transform="translate(-6 0)"><text class="lab" text-anchor="end">0</text></g></g><g class="tick" transform="translate(56.8 102.48)"><line x1="0" x2="-5" y1="0" y2="0"/><g transform="translate(-6 0)"><text class="lab" text-anchor="end">1</text></g></g><g class="tick" transform="translate(56.8 83.56)"><line x1="0" x2="-5" y1="0" y2="0"/><g transform="translate(-6 0)"><text class="lab" text-anchor="end">2</text></g></g><g class="tick" transform="translate(56.8 45.72)"><line x1="0" x2="-5" y1="0" y2="0"/><g transform="translate(-6 0)"><text class="lab" text-anchor="end">4</text></g></g><g class="tick" transform="translate(56.8 26.8)"><line x1="0" x2="-5" y1="0" y2="0"/><g transform="translate(-6 0)"><text class="lab" text-anchor="end">5</text></g></g></g></g></g><g class="plotbox trees"><g class="tree t0" transform="translate(56.8 0)"><g class="plotbox"><g class="c2 i12 node n24 p0 root" transform="translate(46.8444 83.56)"><g class="a24 i0 leaf node n0 p0 sample" transform="translate(-13.4222 37.84)"><path class="edge e10" d="M 0 0 V -37.84 H 13.4222"/><rect class="sym" height="6" width="6" x="-3" y="-3"/><text class="lab" transform="translate(0 11)">0(0)</text></g><g class="a24 i3 leaf node n7 p0 sample" transform="translate(13.4222 37.84)"><path class="edge e11" d="M 0 0 V -37.84 H -13.4222"/><rect class="sym" height="6" width="6" x="-3" y="-3"/><text class="lab" transform="translate(0 11)">3(7)</text></g><circle class="sym" cx="0" cy="0" r="3"/><text class="lab" transform="translate(0 -11)">12(24)</text></g><g class="c2 i16 node n32 p0 root" transform="translate(100.533 83.56)"><g class="a32 i0 leaf node n1 p0 sample" transform="translate(-13.4222 37.84)"><path class="edge e17" d="M 0 0 V -37.84 H 13.4222"/><rect class="sym" height="6" width="6" x="-3" y="-3"/><text class="lab" transform="translate(0 11)">0(1)</text></g><g class="a32 i4 leaf node n8 p0 sample" transform="translate(13.4222 37.84)"><path class="edge e18" d="M 0 0 V -37.84 H -13.4222"/><rect class="sym" height="6" width="6" x="-3" y="-3"/><text class="lab" transform="translate(0 11)">4(8)</text></g><circle class="sym" cx="0" cy="0" r="3"/><text class="lab" transform="translate(0 -11)">16(32)</text></g><g class="c2 i14 node n28 p0 root" transform="translate(174.356 83.56)"><g class="a28 i2 leaf node n4 p0 sample" transform="translate(20.1333 37.84)"><path class="edge e15" d="M 0 0 V -37.84 H -20.1333"/><rect class="sym" height="6" width="6" x="-3" y="-3"/><text class="lab" transform="translate(0 11)">2(4)</text></g><g class="a28 c2 i10 node n20 p0" transform="translate(-20.1333 18.92)"><g class="a20 i1 leaf node n2 p0 sample" transform="translate(-13.4222 18.92)"><path class="edge e2" d="M 0 0 V -18.92 H 13.4222"/><rect class="sym" height="6" width="6" x="-3" y="-3"/><text class="lab" transform="translate(0 11)">1(2)</text></g><g class="a20 i1 leaf node n3 p0 sample" transform="translate(13.4222 18.92)"><path class="edge e3" d="M 0 0 V -18.92 H -13.4222"/><rect class="sym" height="6" width="6" x="-3" y="-3"/><text class="lab" transform="translate(0 11)">1(3)</text></g><path class="edge e16" d="M 0 0 V -18.92 H 20.1333"/><circle class="sym" cx="0" cy="0" r="3"/><text class="lab lft" transform="translate(-3 -7)">10(20)</text></g><circle class="sym" cx="0" cy="0" r="3"/><text class="lab" transform="translate(0 -11)">14(28)</text></g><g class="c2 i12 node n25 p0 root" transform="translate(261.6 83.56)"><g class="a25 c2 i7 node n14 p0" transform="translate(-26.8444 18.92)"><g class="a14 i2 leaf node n5 p0 sample" transform="translate(-13.4222 18.92)"><path class="edge e0" d="M 0 0 V -18.92 H 13.4222"/><rect class="sym" height="6" width="6" x="-3" y="-3"/><text class="lab" transform="translate(0 11)">2(5)</text></g><g class="a14 i3 leaf node n6 p0 sample" transform="translate(13.4222 18.92)"><path class="edge e1" d="M 0 0 V -18.92 H -13.4222"/><rect class="sym" height="6" width="6" x="-3" y="-3"/><text class="lab" transform="translate(0 11)">3(6)</text></g><path class="edge e12" d="M 0 0 V -18.92 H 26.8444"/><circle class="sym" cx="0" cy="0" r="3"/><text class="lab lft" transform="translate(-3 -7)">7(14)</text></g><g class="a25 c2 i10 node n21 p0" transform="translate(26.8444 18.92)"><g class="a21 i5 leaf node n10 p0 sample" transform="translate(-13.4222 18.92)"><path class="edge e4" d="M 0 0 V -18.92 H 13.4222"/><rect class="sym" height="6" width="6" x="-3" y="-3"/><text class="lab" transform="translate(0 11)">5(10)</text></g><g class="a21 i5 leaf node n11 p0 sample" transform="translate(13.4222 18.92)"><path class="edge e5" d="M 0 0 V -18.92 H -13.4222"/><rect class="sym" height="6" width="6" x="-3" y="-3"/><text class="lab" transform="translate(0 11)">5(11)</text></g><path class="edge e13" d="M 0 0 V -18.92 H -26.8444"/><circle class="sym" cx="0" cy="0" r="3"/><text class="lab rgt" transform="translate(3 -7)">10(21)</text></g><circle class="sym" cx="0" cy="0" r="3"/><text class="lab" transform="translate(0 -11)">12(25)</text></g><g class="c1 i13 node n26 p0 root" transform="translate(328.711 83.56)"><g class="a26 i4 leaf node n9 p0 sample" transform="translate(0.0 37.84)"><path class="edge e14" d="M 0 0 V -37.84 H 0.0"/><rect class="sym" height="6" width="6" x="-3" y="-3"/><text class="lab" transform="translate(0 11)">4(9)</text></g><circle class="sym" cx="0" cy="0" r="3"/><text class="lab" transform="translate(0 -11)">13(26)</text></g><g class="c1 i32 node n64 p1 root" transform="translate(389.111 26.8)"><g class="a64 c2 i30 node n60 p1" transform="translate(0.0 18.92)"><g class="a60 i18 leaf node n36 p1 sample" transform="translate(-33.5556 75.68)"><path class="edge e19" d="M 0 0 V -75.68 H 33.5556"/><rect class="sym" height="6" width="6" x="-3" y="-3"/><text class="lab" transform="translate(0 11)">18(36)</text></g><g class="a60 c4 i22 node n45 p1" transform="translate(33.5556 56.76)"><g class="a45 i18 leaf node n37 p1 sample" transform="translate(-40.2667 18.92)"><path class="edge e6" d="M 0 0 V -18.92 H 40.2667"/><rect class="sym" height="6" width="6" x="-3" y="-3"/><text class="lab" transform="translate(0 11)">18(37)</text></g><g class="a45 i19 leaf node n38 p1 sample" transform="translate(-13.4222 18.92)"><path class="edge e7" d="M 0 0 V -18.92 H 13.4222"/><rect class="sym" height="6" width="6" x="-3" y="-3"/><text class="lab" transform="translate(0 11)">19(38)</text></g><g class="a45 i19 leaf node n39 p1 sample" transform="translate(13.4222 18.92)"><path class="edge e8" d="M 0 0 V -18.92 H -13.4222"/><rect class="sym" height="6" width="6" x="-3" y="-3"/><text class="lab" transform="translate(0 11)">19(39)</text></g><g class="a45 i20 leaf node n41 p1 sample" transform="translate(40.2667 18.92)"><path class="edge e9" d="M 0 0 V -18.92 H -40.2667"/><rect class="sym" height="6" width="6" x="-3" y="-3"/><text class="lab" transform="translate(0 11)">20(41)</text></g><path class="edge e20" d="M 0 0 V -56.76 H -33.5556"/><circle class="sym" cx="0" cy="0" r="3"/><text class="lab rgt" transform="translate(3 -7)">22(45)</text></g><path class="edge e22" d="M 0 0 V -18.92 H 0.0"/><circle class="sym" cx="0" cy="0" r="3"/><text class="lab lft" transform="translate(-3 -7)">30(60)</text></g><circle class="sym" cx="0" cy="0" r="3"/><text class="lab" transform="translate(0 -11)">32(64)</text></g><g class="c1 i31 node n63 p1 root" transform="translate(489.778 26.8)"><g class="a63 i20 leaf node n40 p1 sample" transform="translate(0.0 94.6)"><path class="edge e21" d="M 0 0 V -94.6 H 0.0"/><rect class="sym" height="6" width="6" x="-3" y="-3"/><text class="lab" transform="translate(0 11)">20(40)</text></g><circle class="sym" cx="0" cy="0" r="3"/><text class="lab" transform="translate(0 -11)">31(63)</text></g></g></g></g></g></svg>