<svg xmlns="http://www.w3.org/2000/svg" xmlns:ev="http://www.w3.org/2001/xml-events" xmlns:xlink="http://www.w3.org/1999/xlink" baseProfile="full" height="200" version="1.1" width="800"><defs><style type="text/css"><![CDATA[.background path {fill: #808080; fill-opacity: 0}.background path:nth-child(odd) {fill-opacity: .1}.x-regions rect {fill: yellow; stroke: black; opacity: 0.5}.axes {font-size: 14px}.x-axis .tick .lab {font-weight: bold; dominant-baseline: hanging}.axes, .tree {font-size: 14px; text-anchor: middle}.axes line, .edge {stroke: black; fill: none}.axes .ax-skip {stroke-dasharray: 4}.y-axis .grid {stroke: #FAFAFA}.node > .sym {fill: black; stroke: none}.site > .sym {stroke: black}.mut text {fill: red; font-style: italic}.mut.extra text {fill: hotpink}.mut line {fill: none; stroke: none}.mut .sym {fill: none; stroke: red}.mut.extra .sym {stroke: hotpink}.node .mut .sym {stroke-width: 1.5px}.tree text, .tree-sequence text {dominant-baseline: central}.plotbox .lab.lft {text-anchor: end}.plotbox .lab.rgt {text-anchor: start}.polytomy line {stroke: black; stroke-dasharray: 1px, 1px}.polytomy text {paint-order:stroke;stroke-width:0.3em;stroke:white}]]></style></defs><g class="tree-sequence"><g class="background"><path d="M20,0 l190,0 l0,138.2 l-38,25 l0,5 l-152,0 l0,-5 l0,-25 l0,-138.2z"/><path d="M210,0 l190,0 l0,138.2 l-76,25 l0,5 l-152,0 l0,-5 l38,-25 l0,-138.2z"/><path d="M400,0 l190,0 l0,138.2 l-38,25 l0,5 l-228,0 l0,-5 l76,-25 l0,-138.2z"/><path d="M590,0 l190,0 l0,138.2 l0,25 l0,5 l-228,0 l0,-5 l38,-25 l0,-138.2z"/></g><g class="axes"><g class="x-axis"><g class="title" transform="translate(400 200)"><text class="lab" text-anchor="middle" transform="translate(0 -11)">Genome position</text></g><line class="ax-line" x1="20" x2="780" y1="163.2" y2="163.2"/><g class="ticks"><g class="tick" transform="translate(20 163.2)"><line x1="0" x2="0" y1="0" y2="5"/><g transform="translate(0 6)"><text class="lab">0</text></g></g><g class="tick" transform="translate(172 163.2)"><line x1="0" x2="0" y1="0" y2="5"/><g transform="translate(0 6)"><text class="lab">2</text></g></g><g class="tick" transform="translate(324 163.2)"><line x1="0" x2="0" y1="0" y2="5"/><g transform="translate(0 6)"><text class="lab">4</text></g></g><g class="tick" transform="translate(552 163.2)"><line x1="0" x2="0" y1="0" y2="5"/><g transform="translate(0 6)"><text class="lab">7</text></g></g><g class="tick" transform="translate(780 163.2)"><line x1="0" x2="0" y1="0" y2="5"/><g transform="translate(0 6)"><text class="lab">10</text></g></g></g></g></g><g class="plotbox trees"><g class="tree t0" transform="translate(20 0)"><g class="plotbox"><g class="c2 node n14 p0 root" transform="translate(74.6875 26.8)"><g class="a14 c2 node n6 p0" transform="translate(-29.6875 93.2031)"><g class="a6 i0 leaf node n0 p0 sample" transform="translate(-12.5 1.39692)"><path class="edge e0" d="M 0 0 V -1.39692 H 12.5"/><rect class="sym" height="6" width="6" x="-3" y="-3"/><text class="lab" transform="translate(0 11)">0</text></g><g class="a6 i2 leaf node n5 p0 sample" transform="translate(12.5 1.39692)"><path class="edge e1" d="M 0 0 V -1.39692 H -12.5"/><rect class="sym" height="6" width="6" x="-3" y="-3"/><text class="lab" transform="translate(0 11)">5</text></g><path class="edge e20" d="M 0 0 V -93.2031 H 29.6875"/><circle class="sym" cx="0" cy="0" r="3"/><text class="lab lft" transform="translate(-3 -7)">6</text></g><g class="a14 c2 node n9 p0" transform="translate(29.6875 67.5815)"><g class="a9 i0 leaf node n1 p0 sample" transform="translate(-21.875 27.0185)"><path class="edge e7" d="M 0 0 V -27.0185 H 21.875"/><rect class="sym" height="6" width="6" x="-3" y="-3"/><text class="lab" transform="translate(0 11)">1</text></g><g class="a9 c2 node n8 p0" transform="translate(21.875 9.95537)"><g class="a8 i1 leaf node n2 p0 sample" transform="translate(-18.75 17.0631)"><path class="edge e4" d="M 0 0 V -17.0631 H 18.75"/><rect class="sym" height="6" width="6" x="-3" y="-3"/><text class="lab" transform="translate(0 11)">2</text></g><g class="a8 c2 node n7 p0" transform="translate(18.75 2.86901)"><g class="a7 i1 leaf node n3 p0 sample" transform="translate(-12.5 14.1941)"><path class="edge e2" d="M 0 0 V -14.1941 H 12.5"/><rect class="sym" height="6" width="6" x="-3" y="-3"/><text class="lab" transform="translate(0 11)">3</text></g><g class="a7 i2 leaf node n4 p0 sample" transform="translate(12.5 14.1941)"><path class="edge e3" d="M 0 0 V -14.1941 H -12.5"/><rect class="sym" height="6" width="6" x="-3" y="-3"/><text class="lab" transform="translate(0 11)">4</text></g><path class="edge e6" d="M 0 0 V -2.86901 H -18.75"/><circle class="sym" cx="0" cy="0" r="3"/><text class="lab rgt" transform="translate(3 -7)">7</text></g><path class="edge e8" d="M 0 0 V -9.95537 H -21.875"/><circle class="sym" cx="0" cy="0" r="3"/><text class="lab rgt" transform="translate(3 -7)">8</text></g><path class="edge e21" d="M 0 0 V -67.5815 H -29.6875"/><circle class="sym" cx="0" cy="0" r="3"/><text class="lab rgt" transform="translate(3 -7)">9</text></g><circle class="sym" cx="0" cy="0" r="3"/><text class="lab" transform="translate(0 -11)">14</text></g></g></g><g class="tree t1" transform="translate(210 0)"><g class="plotbox"><g class="c2 node n14 p0 root" transform="translate(87.1875 26.8)"><g class="a14 c2 node n6 p0" transform="translate(-42.1875 93.2031)"><g class="a6 i0 leaf node n0 p0 sample" transform="translate(-12.5 1.39692)"><path class="edge e0" d="M 0 0 V -1.39692 H 12.5"/><rect class="sym" height="6" width="6" x="-3" y="-3"/><text class="lab" transform="translate(0 11)">0</text></g><g class="a6 i2 leaf node n5 p0 sample" transform="translate(12.5 1.39692)"><path class="edge e1" d="M 0 0 V -1.39692 H -12.5"/><rect class="sym" height="6" width="6" x="-3" y="-3"/><text class="lab" transform="translate(0 11)">5</text></g><path class="edge e20" d="M 0 0 V -93.2031 H 42.1875"/><circle class="sym" cx="0" cy="0" r="3"/><text class="lab lft" transform="translate(-3 -7)">6</text></g><g class="a14 c2 node n13 p0" transform="translate(42.1875 12.6456)"><g class="a13 i1 leaf node n3 p0 sample" transform="translate(28.125 81.9544)"><path class="edge e15" d="M 0 0 V -81.9544 H -28.125"/><rect class="sym" height="6" width="6" x="-3" y="-3"/><text class="lab" transform="translate(0 11)">3</text></g><g class="a13 c2 node n9 p0" transform="translate(-28.125 54.9359)"><g class="a9 i0 leaf node n1 p0 sample" transform="translate(-18.75 27.0185)"><path class="edge e7" d="M 0 0 V -27.0185 H 18.75"/><rect class="sym" height="6" width="6" x="-3" y="-3"/><text class="lab" transform="translate(0 11)">1</text></g><g class="a9 c2 node n8 p0" transform="translate(18.75 9.95537)"><g class="a8 i1 leaf node n2 p0 sample" transform="translate(-12.5 17.0631)"><path class="edge e4" d="M 0 0 V -17.0631 H 12.5"/><rect class="sym" height="6" width="6" x="-3" y="-3"/><text class="lab" transform="translate(0 11)">2</text></g><g class="a8 i2 leaf node n4 p0 sample" transform="translate(12.5 17.0631)"><path class="edge e5" d="M 0 0 V -17.0631 H -12.5"/><rect class="sym" height="6" width="6" x="-3" y="-3"/><text class="lab" transform="translate(0 11)">4</text></g><path class="edge e8" d="M 0 0 V -9.95537 H -18.75"/><circle class="sym" cx="0" cy="0" r="3"/><text class="lab rgt" transform="translate(3 -7)">8</text></g><path class="edge e17" d="M 0 0 V -54.9359 H 28.125"/><circle class="sym" cx="0" cy="0" r="3"/><text class="lab lft" transform="translate(-3 -7)">9</text></g><path class="edge e23" d="M 0 0 V -12.6456 H -42.1875"/><circle class="sym" cx="0" cy="0" r="3"/><text class="lab rgt" transform="translate(3 -7)">13</text></g><circle class="sym" cx="0" cy="0" r="3"/><text class="lab" transform="translate(0 -11)">14</text></g></g></g><g class="tree t2" transform="translate(400 0)"><g class="plotbox"><g class="c2 node n14 p0 root" transform="translate(101.25 26.8)"><g class="a14 c2 node n13 p0" transform="translate(37.5 12.6456)"><g class="a13 i1 leaf node n3 p0 sample" transform="translate(18.75 81.9544)"><path class="edge e15" d="M 0 0 V -81.9544 H -18.75"/><rect class="sym" height="6" width="6" x="-3" y="-3"/><text class="lab" transform="translate(0 11)">3</text></g><g class="a13 c2 node n8 p0" transform="translate(-18.75 64.8913)"><g class="a8 i1 leaf node n2 p0 sample" transform="translate(-12.5 17.0631)"><path class="edge e4" d="M 0 0 V -17.0631 H 12.5"/><rect class="sym" height="6" width="6" x="-3" y="-3"/><text class="lab" transform="translate(0 11)">2</text></g><g class="a8 i2 leaf node n4 p0 sample" transform="translate(12.5 17.0631)"><path class="edge e5" d="M 0 0 V -17.0631 H -12.5"/><rect class="sym" height="6" width="6" x="-3" y="-3"/><text class="lab" transform="translate(0 11)">4</text></g><path class="edge e16" d="M 0 0 V -64.8913 H 18.75"/><circle class="sym" cx="0" cy="0" r="3"/><text class="lab lft" transform="translate(-3 -7)">8</text></g><path class="edge e23" d="M 0 0 V -12.6456 H -37.5"/><circle class="sym" cx="0" cy="0" r="3"/><text class="lab rgt" transform="translate(3 -7)">13</text></g><g class="a14 c2 node n10 p0" transform="translate(-37.5 60.2032)"><g class="a10 i0 leaf node n1 p0 sample" transform="translate(18.75 34.3968)"><path class="edge e9" d="M 0 0 V -34.3968 H -18.75"/><rect class="sym" height="6" width="6" x="-3" y="-3"/><text class="lab" transform="translate(0 11)">1</text></g><g class="a10 c2 node n6 p0" transform="translate(-18.75 32.9998)"><g class="a6 i0 leaf node n0 p0 sample" transform="translate(-12.5 1.39692)"><path class="edge e0" d="M 0 0 V -1.39692 H 12.5"/><rect class="sym" height="6" width="6" x="-3" y="-3"/><text class="lab" transform="translate(0 11)">0</text></g><g class="a6 i2 leaf node n5 p0 sample" transform="translate(12.5 1.39692)"><path class="edge e1" d="M 0 0 V -1.39692 H -12.5"/><rect class="sym" height="6" width="6" x="-3" y="-3"/><text class="lab" transform="translate(0 11)">5</text></g><path class="edge e10" d="M 0 0 V -32.9998 H 18.75"/><circle class="sym" cx="0" cy="0" r="3"/><text class="lab lft" transform="translate(-3 -7)">6</text></g><path class="edge e22" d="M 0 0 V -60.2032 H 37.5"/><circle class="sym" cx="0" cy="0" r="3"/><text class="lab lft" transform="translate(-3 -7)">10</text></g><circle class="sym" cx="0" cy="0" r="3"/><text class="lab" transform="translate(0 -11)">14</text></g></g></g><g class="tree t3" transform="translate(590 0)"><g class="plotbox"><g class="c2 node n13 p0 root" transform="translate(95 39.4456)"><g class="a13 c2 node n11 p0" transform="translate(31.25 15.3506)"><g class="a11 i0 leaf node n1 p0 sample" transform="translate(-18.75 66.6037)"><path class="edge e11" d="M 0 0 V -66.6037 H 18.75"/><rect class="sym" height="6" width="6" x="-3" y="-3"/><text class="lab" transform="translate(0 11)">1</text></g><g class="a11 c2 node n8 p0" transform="translate(18.75 49.5406)"><g class="a8 i1 leaf node n2 p0 sample" transform="translate(-12.5 17.0631)"><path class="edge e4" d="M 0 0 V -17.0631 H 12.5"/><rect class="sym" height="6" width="6" x="-3" y="-3"/><text class="lab" transform="translate(0 11)">2</text></g><g class="a8 i2 leaf node n4 p0 sample" transform="translate(12.5 17.0631)"><path class="edge e5" d="M 0 0 V -17.0631 H -12.5"/><rect class="sym" height="6" width="6" x="-3" y="-3"/><text class="lab" transform="translate(0 11)">4</text></g><path class="edge e12" d="M 0 0 V -49.5406 H -18.75"/><circle class="sym" cx="0" cy="0" r="3"/><text class="lab rgt" transform="translate(3 -7)">8</text></g><path class="edge e18" d="M 0 0 V -15.3506 H -31.25"/><circle class="sym" cx="0" cy="0" r="3"/><text class="lab rgt" transform="translate(3 -7)">11</text></g><g class="a13 c2 node n12 p0" transform="translate(-31.25 12.027)"><g class="a12 i1 leaf node n3 p0 sample" transform="translate(18.75 69.9273)"><path class="edge e13" d="M 0 0 V -69.9273 H -18.75"/><rect class="sym" height="6" width="6" x="-3" y="-3"/><text class="lab" transform="translate(0 11)">3</text></g><g class="a12 c2 node n6 p0" transform="translate(-18.75 68.5304)"><g class="a6 i0 leaf node n0 p0 sample" transform="translate(-12.5 1.39692)"><path class="edge e0" d="M 0 0 V -1.39692 H 12.5"/><rect class="sym" height="6" width="6" x="-3" y="-3"/><text class="lab" transform="translate(0 11)">0</text></g><g class="a6 i2 leaf node n5 p0 sample" transform="translate(12.5 1.39692)"><path class="edge e1" d="M 0 0 V -1.39692 H -12.5"/><rect class="sym" height="6" width="6" x="-3" y="-3"/><text class="lab" transform="translate(0 11)">5</text></g><path class="edge e14" d="M 0 0 V -68.5304 H 18.75"/><circle class="sym" cx="0" cy="0" r="3"/><text class="lab lft" transform="translate(-3 -7)">6</text></g><path class="edge e19" d="M 0 0 V -12.027 H 31.25"/><circle class="sym" cx="0" cy="0" r="3"/><text class="lab lft" transform="translate(-3 -7)">12</text></g><circle class="sym" cx="0" cy="0" r="3"/><text class="lab" transform="translate(0 -11)">13</text></g></g></g></g></g></svg>