<svg xmlns="http://www.w3.org/2000/svg" xmlns:ev="http://www.w3.org/2001/xml-events" xmlns:xlink="http://www.w3.org/1999/xlink" baseProfile="full" height="300" version="1.1" width="400"><defs><style type="text/css"><![CDATA[.background path {fill: #808080; fill-opacity: 0}.background path:nth-child(odd) {fill-opacity: .1}.x-regions rect {fill: yellow; stroke: black; opacity: 0.5}.axes {font-size: 14px}.x-axis .tick .lab {font-weight: bold; dominant-baseline: hanging}.axes, .tree {font-size: 14px; text-anchor: middle}.axes line, .edge {stroke: black; fill: none}.axes .ax-skip {stroke-dasharray: 4}.y-axis .grid {stroke: #FAFAFA}.node > .sym {fill: black; stroke: none}.site > .sym {stroke: black}.mut text {fill: red; font-style: italic}.mut.extra text {fill: hotpink}.mut line {fill: none; stroke: none}.mut .sym {fill: none; stroke: red}.mut.extra .sym {stroke: hotpink}.node .mut .sym {stroke-width: 1.5px}.tree text, .tree-sequence text {dominant-baseline: central}.plotbox .lab.lft {text-anchor: end}.plotbox .lab.rgt {text-anchor: start}.polytomy line {stroke: black; stroke-dasharray: 1px, 1px}.polytomy text {paint-order:stroke;stroke-width:0.3em;stroke:white}]]></style></defs><g class="tree-sequence"><g class="background"><path d="M20,0 l360,0 l0,238.2 l0,25 l0,5 l-360,0 l0,-5 l0,-25 l0,-238.2z"/></g><g class="axes"><g class="x-axis"><g class="title" transform="translate(200 300)"><text class="lab" text-anchor="middle" transform="translate(0 -11)">Genome position</text></g><line class="ax-line" x1="20" x2="380" y1="263.2" y2="263.2"/><g class="ticks"><g class="tick" transform="translate(20 263.2)"><line x1="0" x2="0" y1="0" y2="5"/><g transform="translate(0 6)"><text class="lab">0</text></g></g><g class="tick" transform="translate(380 263.2)"><line x1="0" x2="0" y1="0" y2="5"/><g transform="translate(0 6)"><text class="lab">7</text></g></g></g><g class="site s0" transform="translate(20 263.2)"><line class="sym" x1="0" x2="0" y1="0" y2="-10"/><g class="mut m2"><polyline class="sym" points="2.5,-6.5 0,-1.5 -2.5,-6.5"/></g><g class="mut m1"><polyline class="sym" points="2.5,-10.5 0,-5.5 -2.5,-10.5"/></g><g class="mut m0"><polyline class="sym" points="2.5,-14.5 0,-9.5 -2.5,-14.5"/></g></g><g class="site s1" transform="translate(71.4286 263.2)"><line class="sym" x1="0" x2="0" y1="0" y2="-10"/><g class="mut m5"><polyline class="sym" points="2.5,-6.5 0,-1.5 -2.5,-6.5"/></g><g class="mut m4"><polyline class="sym" points="2.5,-10.5 0,-5.5 -2.5,-10.5"/></g><g class="mut m3"><polyline class="sym" points="2.5,-14.5 0,-9.5 -2.5,-14.5"/></g></g><g class="site s2" transform="translate(277.143 263.2)"><line class="sym" x1="0" x2="0" y1="0" y2="-10"/><g class="mut m6"><polyline class="sym" points="2.5,-6.5 0,-1.5 -2.5,-6.5"/></g></g></g></g><g class="plotbox trees"><g class="tree t0" transform="translate(20 0)"><g class="plotbox"><g class="c2 node n14 p0 root" transform="translate(212.5 26.8)"><g class="a14 c2 m0 m1 node n11 p0 s0" transform="translate(77.5 166.517)"><g class="a11 i2 leaf m5 node n4 p0 s1 sample" transform="translate(30 28.0834)"><path class="edge e6" d="M 0 0 V -28.0834 H -30"/><g class="mut m5 s1" transform="translate(0 -0.110881)"><line x1="0" x2="0" y1="0" y2="0.110881"/><path class="sym" d="M -3,-3 l 6,6 M -3,3 l 6,-6"/><text class="lab rgt" transform="translate(5 0)">5</text></g><rect class="sym" height="6" width="6" x="-3" y="-3"/><text class="lab" transform="translate(0 11)"/></g><g class="a11 c2 node n10 p0" transform="translate(-30 3.80802)"><g class="a10 i0 leaf node n1 p0 sample" transform="translate(-20 24.2754)"><path class="edge e4" d="M 0 0 V -24.2754 H 20"/><rect class="sym" height="6" width="6" x="-3" y="-3"/><text class="lab" transform="translate(0 11)"/></g><g class="a10 i3 leaf node n6 p0 sample" transform="translate(20 24.2754)"><path class="edge e5" d="M 0 0 V -24.2754 H -20"/><rect class="sym" height="6" width="6" x="-3" y="-3"/><text class="lab" transform="translate(0 11)"/></g><path class="edge e7" d="M 0 0 V -3.80802 H 30"/><circle class="sym" cx="0" cy="0" r="3"/><text class="lab lft" transform="translate(-3 -7)"/></g><path class="edge e12" d="M 0 0 V -166.517 H -77.5"/><g class="mut m0 s0" transform="translate(0 -137.556)"><line x1="0" x2="0" y1="0" y2="137.556"/><path class="sym" d="M -3,-3 l 6,6 M -3,3 l 6,-6"/><text class="lab rgt" transform="translate(5 0)">0</text></g><g class="mut m1 s0" transform="translate(0 -17.5512)"><line x1="0" x2="0" y1="0" y2="17.5512"/><path class="sym" d="M -3,-3 l 6,6 M -3,3 l 6,-6"/><text class="lab rgt" transform="translate(5 0)">1</text></g><circle class="sym" cx="0" cy="0" r="3"/><text class="lab rgt" transform="translate(3 -7)"/></g><g class="a14 c2 m3 m6 node n13 p0 s1 s2" transform="translate(-77.5 109.44)"><g class="a13 c2 node n9 p0" transform="translate(-45 64.2788)"><g class="a9 i3 leaf m2 node n7 p0 s0 sample" transform="translate(30 20.8816)"><path class="edge e2" d="M 0 0 V -20.8816 H -30"/><g class="mut m2 s0" transform="translate(0 -12.1807)"><line x1="0" x2="0" y1="0" y2="12.1807"/><path class="sym" d="M -3,-3 l 6,6 M -3,3 l 6,-6"/><text class="lab rgt" transform="translate(5 0)">2</text></g><rect class="sym" height="6" width="6" x="-3" y="-3"/><text class="lab" transform="translate(0 11)"/></g><g class="a9 c2 node n8 p0" transform="translate(-30 18.1566)"><g class="a8 i0 leaf node n0 p0 sample" transform="translate(-20 2.72505)"><path class="edge e0" d="M 0 0 V -2.72505 H 20"/><rect class="sym" height="6" width="6" x="-3" y="-3"/><text class="lab" transform="translate(0 11)"/></g><g class="a8 i1 leaf node n2 p0 sample" transform="translate(20 2.72505)"><path class="edge e1" d="M 0 0 V -2.72505 H -20"/><rect class="sym" height="6" width="6" x="-3" y="-3"/><text class="lab" transform="translate(0 11)"/></g><path class="edge e3" d="M 0 0 V -18.1566 H 30"/><circle class="sym" cx="0" cy="0" r="3"/><text class="lab lft" transform="translate(-3 -7)"/></g><path class="edge e10" d="M 0 0 V -64.2788 H 45"/><circle class="sym" cx="0" cy="0" r="3"/><text class="lab lft" transform="translate(-3 -7)"/></g><g class="a13 c2 node n12 p0" transform="translate(45 52.2195)"><g class="a12 i1 leaf node n3 p0 sample" transform="translate(-20 32.9409)"><path class="edge e8" d="M 0 0 V -32.9409 H 20"/><rect class="sym" height="6" width="6" x="-3" y="-3"/><text class="lab" transform="translate(0 11)"/></g><g class="a12 i2 leaf m4 node n5 p0 s1 sample" transform="translate(20 32.9409)"><path class="edge e9" d="M 0 0 V -32.9409 H -20"/><g class="mut m4 s1" transform="translate(0 -30.2323)"><line x1="0" x2="0" y1="0" y2="30.2323"/><path class="sym" d="M -3,-3 l 6,6 M -3,3 l 6,-6"/><text class="lab rgt" transform="translate(5 0)">4</text></g><rect class="sym" height="6" width="6" x="-3" y="-3"/><text class="lab" transform="translate(0 11)"/></g><path class="edge e11" d="M 0 0 V -52.2195 H -45"/><circle class="sym" cx="0" cy="0" r="3"/><text class="lab rgt" transform="translate(3 -7)"/></g><path class="edge e13" d="M 0 0 V -109.44 H 77.5"/><g class="mut m6 s2" transform="translate(0 -57.0888)"><line x1="0" x2="0" y1="0" y2="57.0888"/><path class="sym" d="M -3,-3 l 6,6 M -3,3 l 6,-6"/><text class="lab lft" transform="translate(-5 0)">6</text></g><g class="mut m3 s1" transform="translate(0 -6.17723)"><line x1="0" x2="0" y1="0" y2="6.17723"/><path class="sym" d="M -3,-3 l 6,6 M -3,3 l 6,-6"/><text class="lab lft" transform="translate(-5 0)">3</text></g><circle class="sym" cx="0" cy="0" r="3"/><text class="lab lft" transform="translate(-3 -7)"/></g><circle class="sym" cx="0" cy="0" r="3"/><text class="lab" transform="translate(0 -11)"/></g></g></g></g></g></svg>