<svg xmlns="http://www.w3.org/2000/svg" xmlns:ev="http://www.w3.org/2001/xml-events" xmlns:xlink="http://www.w3.org/1999/xlink" baseProfile="full" height="300" version="1.1" width="400"><defs><style type="text/css"><![CDATA[.background path {fill: #808080; fill-opacity: 0}.background path:nth-child(odd) {fill-opacity: .1}.axes {font-size: 14px}.x-axis .tick .lab {font-weight: bold; dominant-baseline: hanging}.axes, .tree {font-size: 14px; text-anchor: middle}.axes line, .edge {stroke: black; fill: none}.y-axis .grid {stroke: #FAFAFA}.node > .sym {fill: black; stroke: none}.site > .sym {stroke: black}.mut text {fill: red; font-style: italic}.mut.extra text {fill: hotpink}.mut line {fill: none; stroke: none}.mut .sym {fill: none; stroke: red}.mut.extra .sym {stroke: hotpink}.node .mut .sym {stroke-width: 1.5px}.tree text, .tree-sequence text {dominant-baseline: central}.plotbox .lab.lft {text-anchor: end}.plotbox .lab.rgt {text-anchor: start}]]></style></defs><g class="tree t0"><g class="plotbox"><g class="c2 node n22 p0 root" transform="translate(256.484 26.8)"><g class="a22 c2 m0 m1 m10 m2 m5 m7 node n20 p0 s0" transform="translate(-63.5156 206.445)"><g class="a20 c2 m11 node n16 p0 s0" transform="translate(37.0312 24.9279)"><g class="a16 i1 leaf node n2 p0 sample" transform="translate(-15 10.0272)"><path class="edge" d="M 0 0 V -10.0272 H 15"/><rect class="sym" height="6" width="6" x="-3" y="-3"/><text class="lab" transform="translate(0 11)"/></g><g class="a16 i1 leaf node n3 p0 sample" transform="translate(15 10.0272)"><path class="edge" d="M 0 0 V -10.0272 H -15"/><rect class="sym" height="6" width="6" x="-3" y="-3"/><text class="lab" transform="translate(0 11)"/></g><path class="edge" d="M 0 0 V -24.9279 H -37.0312"/><g class="mut m11 s0" transform="translate(0 -11.0543)"><line x1="0" x2="0" y1="0" y2="11.0543"/><path class="sym" d="M -3,-3 l 6,6 M -3,3 l 6,-6"/><text class="lab rgt" transform="translate(5 0)">0,1,2,5,7,10,11</text></g><circle class="sym" cx="0" cy="0" r="3"/><text class="lab rgt" transform="translate(3 -7.0)"/></g><g class="a20 c2 node n19 p0" transform="translate(-37.0312 2.71277)"><g class="a19 i2 leaf node n5 p0 sample" transform="translate(29.0625 32.2423)"><path class="edge" d="M 0 0 V -32.2423 H -29.0625"/><rect class="sym" height="6" width="6" x="-3" y="-3"/><text class="lab" transform="translate(0 11)"/></g><g class="a19 c2 node n18 p0" transform="translate(-29.0625 19.1999)"><g class="a18 i0 leaf node n1 p0 sample" transform="translate(28.125 13.0425)"><path class="edge" d="M 0 0 V -13.0425 H -28.125"/><rect class="sym" height="6" width="6" x="-3" y="-3"/><text class="lab" transform="translate(0 11)"/></g><g class="a18 c2 node n17 p0" transform="translate(-28.125 2.33007)"><g class="a17 i3 leaf node n6 p0 sample" transform="translate(26.25 10.7124)"><path class="edge" d="M 0 0 V -10.7124 H -26.25"/><rect class="sym" height="6" width="6" x="-3" y="-3"/><text class="lab" transform="translate(0 11)"/></g><g class="a17 c2 node n15 p0" transform="translate(-26.25 1.60606)"><g class="a15 i5 leaf node n10 p0 sample" transform="translate(22.5 9.10636)"><path class="edge" d="M 0 0 V -9.10636 H -22.5"/><rect class="sym" height="6" width="6" x="-3" y="-3"/><text class="lab" transform="translate(0 11)"/></g><g class="a15 c2 node n13 p0" transform="translate(-22.5 2.63898)"><g class="a13 i0 leaf node n0 p0 sample" transform="translate(-15 6.46739)"><path class="edge" d="M 0 0 V -6.46739 H 15"/><rect class="sym" height="6" width="6" x="-3" y="-3"/><text class="lab" transform="translate(0 11)"/></g><g class="a13 i2 leaf node n4 p0 sample" transform="translate(15 6.46739)"><path class="edge" d="M 0 0 V -6.46739 H -15"/><rect class="sym" height="6" width="6" x="-3" y="-3"/><text class="lab" transform="translate(0 11)"/></g><path class="edge" d="M 0 0 V -2.63898 H 22.5"/><circle class="sym" cx="0" cy="0" r="3"/><text class="lab lft" transform="translate(-3 -7.0)"/></g><path class="edge" d="M 0 0 V -1.60606 H 26.25"/><circle class="sym" cx="0" cy="0" r="3"/><text class="lab lft" transform="translate(-3 -7.0)"/></g><path class="edge" d="M 0 0 V -2.33007 H 28.125"/><circle class="sym" cx="0" cy="0" r="3"/><text class="lab lft" transform="translate(-3 -7.0)"/></g><path class="edge" d="M 0 0 V -19.1999 H 29.0625"/><circle class="sym" cx="0" cy="0" r="3"/><text class="lab lft" transform="translate(-3 -7.0)"/></g><path class="edge" d="M 0 0 V -2.71277 H 37.0312"/><circle class="sym" cx="0" cy="0" r="3"/><text class="lab lft" transform="translate(-3 -7.0)"/></g><path class="edge" d="M 0 0 V -206.445 H 63.5156"/><g class="mut m0 s0" transform="translate(0 -193.878)"><line x1="0" x2="0" y1="0" y2="193.878"/><path class="sym" d="M -3,-3 l 6,6 M -3,3 l 6,-6"/><text class="lab lft" transform="translate(-5 0)">0</text></g><g class="mut m1 s0" transform="translate(0 -165.725)"><line x1="0" x2="0" y1="0" y2="165.725"/><path class="sym" d="M -3,-3 l 6,6 M -3,3 l 6,-6"/><text class="lab lft" transform="translate(-5 0)">0,1</text></g><g class="mut m2 s0" transform="translate(0 -160.694)"><line x1="0" x2="0" y1="0" y2="160.694"/><path class="sym" d="M -3,-3 l 6,6 M -3,3 l 6,-6"/><text class="lab lft" transform="translate(-5 0)">0,1,2</text></g><g class="mut m5 s0" transform="translate(0 -147.808)"><line x1="0" x2="0" y1="0" y2="147.808"/><path class="sym" d="M -3,-3 l 6,6 M -3,3 l 6,-6"/><text class="lab lft" transform="translate(-5 0)">0,1,2,5</text></g><g class="mut m7 s0" transform="translate(0 -106.97)"><line x1="0" x2="0" y1="0" y2="106.97"/><path class="sym" d="M -3,-3 l 6,6 M -3,3 l 6,-6"/><text class="lab lft" transform="translate(-5 0)">0,1,2,5,7</text></g><g class="mut m10 s0" transform="translate(0 -19.1583)"><line x1="0" x2="0" y1="0" y2="19.1583"/><path class="sym" d="M -3,-3 l 6,6 M -3,3 l 6,-6"/><text class="lab lft" transform="translate(-5 0)">0,1,2,5,7,10</text></g><circle class="sym" cx="0" cy="0" r="3"/><text class="lab lft" transform="translate(-3 -7.0)"/></g><g class="a22 c2 m3 m4 m6 m8 m9 node n21 p0 s0" transform="translate(63.5156 173.27)"><g class="a21 c2 node n12 p0" transform="translate(30 67.1533)"><g class="a12 i4 leaf node n9 p0 sample" transform="translate(-15 0.977129)"><path class="edge" d="M 0 0 V -0.977129 H 15"/><rect class="sym" height="6" width="6" x="-3" y="-3"/><text class="lab" transform="translate(0 11)"/></g><g class="a12 i5 leaf m13 node n11 p0 s0 sample" transform="translate(15 0.977129)"><path class="edge" d="M 0 0 V -0.977129 H -15"/><g class="mut m13 s0" transform="translate(0 -0.000111765)"><line x1="0" x2="0" y1="0" y2="0.000111765"/><path class="sym" d="M -3,-3 l 6,6 M -3,3 l 6,-6"/><text class="lab rgt" transform="translate(5 0)">3,4,6,8,9,13</text></g><rect class="sym" height="6" width="6" x="-3" y="-3"/><text class="lab" transform="translate(0 11)"/></g><path class="edge" d="M 0 0 V -67.1533 H -30"/><circle class="sym" cx="0" cy="0" r="3"/><text class="lab rgt" transform="translate(3 -7.0)"/></g><g class="a21 c2 node n14 p0" transform="translate(-30 60.2329)"><g class="a14 i3 leaf m12 node n7 p0 s0 sample" transform="translate(-15 7.89753)"><path class="edge" d="M 0 0 V -7.89753 H 15"/><g class="mut m12 s0" transform="translate(0 -0.729247)"><line x1="0" x2="0" y1="0" y2="0.729247"/><path class="sym" d="M -3,-3 l 6,6 M -3,3 l 6,-6"/><text class="lab lft" transform="translate(-5 0)">3,4,6,8,9,12</text></g><rect class="sym" height="6" width="6" x="-3" y="-3"/><text class="lab" transform="translate(0 11)"/></g><g class="a14 i4 leaf node n8 p0 sample" transform="translate(15 7.89753)"><path class="edge" d="M 0 0 V -7.89753 H -15"/><rect class="sym" height="6" width="6" x="-3" y="-3"/><text class="lab" transform="translate(0 11)"/></g><path class="edge" d="M 0 0 V -60.2329 H 30"/><circle class="sym" cx="0" cy="0" r="3"/><text class="lab lft" transform="translate(-3 -7.0)"/></g><path class="edge" d="M 0 0 V -173.27 H -63.5156"/><g class="mut m3 s0" transform="translate(0 -116.377)"><line x1="0" x2="0" y1="0" y2="116.377"/><path class="sym" d="M -3,-3 l 6,6 M -3,3 l 6,-6"/><text class="lab rgt" transform="translate(5 0)">3</text></g><g class="mut m4 s0" transform="translate(0 -116.182)"><line x1="0" x2="0" y1="0" y2="116.182"/><path class="sym" d="M -3,-3 l 6,6 M -3,3 l 6,-6"/><text class="lab rgt" transform="translate(5 0)">3,4</text></g><g class="mut m6 s0" transform="translate(0 -102.76)"><line x1="0" x2="0" y1="0" y2="102.76"/><path class="sym" d="M -3,-3 l 6,6 M -3,3 l 6,-6"/><text class="lab rgt" transform="translate(5 0)">3,4,6</text></g><g class="mut m8 s0" transform="translate(0 -47.3112)"><line x1="0" x2="0" y1="0" y2="47.3112"/><path class="sym" d="M -3,-3 l 6,6 M -3,3 l 6,-6"/><text class="lab rgt" transform="translate(5 0)">3,4,6,8</text></g><g class="mut m9 s0" transform="translate(0 -10.265)"><line x1="0" x2="0" y1="0" y2="10.265"/><path class="sym" d="M -3,-3 l 6,6 M -3,3 l 6,-6"/><text class="lab rgt" transform="translate(5 0)">3,4,6,8,9</text></g><circle class="sym" cx="0" cy="0" r="3"/><text class="lab rgt" transform="translate(3 -7.0)"/></g><circle class="sym" cx="0" cy="0" r="3"/><text class="lab" transform="translate(0 -11)"/></g></g></g></svg>