<?xml version="1.0" encoding="UTF-8"?><svg id="Layer_1" xmlns="http://www.w3.org/2000/svg" viewBox="0 0 16 16"><defs><style>.cls-1{fill:#14e2a8;}.cls-2{fill:#085167;}</style></defs><rect id="Rectangle_4" class="cls-1" x="12.82" y="5.35" width="1.49" height="2.26"/><rect id="Rectangle_6" class="cls-1" x="7.88" width="1.49" height="3.86"/><rect id="Rectangle_7" class="cls-1" x="0" y="3.86" width="1.49" height="12.12"/><rect id="Rectangle_9" class="cls-1" x=".07" y="3.86" width="15.92" height="1.49"/><path id="Path_1" class="cls-2" d="M2.88,13.06v-3.6h-.88v-1.5h.88v-2.2h2.13v2.2h2.2v1.5h-2.2v3.6c0,.82,.34,1.27,1.12,1.27,.38,0,.75-.09,1.08-.27v1.55c-.53,.25-1.11,.37-1.69,.36-1.85,0-2.63-1.23-2.63-2.92"/><path id="Path_2" class="cls-2" d="M11.95,11.11c1.97,.58,2.8,1.2,2.8,2.6s-1.12,2.26-2.83,2.26c-1.17,0-1.9-.31-2.39-.82l-.03,.58h-1.5v-2.71h1.65c.29,.84,1.09,1.39,1.97,1.36,.55,0,1-.22,1-.69s-.43-.66-.75-.75l-1.17-.31c-1.23-.33-2.75-.73-2.75-2.63,0-1.48,1.06-2.27,2.63-2.27,.81-.02,1.6,.26,2.21,.78l.03-.55h1.5v2.62h-1.65c-.17-.74-.84-1.27-1.6-1.27-.55,0-1,.24-1,.73,0,.42,.27,.6,.81,.76l1.06,.31Z"/></svg>