<svg class="link__icon link__icon--twitter" xmlns="http://www.w3.org/2000/svg" viewBox="0 0 22 23" style="enable-background:new 0 0 22 23" xml:space="preserve"><defs><style>.cls-1{fill:#1eebb1;}</style></defs><path class="cls-1" d="M7.25,17.49c-2.26-.19-3.78-1.32-4.57-3.42,.72,.11,1.44,.1,2.14-.1-1.13-.28-2.08-.85-2.8-1.76-.72-.91-1.07-1.95-1.08-3.14,.69,.37,1.41,.58,2.21,.62-1.25-.9-1.98-2.09-2.14-3.59-.12-1.05,.11-2.04,.64-2.97,2.66,3.15,6.04,4.86,10.12,5.15-.03-.4-.09-.77-.09-1.15,0-2.4,1.76-4.47,4.12-4.83,1.67-.26,3.11,.21,4.32,1.4,.06,.06,.1,.08,.19,.06,1.02-.22,1.99-.58,2.89-1.1,.03-.02,.07-.04,.13-.07-.39,1.16-1.09,2.04-2.1,2.69,.32,.04,1.58-.3,2.76-.74-.04,.05-.06,.09-.08,.13-.62,.9-1.36,1.67-2.24,2.32-.1,.07-.13,.14-.13,.27,.03,.68,0,1.36-.08,2.03-.18,1.48-.57,2.9-1.19,4.26-1.09,2.4-2.69,4.39-4.88,5.88-1.52,1.03-3.19,1.7-4.99,2.05-.93,.18-1.86,.26-2.8,.26-2.21,0-4.31-.48-6.29-1.46-.42-.21-.82-.46-1.23-.69-.02-.01-.04-.03-.07-.05,2.69,.27,5.09-.4,7.25-2.02Z"/></svg>