<?xml version="1.0" encoding="UTF-8"?><svg id="Layer_2" xmlns="http://www.w3.org/2000/svg" viewBox="0 0 24 24"><defs><style>.cls-1{fill:none;}.cls-2,.cls-3{fill:#1eebb1;}.cls-3{stroke:#1eebb1;stroke-miterlimit:10;}</style></defs><path class="cls-3" d="M19.72,18.95l-.45-1.09-.42-1.02s-.49-.87-.99-1.15c.16-.07,.51-.29,.84-.49,.69-.43,1.28-1.03,1.63-1.77,.25-.53,.43-1.21,.39-2.04-.12-2.57-1.74-4.54-4.95-4.54h-6.49V23.39h3.13v-6.62h1.95s.01,0,.02,0h.01c.44,.16,1.06,.52,1.3,1.27,.08,.24,.21,.61,.37,1.04,.16,.45,.36,.96,.56,1.48,.58,1.49,1.19,3.01,1.19,3.01h3.82l-1.91-4.61Zm-4.28-5.05c-.11,.01-.23,.01-.35,.01h-2.68v-4.22h2.74c.23,0,.44,.02,.63,.06,0,0,.02,0,.04,.01,.73,.27,1.42,.85,1.41,2.04,0,0,.04,1.65-1.79,2.1Z"/><path class="cls-2" d="M4.65,2.04C-1.5,5.96-1.5,14.9,4.65,18.83c1.06,.71,2.26,1.24,3.53,1.58l.03-3.17c-.71-.34-1.36-.77-1.93-1.27-3.87-2.95-3.86-8.12,0-11.08C11.42,.43,22.6,1.55,23.17,10.43c-.18,2.77-1.39,4.79-3.14,6.13l.49,1.14c1.95-1.72,3.28-4.16,3.44-7.27C23.45,.53,11.24-2.45,4.65,2.04ZM14.86,18.59c-.45,.09-.89,.14-1.35,.14v2.2c.64-.12,1.27-.31,1.89-.56l-.54-1.78Z"/><line class="cls-1" x1="20.52" y1="17.7" x2="20.03" y2="16.56"/><line class="cls-1" x1="8.21" y1="17.24" x2="8.18" y2="20.41"/></svg>