<?xml version="1.0" encoding="UTF-8"?><svg id="Layer_2" xmlns="http://www.w3.org/2000/svg" viewBox="0 0 24 24"><defs><style>.cls-1,.cls-2{fill:#1eebb1;}.cls-2{stroke:#1eebb1;stroke-miterlimit:10;stroke-width:.25px;}</style></defs><path class="cls-2" d="M12.01,2.43C6.78,2.43,2.53,6.7,2.53,11.95c0,1.77,.48,3.44,1.32,4.85,.04,.06,.06,.12,.1,.17,1.68,2.7,4.66,4.5,8.06,4.5,5.23,0,9.48-4.27,9.48-9.52S17.24,2.43,12.01,2.43Zm0,17.31c-2.37,0-4.49-1.07-5.92-2.76-.62-.74-1.11-1.59-1.43-2.52-.26-.79-.41-1.63-.41-2.5s.16-1.79,.46-2.61c.3-.88,.77-1.67,1.35-2.38,1.43-1.71,3.56-2.8,5.95-2.8,4.27,0,7.75,3.49,7.75,7.79,0,.31-.02,.62-.05,.92-.18,1.55-.82,2.96-1.77,4.09-1.43,1.69-3.55,2.77-5.92,2.77Z"/><path class="cls-1" d="M18.87,12.73l-.15,.93c-.42,1.23-1.68,.37-1.68,.37-.58-2.17-1.38-2.32-1.45-2.32,1.72-.8,1.72-2.46,1.72-2.46,0-1.08-.75-1.73-1.49-2.1-.67-.34-1.43-.49-2.18-.48l-7.6,.05c-.59,.72-1.06,1.52-1.37,2.42h1.61l-.03,5.21h-1.62c.32,.95,.81,1.81,1.44,2.57h5.94l-.03-2.47-2.09,.03v-1.57h1.72c1.86,0,1.86,1.6,1.86,1.6,.16,2.37,1.44,2.42,1.44,2.42h3.12c.96-1.16,1.61-2.59,1.79-4.17h-.96Zm-6.25-1.88h-2.72v-1.69h2.58s1.19-.19,1.19,.73-1.04,.96-1.04,.96Z"/><path class="cls-1" d="M13.75,2.49h-3.25l.81-1.41,.55-.95c.12-.2,.41-.2,.53,0l.55,.95,.81,1.41Z"/><path class="cls-1" d="M13.62,21.48h-3.25l.81,1.41,.55,.95c.12,.2,.41,.2,.53,0l.55-.95,.81-1.41Z"/><path class="cls-1" d="M21.33,13.62v-3.25l1.41,.81,.95,.55c.2,.12,.2,.41,0,.53l-.95,.55-1.41,.81Z"/><path class="cls-1" d="M2.62,13.69v-3.25l-1.41,.81-.95,.55c-.2,.12-.2,.41,0,.53l.95,.55,1.41,.81Z"/><path class="cls-1" d="M4.13,6.54l1.11-1.18,1.11-1.18-1.58-.38-1.07-.25c-.23-.05-.43,.16-.36,.38l.31,1.05,.46,1.55Z"/><path class="cls-1" d="M19.87,6.74l-1.11-1.18-1.11-1.18,1.58-.38,1.07-.25c.23-.05,.43,.16,.36,.38l-.31,1.05-.46,1.55Z"/><path class="cls-1" d="M3.97,17.25l1.11,1.18,1.11,1.18-1.58,.38-1.07,.25c-.23,.05-.43-.16-.36-.38l.31-1.05,.46-1.55Z"/><path class="cls-1" d="M20.05,17.25l-1.11,1.18-1.11,1.18,1.58,.38,1.07,.25c.23,.05,.43-.16,.36-.38l-.31-1.05-.46-1.55Z"/></svg>