<svg
   class="link__icon link__icon--documentation"
   xmlns:dc="http://purl.org/dc/elements/1.1/"
   xmlns:cc="http://creativecommons.org/ns#"
   xmlns:rdf="http://www.w3.org/1999/02/22-rdf-syntax-ns#"
   xmlns:svg="http://www.w3.org/2000/svg"
   xmlns="http://www.w3.org/2000/svg"
   xmlns:sodipodi="http://sodipodi.sourceforge.net/DTD/sodipodi-0.dtd"
   xmlns:inkscape="http://www.inkscape.org/namespaces/inkscape"
   version="1.1"
   id="Layer_1"
   x="0px"
   y="0px"
   viewBox="0 0 27.834 22.999671"
   xml:space="preserve"
   sodipodi:docname="icon-documentation.svg"
   inkscape:version="0.92.5 (2060ec1f9f, 2020-04-08)"
   width="27.834"
   height="22.999672"><metadata
     id="metadata11"><rdf:RDF><cc:Work
         rdf:about=""><dc:format>image/svg+xml</dc:format><dc:type
           rdf:resource="http://purl.org/dc/dcmitype/StillImage" /><dc:title></dc:title></cc:Work></rdf:RDF></metadata><defs
     id="defs9" /><sodipodi:namedview
     pagecolor="#ffffff"
     bordercolor="#666666"
     borderopacity="1"
     objecttolerance="10"
     gridtolerance="10"
     guidetolerance="10"
     inkscape:pageopacity="0"
     inkscape:pageshadow="2"
     inkscape:window-width="897"
     inkscape:window-height="595"
     id="namedview7"
     showgrid="false"
     inkscape:zoom="2.2623698"
     inkscape:cx="-19.23408"
     inkscape:cy="11.493128"
     inkscape:window-x="2394"
     inkscape:window-y="234"
     inkscape:window-maximized="0"
     inkscape:current-layer="Layer_1"
     fit-margin-top="0"
     fit-margin-left="0"
     fit-margin-right="0"
     fit-margin-bottom="0" /><path
     inkscape:connector-curvature="0"
     id="path2"
     d="M 2.9523626,17.47458 3.0220126,5.1348701 H 1.6289646 V 20.83587 c 1.914317,-0.494307 3.835376,-0.808866 5.769915,-0.822347 1.786247,-0.01123 3.5724944,0.238166 5.3632354,0.844816 -1.112191,-0.900988 -2.352454,-1.563809 -3.6758494,-1.995205 -1.667164,-0.543738 -3.46914,-0.723486 -5.316052,-0.566206 -0.417914,0.0337 -0.781904,-0.276363 -0.817854,-0.692031 -0.0045,-0.04494 -0.0045,-0.08763 0,-0.130317 z M 23.394221,4.4900241 c -0.0045,-0.03595 -0.009,-0.07415 -0.009,-0.11459 0,-0.0382 0.0022,-0.07639 0.009,-0.114589 v -2.4985 c -1.752545,-0.166267 -3.559013,0.02696 -5.136303,0.624625 -1.473935,0.559466 -2.745653,1.478429 -3.572495,2.795084 V 19.413613 c 1.2852,-0.858297 2.599608,-1.563809 3.949966,-2.044635 1.539093,-0.548232 3.120877,-0.808867 4.758832,-0.678549 z m 1.516625,-0.871779 h 2.053622 c 0.417915,0 0.757189,0.339275 0.757189,0.757189 V 21.824485 c 0,0.417915 -0.339274,0.757189 -0.757189,0.757189 -0.08538,0 -0.168514,-0.01348 -0.244906,-0.04044 -2.112041,-0.604403 -4.210601,-1.00659 -6.288939,-1.020071 -2.02666,-0.01348 -4.051073,0.343768 -6.084474,1.240262 -0.125824,0.08313 -0.276363,0.128071 -0.431396,0.125824 -0.152786,0.0022 -0.303325,-0.04269 -0.431395,-0.125824 -2.031154,-0.89874 -4.0578154,-1.253743 -6.0844754,-1.240262 -2.078338,0.01348 -4.174651,0.415668 -6.288938,1.020071 -0.07639,0.02696 -0.15952701,0.04044 -0.24490701,0.04044 -0.413421,0.0022 -0.752695,-0.337028 -0.752695,-0.754942 V 4.3754341 c 0,-0.417914 0.339274,-0.757189 0.757189,-0.757189 H 3.0287556 l 0.01348,-2.529955 c 0.0022,-0.36399001 0.258388,-0.66506801 0.602157,-0.73696701 v 0 c 1.992957,-0.415668 4.415063,-0.312313 6.5383384,0.501047 1.467195,0.56171301 2.799578,1.45820701 3.772464,2.75239401 0.981875,-1.20656 2.294036,-2.073844 3.770218,-2.63331001 2.017673,-0.766177 4.345411,-0.950419 6.536092,-0.629119 0.377471,0.05392 0.647093,0.379718 0.647093,0.74820201 v 0 2.527708 z M 15.420144,20.743749 c 1.673904,-0.525763 3.345562,-0.741461 5.01722,-0.732473 1.934539,0.01123 3.855598,0.32804 5.769915,0.822347 V 5.1348701 H 24.910846 V 17.541986 c 0,0.417914 -0.339275,0.757189 -0.757189,0.757189 -0.06067,0 -0.119083,-0.0067 -0.175255,-0.02022 -1.658176,-0.260635 -3.264675,-0.04494 -4.832978,0.514529 -1.262731,0.451617 -2.502993,1.125673 -3.72528,1.950267 z M 13.171045,19.267568 V 5.1595851 c -0.793138,-1.399788 -2.076091,-2.336726 -3.5253104,-2.891698 -1.642449,-0.629118 -3.487114,-0.77067 -5.09586,-0.541491 l -0.08538,15.0112169 c 1.754791,-0.06291 3.471386,0.159526 5.086872,0.687536 1.2851994,0.417915 2.5029934,1.031305 3.6196784,1.842419 z"
     style="fill:#14e2a8;fill-opacity:1;stroke:#14e2a8;stroke-width:0.22468518;stroke-opacity:1" /></svg>