<svg class="link__icon link__icon--python" version="1.1" id="Layer_1" xmlns="http://www.w3.org/2000/svg" x="0" y="0" viewBox="0 0 25 25" style="enable-background:new 0 0 25 25" xml:space="preserve"><style>.st0{fill:#14e2a8}</style><path id="Path_158" class="st0" d="M23.8 7.3h-6.2V1.2c-3.3-1.4-7-1.4-10.3 0v6.2H1.2c-1.4 3.3-1.4 7 0 10.3h6.2v6.2c3.3 1.4 7 1.4 10.3 0v-6.2h6.2c1.3-3.3 1.3-7.1-.1-10.4M7.3 14.6v1H2.6c-.6-2-.6-4.2 0-6.2h9.9V7.3H9.4V2.6c2-.6 4.2-.6 6.2 0v7.8c0 .6-.5 1-1 1h-4.1c-1.8.1-3.2 1.5-3.2 3.2zm15.1 1h-9.9v2.1h3.1v4.7c-2 .6-4.2.6-6.2 0v-7.8c0-.6.5-1 1-1h4.1c1.7 0 3.1-1.4 3.1-3.1v-1h4.7c.7 1.9.7 4.1.1 6.1z"/><path id="Path_159" class="st0" d="M13 4.8c0 .6-.5 1-1 1-.6 0-1-.5-1-1s.5-1 1-1c.6-.1 1 .4 1 1"/><path id="Path_160" class="st0" d="M14 20.2c0 .6-.5 1-1 1s-1-.5-1-1c0-.6.5-1 1-1 .6 0 1 .5 1 1"/></svg>