<svg version="1.1" id="Group_139" xmlns="http://www.w3.org/2000/svg" x="0" y="0" viewBox="0 0 108.5 52" style="enable-background:new 0 0 108.5 52" xml:space="preserve"><style>.st0{fill:#14e2a8}.st2{fill:#fff}</style><path id="Rectangle_326" class="st0" d="M39.5 16.3h53.8v3.4H39.5z"/><path id="Rectangle_327" class="st0" d="M67.1 19.5h3.4v6.9h-3.4z"/><path style="fill:none" d="M0 0h108.5v52H0z"/><path id="Path_151" class="st2" d="M20.3 43.9h1.3v2.3h-5.9v-2.3H17v-4.3c0-1.5-.3-3-2-3-2.3 0-2.5 2.6-2.5 3.9v3.4h1.3v2.3h-6v-2.3h1.3v-4.3c0-1.5-.3-3-2-3-2.3 0-2.5 2.7-2.5 3.9v3.4h1.3v2.3H0v-2.3h1.3v-7.4H0v-2.3h4.6v1.7h-.2c.7-1.4 2.2-2.2 3.7-2.1 1.7-.1 3.2.9 3.8 2.5.7-1.6 2.3-2.5 4-2.5 2.9 0 4.3 2.1 4.3 5.7l.1 4.4z"/><path id="Path_152" class="st2" d="M29.6 39.1c3.1.9 4.3 1.9 4.3 4 0 2.2-1.7 3.5-4.4 3.5-1.4.1-2.7-.3-3.7-1.3v.9h-2.3V42H26c.4 1.3 1.7 2.1 3.1 2.1.9 0 1.5-.3 1.5-1.1s-.7-1-1.2-1.2l-1.8-.5c-1.9-.5-4.3-1.1-4.3-4.1 0-2.3 1.6-3.5 4.1-3.5 1.2 0 2.5.4 3.4 1.2V34h2.3v4h-2.6c-.3-1.2-1.3-2-2.5-2-.9 0-1.5.4-1.5 1.1 0 .6.4.9 1.2 1.2l1.9.8z"/><path id="Path_153" class="st2" d="M53.6 40c0 3.6-1.9 6.6-6.4 6.6-.7 0-1.4-.1-2.1-.3v3.4h1.3V52h-5.9v-2.3h1.3V36.5h-1.3v-2.3h4.6v1.7h-.4c.7-1.4 2.2-2.2 3.8-2.1 3.2 0 5.1 2.5 5.1 6.2m-3.5 0c0-2.3-.8-3.6-2.3-3.6-1.6 0-2.7 1.2-2.7 3.7v3.5c.6.3 1.4.5 2.1.4 2.6 0 2.9-2 2.9-4"/><path id="Path_154" class="st2" d="M64.3 34v3c-.3 0-.6-.1-.9-.1-2.1 0-3.3.5-3.3 3.8v3.1H62v2.3h-6.5v-2.3h1.3v-7.4h-1.3v-2.3h4.6V36h-.3c.4-1.5 1.8-2.4 3.4-2.3.3.1.7.2 1.1.3"/><path id="Path_155" class="st2" d="M65.8 46.2v-2.3h1.3v-7.4h-1.3v-2.3h4.6v9.7h1.3v2.3h-5.9zm.7-15.8c-.1-1.1.8-2 1.9-2.1 1.1-.1 2 .8 2.1 1.9.1 1.1-.8 2-1.9 2.1h-.1c-1 .1-1.9-.7-2-1.7v-.2"/><path id="Path_156" class="st2" d="M93.8 43.9h1.3v2.3h-5.9v-2.3h1.3v-4.3c0-1.5-.3-3-2-3-2.3 0-2.5 2.6-2.5 3.9v3.4h1.3v2.3h-5.9v-2.3h1.3v-4.3c0-1.5-.3-3-2-3-2.3 0-2.5 2.7-2.5 3.9v3.4h1.3v2.3h-5.9v-2.3h1.3v-7.4h-1.3v-2.3h4.6v1.7H78c.7-1.4 2.2-2.2 3.7-2.1 1.7-.1 3.2.9 3.8 2.5.7-1.6 2.3-2.5 4.1-2.5 2.9 0 4.3 2.1 4.3 5.7l-.1 4.4z"/><path id="Path_157" class="st2" d="M100.2 40.7c.1 2.3 1 3.4 3.2 3.4 1.2 0 2.4-.4 3.4-1.1l1.3 2c-1.3 1.1-3 1.7-4.7 1.6-4.5 0-6.6-2.6-6.6-6.4 0-3.5 1.8-6.4 6.1-6.4 3.8 0 5.6 2.9 5.6 6.2v.7h-8.3zm.1-2.1h5.2c-.3-1.8-1.2-2.5-2.6-2.5-1.5 0-2.3.8-2.6 2.5"/><path id="Rectangle_328" class="st2" d="M41.9 28.6h3.3v3.3h-3.3z"/><path id="Rectangle_329" class="st0" d="M41.9 16.3h3.3v15.6h-3.3z"/><path id="Rectangle_330" class="st2" d="M90.5 28.2h3.3v3.3h-3.3z"/><path id="Rectangle_331" class="st0" d="M54.5 13.1h3.3v3.3h-3.3z"/><path id="Rectangle_332" class="st0" d="M54.5 9.9h3.3v3.3h-3.3z"/><path id="Rectangle_333" class="st0" d="M26.2 3.3h3.3v3.3h-3.3z"/><path id="Rectangle_334" class="st0" d="M1.3 6.6h3.3v25.3H1.3z"/><path id="Rectangle_335" class="st0" d="M26.2 0h3.3v3.3h-3.3z"/><path id="Rectangle_336" class="st2" d="M45.6 6.6h3.3v3.3h-3.3z"/><path id="Rectangle_337" class="st0" d="M1.3 6.6h56.5v3.3H1.3z"/><path id="Rectangle_338" class="st0" d="M90.5 16.3h3.3v15.2h-3.3z"/></svg>