<svg xmlns="http://www.w3.org/2000/svg" width="1366" height="267"><defs><clipPath id="clip-path"><path id="Rectangle_118" data-name="Rectangle 118" class="cls-1" d="M0 0h1366v267H0z"/></clipPath><clipPath id="clip-path-2"><path id="Path_38" data-name="Path 38" class="cls-1" d="M0 155.7h1366V640H0Z" transform="translate(0 3513)"/></clipPath><style>.cls-1{fill:#14e2a8}.cls-5{fill:#36ffc6}</style></defs><g id="Group_2" data-name="Group 2" style="clip-path:url(#clip-path)"><g id="Mask_Group_1" data-name="Mask Group 1" transform="translate(0 -3748)" style="clip-path:url(#clip-path-2)"><g id="Group_55" data-name="Group 55" transform="translate(0 3585.852)" style="opacity:.3"><path id="Path_23" data-name="Path 23" class="cls-5" d="M886.928 114.957v59h23.1v-35.896h1042.88v507.75h23.1V114.957Z" transform="translate(-610.015 -79.069)"/><path id="Rectangle_105" data-name="Rectangle 105" class="cls-5" transform="translate(1272.386 47.44)" d="M0 0h23.104v519.302H0z"/><path id="Path_24" data-name="Path 24" class="cls-5" d="M0 266.918v483.41h23.1V290.021h533.289v39.954h23.1v-63.057Z" transform="translate(0 -183.585)"/><path id="Rectangle_106" data-name="Rectangle 106" class="cls-5" transform="translate(71.792 94.884)" d="M0 0h23.104v471.858H0z"/><path id="Path_25" data-name="Path 25" class="cls-5" d="M455.783 427.168v433.377h23.1V450.272h802.5v33.3h23.1v-56.404Z" transform="translate(-313.48 -293.803)"/><path id="Path_26" data-name="Path 26" class="cls-5" d="M2816.432 636.185h-23.1v-33.952h-405.088v32.011h-23.1v-55.115h451.292Z" transform="translate(-1626.707 -398.32)"/><path id="Rectangle_107" data-name="Rectangle 107" class="cls-5" transform="translate(1060.856 192.361)" d="M0 0h23.104v374.381H0z"/><path id="Path_27" data-name="Path 27" class="cls-5" d="M3623.674 724.873V1065.3h23.1V747.977h47.406V1065.3h23.1V724.873Z" transform="translate(-2492.309 -498.56)"/><path id="Path_28" data-name="Path 28" class="cls-5" d="M2157.369 891.951h-23.1v-150.19h-294.196v36.324h-23.1v-59.428h340.4Z" transform="translate(-1249.684 -494.285)"/><path id="Path_29" data-name="Path 29" class="cls-5" d="M2494.484 1236.705v180.627h23.1V1259.81h188.427v157.523h23.1v-180.628Z" transform="translate(-1715.668 -850.591)"/><path id="Rectangle_108" data-name="Rectangle 108" class="cls-5" transform="translate(849.326 397.667)" d="M0 0h23.104v169.075H0z"/><path id="Rectangle_109" data-name="Rectangle 109" class="cls-5" transform="translate(919.836 397.667)" d="M0 0h23.104v169.075H0z"/><path id="Path_30" data-name="Path 30" class="cls-5" d="M2042.808 1004.871v253.009h23.1v-229.905h47.406v229.906h23.1v-253.01Z" transform="translate(-1405.012 -691.139)"/><path id="Path_31" data-name="Path 31" class="cls-5" d="M1452.043 931h-23.1v-59h250.018v53.037h-23.1V895.1h-203.818Z" transform="translate(-982.803 -599.751)"/><path id="Path_32" data-name="Path 32" class="cls-5" d="M1006.005 1023.96v59.428h23.1v-36.324H1259.2v223.946h23.1v-247.05Z" transform="translate(-691.915 -704.268)"/><path id="Path_33" data-name="Path 33" class="cls-5" d="M681.62 1177.3v199.174h23.1v-176.07h165.35v34.814h23.1V1177.3Z" transform="translate(-468.808 -809.735)"/><path id="Path_34" data-name="Path 34" class="cls-5" d="M907.458 1477.771v105.363h23.1v-82.259h51.893v82.259h23.1v-105.363Z" transform="translate(-624.136 -1016.392)"/><path id="Path_35" data-name="Path 35" class="cls-5" d="M1467.12 1684.413h-23.1v-35.03h-47.41v35.03h-23.1v-58.134h93.614Z" transform="translate(-944.677 -1118.534)"/><path id="Path_36" data-name="Path 36" class="cls-5" d="M1193.931 1431.173h-23.1v-82.259h-120.16v35.893h-23.1v-59h166.367Z" transform="translate(-706.742 -911.875)"/><path id="Rectangle_110" data-name="Rectangle 110" class="cls-5" transform="translate(826.891 -.005)" d="M0 0h23.104v47.445H0z"/></g></g></g></svg>