<svg baseProfile="full" height="300" version="1.1" width="700" xmlns="http://www.w3.org/2000/svg" xmlns:ev="http://www.w3.org/2001/xml-events" xmlns:xlink="http://www.w3.org/1999/xlink"><defs><style type="text/css"><![CDATA[.background path {fill: #808080; fill-opacity: 0}.background path:nth-child(odd) {fill-opacity: .1}.axes {font-size: 14px}.x-axis .tick .lab {font-weight: bold; dominant-baseline: hanging}.axes, .tree {font-size: 14px; text-anchor: middle}.axes line, .edge {stroke: black; fill: none}.y-axis .grid {stroke: #FAFAFA}.node > .sym {fill: black; stroke: none}.site > .sym {stroke: black}.mut text {fill: red; font-style: italic}.mut.extra text {fill: hotpink}.mut line {fill: none; stroke: none}.mut .sym {fill: none; stroke: red}.mut.extra .sym {stroke: hotpink}.node .mut .sym {stroke-width: 1.5px}.tree text, .tree-sequence text {dominant-baseline: central}.plotbox .lab.lft {text-anchor: end}.plotbox .lab.rgt {text-anchor: start}]]></style></defs><g class="tree-sequence"><g class="background"><path d="M56.8,0 l311.6,0 l0,238.2 l-103.867,25 l0,5 l-207.733,0 l0,-5 l0,-25 l0,-238.2z" /><path d="M368.4,0 l311.6,0 l0,238.2 l0,25 l0,5 l-415.467,0 l0,-5 l103.867,-25 l0,-238.2z" /></g><g class="axes"><g class="x-axis"><g transform="translate(368.4 300)"><text class="lab" text-anchor="middle" transform="translate(0 -11)">Genome position</text></g><line x1="56.8" x2="680" y1="263.2" y2="263.2" /><g class="ticks"><g class="tick" transform="translate(56.8 263.2)"><line x1="0" x2="0" y1="0" y2="5" /><g transform="translate(0 6)"><text class="lab">51</text></g></g><g class="tick" transform="translate(264.533 263.2)"><line x1="0" x2="0" y1="0" y2="5" /><g transform="translate(0 6)"><text class="lab">53</text></g></g><g class="tick" transform="translate(680 263.2)"><line x1="0" x2="0" y1="0" y2="5" /><g transform="translate(0 6)"><text class="lab">57</text></g></g></g><g class="site s0" transform="translate(56.8 263.2)"><line class="sym" x1="0" x2="0" y1="0" y2="-10" /><g class="mut m0"><polyline class="sym" points="2.5,-6.5 0,-1.5 -2.5,-6.5" /></g></g><g class="site s1" transform="translate(160.667 263.2)"><line class="sym" x1="0" x2="0" y1="0" y2="-10" /><g class="mut m1"><polyline class="sym" points="2.5,-6.5 0,-1.5 -2.5,-6.5" /></g></g><g class="site s2" transform="translate(264.533 263.2)"><line class="sym" x1="0" x2="0" y1="0" y2="-10" /><g class="mut m2"><polyline class="sym" points="2.5,-6.5 0,-1.5 -2.5,-6.5" /></g></g><g class="site s3" transform="translate(368.4 263.2)"><line class="sym" x1="0" x2="0" y1="0" y2="-10" /><g class="mut m3"><polyline class="sym" points="2.5,-6.5 0,-1.5 -2.5,-6.5" /></g></g><g class="site s4" transform="translate(472.267 263.2)"><line class="sym" x1="0" x2="0" y1="0" y2="-10" /><g class="mut m4"><polyline class="sym" points="2.5,-6.5 0,-1.5 -2.5,-6.5" /></g></g><g class="site s5" transform="translate(576.133 263.2)"><line class="sym" x1="0" x2="0" y1="0" y2="-10" /><g class="mut m6"><polyline class="sym" points="2.5,-6.5 0,-1.5 -2.5,-6.5" /></g><g class="mut m5"><polyline class="sym" points="2.5,-10.5 0,-5.5 -2.5,-10.5" /></g></g></g><g class="y-axis"><g transform="translate(0 115.7)"><text class="lab" text-anchor="middle" transform="translate(11) rotate(-90)">Time (uncalibrated)</text></g><line x1="56.8" x2="56.8" y1="221.4" y2="10" /><g class="ticks"><g class="tick" transform="translate(56.8 221.4)"><line x1="0" x2="-5" y1="0" y2="0" /><g transform="translate(-6 0)"><text class="lab" text-anchor="end">0.00</text></g></g><g class="tick" transform="translate(56.8 134.911)"><line x1="0" x2="-5" y1="0" y2="0" /><g transform="translate(-6 0)"><text class="lab" text-anchor="end">0.40</text></g></g><g class="tick" transform="translate(56.8 91.6667)"><line x1="0" x2="-5" y1="0" y2="0" /><g transform="translate(-6 0)"><text class="lab" text-anchor="end">0.60</text></g></g><g class="tick" transform="translate(56.8 26.8)"><line x1="0" x2="-5" y1="0" y2="0" /><g transform="translate(-6 0)"><text class="lab" text-anchor="end">0.90</text></g></g></g></g></g><g class="plotbox trees"><g class="tree t1" transform="translate(56.8 0)"><g class="plotbox"><g class="c2 node n7 root" transform="translate(108.27 26.8)"><g class="a7 i0 leaf node n0 sample" transform="translate(-61.11 194.6)"><path class="edge" d="M 0 0 V -194.6 H 61.11" /><rect class="sym" height="6" width="6" x="-3" y="-3" /><text class="lab" transform="translate(0 11)">0</text></g><g class="a7 c3 node n6" transform="translate(61.11 64.8667)"><g class="a6 i1 leaf m0 node n1 s0 sample" transform="translate(-67.9 129.733)"><path class="edge" d="M 0 0 V -129.733 H 67.9" /><g class="mut m0 s0 unknown_time" transform="translate(0 -64.8667)"><line x1="0" x2="0" y1="0" y2="64.8667" /><path class="sym" d="M -3,-3 l 6,6 M -3,3 l 6,-6" /><text class="lab lft" transform="translate(-5 0)">0: T→A</text></g><rect class="sym" height="6" width="6" x="-3" y="-3" /><text class="lab" transform="translate(0 11)">1</text></g><g class="a6 i2 leaf node n2 sample" transform="translate(-13.58 129.733)"><path class="edge" d="M 0 0 V -129.733 H 13.58" /><rect class="sym" height="6" width="6" x="-3" y="-3" /><text class="lab" transform="translate(0 11)">2</text></g><g class="a6 c2 m1 node n5 s1" transform="translate(67.9 43.2444)"><g class="a5 i3 leaf node n3 sample" transform="translate(-27.16 86.4889)"><path class="edge" d="M 0 0 V -86.4889 H 27.16" /><rect class="sym" height="6" width="6" x="-3" y="-3" /><text class="lab" transform="translate(0 11)">3</text></g><g class="a5 i4 leaf node n4 sample" transform="translate(27.16 86.4889)"><path class="edge" d="M 0 0 V -86.4889 H -27.16" /><rect class="sym" height="6" width="6" x="-3" y="-3" /><text class="lab" transform="translate(0 11)">4</text></g><path class="edge" d="M 0 0 V -43.2444 H -67.9" /><g class="mut m1 s1 unknown_time" transform="translate(0 -21.6222)"><line x1="0" x2="0" y1="0" y2="21.6222" /><path class="sym" d="M -3,-3 l 6,6 M -3,3 l 6,-6" /><text class="lab rgt" transform="translate(5 0)">1: G→C</text></g><circle class="sym" cx="0" cy="0" r="3" /><text class="lab rgt" transform="translate(3 -7.0)">5</text></g><path class="edge" d="M 0 0 V -64.8667 H -61.11" /><circle class="sym" cx="0" cy="0" r="3" /><text class="lab rgt" transform="translate(3 -7.0)">6</text></g><circle class="sym" cx="0" cy="0" r="3" /><text class="lab" transform="translate(0 -11)">7</text></g></g></g><g class="tree t2" transform="translate(368.4 0)"><g class="plotbox"><g class="c3 node n8 root" transform="translate(155.8 26.8)"><g class="a8 i0 leaf m3 node n0 s3 sample" transform="translate(-108.64 194.6)"><path class="edge" d="M 0 0 V -194.6 H 108.64" /><g class="mut m3 s3 unknown_time" transform="translate(0 -97.3)"><line x1="0" x2="0" y1="0" y2="97.3" /><path class="sym" d="M -3,-3 l 6,6 M -3,3 l 6,-6" /><text class="lab lft" transform="translate(-5 0)">3: C→G</text></g><rect class="sym" height="6" width="6" x="-3" y="-3" /><text class="lab" transform="translate(0 11)">0</text></g><g class="a8 i4 leaf node n4 sample" transform="translate(108.64 194.6)"><path class="edge" d="M 0 0 V -194.6 H -108.64" /><rect class="sym" height="6" width="6" x="-3" y="-3" /><text class="lab" transform="translate(0 11)">4</text></g><g class="a8 c3 m2 m4 node n6 s2 s4" transform="translate(0.0 64.8667)"><g class="a6 i1 leaf m6 node n1 s5 sample" transform="translate(-54.32 129.733)"><path class="edge" d="M 0 0 V -129.733 H 54.32" /><g class="mut m6 s5 unknown_time" transform="translate(0 -64.8667)"><line x1="0" x2="0" y1="0" y2="64.8667" /><path class="sym" d="M -3,-3 l 6,6 M -3,3 l 6,-6" /><text class="lab lft" transform="translate(-5 0)">5: T→G</text></g><rect class="sym" height="6" width="6" x="-3" y="-3" /><text class="lab" transform="translate(0 11)">1</text></g><g class="a6 i2 leaf m5 node n2 s5 sample" transform="translate(0.0 129.733)"><path class="edge" d="M 0 0 V -129.733 H 0.0" /><g class="mut m5 s5 unknown_time" transform="translate(0 -64.8667)"><line x1="0" x2="0" y1="0" y2="64.8667" /><path class="sym" d="M -3,-3 l 6,6 M -3,3 l 6,-6" /><text class="lab rgt" transform="translate(5 0)">5: T→C</text></g><rect class="sym" height="6" width="6" x="-3" y="-3" /><text class="lab" transform="translate(0 11)">2</text></g><g class="a6 c1 node n5" transform="translate(54.32 43.2444)"><g class="a5 i3 leaf node n3 sample" transform="translate(0.0 86.4889)"><path class="edge" d="M 0 0 V -86.4889 H 0.0" /><rect class="sym" height="6" width="6" x="-3" y="-3" /><text class="lab" transform="translate(0 11)">3</text></g><path class="edge" d="M 0 0 V -43.2444 H -54.32" /><circle class="sym" cx="0" cy="0" r="3" /><text class="lab rgt" transform="translate(3 -7.0)">5</text></g><path class="edge" d="M 0 0 V -64.8667 H 0.0" /><g class="mut m2 s2 unknown_time" transform="translate(0 -43.2444)"><line x1="0" x2="0" y1="0" y2="43.2444" /><path class="sym" d="M -3,-3 l 6,6 M -3,3 l 6,-6" /><text class="lab rgt" transform="translate(5 0)">2: C→A</text></g><g class="mut m4 s4 unknown_time" transform="translate(0 -21.6222)"><line x1="0" x2="0" y1="0" y2="21.6222" /><path class="sym" d="M -3,-3 l 6,6 M -3,3 l 6,-6" /><text class="lab rgt" transform="translate(5 0)">4: A→C</text></g><circle class="sym" cx="0" cy="0" r="3" /><text class="lab rgt" transform="translate(3 -7.0)">6</text></g><circle class="sym" cx="0" cy="0" r="3" /><text class="lab" transform="translate(0 -11)">8</text></g></g></g></g></g></svg>